<svg width="116" height="105" viewBox="0 0 116 105" fill="none" xmlns="http://www.w3.org/2000/svg">
<path d="M69.3047 31.6111C64.6047 19.2111 59.8047 6.91113 58.7047 4.11113C57.6047 1.41113 57.2047 -0.488866 57.7047 0.111134C58.2047 0.711134 62.6047 7.81113 67.4047 16.1111C72.3047 24.3111 82.1047 41.2111 89.4047 53.6111C96.4336 65.7166 104.32 78.9657 107.017 83.4961L107.205 83.8111C109.805 88.1111 115.601 97.5225 115.601 97.8225C115.601 98.1225 108.509 95.4655 91.3095 88.8655L85.8047 74.1111C83.6047 68.6111 81.0047 61.9111 80.0047 59.1111C78.9047 56.4111 74.1047 44.0111 69.3047 31.6111Z" fill="#CDCDCD"/>
<path d="M73.6008 91.0225C81.9008 90.4225 89.2008 89.5225 89.9008 89.1225C90.6008 88.7225 92.4008 88.9225 93.9008 89.7225C95.4008 90.4225 99.1008 91.9225 102.101 92.9225C105.101 94.0225 109.401 95.6225 115.601 97.8225L109.601 98.5225C106.301 98.8225 90.1008 100.222 73.6008 101.622C57.1008 103.122 39.8008 104.422 35.1008 104.722C27.5008 105.222 25.2008 104.822 13.6008 101.722C6.50078 99.7225 0.400778 97.9225 0.100778 97.6225C-0.199222 97.3225 0.200778 96.1225 0.900778 94.8225C2.10078 92.6225 2.10078 92.6225 0.800778 97.6225L8.20078 96.9225C12.3008 96.5225 21.2008 95.7225 28.1008 95.1225C35.0008 94.5225 44.7008 93.6225 49.6008 93.1225C54.6008 92.6225 65.4008 91.7225 73.6008 91.0225Z" fill="#222021"/>
<path d="M50.0047 11.6217C52.4047 7.72168 54.9047 3.62169 55.7047 2.42168V2.32169C56.5047 1.12169 57.4047 0.121685 57.7047 0.121685C58.0047 0.121685 60.0047 4.72168 62.1047 10.3217C64.2047 16.0217 68.3047 26.7217 71.1047 34.1217C74.0047 41.5217 79.0047 54.6217 82.3047 63.1217C85.6047 71.6217 88.3095 81.4655 91.3095 88.8655L89.8047 89.1217C88.6047 89.6217 81.1047 90.5217 73.1047 91.1217C65.1047 91.7217 54.6047 92.6217 49.6047 93.1217C44.6047 93.6217 35.0047 94.5217 28.1047 95.1217C21.2047 95.7217 12.3047 96.5217 0.804688 97.6217L1.60469 95.1217C2.00469 93.7217 6.00469 86.5217 10.4047 79.1217C14.8047 71.7217 22.5047 58.6217 27.6047 50.1217C32.7047 41.6217 37.9047 32.6217 39.3047 30.1217C40.7047 27.6217 42.7047 24.0217 43.8047 22.1217C44.9047 20.2217 47.7047 15.4217 50.0047 11.6217Z" fill="#B1021E"/>
</svg>
