<svg width="161" height="161" viewBox="0 0 161 161" fill="none" xmlns="http://www.w3.org/2000/svg">
<path fill-rule="evenodd" clip-rule="evenodd" d="M70.4008 0.308705C44.1295 3.92799 21.8021 19.363 9.48672 42.4195C3.09951 54.3768 0.124283 66.5754 0.140693 80.7345C0.156261 93.7748 2.92447 105.475 8.64813 116.69C16.8939 132.846 29.8341 145.457 46.0874 153.177C53.9775 156.924 60.5309 158.911 69.2046 160.184C75.9591 161.176 89.3895 160.857 95.8339 159.552C113.712 155.932 130.367 146.089 141.856 132.354C159.975 110.694 165.518 82.1465 156.84 55.1826C154.908 49.1804 149.801 38.9776 146.25 34.0268C133.906 16.8137 117.029 5.76038 96.2778 1.29777C91.9284 0.362623 89.9748 0.192443 82.1822 0.0719688C77.2067 -0.00511792 71.905 0.101456 70.4008 0.308705ZM78.3095 31.1295C79.3488 31.6649 80.7398 32.7715 81.4004 33.5891C82.061 34.4063 87.9808 47.2006 94.5548 62.0206C101.319 77.2694 106.765 89.019 107.099 89.0873C107.424 89.1538 109.321 88.5249 111.313 87.69L114.936 86.1719L115.075 76.1957C115.204 66.9213 115.278 66.1011 116.123 64.5345C118.254 60.5837 121.298 58.6789 125.521 58.6536C128.776 58.6343 130.837 59.518 133.186 61.941C136.118 64.9651 136.084 64.5518 135.949 95.7584C135.816 126.598 136.008 124.565 132.942 127.635C130.771 129.808 128.665 130.669 125.521 130.669C121.366 130.669 118.203 128.69 116.13 124.794C115.297 123.229 115.209 122.339 115.075 114.096C114.942 105.936 114.864 105.127 114.229 105.343C113.844 105.474 111.881 106.158 109.866 106.864C102.423 109.472 94.3995 109.964 81.7615 108.586C65.9988 106.868 62.5788 107.014 57.0752 109.641C52.241 111.948 49.7076 114.882 45.3422 123.227C42.165 129.302 39.313 131.258 34.3741 130.752C28.892 130.189 24.9889 125.844 24.9675 120.278C24.957 117.596 25.0609 117.324 30.0095 107.08C31.9118 103.141 34.3699 98.023 35.4715 95.7062C36.573 93.3894 39.8899 86.4706 42.842 80.331C48.9498 67.6298 51.8872 61.4132 51.8872 61.1882C51.8872 61.0501 54.2641 56.0967 62.4105 39.2602C63.8512 36.2821 65.4472 33.6371 66.295 32.8224C69.4835 29.7592 74.3253 29.0768 78.3095 31.1295ZM130.671 31.3523C134.593 33.4893 136.257 37.0201 135.953 42.5585C135.733 46.5843 134.83 48.6741 132.339 50.9277C130.146 52.9105 128.157 53.5229 124.711 53.2761C118.995 52.8667 115.663 49.2474 115.129 42.8677C114.319 33.2011 122.687 27.0018 130.671 31.3523ZM69.7255 72.5684C62.2031 88.2515 60.7232 91.4235 60.8642 91.5646C60.9458 91.6463 61.8471 91.402 62.8666 91.0212C65.1126 90.1825 75.6688 89.7722 80.6044 90.3316C83.0338 90.6071 83.8653 90.5751 83.8653 90.2057C83.8653 89.6172 73.8052 66.8172 73.2952 66.2498C73.0962 66.0283 71.5474 68.7697 69.7255 72.5684Z" fill="#F5F5F5"/>
</svg>
