<svg width="484" height="332" viewBox="0 0 484 332" fill="none" xmlns="http://www.w3.org/2000/svg">
<mask id="path-1-outside-1_214_424" maskUnits="userSpaceOnUse" x="289.124" y="21.501" width="195" height="288" fill="black">
<rect fill="white" x="289.124" y="21.501" width="195" height="288"/>
<path fill-rule="evenodd" clip-rule="evenodd" d="M432.416 73.501C381.445 73.5012 340.124 114.822 340.124 165.794C340.124 216.765 381.445 258.086 432.416 258.086V257.086C381.997 257.086 341.124 216.213 341.124 165.794C341.124 115.374 381.997 74.5012 432.416 74.501V73.501Z"/>
</mask>
<path fill-rule="evenodd" clip-rule="evenodd" d="M432.416 73.501C381.445 73.5012 340.124 114.822 340.124 165.794C340.124 216.765 381.445 258.086 432.416 258.086V257.086C381.997 257.086 341.124 216.213 341.124 165.794C341.124 115.374 381.997 74.5012 432.416 74.501V73.501Z" fill="#F5F5F5"/>
<path d="M432.416 73.501L483.416 73.501V22.5007L432.416 22.501L432.416 73.501ZM432.416 258.086L432.416 309.086L483.416 309.086V258.086H432.416ZM432.416 257.086H483.416V206.086L432.416 206.086L432.416 257.086ZM432.416 74.501L432.416 125.501L483.416 125.501V74.501L432.416 74.501ZM432.416 22.501C353.278 22.5014 289.124 86.6555 289.124 165.794H391.124C391.124 142.988 409.611 124.501 432.416 124.501L432.416 22.501ZM289.124 165.794C289.124 244.932 353.278 309.086 432.416 309.086L432.416 207.086C409.611 207.086 391.124 188.599 391.124 165.794H289.124ZM483.416 258.086V257.086H381.416V258.086H483.416ZM290.124 165.794C290.124 244.379 353.83 308.086 432.416 308.086L432.416 206.086C410.164 206.086 392.124 188.046 392.124 165.794H290.124ZM432.416 23.501C353.83 23.5014 290.124 87.2078 290.124 165.794H392.124C392.124 143.541 410.164 125.501 432.416 125.501L432.416 23.501ZM483.416 74.501V73.501L381.416 73.501V74.501L483.416 74.501Z" fill="#F5F5F5" mask="url(#path-1-outside-1_214_424)"/>
<mask id="path-3-outside-2_214_424" maskUnits="userSpaceOnUse" x="98.0019" y="0.219719" width="287" height="173" fill="black">
<rect fill="white" x="98.0019" y="0.219719" width="287" height="173"/>
<path fill-rule="evenodd" clip-rule="evenodd" d="M334.002 121.764C334.002 121.764 334.002 121.763 334.002 121.763C334.002 82.8031 292.681 51.2197 241.709 51.2197C190.738 51.2197 149.417 82.8031 149.417 121.763C149.417 121.763 149.417 121.764 149.417 121.764L150.417 121.764C150.417 121.764 150.417 121.763 150.417 121.763C150.417 102.66 160.544 85.2964 177.056 72.6759C193.568 60.0548 216.423 52.2197 241.709 52.2197C266.995 52.2197 289.85 60.0548 306.363 72.6759C322.874 85.2964 333.002 102.66 333.002 121.763C333.002 121.763 333.002 121.764 333.002 121.764L334.002 121.764Z"/>
</mask>
<path fill-rule="evenodd" clip-rule="evenodd" d="M334.002 121.764C334.002 121.764 334.002 121.763 334.002 121.763C334.002 82.8031 292.681 51.2197 241.709 51.2197C190.738 51.2197 149.417 82.8031 149.417 121.763C149.417 121.763 149.417 121.764 149.417 121.764L150.417 121.764C150.417 121.764 150.417 121.763 150.417 121.763C150.417 102.66 160.544 85.2964 177.056 72.6759C193.568 60.0548 216.423 52.2197 241.709 52.2197C266.995 52.2197 289.85 60.0548 306.363 72.6759C322.874 85.2964 333.002 102.66 333.002 121.763C333.002 121.763 333.002 121.764 333.002 121.764L334.002 121.764Z" fill="#F5F5F5"/>
<path d="M334.002 121.764L334.002 172.764L385.002 172.764L385.002 121.764L334.002 121.764ZM149.417 121.764L98.4168 121.764L98.4168 172.764L149.417 172.764L149.417 121.764ZM150.417 121.764L150.417 172.764L201.417 172.764L201.417 121.764L150.417 121.764ZM177.056 72.6759L146.085 32.1567L146.085 32.1567L177.056 72.6759ZM306.363 72.6759L275.392 113.195L275.392 113.195L306.363 72.6759ZM333.002 121.764L282.002 121.764L282.002 172.764L333.002 172.764L333.002 121.764ZM385.002 121.764L385.002 121.763L283.002 121.763L283.002 121.764L385.002 121.764ZM385.002 121.763C385.002 83.0453 364.344 51.5433 337.941 31.3622C311.584 11.2165 277.392 0.219725 241.709 0.219723L241.709 102.22C256.999 102.22 268.953 107.015 275.999 112.401C283 117.751 283.002 121.521 283.002 121.763L385.002 121.763ZM241.709 0.219723C206.027 0.219722 171.835 11.2165 145.478 31.3622C119.075 51.5433 98.4168 83.0453 98.4168 121.763L200.417 121.763C200.417 121.521 200.419 117.751 207.419 112.401C214.466 107.015 226.42 102.22 241.709 102.22L241.709 0.219723ZM98.4168 121.763C98.4168 121.763 98.4168 121.763 98.4168 121.763C98.4168 121.763 98.4168 121.763 98.4168 121.763L98.4168 121.763L98.4168 121.763C98.4168 121.763 98.4168 121.763 98.4168 121.763C98.4168 121.763 98.4168 121.763 98.4168 121.763C98.4168 121.763 98.4168 121.763 98.4168 121.763C98.4168 121.763 98.4168 121.763 98.4168 121.763L98.4168 121.763C98.4168 121.763 98.4168 121.763 98.4168 121.763C98.4168 121.763 98.4168 121.763 98.4168 121.763C98.4168 121.763 98.4168 121.763 98.4168 121.763L98.4168 121.763C98.4168 121.763 98.4168 121.763 98.4168 121.763C98.4168 121.763 98.4168 121.763 98.4168 121.763C98.4168 121.763 98.4168 121.763 98.4168 121.763L98.4168 121.763C98.4168 121.763 98.4168 121.763 98.4168 121.763C98.4168 121.763 98.4168 121.763 98.4168 121.763L98.4168 121.763C98.4168 121.763 98.4168 121.763 98.4168 121.763C98.4168 121.763 98.4168 121.763 98.4168 121.763C98.4168 121.763 98.4168 121.763 98.4168 121.763L98.4168 121.763C98.4168 121.763 98.4168 121.763 98.4168 121.763C98.4168 121.763 98.4168 121.763 98.4168 121.763L98.4168 121.763C98.4168 121.763 98.4168 121.763 98.4168 121.763C98.4168 121.763 98.4168 121.763 98.4168 121.763L98.4168 121.763C98.4168 121.763 98.4168 121.763 98.4168 121.763C98.4168 121.763 98.4168 121.763 98.4168 121.763L98.4168 121.764C98.4168 121.764 98.4168 121.764 98.4168 121.764C98.4168 121.764 98.4168 121.764 98.4168 121.764L98.4168 121.764C98.4168 121.764 98.4168 121.764 98.4168 121.764C98.4168 121.764 98.4168 121.764 98.4168 121.764L98.4168 121.764C98.4168 121.764 98.4168 121.764 98.4168 121.764C98.4168 121.764 98.4168 121.764 98.4168 121.764C98.4168 121.764 98.4168 121.764 98.4168 121.764L98.4168 121.764C98.4168 121.764 98.4168 121.764 98.4168 121.764C98.4168 121.764 98.4168 121.764 98.4168 121.764L98.4168 121.764C98.4168 121.764 98.4168 121.764 98.4168 121.764C98.4168 121.764 98.4168 121.764 98.4168 121.764C98.4168 121.764 98.4168 121.764 98.4168 121.764L98.4168 121.764C98.4168 121.764 98.4168 121.764 98.4168 121.764C98.4168 121.764 98.4168 121.764 98.4168 121.764C98.4168 121.764 98.4168 121.764 98.4168 121.764L98.4168 121.764C98.4168 121.764 98.4168 121.764 98.4168 121.764C98.4168 121.764 98.4168 121.764 98.4168 121.764C98.4168 121.764 98.4168 121.764 98.4168 121.764C98.4168 121.764 98.4168 121.764 98.4168 121.764L98.4168 121.764L98.4168 121.764C98.4168 121.764 98.4168 121.764 98.4168 121.764C98.4168 121.764 98.4168 121.764 98.4168 121.764L200.417 121.764C200.417 121.764 200.417 121.764 200.417 121.764C200.417 121.764 200.417 121.764 200.417 121.764L200.417 121.764L200.417 121.764C200.417 121.764 200.417 121.764 200.417 121.764C200.417 121.764 200.417 121.764 200.417 121.764C200.417 121.764 200.417 121.764 200.417 121.764C200.417 121.764 200.417 121.764 200.417 121.764L200.417 121.764C200.417 121.764 200.417 121.764 200.417 121.764C200.417 121.764 200.417 121.764 200.417 121.764C200.417 121.764 200.417 121.764 200.417 121.764L200.417 121.764C200.417 121.764 200.417 121.764 200.417 121.764C200.417 121.764 200.417 121.764 200.417 121.764C200.417 121.764 200.417 121.764 200.417 121.764L200.417 121.764C200.417 121.764 200.417 121.764 200.417 121.764C200.417 121.764 200.417 121.764 200.417 121.764L200.417 121.764C200.417 121.764 200.417 121.764 200.417 121.764C200.417 121.764 200.417 121.764 200.417 121.764C200.417 121.764 200.417 121.764 200.417 121.764L200.417 121.764C200.417 121.764 200.417 121.764 200.417 121.764C200.417 121.764 200.417 121.764 200.417 121.764L200.417 121.764C200.417 121.764 200.417 121.764 200.417 121.764C200.417 121.764 200.417 121.764 200.417 121.764L200.417 121.763C200.417 121.763 200.417 121.763 200.417 121.763C200.417 121.763 200.417 121.763 200.417 121.763L200.417 121.763C200.417 121.763 200.417 121.763 200.417 121.763C200.417 121.763 200.417 121.763 200.417 121.763L200.417 121.763C200.417 121.763 200.417 121.763 200.417 121.763C200.417 121.763 200.417 121.763 200.417 121.763L200.417 121.763C200.417 121.763 200.417 121.763 200.417 121.763C200.417 121.763 200.417 121.763 200.417 121.763C200.417 121.763 200.417 121.763 200.417 121.763L200.417 121.763C200.417 121.763 200.417 121.763 200.417 121.763C200.417 121.763 200.417 121.763 200.417 121.763L200.417 121.763C200.417 121.763 200.417 121.763 200.417 121.763C200.417 121.763 200.417 121.763 200.417 121.763C200.417 121.763 200.417 121.763 200.417 121.763L200.417 121.763C200.417 121.763 200.417 121.763 200.417 121.763C200.417 121.763 200.417 121.763 200.417 121.763C200.417 121.763 200.417 121.763 200.417 121.763L200.417 121.763C200.417 121.763 200.417 121.763 200.417 121.763C200.417 121.763 200.417 121.763 200.417 121.763C200.417 121.763 200.417 121.763 200.417 121.763C200.417 121.763 200.417 121.763 200.417 121.763L200.417 121.763L200.417 121.763C200.417 121.763 200.417 121.763 200.417 121.763C200.417 121.763 200.417 121.763 200.417 121.763L98.4168 121.763ZM149.417 172.764L150.417 172.764L150.417 70.7637L149.417 70.7637L149.417 172.764ZM99.4168 121.763C99.4168 121.763 99.4168 121.763 99.4168 121.763C99.4168 121.763 99.4168 121.763 99.4168 121.763L99.4168 121.763L99.4168 121.763C99.4168 121.763 99.4168 121.763 99.4168 121.763C99.4168 121.763 99.4168 121.763 99.4168 121.763C99.4168 121.763 99.4168 121.763 99.4168 121.763C99.4168 121.763 99.4168 121.763 99.4168 121.763L99.4168 121.763C99.4168 121.763 99.4168 121.763 99.4168 121.763C99.4168 121.763 99.4168 121.763 99.4168 121.763C99.4168 121.763 99.4168 121.763 99.4168 121.763L99.4168 121.763C99.4168 121.763 99.4168 121.763 99.4168 121.763C99.4168 121.763 99.4168 121.763 99.4168 121.763C99.4168 121.763 99.4168 121.763 99.4168 121.763L99.4168 121.763C99.4168 121.763 99.4168 121.763 99.4168 121.763C99.4168 121.763 99.4168 121.763 99.4168 121.763L99.4168 121.763C99.4168 121.763 99.4168 121.763 99.4168 121.763C99.4168 121.763 99.4168 121.763 99.4168 121.763C99.4168 121.763 99.4168 121.763 99.4168 121.763L99.4168 121.763C99.4168 121.763 99.4168 121.763 99.4168 121.763C99.4168 121.763 99.4168 121.763 99.4168 121.763L99.4168 121.763C99.4168 121.763 99.4168 121.763 99.4168 121.763C99.4168 121.763 99.4168 121.763 99.4168 121.763L99.4168 121.763C99.4168 121.763 99.4168 121.763 99.4168 121.763C99.4168 121.763 99.4168 121.763 99.4168 121.763L99.4168 121.764C99.4168 121.764 99.4168 121.764 99.4168 121.764C99.4168 121.764 99.4168 121.764 99.4168 121.764L99.4168 121.764C99.4168 121.764 99.4168 121.764 99.4168 121.764C99.4168 121.764 99.4168 121.764 99.4168 121.764L99.4168 121.764C99.4168 121.764 99.4168 121.764 99.4168 121.764C99.4168 121.764 99.4168 121.764 99.4168 121.764C99.4168 121.764 99.4168 121.764 99.4168 121.764L99.4168 121.764C99.4168 121.764 99.4168 121.764 99.4168 121.764C99.4168 121.764 99.4168 121.764 99.4168 121.764L99.4168 121.764C99.4168 121.764 99.4168 121.764 99.4168 121.764C99.4168 121.764 99.4168 121.764 99.4168 121.764C99.4168 121.764 99.4168 121.764 99.4168 121.764L99.4168 121.764C99.4168 121.764 99.4168 121.764 99.4168 121.764C99.4168 121.764 99.4168 121.764 99.4168 121.764C99.4168 121.764 99.4168 121.764 99.4168 121.764L99.4168 121.764C99.4168 121.764 99.4168 121.764 99.4168 121.764C99.4168 121.764 99.4168 121.764 99.4168 121.764C99.4168 121.764 99.4168 121.764 99.4168 121.764C99.4168 121.764 99.4168 121.764 99.4168 121.764L99.4168 121.764L99.4168 121.764C99.4168 121.764 99.4168 121.764 99.4168 121.764C99.4168 121.764 99.4168 121.764 99.4168 121.764L201.417 121.764C201.417 121.764 201.417 121.764 201.417 121.764C201.417 121.764 201.417 121.764 201.417 121.764L201.417 121.764L201.417 121.764C201.417 121.764 201.417 121.764 201.417 121.764C201.417 121.764 201.417 121.764 201.417 121.764C201.417 121.764 201.417 121.764 201.417 121.764C201.417 121.764 201.417 121.764 201.417 121.764L201.417 121.764C201.417 121.764 201.417 121.764 201.417 121.764C201.417 121.764 201.417 121.764 201.417 121.764C201.417 121.764 201.417 121.764 201.417 121.764L201.417 121.764C201.417 121.764 201.417 121.764 201.417 121.764C201.417 121.764 201.417 121.764 201.417 121.764C201.417 121.764 201.417 121.764 201.417 121.764L201.417 121.764C201.417 121.764 201.417 121.764 201.417 121.764C201.417 121.764 201.417 121.764 201.417 121.764L201.417 121.764C201.417 121.764 201.417 121.764 201.417 121.764C201.417 121.764 201.417 121.764 201.417 121.764C201.417 121.764 201.417 121.764 201.417 121.764L201.417 121.764C201.417 121.764 201.417 121.764 201.417 121.764C201.417 121.764 201.417 121.764 201.417 121.764L201.417 121.764C201.417 121.764 201.417 121.764 201.417 121.764C201.417 121.764 201.417 121.764 201.417 121.764L201.417 121.763C201.417 121.763 201.417 121.763 201.417 121.763C201.417 121.763 201.417 121.763 201.417 121.763L201.417 121.763C201.417 121.763 201.417 121.763 201.417 121.763C201.417 121.763 201.417 121.763 201.417 121.763L201.417 121.763C201.417 121.763 201.417 121.763 201.417 121.763C201.417 121.763 201.417 121.763 201.417 121.763L201.417 121.763C201.417 121.763 201.417 121.763 201.417 121.763C201.417 121.763 201.417 121.763 201.417 121.763C201.417 121.763 201.417 121.763 201.417 121.763L201.417 121.763C201.417 121.763 201.417 121.763 201.417 121.763C201.417 121.763 201.417 121.763 201.417 121.763L201.417 121.763C201.417 121.763 201.417 121.763 201.417 121.763C201.417 121.763 201.417 121.763 201.417 121.763C201.417 121.763 201.417 121.763 201.417 121.763L201.417 121.763C201.417 121.763 201.417 121.763 201.417 121.763C201.417 121.763 201.417 121.763 201.417 121.763C201.417 121.763 201.417 121.763 201.417 121.763L201.417 121.763C201.417 121.763 201.417 121.763 201.417 121.763C201.417 121.763 201.417 121.763 201.417 121.763C201.417 121.763 201.417 121.763 201.417 121.763C201.417 121.763 201.417 121.763 201.417 121.763L201.417 121.763L201.417 121.763C201.417 121.763 201.417 121.763 201.417 121.763C201.417 121.763 201.417 121.763 201.417 121.763L99.4168 121.763ZM146.085 32.1567C119.868 52.1954 99.4168 83.4266 99.4168 121.763L201.417 121.763C201.417 121.459 201.45 120.78 202.169 119.479C202.961 118.048 204.681 115.753 208.027 113.195L146.085 32.1567ZM241.709 1.21972C206.227 1.21972 172.252 12.1559 146.085 32.1567L208.027 113.195C214.884 107.954 226.62 103.22 241.709 103.22L241.709 1.21972ZM337.334 32.1567C311.166 12.1559 277.192 1.21972 241.709 1.21972L241.709 103.22C256.799 103.22 268.534 107.954 275.392 113.195L337.334 32.1567ZM384.002 121.763C384.002 83.4266 363.55 52.1954 337.334 32.1567L275.392 113.195C278.738 115.753 280.457 118.048 281.249 119.479C281.969 120.78 282.002 121.459 282.002 121.763L384.002 121.763ZM384.002 121.764C384.002 121.764 384.002 121.764 384.002 121.764C384.002 121.764 384.002 121.764 384.002 121.764L384.002 121.764L384.002 121.764C384.002 121.764 384.002 121.764 384.002 121.764C384.002 121.764 384.002 121.764 384.002 121.764C384.002 121.764 384.002 121.764 384.002 121.764C384.002 121.764 384.002 121.764 384.002 121.764L384.002 121.764C384.002 121.764 384.002 121.764 384.002 121.764C384.002 121.764 384.002 121.764 384.002 121.764C384.002 121.764 384.002 121.764 384.002 121.764L384.002 121.764C384.002 121.764 384.002 121.764 384.002 121.764C384.002 121.764 384.002 121.764 384.002 121.764C384.002 121.764 384.002 121.764 384.002 121.764L384.002 121.764C384.002 121.764 384.002 121.764 384.002 121.764C384.002 121.764 384.002 121.764 384.002 121.764L384.002 121.764C384.002 121.764 384.002 121.764 384.002 121.764C384.002 121.764 384.002 121.764 384.002 121.764C384.002 121.764 384.002 121.764 384.002 121.764L384.002 121.764C384.002 121.764 384.002 121.764 384.002 121.764C384.002 121.764 384.002 121.764 384.002 121.764L384.002 121.764C384.002 121.764 384.002 121.764 384.002 121.764C384.002 121.764 384.002 121.764 384.002 121.764L384.002 121.764C384.002 121.764 384.002 121.764 384.002 121.763C384.002 121.763 384.002 121.763 384.002 121.763L384.002 121.763C384.002 121.763 384.002 121.763 384.002 121.763C384.002 121.763 384.002 121.763 384.002 121.763L384.002 121.763C384.002 121.763 384.002 121.763 384.002 121.763C384.002 121.763 384.002 121.763 384.002 121.763L384.002 121.763C384.002 121.763 384.002 121.763 384.002 121.763C384.002 121.763 384.002 121.763 384.002 121.763C384.002 121.763 384.002 121.763 384.002 121.763L384.002 121.763C384.002 121.763 384.002 121.763 384.002 121.763C384.002 121.763 384.002 121.763 384.002 121.763L384.002 121.763C384.002 121.763 384.002 121.763 384.002 121.763C384.002 121.763 384.002 121.763 384.002 121.763C384.002 121.763 384.002 121.763 384.002 121.763L384.002 121.763C384.002 121.763 384.002 121.763 384.002 121.763C384.002 121.763 384.002 121.763 384.002 121.763C384.002 121.763 384.002 121.763 384.002 121.763L384.002 121.763C384.002 121.763 384.002 121.763 384.002 121.763C384.002 121.763 384.002 121.763 384.002 121.763C384.002 121.763 384.002 121.763 384.002 121.763C384.002 121.763 384.002 121.763 384.002 121.763L384.002 121.763L384.002 121.763C384.002 121.763 384.002 121.763 384.002 121.763C384.002 121.763 384.002 121.763 384.002 121.763L282.002 121.763C282.002 121.763 282.002 121.763 282.002 121.763C282.002 121.763 282.002 121.763 282.002 121.763L282.002 121.763L282.002 121.763C282.002 121.763 282.002 121.763 282.002 121.763C282.002 121.763 282.002 121.763 282.002 121.763C282.002 121.763 282.002 121.763 282.002 121.763C282.002 121.763 282.002 121.763 282.002 121.763L282.002 121.763C282.002 121.763 282.002 121.763 282.002 121.763C282.002 121.763 282.002 121.763 282.002 121.763C282.002 121.763 282.002 121.763 282.002 121.763L282.002 121.763C282.002 121.763 282.002 121.763 282.002 121.763C282.002 121.763 282.002 121.763 282.002 121.763C282.002 121.763 282.002 121.763 282.002 121.763L282.002 121.763C282.002 121.763 282.002 121.763 282.002 121.763C282.002 121.763 282.002 121.763 282.002 121.763L282.002 121.763C282.002 121.763 282.002 121.763 282.002 121.763C282.002 121.763 282.002 121.763 282.002 121.763C282.002 121.763 282.002 121.763 282.002 121.763L282.002 121.763C282.002 121.763 282.002 121.763 282.002 121.763C282.002 121.763 282.002 121.763 282.002 121.763L282.002 121.763C282.002 121.763 282.002 121.763 282.002 121.763C282.002 121.763 282.002 121.763 282.002 121.763L282.002 121.763C282.002 121.763 282.002 121.763 282.002 121.763C282.002 121.764 282.002 121.764 282.002 121.764L282.002 121.764C282.002 121.764 282.002 121.764 282.002 121.764C282.002 121.764 282.002 121.764 282.002 121.764L282.002 121.764C282.002 121.764 282.002 121.764 282.002 121.764C282.002 121.764 282.002 121.764 282.002 121.764L282.002 121.764C282.002 121.764 282.002 121.764 282.002 121.764C282.002 121.764 282.002 121.764 282.002 121.764C282.002 121.764 282.002 121.764 282.002 121.764L282.002 121.764C282.002 121.764 282.002 121.764 282.002 121.764C282.002 121.764 282.002 121.764 282.002 121.764L282.002 121.764C282.002 121.764 282.002 121.764 282.002 121.764C282.002 121.764 282.002 121.764 282.002 121.764C282.002 121.764 282.002 121.764 282.002 121.764L282.002 121.764C282.002 121.764 282.002 121.764 282.002 121.764C282.002 121.764 282.002 121.764 282.002 121.764C282.002 121.764 282.002 121.764 282.002 121.764L282.002 121.764C282.002 121.764 282.002 121.764 282.002 121.764C282.002 121.764 282.002 121.764 282.002 121.764C282.002 121.764 282.002 121.764 282.002 121.764C282.002 121.764 282.002 121.764 282.002 121.764L282.002 121.764L282.002 121.764C282.002 121.764 282.002 121.764 282.002 121.764C282.002 121.764 282.002 121.764 282.002 121.764L384.002 121.764ZM333.002 172.764L334.002 172.764L334.002 70.7637L333.002 70.7637L333.002 172.764Z" fill="#F5F5F5" mask="url(#path-3-outside-2_214_424)"/>
<mask id="path-5-outside-3_214_424" maskUnits="userSpaceOnUse" x="98.418" y="158.364" width="287" height="173" fill="black">
<rect fill="white" x="98.418" y="158.364" width="287" height="173"/>
<path fill-rule="evenodd" clip-rule="evenodd" d="M149.418 209.82C149.418 209.82 149.418 209.821 149.418 209.821C149.418 248.781 190.739 280.364 241.711 280.364C292.682 280.364 334.003 248.781 334.003 209.821C334.003 209.758 334.003 209.695 334.003 209.633L334.003 209.82L333.003 209.82C333.003 209.82 333.003 209.821 333.003 209.821C333.003 228.924 322.875 246.288 306.364 258.908C289.852 271.529 266.997 279.364 241.711 279.364C216.425 279.364 193.569 271.529 177.057 258.908C160.546 246.288 150.418 228.924 150.418 209.821C150.418 209.821 150.418 209.82 150.418 209.82L149.418 209.82Z"/>
</mask>
<path fill-rule="evenodd" clip-rule="evenodd" d="M149.418 209.82C149.418 209.82 149.418 209.821 149.418 209.821C149.418 248.781 190.739 280.364 241.711 280.364C292.682 280.364 334.003 248.781 334.003 209.821C334.003 209.758 334.003 209.695 334.003 209.633L334.003 209.82L333.003 209.82C333.003 209.82 333.003 209.821 333.003 209.821C333.003 228.924 322.875 246.288 306.364 258.908C289.852 271.529 266.997 279.364 241.711 279.364C216.425 279.364 193.569 271.529 177.057 258.908C160.546 246.288 150.418 228.924 150.418 209.821C150.418 209.821 150.418 209.82 150.418 209.82L149.418 209.82Z" fill="#F5F5F5"/>
<path d="M149.418 209.82L149.418 158.82L98.418 158.82L98.418 209.82L149.418 209.82ZM334.003 209.633L385.003 209.459L283.003 209.633L334.003 209.633ZM334.003 209.82L334.003 260.82L385.003 260.82L385.003 209.82L334.003 209.82ZM333.003 209.82L333.003 158.82L282.003 158.82L282.003 209.82L333.003 209.82ZM306.364 258.908L337.335 299.427L337.335 299.427L306.364 258.908ZM177.057 258.908L208.028 218.389L208.028 218.389L177.057 258.908ZM150.418 209.82L201.418 209.82L201.418 158.82L150.418 158.82L150.418 209.82ZM98.418 209.82L98.418 209.821L200.418 209.821L200.418 209.82L98.418 209.82ZM98.418 209.821C98.418 248.539 119.076 280.041 145.479 300.222C171.836 320.367 206.028 331.364 241.711 331.364L241.711 229.364C226.421 229.364 214.467 224.569 207.421 219.183C200.42 213.833 200.418 210.063 200.418 209.821L98.418 209.821ZM241.711 331.364C277.393 331.364 311.585 320.367 337.942 300.222C364.345 280.041 385.003 248.539 385.003 209.821L283.003 209.821C283.003 210.063 283.001 213.833 276.001 219.183C268.954 224.569 257 229.364 241.711 229.364L241.711 331.364ZM385.003 209.821C385.003 209.7 385.003 209.579 385.003 209.459L283.003 209.807C283.003 209.811 283.003 209.816 283.003 209.821L385.003 209.821ZM283.003 209.633L283.003 209.82L385.003 209.82L385.003 209.633L283.003 209.633ZM334.003 158.82L333.003 158.82L333.003 260.82L334.003 260.82L334.003 158.82ZM384.003 209.821C384.003 209.821 384.003 209.821 384.003 209.821C384.003 209.821 384.003 209.821 384.003 209.821C384.003 209.821 384.003 209.821 384.003 209.821L384.003 209.821L384.003 209.821L384.003 209.821L384.003 209.821L384.003 209.821C384.003 209.821 384.003 209.821 384.003 209.821C384.003 209.821 384.003 209.821 384.003 209.821C384.003 209.821 384.003 209.821 384.003 209.821C384.003 209.821 384.003 209.821 384.003 209.821C384.003 209.821 384.003 209.821 384.003 209.821C384.003 209.821 384.003 209.821 384.003 209.821C384.003 209.821 384.003 209.821 384.003 209.821C384.003 209.821 384.003 209.821 384.003 209.821C384.003 209.821 384.003 209.821 384.003 209.821C384.003 209.821 384.003 209.821 384.003 209.821C384.003 209.821 384.003 209.821 384.003 209.821L384.003 209.821L384.003 209.821L384.003 209.821L384.003 209.821L384.003 209.821L384.003 209.821L384.003 209.821C384.003 209.821 384.003 209.821 384.003 209.821C384.003 209.821 384.003 209.821 384.003 209.821C384.003 209.821 384.003 209.821 384.003 209.821C384.003 209.82 384.003 209.82 384.003 209.82C384.003 209.82 384.003 209.82 384.003 209.82C384.003 209.82 384.003 209.82 384.003 209.82C384.003 209.82 384.003 209.82 384.003 209.82C384.003 209.82 384.003 209.82 384.003 209.82C384.003 209.82 384.003 209.82 384.003 209.82C384.003 209.82 384.003 209.82 384.003 209.82C384.003 209.82 384.003 209.82 384.003 209.82C384.003 209.82 384.003 209.82 384.003 209.82L384.003 209.82L384.003 209.82L384.003 209.82L384.003 209.82L384.003 209.82L384.003 209.82L384.003 209.82C384.003 209.82 384.003 209.82 384.003 209.82C384.003 209.82 384.003 209.82 384.003 209.82C384.003 209.82 384.003 209.82 384.003 209.82C384.003 209.82 384.003 209.82 384.003 209.82C384.003 209.82 384.003 209.82 384.003 209.82C384.003 209.82 384.003 209.82 384.003 209.82C384.003 209.82 384.003 209.82 384.003 209.82C384.003 209.82 384.003 209.82 384.003 209.82C384.003 209.82 384.003 209.82 384.003 209.82C384.003 209.82 384.003 209.82 384.003 209.82C384.003 209.82 384.003 209.82 384.003 209.82L384.003 209.82L384.003 209.82L384.003 209.82L384.003 209.82L384.003 209.82C384.003 209.82 384.003 209.82 384.003 209.82C384.003 209.82 384.003 209.82 384.003 209.82C384.003 209.82 384.003 209.82 384.003 209.82L282.003 209.82C282.003 209.82 282.003 209.82 282.003 209.82C282.003 209.82 282.003 209.82 282.003 209.82C282.003 209.82 282.003 209.82 282.003 209.82L282.003 209.82L282.003 209.82L282.003 209.82L282.003 209.82L282.003 209.82C282.003 209.82 282.003 209.82 282.003 209.82C282.003 209.82 282.003 209.82 282.003 209.82C282.003 209.82 282.003 209.82 282.003 209.82C282.003 209.82 282.003 209.82 282.003 209.82C282.003 209.82 282.003 209.82 282.003 209.82C282.003 209.82 282.003 209.82 282.003 209.82C282.003 209.82 282.003 209.82 282.003 209.82C282.003 209.82 282.003 209.82 282.003 209.82C282.003 209.82 282.003 209.82 282.003 209.82C282.003 209.82 282.003 209.82 282.003 209.82C282.003 209.82 282.003 209.82 282.003 209.82L282.003 209.82L282.003 209.82L282.003 209.82L282.003 209.82L282.003 209.82L282.003 209.82L282.003 209.82C282.003 209.82 282.003 209.82 282.003 209.82C282.003 209.82 282.003 209.82 282.003 209.82C282.003 209.82 282.003 209.82 282.003 209.82C282.003 209.82 282.003 209.82 282.003 209.82C282.003 209.82 282.003 209.82 282.003 209.82C282.003 209.82 282.003 209.82 282.003 209.82C282.003 209.82 282.003 209.82 282.003 209.82C282.003 209.82 282.003 209.82 282.003 209.82C282.003 209.82 282.003 209.82 282.003 209.821C282.003 209.821 282.003 209.821 282.003 209.821C282.003 209.821 282.003 209.821 282.003 209.821C282.003 209.821 282.003 209.821 282.003 209.821L282.003 209.821L282.003 209.821L282.003 209.821L282.003 209.821L282.003 209.821L282.003 209.821L282.003 209.821C282.003 209.821 282.003 209.821 282.003 209.821C282.003 209.821 282.003 209.821 282.003 209.821C282.003 209.821 282.003 209.821 282.003 209.821C282.003 209.821 282.003 209.821 282.003 209.821C282.003 209.821 282.003 209.821 282.003 209.821C282.003 209.821 282.003 209.821 282.003 209.821C282.003 209.821 282.003 209.821 282.003 209.821C282.003 209.821 282.003 209.821 282.003 209.821C282.003 209.821 282.003 209.821 282.003 209.821C282.003 209.821 282.003 209.821 282.003 209.821C282.003 209.821 282.003 209.821 282.003 209.821L282.003 209.821L282.003 209.821L282.003 209.821L282.003 209.821L282.003 209.821C282.003 209.821 282.003 209.821 282.003 209.821C282.003 209.821 282.003 209.821 282.003 209.821C282.003 209.821 282.003 209.821 282.003 209.821L384.003 209.821ZM337.335 299.427C363.552 279.389 384.003 248.157 384.003 209.821L282.003 209.821C282.003 210.125 281.97 210.804 281.251 212.105C280.459 213.536 278.739 215.831 275.393 218.389L337.335 299.427ZM241.711 330.364C277.193 330.364 311.168 319.428 337.335 299.427L275.393 218.389C268.536 223.63 256.8 228.364 241.711 228.364L241.711 330.364ZM146.086 299.427C172.253 319.428 206.228 330.364 241.711 330.364L241.711 228.364C226.621 228.364 214.886 223.63 208.028 218.389L146.086 299.427ZM99.418 209.821C99.418 248.157 119.87 279.389 146.086 299.427L208.028 218.389C204.682 215.831 202.962 213.536 202.171 212.105C201.451 210.804 201.418 210.125 201.418 209.821L99.418 209.821ZM99.418 209.82C99.418 209.82 99.418 209.82 99.418 209.82C99.418 209.82 99.418 209.82 99.418 209.82C99.418 209.82 99.418 209.82 99.418 209.82L99.418 209.82L99.418 209.82L99.418 209.82L99.418 209.82L99.418 209.82C99.418 209.82 99.418 209.82 99.418 209.82C99.418 209.82 99.418 209.82 99.418 209.82C99.418 209.82 99.418 209.82 99.418 209.82C99.418 209.82 99.418 209.82 99.418 209.82C99.418 209.82 99.418 209.82 99.418 209.82C99.418 209.82 99.418 209.82 99.418 209.82C99.418 209.82 99.418 209.82 99.418 209.82C99.418 209.82 99.418 209.82 99.418 209.82C99.418 209.82 99.418 209.82 99.418 209.82C99.418 209.82 99.418 209.82 99.418 209.82C99.418 209.82 99.418 209.82 99.418 209.82L99.418 209.82L99.418 209.82L99.418 209.82L99.418 209.82L99.418 209.82L99.418 209.82L99.418 209.82C99.418 209.82 99.418 209.82 99.418 209.82C99.418 209.82 99.418 209.82 99.418 209.82C99.418 209.82 99.418 209.82 99.418 209.82C99.418 209.82 99.418 209.82 99.418 209.82C99.418 209.82 99.418 209.82 99.418 209.82C99.418 209.82 99.418 209.82 99.418 209.82C99.418 209.82 99.418 209.82 99.418 209.82C99.418 209.82 99.418 209.82 99.418 209.82C99.418 209.82 99.418 209.82 99.418 209.821C99.418 209.821 99.418 209.821 99.418 209.821C99.418 209.821 99.418 209.821 99.418 209.821C99.418 209.821 99.418 209.821 99.418 209.821L99.418 209.821L99.418 209.821L99.418 209.821L99.418 209.821L99.418 209.821L99.418 209.821L99.418 209.821C99.418 209.821 99.418 209.821 99.418 209.821C99.418 209.821 99.418 209.821 99.418 209.821C99.418 209.821 99.418 209.821 99.418 209.821C99.418 209.821 99.418 209.821 99.418 209.821C99.418 209.821 99.418 209.821 99.418 209.821C99.418 209.821 99.418 209.821 99.418 209.821C99.418 209.821 99.418 209.821 99.418 209.821C99.418 209.821 99.418 209.821 99.418 209.821C99.418 209.821 99.418 209.821 99.418 209.821C99.418 209.821 99.418 209.821 99.418 209.821C99.418 209.821 99.418 209.821 99.418 209.821L99.418 209.821L99.418 209.821L99.418 209.821L99.418 209.821L99.418 209.821C99.418 209.821 99.418 209.821 99.418 209.821C99.418 209.821 99.418 209.821 99.418 209.821C99.418 209.821 99.418 209.821 99.418 209.821L201.418 209.821C201.418 209.821 201.418 209.821 201.418 209.821C201.418 209.821 201.418 209.821 201.418 209.821C201.418 209.821 201.418 209.821 201.418 209.821L201.418 209.821L201.418 209.821L201.418 209.821L201.418 209.821L201.418 209.821C201.418 209.821 201.418 209.821 201.418 209.821C201.418 209.821 201.418 209.821 201.418 209.821C201.418 209.821 201.418 209.821 201.418 209.821C201.418 209.821 201.418 209.821 201.418 209.821C201.418 209.821 201.418 209.821 201.418 209.821C201.418 209.821 201.418 209.821 201.418 209.821C201.418 209.821 201.418 209.821 201.418 209.821C201.418 209.821 201.418 209.821 201.418 209.821C201.418 209.821 201.418 209.821 201.418 209.821C201.418 209.821 201.418 209.821 201.418 209.821C201.418 209.821 201.418 209.821 201.418 209.821L201.418 209.821L201.418 209.821L201.418 209.821L201.418 209.821L201.418 209.821L201.418 209.821L201.418 209.821C201.418 209.821 201.418 209.821 201.418 209.821C201.418 209.821 201.418 209.821 201.418 209.821C201.418 209.821 201.418 209.821 201.418 209.821C201.418 209.82 201.418 209.82 201.418 209.82C201.418 209.82 201.418 209.82 201.418 209.82C201.418 209.82 201.418 209.82 201.418 209.82C201.418 209.82 201.418 209.82 201.418 209.82C201.418 209.82 201.418 209.82 201.418 209.82C201.418 209.82 201.418 209.82 201.418 209.82C201.418 209.82 201.418 209.82 201.418 209.82C201.418 209.82 201.418 209.82 201.418 209.82C201.418 209.82 201.418 209.82 201.418 209.82L201.418 209.82L201.418 209.82L201.418 209.82L201.418 209.82L201.418 209.82L201.418 209.82L201.418 209.82C201.418 209.82 201.418 209.82 201.418 209.82C201.418 209.82 201.418 209.82 201.418 209.82C201.418 209.82 201.418 209.82 201.418 209.82C201.418 209.82 201.418 209.82 201.418 209.82C201.418 209.82 201.418 209.82 201.418 209.82C201.418 209.82 201.418 209.82 201.418 209.82C201.418 209.82 201.418 209.82 201.418 209.82C201.418 209.82 201.418 209.82 201.418 209.82C201.418 209.82 201.418 209.82 201.418 209.82C201.418 209.82 201.418 209.82 201.418 209.82C201.418 209.82 201.418 209.82 201.418 209.82L201.418 209.82L201.418 209.82L201.418 209.82L201.418 209.82L201.418 209.82C201.418 209.82 201.418 209.82 201.418 209.82C201.418 209.82 201.418 209.82 201.418 209.82C201.418 209.82 201.418 209.82 201.418 209.82L99.418 209.82ZM150.418 158.82L149.418 158.82L149.418 260.82L150.418 260.82L150.418 158.82Z" fill="#F5F5F5" mask="url(#path-5-outside-3_214_424)"/>
<mask id="path-7-outside-4_214_424" maskUnits="userSpaceOnUse" x="-0.706059" y="22.083" width="195" height="288" fill="black">
<rect fill="white" x="-0.706059" y="22.083" width="195" height="288"/>
<path fill-rule="evenodd" clip-rule="evenodd" d="M51.0019 258.083C101.973 258.083 143.294 216.762 143.294 165.79C143.294 114.819 101.973 73.4981 51.0019 73.4978L51.0019 74.4978C101.421 74.4981 142.294 115.371 142.294 165.79C142.294 216.21 101.421 257.083 51.0019 257.083L51.0019 258.083Z"/>
</mask>
<path fill-rule="evenodd" clip-rule="evenodd" d="M51.0019 258.083C101.973 258.083 143.294 216.762 143.294 165.79C143.294 114.819 101.973 73.4981 51.0019 73.4978L51.0019 74.4978C101.421 74.4981 142.294 115.371 142.294 165.79C142.294 216.21 101.421 257.083 51.0019 257.083L51.0019 258.083Z" fill="#F5F5F5"/>
<path d="M51.0019 258.083L0.00186157 258.083L0.00185711 309.083L51.0021 309.083L51.0019 258.083ZM51.0019 73.4978L51.0021 22.4978L0.00188217 22.4975L0.00187771 73.4978L51.0019 73.4978ZM51.0019 74.4978L0.00187762 74.4978L0.00187316 125.498L51.0016 125.498L51.0019 74.4978ZM51.0019 257.083L51.0016 206.083L0.00186612 206.083L0.00186166 257.083L51.0019 257.083ZM51.0021 309.083C130.14 309.083 194.294 244.928 194.294 165.79L92.294 165.79C92.294 188.596 73.8067 207.083 51.0016 207.083L51.0021 309.083ZM194.294 165.79C194.294 86.6524 130.14 22.4982 51.0021 22.4978L51.0016 124.498C73.8068 124.498 92.294 142.985 92.294 165.79L194.294 165.79ZM0.00187771 73.4978L0.00187762 74.4978L102.002 74.4978L102.002 73.4978L0.00187771 73.4978ZM193.294 165.79C193.294 87.2047 129.588 23.4982 51.0022 23.4978L51.0016 125.498C73.2545 125.498 91.294 143.538 91.294 165.79L193.294 165.79ZM51.0021 308.083C129.588 308.083 193.294 244.376 193.294 165.79L91.294 165.79C91.294 188.043 73.2545 206.083 51.0016 206.083L51.0021 308.083ZM0.00186166 257.083L0.00186157 258.083L102.002 258.083L102.002 257.083L0.00186166 257.083Z" fill="#F5F5F5" mask="url(#path-7-outside-4_214_424)"/>
</svg>
