<svg width="372" height="253" viewBox="0 0 372 253" fill="none" xmlns="http://www.w3.org/2000/svg">
<mask id="path-1-outside-1_283_1428" maskUnits="userSpaceOnUse" x="225.978" y="16.6133" width="147" height="220" fill="black">
<rect fill="white" x="225.978" y="16.6133" width="147" height="220"/>
<path fill-rule="evenodd" clip-rule="evenodd" d="M334.98 54.6133C295.214 54.6135 262.978 86.8503 262.978 126.616C262.978 166.382 295.214 198.619 334.98 198.619V197.619C295.767 197.619 263.978 165.83 263.978 126.616C263.978 87.4025 295.767 55.6135 334.98 55.6133V54.6133Z"/>
</mask>
<path fill-rule="evenodd" clip-rule="evenodd" d="M334.98 54.6133C295.214 54.6135 262.978 86.8503 262.978 126.616C262.978 166.382 295.214 198.619 334.98 198.619V197.619C295.767 197.619 263.978 165.83 263.978 126.616C263.978 87.4025 295.767 55.6135 334.98 55.6133V54.6133Z" fill="#FF2A00"/>
<path d="M334.98 54.6133H371.98V17.6131L334.98 17.6133L334.98 54.6133ZM334.98 198.619L334.98 235.619L371.98 235.62V198.619L334.98 198.619ZM334.98 197.619L371.98 197.619V160.62L334.981 160.619L334.98 197.619ZM334.98 55.6133L334.981 92.6133L371.98 92.6131V55.6133H334.98ZM334.98 17.6133C274.78 17.6136 225.978 66.4158 225.978 126.616H299.978C299.978 107.285 315.649 91.6134 334.981 91.6133L334.98 17.6133ZM225.978 126.616C225.978 186.817 274.78 235.619 334.98 235.619L334.981 161.619C315.649 161.619 299.978 145.948 299.978 126.616H225.978ZM371.98 198.619V197.619L297.98 197.619V198.619L371.98 198.619ZM226.978 126.616C226.978 186.265 275.332 234.619 334.98 234.619L334.981 160.619C316.201 160.619 300.978 145.396 300.978 126.616H226.978ZM334.98 18.6133C275.332 18.6136 226.978 66.9681 226.978 126.616H300.978C300.978 107.837 316.201 92.6134 334.981 92.6133L334.98 18.6133ZM371.98 55.6133V54.6133L297.98 54.6133V55.6133L371.98 55.6133Z" fill="#FF2A00" mask="url(#path-1-outside-1_283_1428)"/>
<mask id="path-3-outside-2_283_1428" maskUnits="userSpaceOnUse" x="76.2012" y="0.230463" width="219" height="130" fill="black">
<rect fill="white" x="76.2012" y="0.230463" width="219" height="130"/>
<path fill-rule="evenodd" clip-rule="evenodd" d="M258.201 92.2664C258.201 92.2662 258.201 92.266 258.201 92.2658C258.201 61.8706 225.964 37.2305 186.198 37.2305C146.432 37.2305 114.195 61.8706 114.195 92.2657C114.195 92.2659 114.195 92.2662 114.195 92.2664L115.195 92.2664C115.195 92.2662 115.195 92.2659 115.195 92.2657C115.195 77.4454 123.052 63.9585 135.892 54.1444C148.732 44.3297 166.515 38.2305 186.198 38.2305C205.881 38.2305 223.664 44.3297 236.505 54.1444C249.344 63.9585 257.201 77.4454 257.201 92.2658C257.201 92.266 257.201 92.2662 257.201 92.2664L258.201 92.2664Z"/>
</mask>
<path fill-rule="evenodd" clip-rule="evenodd" d="M258.201 92.2664C258.201 92.2662 258.201 92.266 258.201 92.2658C258.201 61.8706 225.964 37.2305 186.198 37.2305C146.432 37.2305 114.195 61.8706 114.195 92.2657C114.195 92.2659 114.195 92.2662 114.195 92.2664L115.195 92.2664C115.195 92.2662 115.195 92.2659 115.195 92.2657C115.195 77.4454 123.052 63.9585 135.892 54.1444C148.732 44.3297 166.515 38.2305 186.198 38.2305C205.881 38.2305 223.664 44.3297 236.505 54.1444C249.344 63.9585 257.201 77.4454 257.201 92.2658C257.201 92.266 257.201 92.2662 257.201 92.2664L258.201 92.2664Z" fill="#FF2A00"/>
<path d="M258.201 92.2664L258.201 129.266L295.201 129.266L295.201 92.2664L258.201 92.2664ZM114.195 92.2664L77.1951 92.2664L77.1951 129.266L114.195 129.266L114.195 92.2664ZM115.195 92.2664L115.195 129.266L152.195 129.266L152.195 92.2664L115.195 92.2664ZM135.892 54.1444L113.423 24.7481L113.423 24.7481L135.892 54.1444ZM236.505 54.1444L258.974 24.7481L258.974 24.7481L236.505 54.1444ZM257.201 92.2664L220.201 92.2664L220.201 129.266L257.201 129.266L257.201 92.2664ZM295.201 92.2664L295.201 92.2658L221.201 92.2657L221.201 92.2664L295.201 92.2664ZM295.201 92.2658C295.201 63.1113 279.649 39.2927 259.581 23.9536C239.546 8.64021 213.479 0.230467 186.198 0.230466L186.198 74.2305C198.684 74.2305 208.618 78.1408 214.643 82.7463C220.635 87.326 221.201 91.0251 221.201 92.2657L295.201 92.2658ZM186.198 0.230466C158.918 0.230465 132.85 8.64021 112.815 23.9536C92.747 39.2927 77.1951 63.1113 77.1951 92.2657L151.195 92.2657C151.195 91.0251 151.762 87.326 157.753 82.7463C163.779 78.1408 173.712 74.2305 186.198 74.2305L186.198 0.230466ZM77.1951 92.2657L77.1951 92.2657C77.1951 92.2657 77.1951 92.2657 77.1951 92.2658C77.1951 92.2658 77.1951 92.2658 77.1951 92.2658C77.1951 92.2658 77.1951 92.2658 77.1951 92.2658L77.1951 92.2658C77.1951 92.2658 77.1951 92.2658 77.1951 92.2658C77.1951 92.2658 77.1951 92.2658 77.1951 92.2658C77.1951 92.2658 77.1951 92.2658 77.1951 92.2658L77.1951 92.2658L77.1951 92.2658C77.1951 92.2658 77.1951 92.2658 77.1951 92.2658C77.1951 92.2658 77.1951 92.2658 77.1951 92.2658C77.1951 92.2658 77.1951 92.2658 77.1951 92.2658L77.1951 92.2658L77.1951 92.2658C77.1951 92.2658 77.1951 92.2658 77.1951 92.2658C77.1951 92.2658 77.1951 92.2658 77.1951 92.2658C77.1951 92.2658 77.1951 92.2658 77.1951 92.2658L77.1951 92.2658L77.1951 92.2658C77.1951 92.2658 77.1951 92.2658 77.1951 92.2658C77.1951 92.2658 77.1951 92.2658 77.1951 92.2658C77.1951 92.2658 77.1951 92.2658 77.1951 92.2658L77.1951 92.2658C77.1951 92.2658 77.1951 92.2658 77.1951 92.2658C77.1951 92.2658 77.1951 92.2658 77.1951 92.2658C77.1951 92.2658 77.1951 92.2658 77.1951 92.2658C77.1951 92.2659 77.1951 92.2659 77.1951 92.2659L77.1951 92.2659C77.1951 92.2659 77.1951 92.2659 77.1951 92.2659C77.1951 92.2659 77.1951 92.2659 77.1951 92.2659C77.1951 92.2659 77.1951 92.2659 77.1951 92.2659C77.1951 92.2659 77.1951 92.2659 77.1951 92.2659L77.1951 92.2659C77.1951 92.2659 77.1951 92.2659 77.1951 92.2659C77.1951 92.2659 77.1951 92.2659 77.1951 92.2659C77.1951 92.2659 77.1951 92.2659 77.1951 92.2659C77.1951 92.2659 77.1951 92.2659 77.1951 92.2659L77.1951 92.2659C77.1951 92.2659 77.1951 92.2659 77.1951 92.2659C77.1951 92.2659 77.1951 92.2659 77.1951 92.2659C77.1951 92.2659 77.1951 92.2659 77.1951 92.2659C77.1951 92.2659 77.1951 92.2659 77.1951 92.2659L77.1951 92.2659C77.1951 92.2659 77.1951 92.2659 77.1951 92.2659C77.1951 92.2659 77.1951 92.2659 77.1951 92.2659C77.1951 92.2659 77.1951 92.2659 77.1951 92.2659C77.1951 92.2659 77.1951 92.2659 77.1951 92.2659L77.1951 92.2659L77.1951 92.2659C77.1951 92.2659 77.1951 92.2659 77.1951 92.2659C77.1951 92.2659 77.1951 92.2659 77.1951 92.2659C77.1951 92.2659 77.1951 92.2659 77.1951 92.2659L77.1951 92.266L77.1951 92.266C77.1951 92.266 77.1951 92.266 77.1951 92.266C77.1951 92.266 77.1951 92.266 77.1951 92.266C77.1951 92.266 77.1951 92.266 77.1951 92.266L77.1951 92.266L77.1951 92.266C77.1951 92.266 77.1951 92.266 77.1951 92.266C77.1951 92.266 77.1951 92.266 77.1951 92.266C77.1951 92.266 77.1951 92.266 77.1951 92.266L77.1951 92.266L77.1951 92.266C77.1951 92.266 77.1951 92.266 77.1951 92.266C77.1951 92.266 77.1951 92.266 77.1951 92.266C77.1951 92.266 77.1951 92.266 77.1951 92.266C77.1951 92.266 77.1951 92.266 77.1951 92.266L77.1951 92.266C77.1951 92.266 77.1951 92.266 77.1951 92.266C77.1951 92.266 77.1951 92.266 77.1951 92.266C77.1951 92.266 77.1951 92.266 77.1951 92.266C77.1951 92.266 77.1951 92.266 77.1951 92.266L77.1951 92.266L77.1951 92.266C77.1951 92.266 77.1951 92.266 77.1951 92.266C77.1951 92.266 77.1951 92.266 77.1951 92.266C77.1951 92.266 77.1951 92.266 77.1951 92.266L77.1951 92.2661L77.1951 92.2661C77.1951 92.2661 77.1951 92.2661 77.1951 92.2661C77.1951 92.2661 77.1951 92.2661 77.1951 92.2661C77.1951 92.2661 77.1951 92.2661 77.1951 92.2661L77.1951 92.2661L77.1951 92.2661C77.1951 92.2661 77.1951 92.2661 77.1951 92.2661C77.1951 92.2661 77.1951 92.2661 77.1951 92.2661C77.1951 92.2661 77.1951 92.2661 77.1951 92.2661C77.1951 92.2661 77.1951 92.2661 77.1951 92.2661L77.1951 92.2661C77.1951 92.2661 77.1951 92.2661 77.1951 92.2661C77.1951 92.2661 77.1951 92.2661 77.1951 92.2661C77.1951 92.2661 77.1951 92.2661 77.1951 92.2661C77.1951 92.2661 77.1951 92.2661 77.1951 92.2661L77.1951 92.2661L77.1951 92.2661C77.1951 92.2661 77.1951 92.2661 77.1951 92.2661C77.1951 92.2661 77.1951 92.2661 77.1951 92.2661C77.1951 92.2661 77.1951 92.2661 77.1951 92.2661L77.1951 92.2661L77.1951 92.2661C77.1951 92.2661 77.1951 92.2661 77.1951 92.2661C77.1951 92.2661 77.1951 92.2661 77.1951 92.2661C77.1951 92.2661 77.1951 92.2661 77.1951 92.2661L77.1951 92.2661L77.1951 92.2662C77.1951 92.2662 77.1951 92.2662 77.1951 92.2662C77.1951 92.2662 77.1951 92.2662 77.1951 92.2662C77.1951 92.2662 77.1951 92.2662 77.1951 92.2662L77.1951 92.2662L77.1951 92.2662C77.1951 92.2662 77.1951 92.2662 77.1951 92.2662C77.1951 92.2662 77.1951 92.2662 77.1951 92.2662C77.1951 92.2662 77.1951 92.2662 77.1951 92.2662C77.1951 92.2662 77.1951 92.2662 77.1951 92.2662L77.1951 92.2662C77.1951 92.2662 77.1951 92.2662 77.1951 92.2662C77.1951 92.2662 77.1951 92.2662 77.1951 92.2662C77.1951 92.2662 77.1951 92.2662 77.1951 92.2662C77.1951 92.2662 77.1951 92.2662 77.1951 92.2662L77.1951 92.2662C77.1951 92.2662 77.1951 92.2662 77.1951 92.2662C77.1951 92.2662 77.1951 92.2662 77.1951 92.2662C77.1951 92.2662 77.1951 92.2662 77.1951 92.2662C77.1951 92.2662 77.1951 92.2662 77.1951 92.2662L77.1951 92.2662C77.1951 92.2662 77.1951 92.2662 77.1951 92.2662C77.1951 92.2662 77.1951 92.2662 77.1951 92.2662C77.1951 92.2662 77.1951 92.2662 77.1951 92.2662C77.1951 92.2662 77.1951 92.2662 77.1951 92.2662L77.1951 92.2662C77.1951 92.2662 77.1951 92.2662 77.1951 92.2663C77.1951 92.2663 77.1951 92.2663 77.1951 92.2663C77.1951 92.2663 77.1951 92.2663 77.1951 92.2663C77.1951 92.2663 77.1951 92.2663 77.1951 92.2663L77.1951 92.2663C77.1951 92.2663 77.1951 92.2663 77.1951 92.2663C77.1951 92.2663 77.1951 92.2663 77.1951 92.2663C77.1951 92.2663 77.1951 92.2663 77.1951 92.2663L77.1951 92.2663L77.1951 92.2663C77.1951 92.2663 77.1951 92.2663 77.1951 92.2663C77.1951 92.2663 77.1951 92.2663 77.1951 92.2663C77.1951 92.2663 77.1951 92.2663 77.1951 92.2663L77.1951 92.2663L77.1951 92.2663C77.1951 92.2663 77.1951 92.2663 77.1951 92.2663C77.1951 92.2663 77.1951 92.2663 77.1951 92.2663C77.1951 92.2663 77.1951 92.2663 77.1951 92.2663L77.1951 92.2663L77.1951 92.2663C77.1951 92.2663 77.1951 92.2663 77.1951 92.2663C77.1951 92.2663 77.1951 92.2663 77.1951 92.2663C77.1951 92.2663 77.1951 92.2663 77.1951 92.2663L77.1951 92.2663C77.1951 92.2663 77.1951 92.2663 77.1951 92.2663C77.1951 92.2663 77.1951 92.2663 77.1951 92.2663C77.1951 92.2664 77.1951 92.2664 77.1951 92.2664L77.1951 92.2664L151.195 92.2664L151.195 92.2664C151.195 92.2664 151.195 92.2664 151.195 92.2664C151.195 92.2663 151.195 92.2663 151.195 92.2663C151.195 92.2663 151.195 92.2663 151.195 92.2663L151.195 92.2663C151.195 92.2663 151.195 92.2663 151.195 92.2663C151.195 92.2663 151.195 92.2663 151.195 92.2663C151.195 92.2663 151.195 92.2663 151.195 92.2663L151.195 92.2663L151.195 92.2663C151.195 92.2663 151.195 92.2663 151.195 92.2663C151.195 92.2663 151.195 92.2663 151.195 92.2663C151.195 92.2663 151.195 92.2663 151.195 92.2663L151.195 92.2663L151.195 92.2663C151.195 92.2663 151.195 92.2663 151.195 92.2663C151.195 92.2663 151.195 92.2663 151.195 92.2663C151.195 92.2663 151.195 92.2663 151.195 92.2663L151.195 92.2663L151.195 92.2663C151.195 92.2663 151.195 92.2663 151.195 92.2663C151.195 92.2663 151.195 92.2663 151.195 92.2663C151.195 92.2663 151.195 92.2663 151.195 92.2663L151.195 92.2663C151.195 92.2663 151.195 92.2663 151.195 92.2663C151.195 92.2663 151.195 92.2663 151.195 92.2663C151.195 92.2663 151.195 92.2663 151.195 92.2663C151.195 92.2663 151.195 92.2663 151.195 92.2663L151.195 92.2662C151.195 92.2662 151.195 92.2662 151.195 92.2662C151.195 92.2662 151.195 92.2662 151.195 92.2662C151.195 92.2662 151.195 92.2662 151.195 92.2662C151.195 92.2662 151.195 92.2662 151.195 92.2662L151.195 92.2662C151.195 92.2662 151.195 92.2662 151.195 92.2662C151.195 92.2662 151.195 92.2662 151.195 92.2662C151.195 92.2662 151.195 92.2662 151.195 92.2662C151.195 92.2662 151.195 92.2662 151.195 92.2662L151.195 92.2662C151.195 92.2662 151.195 92.2662 151.195 92.2662C151.195 92.2662 151.195 92.2662 151.195 92.2662C151.195 92.2662 151.195 92.2662 151.195 92.2662C151.195 92.2662 151.195 92.2662 151.195 92.2662L151.195 92.2662C151.195 92.2662 151.195 92.2662 151.195 92.2662C151.195 92.2662 151.195 92.2662 151.195 92.2662C151.195 92.2662 151.195 92.2662 151.195 92.2662C151.195 92.2662 151.195 92.2662 151.195 92.2662L151.195 92.2662L151.195 92.2662C151.195 92.2662 151.195 92.2662 151.195 92.2662C151.195 92.2662 151.195 92.2662 151.195 92.2662C151.195 92.2662 151.195 92.2662 151.195 92.2662L151.195 92.2662L151.195 92.2661C151.195 92.2661 151.195 92.2661 151.195 92.2661C151.195 92.2661 151.195 92.2661 151.195 92.2661C151.195 92.2661 151.195 92.2661 151.195 92.2661L151.195 92.2661L151.195 92.2661C151.195 92.2661 151.195 92.2661 151.195 92.2661C151.195 92.2661 151.195 92.2661 151.195 92.2661C151.195 92.2661 151.195 92.2661 151.195 92.2661L151.195 92.2661L151.195 92.2661C151.195 92.2661 151.195 92.2661 151.195 92.2661C151.195 92.2661 151.195 92.2661 151.195 92.2661C151.195 92.2661 151.195 92.2661 151.195 92.2661C151.195 92.2661 151.195 92.2661 151.195 92.2661L151.195 92.2661C151.195 92.2661 151.195 92.2661 151.195 92.2661C151.195 92.2661 151.195 92.2661 151.195 92.2661C151.195 92.2661 151.195 92.2661 151.195 92.2661C151.195 92.2661 151.195 92.2661 151.195 92.2661L151.195 92.2661L151.195 92.2661C151.195 92.2661 151.195 92.2661 151.195 92.2661C151.195 92.2661 151.195 92.2661 151.195 92.2661C151.195 92.2661 151.195 92.2661 151.195 92.2661L151.195 92.2661L151.195 92.266C151.195 92.266 151.195 92.266 151.195 92.266C151.195 92.266 151.195 92.266 151.195 92.266C151.195 92.266 151.195 92.266 151.195 92.266L151.195 92.266L151.195 92.266C151.195 92.266 151.195 92.266 151.195 92.266C151.195 92.266 151.195 92.266 151.195 92.266C151.195 92.266 151.195 92.266 151.195 92.266C151.195 92.266 151.195 92.266 151.195 92.266L151.195 92.266C151.195 92.266 151.195 92.266 151.195 92.266C151.195 92.266 151.195 92.266 151.195 92.266C151.195 92.266 151.195 92.266 151.195 92.266C151.195 92.266 151.195 92.266 151.195 92.266L151.195 92.266L151.195 92.266C151.195 92.266 151.195 92.266 151.195 92.266C151.195 92.266 151.195 92.266 151.195 92.266C151.195 92.266 151.195 92.266 151.195 92.266L151.195 92.266L151.195 92.266C151.195 92.266 151.195 92.266 151.195 92.266C151.195 92.266 151.195 92.266 151.195 92.266C151.195 92.266 151.195 92.266 151.195 92.266L151.195 92.266L151.195 92.2659C151.195 92.2659 151.195 92.2659 151.195 92.2659C151.195 92.2659 151.195 92.2659 151.195 92.2659C151.195 92.2659 151.195 92.2659 151.195 92.2659L151.195 92.2659L151.195 92.2659C151.195 92.2659 151.195 92.2659 151.195 92.2659C151.195 92.2659 151.195 92.2659 151.195 92.2659C151.195 92.2659 151.195 92.2659 151.195 92.2659C151.195 92.2659 151.195 92.2659 151.195 92.2659L151.195 92.2659C151.195 92.2659 151.195 92.2659 151.195 92.2659C151.195 92.2659 151.195 92.2659 151.195 92.2659C151.195 92.2659 151.195 92.2659 151.195 92.2659C151.195 92.2659 151.195 92.2659 151.195 92.2659L151.195 92.2659C151.195 92.2659 151.195 92.2659 151.195 92.2659C151.195 92.2659 151.195 92.2659 151.195 92.2659C151.195 92.2659 151.195 92.2659 151.195 92.2659C151.195 92.2659 151.195 92.2659 151.195 92.2659L151.195 92.2659C151.195 92.2659 151.195 92.2659 151.195 92.2659C151.195 92.2659 151.195 92.2659 151.195 92.2659C151.195 92.2659 151.195 92.2659 151.195 92.2659C151.195 92.2659 151.195 92.2659 151.195 92.2659L151.195 92.2659C151.195 92.2659 151.195 92.2659 151.195 92.2659C151.195 92.2659 151.195 92.2659 151.195 92.2658C151.195 92.2658 151.195 92.2658 151.195 92.2658C151.195 92.2658 151.195 92.2658 151.195 92.2658L151.195 92.2658C151.195 92.2658 151.195 92.2658 151.195 92.2658C151.195 92.2658 151.195 92.2658 151.195 92.2658C151.195 92.2658 151.195 92.2658 151.195 92.2658L151.195 92.2658L151.195 92.2658C151.195 92.2658 151.195 92.2658 151.195 92.2658C151.195 92.2658 151.195 92.2658 151.195 92.2658C151.195 92.2658 151.195 92.2658 151.195 92.2658L151.195 92.2658L151.195 92.2658C151.195 92.2658 151.195 92.2658 151.195 92.2658C151.195 92.2658 151.195 92.2658 151.195 92.2658C151.195 92.2658 151.195 92.2658 151.195 92.2658L151.195 92.2658L151.195 92.2658C151.195 92.2658 151.195 92.2658 151.195 92.2658C151.195 92.2658 151.195 92.2658 151.195 92.2658C151.195 92.2658 151.195 92.2658 151.195 92.2658L151.195 92.2658C151.195 92.2658 151.195 92.2658 151.195 92.2658C151.195 92.2658 151.195 92.2658 151.195 92.2658C151.195 92.2658 151.195 92.2658 151.195 92.2658L151.195 92.2657L77.1951 92.2657ZM114.195 129.266L115.195 129.266L115.195 55.2664L114.195 55.2664L114.195 129.266ZM78.1951 92.2657L78.1951 92.2657C78.1951 92.2657 78.1951 92.2657 78.1951 92.2658C78.1951 92.2658 78.1951 92.2658 78.1951 92.2658C78.1951 92.2658 78.1951 92.2658 78.1951 92.2658L78.1951 92.2658C78.1951 92.2658 78.1951 92.2658 78.1951 92.2658C78.1951 92.2658 78.1951 92.2658 78.1951 92.2658C78.1951 92.2658 78.1951 92.2658 78.1951 92.2658L78.1951 92.2658L78.1951 92.2658C78.1951 92.2658 78.1951 92.2658 78.1951 92.2658C78.1951 92.2658 78.1951 92.2658 78.1951 92.2658C78.1951 92.2658 78.1951 92.2658 78.1951 92.2658L78.1951 92.2658L78.1951 92.2658C78.1951 92.2658 78.1951 92.2658 78.1951 92.2658C78.1951 92.2658 78.1951 92.2658 78.1951 92.2658C78.1951 92.2658 78.1951 92.2658 78.1951 92.2658L78.1951 92.2658L78.1951 92.2658C78.1951 92.2658 78.1951 92.2658 78.1951 92.2658C78.1951 92.2658 78.1951 92.2658 78.1951 92.2658C78.1951 92.2658 78.1951 92.2658 78.1951 92.2658L78.1951 92.2658C78.1951 92.2658 78.1951 92.2658 78.1951 92.2658C78.1951 92.2658 78.1951 92.2658 78.1951 92.2658C78.1951 92.2658 78.1951 92.2658 78.1951 92.2658C78.1951 92.2659 78.1951 92.2659 78.1951 92.2659L78.1951 92.2659C78.1951 92.2659 78.1951 92.2659 78.1951 92.2659C78.1951 92.2659 78.1951 92.2659 78.1951 92.2659C78.1951 92.2659 78.1951 92.2659 78.1951 92.2659C78.1951 92.2659 78.1951 92.2659 78.1951 92.2659L78.1951 92.2659C78.1951 92.2659 78.1951 92.2659 78.1951 92.2659C78.1951 92.2659 78.1951 92.2659 78.1951 92.2659C78.1951 92.2659 78.1951 92.2659 78.1951 92.2659C78.1951 92.2659 78.1951 92.2659 78.1951 92.2659L78.1951 92.2659C78.1951 92.2659 78.1951 92.2659 78.1951 92.2659C78.1951 92.2659 78.1951 92.2659 78.1951 92.2659C78.1951 92.2659 78.1951 92.2659 78.1951 92.2659C78.1951 92.2659 78.1951 92.2659 78.1951 92.2659L78.1951 92.2659C78.1951 92.2659 78.1951 92.2659 78.1951 92.2659C78.1951 92.2659 78.1951 92.2659 78.1951 92.2659C78.1951 92.2659 78.1951 92.2659 78.1951 92.2659C78.1951 92.2659 78.1951 92.2659 78.1951 92.2659L78.1951 92.2659L78.1951 92.2659C78.1951 92.2659 78.1951 92.2659 78.1951 92.2659C78.1951 92.2659 78.1951 92.2659 78.1951 92.2659C78.1951 92.2659 78.1951 92.2659 78.1951 92.2659L78.1951 92.266L78.1951 92.266C78.1951 92.266 78.1951 92.266 78.1951 92.266C78.1951 92.266 78.1951 92.266 78.1951 92.266C78.1951 92.266 78.1951 92.266 78.1951 92.266L78.1951 92.266L78.1951 92.266C78.1951 92.266 78.1951 92.266 78.1951 92.266C78.1951 92.266 78.1951 92.266 78.1951 92.266C78.1951 92.266 78.1951 92.266 78.1951 92.266L78.1951 92.266L78.1951 92.266C78.1951 92.266 78.1951 92.266 78.1951 92.266C78.1951 92.266 78.1951 92.266 78.1951 92.266C78.1951 92.266 78.1951 92.266 78.1951 92.266C78.1951 92.266 78.1951 92.266 78.1951 92.266L78.1951 92.266C78.1951 92.266 78.1951 92.266 78.1951 92.266C78.1951 92.266 78.1951 92.266 78.1951 92.266C78.1951 92.266 78.1951 92.266 78.1951 92.266C78.1951 92.266 78.1951 92.266 78.1951 92.266L78.1951 92.266L78.1951 92.266C78.1951 92.266 78.1951 92.266 78.1951 92.266C78.1951 92.266 78.1951 92.266 78.1951 92.266C78.1951 92.266 78.1951 92.266 78.1951 92.266L78.1951 92.2661L78.1951 92.2661C78.1951 92.2661 78.1951 92.2661 78.1951 92.2661C78.1951 92.2661 78.1951 92.2661 78.1951 92.2661C78.1951 92.2661 78.1951 92.2661 78.1951 92.2661L78.1951 92.2661L78.1951 92.2661C78.1951 92.2661 78.1951 92.2661 78.1951 92.2661C78.1951 92.2661 78.1951 92.2661 78.1951 92.2661C78.1951 92.2661 78.1951 92.2661 78.1951 92.2661C78.1951 92.2661 78.1951 92.2661 78.1951 92.2661L78.1951 92.2661C78.1951 92.2661 78.1951 92.2661 78.1951 92.2661C78.1951 92.2661 78.1951 92.2661 78.1951 92.2661C78.1951 92.2661 78.1951 92.2661 78.1951 92.2661C78.1951 92.2661 78.1951 92.2661 78.1951 92.2661L78.1951 92.2661L78.1951 92.2661C78.1951 92.2661 78.1951 92.2661 78.1951 92.2661C78.1951 92.2661 78.1951 92.2661 78.1951 92.2661C78.1951 92.2661 78.1951 92.2661 78.1951 92.2661L78.1951 92.2661L78.1951 92.2661C78.1951 92.2661 78.1951 92.2661 78.1951 92.2661C78.1951 92.2661 78.1951 92.2661 78.1951 92.2661C78.1951 92.2661 78.1951 92.2661 78.1951 92.2661L78.1951 92.2661L78.1951 92.2662C78.1951 92.2662 78.1951 92.2662 78.1951 92.2662C78.1951 92.2662 78.1951 92.2662 78.1951 92.2662C78.1951 92.2662 78.1951 92.2662 78.1951 92.2662L78.1951 92.2662L78.1951 92.2662C78.1951 92.2662 78.1951 92.2662 78.1951 92.2662C78.1951 92.2662 78.1951 92.2662 78.1951 92.2662C78.1951 92.2662 78.1951 92.2662 78.1951 92.2662C78.1951 92.2662 78.1951 92.2662 78.1951 92.2662L78.1951 92.2662C78.1951 92.2662 78.1951 92.2662 78.1951 92.2662C78.1951 92.2662 78.1951 92.2662 78.1951 92.2662C78.1951 92.2662 78.1951 92.2662 78.1951 92.2662C78.1951 92.2662 78.1951 92.2662 78.1951 92.2662L78.1951 92.2662C78.1951 92.2662 78.1951 92.2662 78.1951 92.2662C78.1951 92.2662 78.1951 92.2662 78.1951 92.2662C78.1951 92.2662 78.1951 92.2662 78.1951 92.2662C78.1951 92.2662 78.1951 92.2662 78.1951 92.2662L78.1951 92.2662C78.1951 92.2662 78.1951 92.2662 78.1951 92.2662C78.1951 92.2662 78.1951 92.2662 78.1951 92.2662C78.1951 92.2662 78.1951 92.2662 78.1951 92.2662C78.1951 92.2662 78.1951 92.2662 78.1951 92.2662L78.1951 92.2662C78.1951 92.2662 78.1951 92.2662 78.1951 92.2663C78.1951 92.2663 78.1951 92.2663 78.1951 92.2663C78.1951 92.2663 78.1951 92.2663 78.1951 92.2663C78.1951 92.2663 78.1951 92.2663 78.1951 92.2663L78.1951 92.2663C78.1951 92.2663 78.1951 92.2663 78.1951 92.2663C78.1951 92.2663 78.1951 92.2663 78.1951 92.2663C78.1951 92.2663 78.1951 92.2663 78.1951 92.2663L78.1951 92.2663L78.1951 92.2663C78.1951 92.2663 78.1951 92.2663 78.1951 92.2663C78.1951 92.2663 78.1951 92.2663 78.1951 92.2663C78.1951 92.2663 78.1951 92.2663 78.1951 92.2663L78.1951 92.2663L78.1951 92.2663C78.1951 92.2663 78.1951 92.2663 78.1951 92.2663C78.1951 92.2663 78.1951 92.2663 78.1951 92.2663C78.1951 92.2663 78.1951 92.2663 78.1951 92.2663L78.1951 92.2663L78.1951 92.2663C78.1951 92.2663 78.1951 92.2663 78.1951 92.2663C78.1951 92.2663 78.1951 92.2663 78.1951 92.2663C78.1951 92.2663 78.1951 92.2663 78.1951 92.2663L78.1951 92.2663C78.1951 92.2663 78.1951 92.2663 78.1951 92.2663C78.1951 92.2663 78.1951 92.2663 78.1951 92.2663C78.1951 92.2664 78.1951 92.2664 78.1951 92.2664L78.1951 92.2664L152.195 92.2664L152.195 92.2664C152.195 92.2664 152.195 92.2664 152.195 92.2664C152.195 92.2663 152.195 92.2663 152.195 92.2663C152.195 92.2663 152.195 92.2663 152.195 92.2663L152.195 92.2663C152.195 92.2663 152.195 92.2663 152.195 92.2663C152.195 92.2663 152.195 92.2663 152.195 92.2663C152.195 92.2663 152.195 92.2663 152.195 92.2663L152.195 92.2663L152.195 92.2663C152.195 92.2663 152.195 92.2663 152.195 92.2663C152.195 92.2663 152.195 92.2663 152.195 92.2663C152.195 92.2663 152.195 92.2663 152.195 92.2663L152.195 92.2663L152.195 92.2663C152.195 92.2663 152.195 92.2663 152.195 92.2663C152.195 92.2663 152.195 92.2663 152.195 92.2663C152.195 92.2663 152.195 92.2663 152.195 92.2663L152.195 92.2663L152.195 92.2663C152.195 92.2663 152.195 92.2663 152.195 92.2663C152.195 92.2663 152.195 92.2663 152.195 92.2663C152.195 92.2663 152.195 92.2663 152.195 92.2663L152.195 92.2663C152.195 92.2663 152.195 92.2663 152.195 92.2663C152.195 92.2663 152.195 92.2663 152.195 92.2663C152.195 92.2663 152.195 92.2663 152.195 92.2663C152.195 92.2663 152.195 92.2663 152.195 92.2663L152.195 92.2662C152.195 92.2662 152.195 92.2662 152.195 92.2662C152.195 92.2662 152.195 92.2662 152.195 92.2662C152.195 92.2662 152.195 92.2662 152.195 92.2662C152.195 92.2662 152.195 92.2662 152.195 92.2662L152.195 92.2662C152.195 92.2662 152.195 92.2662 152.195 92.2662C152.195 92.2662 152.195 92.2662 152.195 92.2662C152.195 92.2662 152.195 92.2662 152.195 92.2662C152.195 92.2662 152.195 92.2662 152.195 92.2662L152.195 92.2662C152.195 92.2662 152.195 92.2662 152.195 92.2662C152.195 92.2662 152.195 92.2662 152.195 92.2662C152.195 92.2662 152.195 92.2662 152.195 92.2662C152.195 92.2662 152.195 92.2662 152.195 92.2662L152.195 92.2662C152.195 92.2662 152.195 92.2662 152.195 92.2662C152.195 92.2662 152.195 92.2662 152.195 92.2662C152.195 92.2662 152.195 92.2662 152.195 92.2662C152.195 92.2662 152.195 92.2662 152.195 92.2662L152.195 92.2662L152.195 92.2662C152.195 92.2662 152.195 92.2662 152.195 92.2662C152.195 92.2662 152.195 92.2662 152.195 92.2662C152.195 92.2662 152.195 92.2662 152.195 92.2662L152.195 92.2662L152.195 92.2661C152.195 92.2661 152.195 92.2661 152.195 92.2661C152.195 92.2661 152.195 92.2661 152.195 92.2661C152.195 92.2661 152.195 92.2661 152.195 92.2661L152.195 92.2661L152.195 92.2661C152.195 92.2661 152.195 92.2661 152.195 92.2661C152.195 92.2661 152.195 92.2661 152.195 92.2661C152.195 92.2661 152.195 92.2661 152.195 92.2661L152.195 92.2661L152.195 92.2661C152.195 92.2661 152.195 92.2661 152.195 92.2661C152.195 92.2661 152.195 92.2661 152.195 92.2661C152.195 92.2661 152.195 92.2661 152.195 92.2661C152.195 92.2661 152.195 92.2661 152.195 92.2661L152.195 92.2661C152.195 92.2661 152.195 92.2661 152.195 92.2661C152.195 92.2661 152.195 92.2661 152.195 92.2661C152.195 92.2661 152.195 92.2661 152.195 92.2661C152.195 92.2661 152.195 92.2661 152.195 92.2661L152.195 92.2661L152.195 92.2661C152.195 92.2661 152.195 92.2661 152.195 92.2661C152.195 92.2661 152.195 92.2661 152.195 92.2661C152.195 92.2661 152.195 92.2661 152.195 92.2661L152.195 92.2661L152.195 92.266C152.195 92.266 152.195 92.266 152.195 92.266C152.195 92.266 152.195 92.266 152.195 92.266C152.195 92.266 152.195 92.266 152.195 92.266L152.195 92.266L152.195 92.266C152.195 92.266 152.195 92.266 152.195 92.266C152.195 92.266 152.195 92.266 152.195 92.266C152.195 92.266 152.195 92.266 152.195 92.266C152.195 92.266 152.195 92.266 152.195 92.266L152.195 92.266C152.195 92.266 152.195 92.266 152.195 92.266C152.195 92.266 152.195 92.266 152.195 92.266C152.195 92.266 152.195 92.266 152.195 92.266C152.195 92.266 152.195 92.266 152.195 92.266L152.195 92.266L152.195 92.266C152.195 92.266 152.195 92.266 152.195 92.266C152.195 92.266 152.195 92.266 152.195 92.266C152.195 92.266 152.195 92.266 152.195 92.266L152.195 92.266L152.195 92.266C152.195 92.266 152.195 92.266 152.195 92.266C152.195 92.266 152.195 92.266 152.195 92.266C152.195 92.266 152.195 92.266 152.195 92.266L152.195 92.266L152.195 92.2659C152.195 92.2659 152.195 92.2659 152.195 92.2659C152.195 92.2659 152.195 92.2659 152.195 92.2659C152.195 92.2659 152.195 92.2659 152.195 92.2659L152.195 92.2659L152.195 92.2659C152.195 92.2659 152.195 92.2659 152.195 92.2659C152.195 92.2659 152.195 92.2659 152.195 92.2659C152.195 92.2659 152.195 92.2659 152.195 92.2659C152.195 92.2659 152.195 92.2659 152.195 92.2659L152.195 92.2659C152.195 92.2659 152.195 92.2659 152.195 92.2659C152.195 92.2659 152.195 92.2659 152.195 92.2659C152.195 92.2659 152.195 92.2659 152.195 92.2659C152.195 92.2659 152.195 92.2659 152.195 92.2659L152.195 92.2659C152.195 92.2659 152.195 92.2659 152.195 92.2659C152.195 92.2659 152.195 92.2659 152.195 92.2659C152.195 92.2659 152.195 92.2659 152.195 92.2659C152.195 92.2659 152.195 92.2659 152.195 92.2659L152.195 92.2659C152.195 92.2659 152.195 92.2659 152.195 92.2659C152.195 92.2659 152.195 92.2659 152.195 92.2659C152.195 92.2659 152.195 92.2659 152.195 92.2659C152.195 92.2659 152.195 92.2659 152.195 92.2659L152.195 92.2659C152.195 92.2659 152.195 92.2659 152.195 92.2659C152.195 92.2659 152.195 92.2659 152.195 92.2658C152.195 92.2658 152.195 92.2658 152.195 92.2658C152.195 92.2658 152.195 92.2658 152.195 92.2658L152.195 92.2658C152.195 92.2658 152.195 92.2658 152.195 92.2658C152.195 92.2658 152.195 92.2658 152.195 92.2658C152.195 92.2658 152.195 92.2658 152.195 92.2658L152.195 92.2658L152.195 92.2658C152.195 92.2658 152.195 92.2658 152.195 92.2658C152.195 92.2658 152.195 92.2658 152.195 92.2658C152.195 92.2658 152.195 92.2658 152.195 92.2658L152.195 92.2658L152.195 92.2658C152.195 92.2658 152.195 92.2658 152.195 92.2658C152.195 92.2658 152.195 92.2658 152.195 92.2658C152.195 92.2658 152.195 92.2658 152.195 92.2658L152.195 92.2658L152.195 92.2658C152.195 92.2658 152.195 92.2658 152.195 92.2658C152.195 92.2658 152.195 92.2658 152.195 92.2658C152.195 92.2658 152.195 92.2658 152.195 92.2658L152.195 92.2658C152.195 92.2658 152.195 92.2658 152.195 92.2658C152.195 92.2658 152.195 92.2658 152.195 92.2658C152.195 92.2658 152.195 92.2658 152.195 92.2658L152.195 92.2657L78.1951 92.2657ZM113.423 24.7481C93.5409 39.9446 78.1951 63.4923 78.1951 92.2657L152.195 92.2657C152.195 91.3985 152.563 87.9723 158.361 83.5408L113.423 24.7481ZM186.198 1.23047C159.117 1.23047 133.268 9.57961 113.423 24.7481L158.361 83.5408C164.197 79.0798 173.913 75.2305 186.198 75.2305L186.198 1.23047ZM258.974 24.7481C239.129 9.57961 213.279 1.23047 186.198 1.23047L186.198 75.2305C198.484 75.2305 208.199 79.0798 214.036 83.5408L258.974 24.7481ZM294.201 92.2658C294.201 63.4923 278.855 39.9446 258.974 24.7481L214.036 83.5408C219.834 87.9723 220.201 91.3985 220.201 92.2657L294.201 92.2658ZM294.201 92.2664L294.201 92.2664C294.201 92.2664 294.201 92.2664 294.201 92.2664C294.201 92.2664 294.201 92.2664 294.201 92.2664C294.201 92.2663 294.201 92.2663 294.201 92.2663L294.201 92.2663C294.201 92.2663 294.201 92.2663 294.201 92.2663C294.201 92.2663 294.201 92.2663 294.201 92.2663C294.201 92.2663 294.201 92.2663 294.201 92.2663L294.201 92.2663L294.201 92.2663C294.201 92.2663 294.201 92.2663 294.201 92.2663C294.201 92.2663 294.201 92.2663 294.201 92.2663C294.201 92.2663 294.201 92.2663 294.201 92.2663L294.201 92.2663L294.201 92.2663C294.201 92.2663 294.201 92.2663 294.201 92.2663C294.201 92.2663 294.201 92.2663 294.201 92.2663C294.201 92.2663 294.201 92.2663 294.201 92.2663L294.201 92.2663L294.201 92.2663C294.201 92.2663 294.201 92.2663 294.201 92.2663C294.201 92.2663 294.201 92.2663 294.201 92.2663C294.201 92.2663 294.201 92.2663 294.201 92.2663L294.201 92.2663C294.201 92.2663 294.201 92.2663 294.201 92.2663C294.201 92.2663 294.201 92.2663 294.201 92.2663C294.201 92.2663 294.201 92.2663 294.201 92.2663C294.201 92.2663 294.201 92.2663 294.201 92.2663L294.201 92.2663C294.201 92.2663 294.201 92.2663 294.201 92.2662C294.201 92.2662 294.201 92.2662 294.201 92.2662C294.201 92.2662 294.201 92.2662 294.201 92.2662C294.201 92.2662 294.201 92.2662 294.201 92.2662L294.201 92.2662C294.201 92.2662 294.201 92.2662 294.201 92.2662C294.201 92.2662 294.201 92.2662 294.201 92.2662C294.201 92.2662 294.201 92.2662 294.201 92.2662C294.201 92.2662 294.201 92.2662 294.201 92.2662L294.201 92.2662C294.201 92.2662 294.201 92.2662 294.201 92.2662C294.201 92.2662 294.201 92.2662 294.201 92.2662C294.201 92.2662 294.201 92.2662 294.201 92.2662C294.201 92.2662 294.201 92.2662 294.201 92.2662L294.201 92.2662C294.201 92.2662 294.201 92.2662 294.201 92.2662C294.201 92.2662 294.201 92.2662 294.201 92.2662C294.201 92.2662 294.201 92.2662 294.201 92.2662C294.201 92.2662 294.201 92.2662 294.201 92.2662L294.201 92.2662L294.201 92.2662C294.201 92.2662 294.201 92.2662 294.201 92.2662C294.201 92.2662 294.201 92.2662 294.201 92.2662C294.201 92.2662 294.201 92.2662 294.201 92.2662L294.201 92.2662L294.201 92.2662C294.201 92.2662 294.201 92.2662 294.201 92.2661C294.201 92.2661 294.201 92.2661 294.201 92.2661C294.201 92.2661 294.201 92.2661 294.201 92.2661L294.201 92.2661L294.201 92.2661C294.201 92.2661 294.201 92.2661 294.201 92.2661C294.201 92.2661 294.201 92.2661 294.201 92.2661C294.201 92.2661 294.201 92.2661 294.201 92.2661L294.201 92.2661L294.201 92.2661C294.201 92.2661 294.201 92.2661 294.201 92.2661C294.201 92.2661 294.201 92.2661 294.201 92.2661C294.201 92.2661 294.201 92.2661 294.201 92.2661C294.201 92.2661 294.201 92.2661 294.201 92.2661L294.201 92.2661C294.201 92.2661 294.201 92.2661 294.201 92.2661C294.201 92.2661 294.201 92.2661 294.201 92.2661C294.201 92.2661 294.201 92.2661 294.201 92.2661C294.201 92.2661 294.201 92.2661 294.201 92.2661L294.201 92.2661L294.201 92.2661C294.201 92.2661 294.201 92.2661 294.201 92.2661C294.201 92.2661 294.201 92.2661 294.201 92.2661C294.201 92.2661 294.201 92.2661 294.201 92.2661L294.201 92.2661L294.201 92.2661C294.201 92.2661 294.201 92.2661 294.201 92.266C294.201 92.266 294.201 92.266 294.201 92.266C294.201 92.266 294.201 92.266 294.201 92.266L294.201 92.266L294.201 92.266C294.201 92.266 294.201 92.266 294.201 92.266C294.201 92.266 294.201 92.266 294.201 92.266C294.201 92.266 294.201 92.266 294.201 92.266C294.201 92.266 294.201 92.266 294.201 92.266L294.201 92.266C294.201 92.266 294.201 92.266 294.201 92.266C294.201 92.266 294.201 92.266 294.201 92.266C294.201 92.266 294.201 92.266 294.201 92.266C294.201 92.266 294.201 92.266 294.201 92.266L294.201 92.266L294.201 92.266C294.201 92.266 294.201 92.266 294.201 92.266C294.201 92.266 294.201 92.266 294.201 92.266C294.201 92.266 294.201 92.266 294.201 92.266L294.201 92.266L294.201 92.266C294.201 92.266 294.201 92.266 294.201 92.266C294.201 92.266 294.201 92.266 294.201 92.266C294.201 92.266 294.201 92.266 294.201 92.266L294.201 92.266L294.201 92.266C294.201 92.266 294.201 92.266 294.201 92.266C294.201 92.266 294.201 92.266 294.201 92.2659C294.201 92.2659 294.201 92.2659 294.201 92.2659L294.201 92.2659L294.201 92.2659C294.201 92.2659 294.201 92.2659 294.201 92.2659C294.201 92.2659 294.201 92.2659 294.201 92.2659C294.201 92.2659 294.201 92.2659 294.201 92.2659C294.201 92.2659 294.201 92.2659 294.201 92.2659L294.201 92.2659C294.201 92.2659 294.201 92.2659 294.201 92.2659C294.201 92.2659 294.201 92.2659 294.201 92.2659C294.201 92.2659 294.201 92.2659 294.201 92.2659C294.201 92.2659 294.201 92.2659 294.201 92.2659L294.201 92.2659C294.201 92.2659 294.201 92.2659 294.201 92.2659C294.201 92.2659 294.201 92.2659 294.201 92.2659C294.201 92.2659 294.201 92.2659 294.201 92.2659C294.201 92.2659 294.201 92.2659 294.201 92.2659L294.201 92.2659C294.201 92.2659 294.201 92.2659 294.201 92.2659C294.201 92.2659 294.201 92.2659 294.201 92.2659C294.201 92.2659 294.201 92.2659 294.201 92.2659C294.201 92.2659 294.201 92.2659 294.201 92.2659L294.201 92.2659C294.201 92.2659 294.201 92.2659 294.201 92.2659C294.201 92.2659 294.201 92.2659 294.201 92.2659C294.201 92.2658 294.201 92.2658 294.201 92.2658C294.201 92.2658 294.201 92.2658 294.201 92.2658L294.201 92.2658C294.201 92.2658 294.201 92.2658 294.201 92.2658C294.201 92.2658 294.201 92.2658 294.201 92.2658C294.201 92.2658 294.201 92.2658 294.201 92.2658L294.201 92.2658L294.201 92.2658C294.201 92.2658 294.201 92.2658 294.201 92.2658C294.201 92.2658 294.201 92.2658 294.201 92.2658C294.201 92.2658 294.201 92.2658 294.201 92.2658L294.201 92.2658L294.201 92.2658C294.201 92.2658 294.201 92.2658 294.201 92.2658C294.201 92.2658 294.201 92.2658 294.201 92.2658C294.201 92.2658 294.201 92.2658 294.201 92.2658L294.201 92.2658L294.201 92.2658C294.201 92.2658 294.201 92.2658 294.201 92.2658C294.201 92.2658 294.201 92.2658 294.201 92.2658C294.201 92.2658 294.201 92.2658 294.201 92.2658L294.201 92.2658C294.201 92.2658 294.201 92.2658 294.201 92.2658C294.201 92.2658 294.201 92.2658 294.201 92.2658C294.201 92.2658 294.201 92.2658 294.201 92.2658L294.201 92.2658L220.201 92.2657L220.201 92.2658C220.201 92.2658 220.201 92.2658 220.201 92.2658C220.201 92.2658 220.201 92.2658 220.201 92.2658C220.201 92.2658 220.201 92.2658 220.201 92.2658L220.201 92.2658C220.201 92.2658 220.201 92.2658 220.201 92.2658C220.201 92.2658 220.201 92.2658 220.201 92.2658C220.201 92.2658 220.201 92.2658 220.201 92.2658L220.201 92.2658L220.201 92.2658C220.201 92.2658 220.201 92.2658 220.201 92.2658C220.201 92.2658 220.201 92.2658 220.201 92.2658C220.201 92.2658 220.201 92.2658 220.201 92.2658L220.201 92.2658L220.201 92.2658C220.201 92.2658 220.201 92.2658 220.201 92.2658C220.201 92.2658 220.201 92.2658 220.201 92.2658C220.201 92.2658 220.201 92.2658 220.201 92.2658L220.201 92.2658L220.201 92.2658C220.201 92.2658 220.201 92.2658 220.201 92.2658C220.201 92.2658 220.201 92.2658 220.201 92.2658C220.201 92.2658 220.201 92.2658 220.201 92.2658L220.201 92.2658C220.201 92.2658 220.201 92.2658 220.201 92.2658C220.201 92.2658 220.201 92.2658 220.201 92.2658C220.201 92.2659 220.201 92.2659 220.201 92.2659C220.201 92.2659 220.201 92.2659 220.201 92.2659L220.201 92.2659C220.201 92.2659 220.201 92.2659 220.201 92.2659C220.201 92.2659 220.201 92.2659 220.201 92.2659C220.201 92.2659 220.201 92.2659 220.201 92.2659C220.201 92.2659 220.201 92.2659 220.201 92.2659L220.201 92.2659C220.201 92.2659 220.201 92.2659 220.201 92.2659C220.201 92.2659 220.201 92.2659 220.201 92.2659C220.201 92.2659 220.201 92.2659 220.201 92.2659C220.201 92.2659 220.201 92.2659 220.201 92.2659L220.201 92.2659C220.201 92.2659 220.201 92.2659 220.201 92.2659C220.201 92.2659 220.201 92.2659 220.201 92.2659C220.201 92.2659 220.201 92.2659 220.201 92.2659C220.201 92.2659 220.201 92.2659 220.201 92.2659L220.201 92.2659C220.201 92.2659 220.201 92.2659 220.201 92.2659C220.201 92.2659 220.201 92.2659 220.201 92.2659C220.201 92.2659 220.201 92.2659 220.201 92.2659C220.201 92.2659 220.201 92.2659 220.201 92.2659L220.201 92.2659L220.201 92.2659C220.201 92.2659 220.201 92.2659 220.201 92.2659C220.201 92.2659 220.201 92.2659 220.201 92.2659C220.201 92.266 220.201 92.266 220.201 92.266L220.201 92.266L220.201 92.266C220.201 92.266 220.201 92.266 220.201 92.266C220.201 92.266 220.201 92.266 220.201 92.266C220.201 92.266 220.201 92.266 220.201 92.266L220.201 92.266L220.201 92.266C220.201 92.266 220.201 92.266 220.201 92.266C220.201 92.266 220.201 92.266 220.201 92.266C220.201 92.266 220.201 92.266 220.201 92.266L220.201 92.266L220.201 92.266C220.201 92.266 220.201 92.266 220.201 92.266C220.201 92.266 220.201 92.266 220.201 92.266C220.201 92.266 220.201 92.266 220.201 92.266C220.201 92.266 220.201 92.266 220.201 92.266L220.201 92.266C220.201 92.266 220.201 92.266 220.201 92.266C220.201 92.266 220.201 92.266 220.201 92.266C220.201 92.266 220.201 92.266 220.201 92.266C220.201 92.266 220.201 92.266 220.201 92.266L220.201 92.266L220.201 92.266C220.201 92.266 220.201 92.266 220.201 92.266C220.201 92.266 220.201 92.266 220.201 92.266C220.201 92.2661 220.201 92.2661 220.201 92.2661L220.201 92.2661L220.201 92.2661C220.201 92.2661 220.201 92.2661 220.201 92.2661C220.201 92.2661 220.201 92.2661 220.201 92.2661C220.201 92.2661 220.201 92.2661 220.201 92.2661L220.201 92.2661L220.201 92.2661C220.201 92.2661 220.201 92.2661 220.201 92.2661C220.201 92.2661 220.201 92.2661 220.201 92.2661C220.201 92.2661 220.201 92.2661 220.201 92.2661C220.201 92.2661 220.201 92.2661 220.201 92.2661L220.201 92.2661C220.201 92.2661 220.201 92.2661 220.201 92.2661C220.201 92.2661 220.201 92.2661 220.201 92.2661C220.201 92.2661 220.201 92.2661 220.201 92.2661C220.201 92.2661 220.201 92.2661 220.201 92.2661L220.201 92.2661L220.201 92.2661C220.201 92.2661 220.201 92.2661 220.201 92.2661C220.201 92.2661 220.201 92.2661 220.201 92.2661C220.201 92.2661 220.201 92.2661 220.201 92.2661L220.201 92.2661L220.201 92.2661C220.201 92.2661 220.201 92.2661 220.201 92.2661C220.201 92.2661 220.201 92.2661 220.201 92.2661C220.201 92.2662 220.201 92.2662 220.201 92.2662L220.201 92.2662L220.201 92.2662C220.201 92.2662 220.201 92.2662 220.201 92.2662C220.201 92.2662 220.201 92.2662 220.201 92.2662C220.201 92.2662 220.201 92.2662 220.201 92.2662L220.201 92.2662L220.201 92.2662C220.201 92.2662 220.201 92.2662 220.201 92.2662C220.201 92.2662 220.201 92.2662 220.201 92.2662C220.201 92.2662 220.201 92.2662 220.201 92.2662C220.201 92.2662 220.201 92.2662 220.201 92.2662L220.201 92.2662C220.201 92.2662 220.201 92.2662 220.201 92.2662C220.201 92.2662 220.201 92.2662 220.201 92.2662C220.201 92.2662 220.201 92.2662 220.201 92.2662C220.201 92.2662 220.201 92.2662 220.201 92.2662L220.201 92.2662C220.201 92.2662 220.201 92.2662 220.201 92.2662C220.201 92.2662 220.201 92.2662 220.201 92.2662C220.201 92.2662 220.201 92.2662 220.201 92.2662C220.201 92.2662 220.201 92.2662 220.201 92.2662L220.201 92.2662C220.201 92.2662 220.201 92.2662 220.201 92.2662C220.201 92.2662 220.201 92.2662 220.201 92.2662C220.201 92.2662 220.201 92.2662 220.201 92.2662C220.201 92.2662 220.201 92.2662 220.201 92.2662L220.201 92.2663C220.201 92.2663 220.201 92.2663 220.201 92.2663C220.201 92.2663 220.201 92.2663 220.201 92.2663C220.201 92.2663 220.201 92.2663 220.201 92.2663C220.201 92.2663 220.201 92.2663 220.201 92.2663L220.201 92.2663C220.201 92.2663 220.201 92.2663 220.201 92.2663C220.201 92.2663 220.201 92.2663 220.201 92.2663C220.201 92.2663 220.201 92.2663 220.201 92.2663L220.201 92.2663L220.201 92.2663C220.201 92.2663 220.201 92.2663 220.201 92.2663C220.201 92.2663 220.201 92.2663 220.201 92.2663C220.201 92.2663 220.201 92.2663 220.201 92.2663L220.201 92.2663L220.201 92.2663C220.201 92.2663 220.201 92.2663 220.201 92.2663C220.201 92.2663 220.201 92.2663 220.201 92.2663C220.201 92.2663 220.201 92.2663 220.201 92.2663L220.201 92.2663L220.201 92.2663C220.201 92.2663 220.201 92.2663 220.201 92.2663C220.201 92.2663 220.201 92.2663 220.201 92.2663C220.201 92.2663 220.201 92.2663 220.201 92.2663L220.201 92.2663C220.201 92.2663 220.201 92.2663 220.201 92.2663C220.201 92.2663 220.201 92.2663 220.201 92.2664C220.201 92.2664 220.201 92.2664 220.201 92.2664L220.201 92.2664L294.201 92.2664ZM257.201 129.266L258.201 129.266L258.201 55.2664L257.201 55.2664L257.201 129.266Z" fill="#FF2A00" mask="url(#path-3-outside-2_283_1428)"/>
<mask id="path-5-outside-3_283_1428" maskUnits="userSpaceOnUse" x="77.196" y="123" width="219" height="130" fill="black">
<rect fill="white" x="77.196" y="123" width="219" height="130"/>
<path fill-rule="evenodd" clip-rule="evenodd" d="M114.196 160.964C114.196 160.964 114.196 160.965 114.196 160.965C114.196 191.36 146.433 216 186.199 216C225.965 216 258.202 191.36 258.202 160.965C258.202 160.92 258.202 160.874 258.202 160.829L258.202 160.964L257.202 160.964C257.202 160.964 257.202 160.965 257.202 160.965C257.202 175.785 249.345 189.272 236.506 199.086C223.665 208.901 205.882 215 186.199 215C166.516 215 148.733 208.901 135.893 199.086C123.053 189.272 115.196 175.785 115.196 160.965C115.196 160.965 115.196 160.964 115.196 160.964L114.196 160.964Z"/>
</mask>
<path fill-rule="evenodd" clip-rule="evenodd" d="M114.196 160.964C114.196 160.964 114.196 160.965 114.196 160.965C114.196 191.36 146.433 216 186.199 216C225.965 216 258.202 191.36 258.202 160.965C258.202 160.92 258.202 160.874 258.202 160.829L258.202 160.964L257.202 160.964C257.202 160.964 257.202 160.965 257.202 160.965C257.202 175.785 249.345 189.272 236.506 199.086C223.665 208.901 205.882 215 186.199 215C166.516 215 148.733 208.901 135.893 199.086C123.053 189.272 115.196 175.785 115.196 160.965C115.196 160.965 115.196 160.964 115.196 160.964L114.196 160.964Z" fill="#FF2A00"/>
<path d="M114.196 160.964L114.196 123.964L77.196 123.964L77.196 160.964L114.196 160.964ZM258.202 160.829L295.202 160.717L221.202 160.829L258.202 160.829ZM258.202 160.964L258.202 197.964L295.202 197.964L295.202 160.964L258.202 160.964ZM257.202 160.964L257.202 123.964L220.202 123.964L220.202 160.964L257.202 160.964ZM236.506 199.086L258.975 228.482V228.482L236.506 199.086ZM135.893 199.086L113.424 228.482L113.424 228.482L135.893 199.086ZM115.196 160.964L152.196 160.964L152.196 123.964L115.196 123.964L115.196 160.964ZM77.196 160.964L77.196 160.965L151.196 160.965L151.196 160.964L77.196 160.964ZM77.196 160.965C77.196 190.119 92.748 213.938 112.816 229.277C132.851 244.59 158.919 253 186.199 253L186.199 179C173.713 179 163.78 175.09 157.754 170.484C151.763 165.904 151.196 162.205 151.196 160.965L77.196 160.965ZM186.199 253C213.48 253 239.547 244.59 259.582 229.277C279.65 213.938 295.202 190.119 295.202 160.965L221.202 160.965C221.202 162.205 220.636 165.904 214.644 170.484C208.619 175.09 198.685 179 186.199 179L186.199 253ZM295.202 160.965C295.202 160.878 295.202 160.795 295.202 160.717L221.202 160.942C221.202 160.954 221.202 160.961 221.202 160.965L295.202 160.965ZM221.202 160.829L221.202 160.964L295.202 160.964L295.202 160.829L221.202 160.829ZM258.202 123.964L257.202 123.964L257.202 197.964L258.202 197.964L258.202 123.964ZM294.202 160.965L294.202 160.965C294.202 160.965 294.202 160.965 294.202 160.965C294.202 160.965 294.202 160.965 294.202 160.965C294.202 160.965 294.202 160.965 294.202 160.965L294.202 160.965C294.202 160.965 294.202 160.965 294.202 160.965C294.202 160.965 294.202 160.965 294.202 160.965C294.202 160.965 294.202 160.965 294.202 160.965L294.202 160.965L294.202 160.965C294.202 160.965 294.202 160.965 294.202 160.965C294.202 160.965 294.202 160.965 294.202 160.965C294.202 160.965 294.202 160.965 294.202 160.965L294.202 160.965V160.965C294.202 160.965 294.202 160.965 294.202 160.965C294.202 160.965 294.202 160.965 294.202 160.965C294.202 160.965 294.202 160.965 294.202 160.965V160.965L294.202 160.965C294.202 160.965 294.202 160.965 294.202 160.965C294.202 160.965 294.202 160.965 294.202 160.965C294.202 160.965 294.202 160.965 294.202 160.965L294.202 160.965C294.202 160.965 294.202 160.965 294.202 160.965C294.202 160.965 294.202 160.965 294.202 160.965C294.202 160.965 294.202 160.965 294.202 160.965C294.202 160.965 294.202 160.965 294.202 160.965L294.202 160.965C294.202 160.965 294.202 160.965 294.202 160.965C294.202 160.965 294.202 160.965 294.202 160.965C294.202 160.965 294.202 160.965 294.202 160.965C294.202 160.965 294.202 160.965 294.202 160.965L294.202 160.965C294.202 160.965 294.202 160.965 294.202 160.965C294.202 160.965 294.202 160.965 294.202 160.965C294.202 160.965 294.202 160.965 294.202 160.965C294.202 160.965 294.202 160.965 294.202 160.965L294.202 160.965C294.202 160.965 294.202 160.965 294.202 160.965C294.202 160.965 294.202 160.965 294.202 160.965C294.202 160.965 294.202 160.965 294.202 160.965C294.202 160.965 294.202 160.965 294.202 160.965V160.965C294.202 160.965 294.202 160.965 294.202 160.965C294.202 160.965 294.202 160.965 294.202 160.965C294.202 160.965 294.202 160.965 294.202 160.965C294.202 160.965 294.202 160.965 294.202 160.965L294.202 160.965L294.202 160.965C294.202 160.965 294.202 160.965 294.202 160.965C294.202 160.965 294.202 160.965 294.202 160.965C294.202 160.965 294.202 160.965 294.202 160.965L294.202 160.965L294.202 160.965C294.202 160.965 294.202 160.965 294.202 160.965C294.202 160.965 294.202 160.965 294.202 160.965C294.202 160.964 294.202 160.964 294.202 160.964V160.964L294.202 160.964C294.202 160.964 294.202 160.964 294.202 160.964C294.202 160.964 294.202 160.964 294.202 160.964C294.202 160.964 294.202 160.964 294.202 160.964L294.202 160.964V160.964C294.202 160.964 294.202 160.964 294.202 160.964C294.202 160.964 294.202 160.964 294.202 160.964C294.202 160.964 294.202 160.964 294.202 160.964C294.202 160.964 294.202 160.964 294.202 160.964L294.202 160.964C294.202 160.964 294.202 160.964 294.202 160.964C294.202 160.964 294.202 160.964 294.202 160.964C294.202 160.964 294.202 160.964 294.202 160.964C294.202 160.964 294.202 160.964 294.202 160.964L294.202 160.964L294.202 160.964C294.202 160.964 294.202 160.964 294.202 160.964C294.202 160.964 294.202 160.964 294.202 160.964C294.202 160.964 294.202 160.964 294.202 160.964V160.964L294.202 160.964C294.202 160.964 294.202 160.964 294.202 160.964C294.202 160.964 294.202 160.964 294.202 160.964C294.202 160.964 294.202 160.964 294.202 160.964L294.202 160.964V160.964C294.202 160.964 294.202 160.964 294.202 160.964C294.202 160.964 294.202 160.964 294.202 160.964C294.202 160.964 294.202 160.964 294.202 160.964C294.202 160.964 294.202 160.964 294.202 160.964L294.202 160.964C294.202 160.964 294.202 160.964 294.202 160.964C294.202 160.964 294.202 160.964 294.202 160.964C294.202 160.964 294.202 160.964 294.202 160.964C294.202 160.964 294.202 160.964 294.202 160.964L294.202 160.964L294.202 160.964C294.202 160.964 294.202 160.964 294.202 160.964C294.202 160.964 294.202 160.964 294.202 160.964C294.202 160.964 294.202 160.964 294.202 160.964V160.964L294.202 160.964C294.202 160.964 294.202 160.964 294.202 160.964C294.202 160.964 294.202 160.964 294.202 160.964C294.202 160.964 294.202 160.964 294.202 160.964L294.202 160.964V160.964C294.202 160.964 294.202 160.964 294.202 160.964C294.202 160.964 294.202 160.964 294.202 160.964C294.202 160.964 294.202 160.964 294.202 160.964L294.202 160.964L294.202 160.964C294.202 160.964 294.202 160.964 294.202 160.964C294.202 160.964 294.202 160.964 294.202 160.964C294.202 160.964 294.202 160.964 294.202 160.964C294.202 160.964 294.202 160.964 294.202 160.964L294.202 160.964C294.202 160.964 294.202 160.964 294.202 160.964C294.202 160.964 294.202 160.964 294.202 160.964C294.202 160.964 294.202 160.964 294.202 160.964C294.202 160.964 294.202 160.964 294.202 160.964V160.964C294.202 160.964 294.202 160.964 294.202 160.964C294.202 160.964 294.202 160.964 294.202 160.964C294.202 160.964 294.202 160.964 294.202 160.964C294.202 160.964 294.202 160.964 294.202 160.964L294.202 160.964C294.202 160.964 294.202 160.964 294.202 160.964C294.202 160.964 294.202 160.964 294.202 160.964C294.202 160.964 294.202 160.964 294.202 160.964C294.202 160.964 294.202 160.964 294.202 160.964L294.202 160.964C294.202 160.964 294.202 160.964 294.202 160.964C294.202 160.964 294.202 160.964 294.202 160.964C294.202 160.964 294.202 160.964 294.202 160.964C294.202 160.964 294.202 160.964 294.202 160.964L294.202 160.964C294.202 160.964 294.202 160.964 294.202 160.964C294.202 160.964 294.202 160.964 294.202 160.964C294.202 160.964 294.202 160.964 294.202 160.964L294.202 160.964L294.202 160.964C294.202 160.964 294.202 160.964 294.202 160.964C294.202 160.964 294.202 160.964 294.202 160.964C294.202 160.964 294.202 160.964 294.202 160.964L294.202 160.964V160.964C294.202 160.964 294.202 160.964 294.202 160.964C294.202 160.964 294.202 160.964 294.202 160.964C294.202 160.964 294.202 160.964 294.202 160.964V160.964L294.202 160.964C294.202 160.964 294.202 160.964 294.202 160.964C294.202 160.964 294.202 160.964 294.202 160.964C294.202 160.964 294.202 160.964 294.202 160.964L294.202 160.964C294.202 160.964 294.202 160.964 294.202 160.964C294.202 160.964 294.202 160.964 294.202 160.964C294.202 160.964 294.202 160.964 294.202 160.964L294.202 160.964L220.202 160.964L220.202 160.964C220.202 160.964 220.202 160.964 220.202 160.964C220.202 160.964 220.202 160.964 220.202 160.964C220.202 160.964 220.202 160.964 220.202 160.964L220.202 160.964C220.202 160.964 220.202 160.964 220.202 160.964C220.202 160.964 220.202 160.964 220.202 160.964C220.202 160.964 220.202 160.964 220.202 160.964L220.202 160.964L220.202 160.964C220.202 160.964 220.202 160.964 220.202 160.964C220.202 160.964 220.202 160.964 220.202 160.964C220.202 160.964 220.202 160.964 220.202 160.964L220.202 160.964L220.202 160.964C220.202 160.964 220.202 160.964 220.202 160.964C220.202 160.964 220.202 160.964 220.202 160.964C220.202 160.964 220.202 160.964 220.202 160.964L220.202 160.964L220.202 160.964C220.202 160.964 220.202 160.964 220.202 160.964C220.202 160.964 220.202 160.964 220.202 160.964C220.202 160.964 220.202 160.964 220.202 160.964L220.202 160.964C220.202 160.964 220.202 160.964 220.202 160.964C220.202 160.964 220.202 160.964 220.202 160.964C220.202 160.964 220.202 160.964 220.202 160.964C220.202 160.964 220.202 160.964 220.202 160.964L220.202 160.964C220.202 160.964 220.202 160.964 220.202 160.964C220.202 160.964 220.202 160.964 220.202 160.964C220.202 160.964 220.202 160.964 220.202 160.964C220.202 160.964 220.202 160.964 220.202 160.964L220.202 160.964C220.202 160.964 220.202 160.964 220.202 160.964C220.202 160.964 220.202 160.964 220.202 160.964C220.202 160.964 220.202 160.964 220.202 160.964C220.202 160.964 220.202 160.964 220.202 160.964L220.202 160.964C220.202 160.964 220.202 160.964 220.202 160.964C220.202 160.964 220.202 160.964 220.202 160.964C220.202 160.964 220.202 160.964 220.202 160.964C220.202 160.964 220.202 160.964 220.202 160.964L220.202 160.964C220.202 160.964 220.202 160.964 220.202 160.964C220.202 160.964 220.202 160.964 220.202 160.964C220.202 160.964 220.202 160.964 220.202 160.964C220.202 160.964 220.202 160.964 220.202 160.964L220.202 160.964L220.202 160.964C220.202 160.964 220.202 160.964 220.202 160.964C220.202 160.964 220.202 160.964 220.202 160.964C220.202 160.964 220.202 160.964 220.202 160.964L220.202 160.964L220.202 160.964C220.202 160.964 220.202 160.964 220.202 160.964C220.202 160.964 220.202 160.964 220.202 160.964C220.202 160.964 220.202 160.964 220.202 160.964L220.202 160.964L220.202 160.964C220.202 160.964 220.202 160.964 220.202 160.964C220.202 160.964 220.202 160.964 220.202 160.964C220.202 160.964 220.202 160.964 220.202 160.964L220.202 160.964L220.202 160.964C220.202 160.964 220.202 160.964 220.202 160.964C220.202 160.964 220.202 160.964 220.202 160.964C220.202 160.964 220.202 160.964 220.202 160.964C220.202 160.964 220.202 160.964 220.202 160.964L220.202 160.964C220.202 160.964 220.202 160.964 220.202 160.964C220.202 160.964 220.202 160.964 220.202 160.964C220.202 160.964 220.202 160.964 220.202 160.964C220.202 160.964 220.202 160.964 220.202 160.964L220.202 160.964L220.202 160.964C220.202 160.964 220.202 160.964 220.202 160.964C220.202 160.964 220.202 160.964 220.202 160.964C220.202 160.964 220.202 160.964 220.202 160.964L220.202 160.964L220.202 160.964C220.202 160.964 220.202 160.964 220.202 160.964C220.202 160.964 220.202 160.964 220.202 160.964C220.202 160.964 220.202 160.964 220.202 160.964L220.202 160.964L220.202 160.964C220.202 160.964 220.202 160.964 220.202 160.964C220.202 160.964 220.202 160.964 220.202 160.964C220.202 160.964 220.202 160.964 220.202 160.964C220.202 160.964 220.202 160.964 220.202 160.964L220.202 160.964C220.202 160.964 220.202 160.964 220.202 160.964C220.202 160.964 220.202 160.964 220.202 160.964C220.202 160.964 220.202 160.964 220.202 160.964C220.202 160.964 220.202 160.964 220.202 160.964L220.202 160.964L220.202 160.964C220.202 160.964 220.202 160.964 220.202 160.964C220.202 160.964 220.202 160.964 220.202 160.964C220.202 160.964 220.202 160.964 220.202 160.964L220.202 160.964L220.202 160.964C220.202 160.964 220.202 160.964 220.202 160.965C220.202 160.965 220.202 160.965 220.202 160.965C220.202 160.965 220.202 160.965 220.202 160.965L220.202 160.965L220.202 160.965C220.202 160.965 220.202 160.965 220.202 160.965C220.202 160.965 220.202 160.965 220.202 160.965C220.202 160.965 220.202 160.965 220.202 160.965L220.202 160.965L220.202 160.965C220.202 160.965 220.202 160.965 220.202 160.965C220.202 160.965 220.202 160.965 220.202 160.965C220.202 160.965 220.202 160.965 220.202 160.965C220.202 160.965 220.202 160.965 220.202 160.965L220.202 160.965C220.202 160.965 220.202 160.965 220.202 160.965C220.202 160.965 220.202 160.965 220.202 160.965C220.202 160.965 220.202 160.965 220.202 160.965C220.202 160.965 220.202 160.965 220.202 160.965L220.202 160.965C220.202 160.965 220.202 160.965 220.202 160.965C220.202 160.965 220.202 160.965 220.202 160.965C220.202 160.965 220.202 160.965 220.202 160.965C220.202 160.965 220.202 160.965 220.202 160.965L220.202 160.965C220.202 160.965 220.202 160.965 220.202 160.965C220.202 160.965 220.202 160.965 220.202 160.965C220.202 160.965 220.202 160.965 220.202 160.965C220.202 160.965 220.202 160.965 220.202 160.965L220.202 160.965C220.202 160.965 220.202 160.965 220.202 160.965C220.202 160.965 220.202 160.965 220.202 160.965C220.202 160.965 220.202 160.965 220.202 160.965C220.202 160.965 220.202 160.965 220.202 160.965L220.202 160.965C220.202 160.965 220.202 160.965 220.202 160.965C220.202 160.965 220.202 160.965 220.202 160.965C220.202 160.965 220.202 160.965 220.202 160.965L220.202 160.965L220.202 160.965C220.202 160.965 220.202 160.965 220.202 160.965C220.202 160.965 220.202 160.965 220.202 160.965C220.202 160.965 220.202 160.965 220.202 160.965L220.202 160.965L220.202 160.965C220.202 160.965 220.202 160.965 220.202 160.965C220.202 160.965 220.202 160.965 220.202 160.965C220.202 160.965 220.202 160.965 220.202 160.965L220.202 160.965L220.202 160.965C220.202 160.965 220.202 160.965 220.202 160.965C220.202 160.965 220.202 160.965 220.202 160.965C220.202 160.965 220.202 160.965 220.202 160.965L220.202 160.965C220.202 160.965 220.202 160.965 220.202 160.965C220.202 160.965 220.202 160.965 220.202 160.965C220.202 160.965 220.202 160.965 220.202 160.965L220.202 160.965L294.202 160.965ZM258.975 228.482C278.856 213.286 294.202 189.738 294.202 160.965L220.202 160.965C220.202 161.832 219.835 165.258 214.037 169.69L258.975 228.482ZM186.199 252C213.28 252 239.13 243.651 258.975 228.482L214.037 169.69C208.2 174.151 198.485 178 186.199 178L186.199 252ZM113.424 228.482C133.269 243.651 159.118 252 186.199 252L186.199 178C173.914 178 164.198 174.151 158.362 169.69L113.424 228.482ZM78.196 160.965C78.196 189.738 93.5418 213.286 113.424 228.482L158.362 169.69C152.564 165.258 152.196 161.832 152.196 160.965L78.196 160.965ZM78.196 160.964C78.196 160.964 78.196 160.964 78.196 160.964C78.196 160.965 78.196 160.965 78.196 160.965L152.196 160.965C152.196 160.965 152.196 160.965 152.196 160.964C152.196 160.964 152.196 160.964 152.196 160.964L78.196 160.964ZM115.196 123.964L114.196 123.964L114.196 197.964L115.196 197.964L115.196 123.964Z" fill="#FF2A00" mask="url(#path-5-outside-3_283_1428)"/>
<mask id="path-7-outside-4_283_1428" maskUnits="userSpaceOnUse" x="-0.581302" y="16.6172" width="147" height="220" fill="black">
<rect fill="white" x="-0.581302" y="16.6172" width="147" height="220"/>
<path fill-rule="evenodd" clip-rule="evenodd" d="M37.416 198.617C77.182 198.617 109.419 166.38 109.419 126.614C109.419 86.8481 77.1821 54.6113 37.416 54.6111L37.416 55.6111C76.6298 55.6113 108.419 87.4004 108.419 126.614C108.419 165.828 76.6298 197.617 37.416 197.617L37.416 198.617Z"/>
</mask>
<path fill-rule="evenodd" clip-rule="evenodd" d="M37.416 198.617C77.182 198.617 109.419 166.38 109.419 126.614C109.419 86.8481 77.1821 54.6113 37.416 54.6111L37.416 55.6111C76.6298 55.6113 108.419 87.4004 108.419 126.614C108.419 165.828 76.6298 197.617 37.416 197.617L37.416 198.617Z" fill="#FF2A00"/>
<path d="M37.416 198.617L0.416031 198.617L0.416028 235.617L37.4162 235.617L37.416 198.617ZM37.416 54.6111L37.4162 17.6111L0.416047 17.6109L0.416043 54.6111L37.416 54.6111ZM37.416 55.6111L0.416043 55.6111L0.41604 92.6109L37.4158 92.6111L37.416 55.6111ZM37.416 197.617L37.4158 160.617L0.416034 160.617L0.416031 197.617L37.416 197.617ZM37.4162 235.617C97.6167 235.617 146.419 186.815 146.419 126.614L72.4187 126.614C72.4187 145.946 56.7474 161.617 37.4158 161.617L37.4162 235.617ZM146.419 126.614C146.419 66.4136 97.6167 17.6114 37.4162 17.6111L37.4159 91.6111C56.7474 91.6112 72.4187 107.283 72.4187 126.614L146.419 126.614ZM0.416043 54.6111L0.416043 55.6111L74.416 55.6111L74.416 54.6111L0.416043 54.6111ZM145.419 126.614C145.419 66.9659 97.0644 18.6114 37.4162 18.6111L37.4158 92.6111C56.1951 92.6112 71.4187 107.835 71.4187 126.614L145.419 126.614ZM37.4162 234.617C97.0644 234.617 145.419 186.262 145.419 126.614L71.4187 126.614C71.4187 145.393 56.1951 160.617 37.4158 160.617L37.4162 234.617ZM0.416031 197.617L0.416031 198.617L74.416 198.617L74.416 197.617L0.416031 197.617Z" fill="#FF2A00" mask="url(#path-7-outside-4_283_1428)"/>
</svg>
