<svg width="377" height="260" viewBox="0 0 377 260" fill="none" xmlns="http://www.w3.org/2000/svg">
<mask id="path-1-outside-1_283_1127" maskUnits="userSpaceOnUse" x="177.992" y="90.3623" width="114" height="169" fill="black">
<rect fill="white" x="177.992" y="90.3623" width="114" height="169"/>
<path fill-rule="evenodd" clip-rule="evenodd" d="M261.938 121.362C232.144 121.363 207.992 145.515 207.992 175.309C207.992 205.102 232.145 229.255 261.939 229.255C265.496 229.255 268.973 228.911 272.338 228.254H262.342C262.207 228.255 262.073 228.255 261.939 228.255C232.697 228.255 208.992 204.55 208.992 175.309C208.992 146.068 232.697 122.363 261.938 122.362V121.362Z"/>
</mask>
<path fill-rule="evenodd" clip-rule="evenodd" d="M261.938 121.362C232.144 121.363 207.992 145.515 207.992 175.309C207.992 205.102 232.145 229.255 261.939 229.255C265.496 229.255 268.973 228.911 272.338 228.254H262.342C262.207 228.255 262.073 228.255 261.939 228.255C232.697 228.255 208.992 204.55 208.992 175.309C208.992 146.068 232.697 122.363 261.938 122.362V121.362Z" fill="#FF2A00"/>
<path d="M261.938 121.362H291.938V91.3617L261.937 91.3623L261.938 121.362ZM272.338 228.254L278.088 257.697L272.338 198.254V228.254ZM262.342 228.254V198.254H262.23L262.118 198.254L262.342 228.254ZM261.938 122.362L261.938 152.362L291.938 152.362V122.362H261.938ZM261.937 91.3623C215.575 91.3632 177.992 128.947 177.992 175.309H237.992C237.992 162.084 248.713 151.363 261.938 151.362L261.937 91.3623ZM177.992 175.309C177.992 221.671 215.576 259.255 261.939 259.255V199.255C248.713 199.255 237.992 188.534 237.992 175.309H177.992ZM261.939 259.255C267.436 259.255 272.839 258.723 278.088 257.697L266.588 198.81C265.107 199.099 263.556 199.255 261.939 199.255V259.255ZM272.338 198.254H262.342V258.254H272.338V198.254ZM261.939 258.255C262.148 258.255 262.357 258.254 262.565 258.253L262.118 198.254C262.058 198.255 261.998 198.255 261.939 198.255V258.255ZM178.992 175.309C178.992 221.119 216.129 258.255 261.939 258.255V198.255C249.266 198.255 238.992 187.982 238.992 175.309H178.992ZM261.937 92.3623C216.128 92.3632 178.992 129.499 178.992 175.309H238.992C238.992 162.636 249.265 152.363 261.938 152.362L261.937 92.3623ZM291.938 122.362V121.362L231.938 121.362V122.362L291.938 122.362Z" fill="#FF2A00" mask="url(#path-1-outside-1_283_1127)"/>
<mask id="path-3-outside-2_283_1127" maskUnits="userSpaceOnUse" x="88.7549" y="-0.743164" width="114" height="169" fill="black">
<rect fill="white" x="88.7549" y="-0.743164" width="114" height="169"/>
<path fill-rule="evenodd" clip-rule="evenodd" d="M172.701 30.2568C142.907 30.257 118.755 54.4095 118.755 84.2032C118.755 113.997 142.908 138.15 172.701 138.15C172.824 138.15 172.947 138.149 173.069 138.148H172.701V137.15C143.46 137.15 119.755 113.445 119.755 84.2032C119.755 54.9618 143.46 31.257 172.701 31.2568V30.2568Z"/>
</mask>
<path fill-rule="evenodd" clip-rule="evenodd" d="M172.701 30.2568C142.907 30.257 118.755 54.4095 118.755 84.2032C118.755 113.997 142.908 138.15 172.701 138.15C172.824 138.15 172.947 138.149 173.069 138.148H172.701V137.15C143.46 137.15 119.755 113.445 119.755 84.2032C119.755 54.9618 143.46 31.257 172.701 31.2568V30.2568Z" fill="#FF2A00"/>
<path d="M172.701 30.2568L202.701 30.2568V0.256702L172.701 0.256836L172.701 30.2568ZM173.069 138.148L173.269 168.148L173.069 108.148V138.148ZM172.701 138.148H142.701V168.148H172.701L172.701 138.148ZM172.701 137.15H202.701V107.15L172.701 107.15L172.701 137.15ZM172.701 31.2568L172.701 61.2568L202.701 61.2567V31.2568L172.701 31.2568ZM172.701 0.256836C126.339 0.257042 88.7549 37.841 88.7549 84.2032H148.755C148.755 70.978 159.476 60.2569 172.701 60.2568L172.701 0.256836ZM88.7549 84.2032C88.7549 130.566 126.339 168.15 172.701 168.15L172.701 108.15C159.476 108.15 148.755 97.4285 148.755 84.2032H88.7549ZM172.701 168.15C172.891 168.15 173.08 168.149 173.269 168.148L172.869 108.149C172.813 108.149 172.757 108.15 172.701 108.15L172.701 168.15ZM173.069 108.148H172.701L172.701 168.148H173.069L173.069 108.148ZM202.701 138.148V137.15H142.701V138.148H202.701ZM89.7549 84.2032C89.7549 130.013 126.891 167.149 172.701 167.15L172.701 107.15C160.028 107.15 149.755 96.8762 149.755 84.2032H89.7549ZM172.701 1.25684C126.891 1.25704 89.7549 38.3933 89.7549 84.2032H149.755C149.755 71.5303 160.028 61.2569 172.701 61.2568L172.701 1.25684ZM202.701 31.2568V30.2568L142.701 30.2568V31.2568L202.701 31.2568Z" fill="#FF2A00" mask="url(#path-3-outside-2_283_1127)"/>
<mask id="path-5-outside-3_283_1127" maskUnits="userSpaceOnUse" x="0.960449" y="90.3623" width="114" height="169" fill="black">
<rect fill="white" x="0.960449" y="90.3623" width="114" height="169"/>
<path fill-rule="evenodd" clip-rule="evenodd" d="M84.9058 121.362C55.1125 121.363 30.9604 145.515 30.9604 175.309C30.9604 205.102 55.1125 229.255 84.9058 229.255V228.255C55.6648 228.255 31.9604 204.55 31.9604 175.309C31.9604 146.068 55.6648 122.363 84.9058 122.362V121.362Z"/>
</mask>
<path fill-rule="evenodd" clip-rule="evenodd" d="M84.9058 121.362C55.1125 121.363 30.9604 145.515 30.9604 175.309C30.9604 205.102 55.1125 229.255 84.9058 229.255V228.255C55.6648 228.255 31.9604 204.55 31.9604 175.309C31.9604 146.068 55.6648 122.363 84.9058 122.362V121.362Z" fill="#FF2A00"/>
<path d="M84.9058 121.362H114.906V91.3617L84.9052 91.3623L84.9058 121.362ZM84.9058 229.255L84.9052 259.255L114.906 259.256L114.906 229.255H84.9058ZM84.9058 228.255H114.906V198.256L84.9064 198.255L84.9058 228.255ZM84.9058 122.362L84.9064 152.362L114.906 152.362V122.362H84.9058ZM84.9052 91.3623C38.5436 91.3632 0.960449 128.947 0.960449 175.309H60.9604C60.9604 162.084 71.6814 151.363 84.9064 151.362L84.9052 91.3623ZM0.960449 175.309C0.960449 221.67 38.5436 259.254 84.9052 259.255L84.9064 199.255C71.6814 199.255 60.9604 188.534 60.9604 175.309H0.960449ZM114.906 229.255V228.255H54.9058V229.255H114.906ZM1.96045 175.309C1.96045 221.118 39.0959 258.254 84.9052 258.255L84.9064 198.255C72.2337 198.255 61.9604 187.981 61.9604 175.309H1.96045ZM84.9052 92.3623C39.0959 92.3632 1.96045 129.499 1.96045 175.309H61.9604C61.9604 162.636 72.2337 152.363 84.9064 152.362L84.9052 92.3623ZM114.906 122.362V121.362L54.9058 121.362V122.362L114.906 122.362Z" fill="#FF2A00" mask="url(#path-5-outside-3_283_1127)"/>
<mask id="path-7-outside-4_283_1127" maskUnits="userSpaceOnUse" x="81.3311" y="91.2549" width="114" height="169" fill="black">
<rect fill="white" x="81.3311" y="91.2549" width="114" height="169"/>
<path fill-rule="evenodd" clip-rule="evenodd" d="M111.385 229.255C141.179 229.255 165.331 205.102 165.331 175.308C165.331 145.515 141.178 121.362 111.385 121.362C111.249 121.362 111.113 121.363 110.977 121.364L111.385 121.364L111.385 122.362C140.626 122.362 164.331 146.067 164.331 175.308C164.331 204.55 140.626 228.255 111.385 228.255L111.385 229.255Z"/>
</mask>
<path fill-rule="evenodd" clip-rule="evenodd" d="M111.385 229.255C141.179 229.255 165.331 205.102 165.331 175.308C165.331 145.515 141.178 121.362 111.385 121.362C111.249 121.362 111.113 121.363 110.977 121.364L111.385 121.364L111.385 122.362C140.626 122.362 164.331 146.067 164.331 175.308C164.331 204.55 140.626 228.255 111.385 228.255L111.385 229.255Z" fill="#FF2A00"/>
<path d="M111.385 229.255L81.385 229.255L81.385 259.255L111.385 259.255L111.385 229.255ZM110.977 121.364L110.754 91.3644L110.977 151.364L110.977 121.364ZM111.385 121.364L141.385 121.364L141.385 91.3636L111.385 91.3636L111.385 121.364ZM111.385 122.362L81.385 122.362L81.385 152.362L111.385 152.362L111.385 122.362ZM111.385 228.255L111.385 198.255L81.385 198.255L81.385 228.255L111.385 228.255ZM111.385 259.255C157.747 259.255 195.331 221.671 195.331 175.308L135.331 175.308C135.331 188.534 124.61 199.255 111.385 199.255L111.385 259.255ZM195.331 175.308C195.331 128.946 157.747 91.3621 111.385 91.3621L111.385 151.362C124.61 151.362 135.331 162.083 135.331 175.308L195.331 175.308ZM111.385 91.3621C111.175 91.3621 110.964 91.3628 110.754 91.3644L111.199 151.363C111.261 151.362 111.323 151.362 111.385 151.362L111.385 91.3621ZM110.977 151.364L111.385 151.364L111.385 91.3636L110.977 91.3636L110.977 151.364ZM81.385 121.364L81.385 122.362L141.385 122.362L141.385 121.364L81.385 121.364ZM194.331 175.308C194.331 129.499 157.195 92.3624 111.385 92.3621L111.385 152.362C124.058 152.362 134.331 162.636 134.331 175.308L194.331 175.308ZM111.385 258.255C157.195 258.255 194.331 221.118 194.331 175.308L134.331 175.308C134.331 187.981 124.058 198.255 111.385 198.255L111.385 258.255ZM81.385 228.255L81.385 229.255L141.385 229.255L141.385 228.255L81.385 228.255Z" fill="#FF2A00" mask="url(#path-7-outside-4_283_1127)"/>
<mask id="path-9-outside-5_283_1127" maskUnits="userSpaceOnUse" x="262.437" y="91.2549" width="114" height="168" fill="black">
<rect fill="white" x="262.437" y="91.2549" width="114" height="168"/>
<path fill-rule="evenodd" clip-rule="evenodd" d="M292.49 229.255C292.49 229.255 292.49 229.255 292.49 229.255C322.284 229.255 346.437 205.102 346.437 175.308C346.437 145.515 322.284 121.362 292.49 121.362C288.933 121.362 285.456 121.706 282.091 122.364L292.086 122.364C292.221 122.363 292.355 122.362 292.49 122.362C321.732 122.362 345.437 146.067 345.437 175.308C345.437 204.55 321.732 228.255 292.49 228.255C292.49 228.255 292.49 228.255 292.49 228.255L292.49 229.255Z"/>
</mask>
<path fill-rule="evenodd" clip-rule="evenodd" d="M292.49 229.255C292.49 229.255 292.49 229.255 292.49 229.255C322.284 229.255 346.437 205.102 346.437 175.308C346.437 145.515 322.284 121.362 292.49 121.362C288.933 121.362 285.456 121.706 282.091 122.364L292.086 122.364C292.221 122.363 292.355 122.362 292.49 122.362C321.732 122.362 345.437 146.067 345.437 175.308C345.437 204.55 321.732 228.255 292.49 228.255C292.49 228.255 292.49 228.255 292.49 228.255L292.49 229.255Z" fill="#FF2A00"/>
<path d="M292.49 229.255L262.49 229.255L262.49 259.255L292.49 259.255L292.49 229.255ZM282.091 122.364L276.34 92.9198L282.091 152.364L282.091 122.364ZM292.086 122.364L292.086 152.364L292.198 152.364L292.31 152.363L292.086 122.364ZM292.49 228.255L292.49 198.255L262.49 198.255L262.49 228.255L292.49 228.255ZM292.49 259.255L292.49 259.255L292.49 199.255L292.49 199.255L292.49 259.255ZM292.49 259.255C338.852 259.255 376.437 221.671 376.437 175.308L316.437 175.308C316.437 188.534 305.715 199.255 292.49 199.255L292.49 259.255ZM376.437 175.308C376.437 128.946 338.852 91.3621 292.49 91.3621L292.49 151.362C305.715 151.362 316.437 162.083 316.437 175.308L376.437 175.308ZM292.49 91.3621C286.992 91.3621 281.59 91.8946 276.34 92.9198L287.841 151.807C289.321 151.518 290.873 151.362 292.49 151.362L292.49 91.3621ZM282.091 152.364L292.086 152.364L292.086 92.3636L282.091 92.3636L282.091 152.364ZM292.49 92.3621C292.281 92.3621 292.071 92.3628 291.862 92.3644L292.31 152.363C292.37 152.362 292.43 152.362 292.49 152.362L292.49 92.3621ZM375.437 175.308C375.437 129.498 338.3 92.3621 292.49 92.3621L292.49 152.362C305.163 152.362 315.437 162.636 315.437 175.308L375.437 175.308ZM292.49 258.255C338.3 258.255 375.437 221.119 375.437 175.308L315.437 175.308C315.437 187.981 305.163 198.255 292.49 198.255L292.49 258.255ZM292.49 258.255C292.49 258.255 292.49 258.255 292.49 258.255C292.49 258.255 292.49 258.255 292.49 258.255L292.49 258.255C292.49 258.255 292.49 258.255 292.49 258.255C292.49 258.255 292.49 258.255 292.49 258.255C292.49 258.255 292.49 258.255 292.49 258.255C292.49 258.255 292.49 258.255 292.49 258.255L292.49 258.255L292.49 258.255L292.49 258.255L292.49 258.255C292.49 258.255 292.49 258.255 292.49 258.255C292.49 258.255 292.49 258.255 292.49 258.255C292.49 258.255 292.49 258.255 292.49 258.255C292.49 258.255 292.49 258.255 292.49 258.255C292.49 258.255 292.49 258.255 292.49 258.255L292.49 258.255L292.49 258.255C292.49 258.255 292.49 258.255 292.49 258.255C292.49 258.255 292.49 258.255 292.49 258.255C292.49 258.255 292.49 258.255 292.49 258.255C292.49 258.255 292.49 258.255 292.49 258.255C292.49 258.255 292.49 258.255 292.49 258.255L292.49 258.255L292.49 258.255L292.49 258.255L292.49 258.255C292.49 258.255 292.49 258.255 292.49 258.255C292.49 258.255 292.49 258.255 292.49 258.255C292.49 258.255 292.49 258.255 292.49 258.255C292.49 258.255 292.49 258.255 292.49 258.255L292.49 258.255C292.49 258.255 292.49 258.255 292.49 258.255C292.49 258.255 292.49 258.255 292.49 258.255L292.49 198.255C292.49 198.255 292.49 198.255 292.49 198.255C292.49 198.255 292.49 198.255 292.49 198.255L292.49 198.255C292.49 198.255 292.49 198.255 292.49 198.255C292.49 198.255 292.49 198.255 292.49 198.255C292.49 198.255 292.49 198.255 292.49 198.255C292.49 198.255 292.49 198.255 292.49 198.255L292.49 198.255L292.49 198.255L292.49 198.255L292.49 198.255C292.49 198.255 292.49 198.255 292.49 198.255C292.49 198.255 292.49 198.255 292.49 198.255C292.49 198.255 292.49 198.255 292.49 198.255C292.49 198.255 292.49 198.255 292.49 198.255C292.49 198.255 292.49 198.255 292.49 198.255L292.49 198.255L292.49 198.255C292.49 198.255 292.49 198.255 292.49 198.255C292.49 198.255 292.49 198.255 292.49 198.255C292.49 198.255 292.49 198.255 292.49 198.255C292.49 198.255 292.49 198.255 292.49 198.255C292.49 198.255 292.49 198.255 292.49 198.255L292.49 198.255L292.49 198.255L292.49 198.255L292.49 198.255C292.49 198.255 292.49 198.255 292.49 198.255C292.49 198.255 292.49 198.255 292.49 198.255C292.49 198.255 292.49 198.255 292.49 198.255C292.49 198.255 292.49 198.255 292.49 198.255L292.49 198.255C292.49 198.255 292.49 198.255 292.49 198.255C292.49 198.255 292.49 198.255 292.49 198.255L292.49 258.255ZM262.49 228.255L262.49 229.255L322.49 229.255L322.49 228.255L262.49 228.255Z" fill="#FF2A00" mask="url(#path-9-outside-5_283_1127)"/>
<mask id="path-11-outside-6_283_1127" maskUnits="userSpaceOnUse" x="174.641" y="0.147454" width="114" height="168" fill="black">
<rect fill="white" x="174.641" y="0.147454" width="114" height="168"/>
<path fill-rule="evenodd" clip-rule="evenodd" d="M204.694 138.147C204.694 138.147 204.694 138.147 204.694 138.147C234.488 138.147 258.641 113.995 258.641 84.2011C258.641 54.4073 234.488 30.2547 204.694 30.2546C201.137 30.2546 197.66 30.599 194.295 31.2562L204.29 31.2562C204.425 31.2552 204.559 31.2546 204.694 31.2546C233.936 31.2547 257.641 54.9596 257.641 84.2011C257.641 113.443 233.936 137.147 204.694 137.147C204.694 137.147 204.694 137.147 204.694 137.147L204.694 138.147Z"/>
</mask>
<path fill-rule="evenodd" clip-rule="evenodd" d="M204.694 138.147C204.694 138.147 204.694 138.147 204.694 138.147C234.488 138.147 258.641 113.995 258.641 84.2011C258.641 54.4073 234.488 30.2547 204.694 30.2546C201.137 30.2546 197.66 30.599 194.295 31.2562L204.29 31.2562C204.425 31.2552 204.559 31.2546 204.694 31.2546C233.936 31.2547 257.641 54.9596 257.641 84.2011C257.641 113.443 233.936 137.147 204.694 137.147C204.694 137.147 204.694 137.147 204.694 137.147L204.694 138.147Z" fill="#FF2A00"/>
<path d="M204.694 138.147L174.694 138.147L174.694 168.147L204.694 168.147L204.694 138.147ZM194.295 31.2562L188.545 1.81239L194.295 61.2562L194.295 31.2562ZM204.29 31.2562L204.29 61.2562L204.402 61.2562L204.514 61.2553L204.29 31.2562ZM204.694 137.147L204.694 107.147L174.694 107.147L174.694 137.147L204.694 137.147ZM204.694 168.147L204.694 168.147L204.694 108.147L204.694 108.147L204.694 168.147ZM204.694 168.147C251.057 168.147 288.641 130.563 288.641 84.2011L228.641 84.2011C228.641 97.4263 217.919 108.147 204.694 108.147L204.694 168.147ZM288.641 84.2011C288.641 37.8387 251.057 0.254653 204.694 0.254649L204.694 60.2546C217.919 60.2547 228.641 70.9758 228.641 84.2011L288.641 84.2011ZM204.694 0.254649C199.197 0.254649 193.794 0.787211 188.545 1.81239L200.045 60.6999C201.526 60.4108 203.077 60.2546 204.694 60.2546L204.694 0.254649ZM194.295 61.2562L204.29 61.2562L204.29 1.25616L194.295 1.25616L194.295 61.2562ZM204.694 1.25465C204.485 1.25465 204.275 1.25543 204.066 1.257L204.514 61.2553C204.574 61.2549 204.634 61.2546 204.694 61.2546L204.694 1.25465ZM287.641 84.2011C287.641 38.391 250.504 1.25465 204.694 1.25465L204.694 61.2546C217.367 61.2547 227.641 71.5281 227.641 84.2011L287.641 84.2011ZM204.694 167.147C250.504 167.147 287.641 130.011 287.641 84.2011L227.641 84.2011C227.641 96.874 217.367 107.147 204.694 107.147L204.694 167.147ZM204.694 167.147C204.694 167.147 204.694 167.147 204.694 167.147C204.694 167.147 204.694 167.147 204.694 167.147L204.694 107.147C204.694 107.147 204.694 107.147 204.694 107.147C204.694 107.147 204.694 107.147 204.694 107.147L204.694 167.147ZM174.694 137.147L174.694 138.147L234.694 138.147L234.694 137.147L174.694 137.147Z" fill="#FF2A00" mask="url(#path-11-outside-6_283_1127)"/>
</svg>
