<svg width="484" height="332" viewBox="0 0 484 332" fill="none" xmlns="http://www.w3.org/2000/svg">
<mask id="path-1-outside-1_214_495" maskUnits="userSpaceOnUse" x="231.133" y="117.855" width="143" height="214" fill="black">
<rect fill="white" x="231.133" y="117.855" width="143" height="214"/>
<path fill-rule="evenodd" clip-rule="evenodd" d="M337.383 154.855C298.585 154.856 267.133 186.308 267.133 225.106C267.133 263.904 298.585 295.356 337.383 295.356V294.356C299.137 294.356 268.133 263.352 268.133 225.106C268.133 186.86 299.137 155.856 337.383 155.855V154.855Z"/>
</mask>
<path fill-rule="evenodd" clip-rule="evenodd" d="M337.383 154.855C298.585 154.856 267.133 186.308 267.133 225.106C267.133 263.904 298.585 295.356 337.383 295.356V294.356C299.137 294.356 268.133 263.352 268.133 225.106C268.133 186.86 299.137 155.856 337.383 155.855V154.855Z" fill="#F5F5F5"/>
<path d="M337.383 154.855L373.383 154.855V118.855L337.383 118.855L337.383 154.855ZM337.383 295.356L337.383 331.356L373.383 331.357V295.356H337.383ZM337.383 294.356H373.383V258.357L337.383 258.356L337.383 294.356ZM337.383 155.855L337.383 191.855L373.383 191.855V155.855L337.383 155.855ZM337.383 118.855C278.702 118.856 231.133 166.426 231.133 225.106H303.133C303.133 206.19 318.467 190.856 337.383 190.855L337.383 118.855ZM231.133 225.106C231.133 283.786 278.702 331.356 337.383 331.356L337.383 259.356C318.467 259.356 303.133 244.022 303.133 225.106H231.133ZM373.383 295.356V294.356H301.383V295.356H373.383ZM232.133 225.106C232.133 283.234 279.255 330.356 337.383 330.356L337.383 258.356C319.019 258.356 304.133 243.47 304.133 225.106H232.133ZM337.383 119.855C279.255 119.856 232.133 166.978 232.133 225.106H304.133C304.133 206.742 319.019 191.856 337.383 191.855L337.383 119.855ZM373.383 155.855V154.855L301.383 154.855V155.855L373.383 155.855Z" fill="#F5F5F5" mask="url(#path-1-outside-1_214_495)"/>
<mask id="path-3-outside-2_214_495" maskUnits="userSpaceOnUse" x="114.925" y="-0.78418" width="143" height="214" fill="black">
<rect fill="white" x="114.925" y="-0.78418" width="143" height="214"/>
<path fill-rule="evenodd" clip-rule="evenodd" d="M221.175 36.2158C182.377 36.216 150.925 67.6681 150.925 106.466C150.925 145.264 182.377 176.717 221.175 176.717V175.717C182.929 175.717 151.925 144.712 151.925 106.466C151.925 68.2204 182.929 37.216 221.175 37.2158V36.2158Z"/>
</mask>
<path fill-rule="evenodd" clip-rule="evenodd" d="M221.175 36.2158C182.377 36.216 150.925 67.6681 150.925 106.466C150.925 145.264 182.377 176.717 221.175 176.717V175.717C182.929 175.717 151.925 144.712 151.925 106.466C151.925 68.2204 182.929 37.216 221.175 37.2158V36.2158Z" fill="#F5F5F5"/>
<path d="M221.175 36.2158H257.175V0.215664L221.175 0.21582L221.175 36.2158ZM221.175 176.717L221.175 212.717L257.175 212.717V176.717L221.175 176.717ZM221.175 175.717L257.175 175.717V139.717L221.175 139.717L221.175 175.717ZM221.175 37.2158L221.175 73.2158L257.175 73.2157V37.2158H221.175ZM221.175 0.21582C162.495 0.216076 114.925 47.7859 114.925 106.466H186.925C186.925 87.5503 202.259 72.2159 221.175 72.2158L221.175 0.21582ZM114.925 106.466C114.925 165.147 162.495 212.717 221.175 212.717L221.175 140.717C202.259 140.717 186.925 125.382 186.925 106.466H114.925ZM257.175 176.717V175.717L185.175 175.717V176.717L257.175 176.717ZM115.925 106.466C115.925 164.594 163.047 211.717 221.175 211.717L221.175 139.717C202.811 139.717 187.925 124.83 187.925 106.466H115.925ZM221.175 1.21582C163.047 1.21608 115.925 48.3382 115.925 106.466H187.925C187.925 88.1026 202.811 73.2159 221.175 73.2158L221.175 1.21582ZM257.175 37.2158V36.2158L185.175 36.2158V37.2158L257.175 37.2158Z" fill="#F5F5F5" mask="url(#path-3-outside-2_214_495)"/>
<mask id="path-5-outside-3_214_495" maskUnits="userSpaceOnUse" x="0.595703" y="117.855" width="143" height="214" fill="black">
<rect fill="white" x="0.595703" y="117.855" width="143" height="214"/>
<path fill-rule="evenodd" clip-rule="evenodd" d="M106.846 154.855C68.0477 154.856 36.5957 186.308 36.5957 225.106C36.5957 263.904 68.0477 295.356 106.846 295.356V294.356C68.6 294.356 37.5957 263.352 37.5957 225.106C37.5957 186.86 68.6 155.856 106.846 155.855V154.855Z"/>
</mask>
<path fill-rule="evenodd" clip-rule="evenodd" d="M106.846 154.855C68.0477 154.856 36.5957 186.308 36.5957 225.106C36.5957 263.904 68.0477 295.356 106.846 295.356V294.356C68.6 294.356 37.5957 263.352 37.5957 225.106C37.5957 186.86 68.6 155.856 106.846 155.855V154.855Z" fill="#F5F5F5"/>
<path d="M106.846 154.855L142.846 154.855V118.855L106.846 118.855L106.846 154.855ZM106.846 295.356L106.846 331.356L142.846 331.357V295.356H106.846ZM106.846 294.356H142.846L142.846 258.357L106.846 258.356L106.846 294.356ZM106.846 155.855L106.846 191.855L142.846 191.855V155.855L106.846 155.855ZM106.846 118.855C48.1653 118.856 0.595703 166.426 0.595703 225.106H72.5957C72.5957 206.19 87.9301 190.856 106.846 190.855L106.846 118.855ZM0.595703 225.106C0.595703 283.786 48.1653 331.356 106.846 331.356L106.846 259.356C87.9301 259.356 72.5957 244.022 72.5957 225.106H0.595703ZM142.846 295.356V294.356H70.8458V295.356H142.846ZM1.5957 225.106C1.5957 283.234 48.7176 330.356 106.846 330.356L106.846 258.356C88.4823 258.356 73.5957 243.47 73.5957 225.106H1.5957ZM106.846 119.855C48.7176 119.856 1.5957 166.978 1.5957 225.106H73.5957C73.5957 206.742 88.4823 191.856 106.846 191.855L106.846 119.855ZM142.846 155.855V154.855L70.8458 154.855V155.855L142.846 155.855Z" fill="#F5F5F5" mask="url(#path-5-outside-3_214_495)"/>
<mask id="path-7-outside-4_214_495" maskUnits="userSpaceOnUse" x="104.578" y="118.355" width="143" height="213" fill="black">
<rect fill="white" x="104.578" y="118.355" width="143" height="213"/>
<path fill-rule="evenodd" clip-rule="evenodd" d="M141.327 295.355C141.327 295.355 141.327 295.355 141.328 295.355C180.126 295.355 211.578 263.903 211.578 225.105C211.578 186.307 180.126 154.854 141.328 154.854C141.327 154.854 141.327 154.854 141.327 154.854L141.327 155.854C141.327 155.854 141.327 155.854 141.328 155.854C179.574 155.854 210.578 186.859 210.578 225.105C210.578 263.351 179.574 294.355 141.328 294.355C141.327 294.355 141.327 294.355 141.327 294.355L141.327 295.355Z"/>
</mask>
<path fill-rule="evenodd" clip-rule="evenodd" d="M141.327 295.355C141.327 295.355 141.327 295.355 141.328 295.355C180.126 295.355 211.578 263.903 211.578 225.105C211.578 186.307 180.126 154.854 141.328 154.854C141.327 154.854 141.327 154.854 141.327 154.854L141.327 155.854C141.327 155.854 141.327 155.854 141.328 155.854C179.574 155.854 210.578 186.859 210.578 225.105C210.578 263.351 179.574 294.355 141.328 294.355C141.327 294.355 141.327 294.355 141.327 294.355L141.327 295.355Z" fill="#F5F5F5"/>
<path d="M141.327 295.355L105.327 295.355L105.327 331.355L141.327 331.355L141.327 295.355ZM141.327 154.854L141.327 118.854L105.327 118.854L105.327 154.854L141.327 154.854ZM141.327 155.854L105.327 155.854L105.327 191.854L141.327 191.854L141.327 155.854ZM141.327 294.355L141.327 258.355L105.327 258.355L105.327 294.355L141.327 294.355ZM141.327 331.355L141.328 331.355L141.328 259.355L141.327 259.355L141.327 331.355ZM141.328 331.355C200.008 331.355 247.578 283.786 247.578 225.105L175.578 225.105C175.578 244.021 160.244 259.355 141.328 259.355L141.328 331.355ZM247.578 225.105C247.578 166.424 200.008 118.854 141.328 118.854L141.328 190.854C160.244 190.854 175.578 206.189 175.578 225.105L247.578 225.105ZM141.328 118.854C141.328 118.854 141.327 118.854 141.327 118.854C141.327 118.854 141.327 118.854 141.327 118.854L141.327 190.854C141.327 190.854 141.327 190.854 141.327 190.854C141.327 190.854 141.328 190.854 141.328 190.854L141.328 118.854ZM105.327 154.854L105.327 155.854L177.327 155.854L177.327 154.854L105.327 154.854ZM141.328 119.854C141.328 119.854 141.327 119.854 141.327 119.854C141.327 119.854 141.327 119.854 141.327 119.854L141.327 191.854C141.327 191.854 141.327 191.854 141.327 191.854C141.327 191.854 141.328 191.854 141.328 191.854L141.328 119.854ZM246.578 225.105C246.578 166.977 199.456 119.854 141.328 119.854L141.328 191.854C159.691 191.854 174.578 206.741 174.578 225.105L246.578 225.105ZM141.328 330.355C199.456 330.355 246.578 283.233 246.578 225.105L174.578 225.105C174.578 243.469 159.691 258.355 141.328 258.355L141.328 330.355ZM141.327 330.355C141.327 330.355 141.327 330.355 141.327 330.355C141.327 330.355 141.327 330.355 141.327 330.355L141.327 330.355C141.327 330.355 141.327 330.355 141.327 330.355L141.327 330.355C141.327 330.355 141.327 330.355 141.327 330.355C141.327 330.355 141.327 330.355 141.327 330.355L141.327 330.355C141.327 330.355 141.327 330.355 141.327 330.355L141.327 330.355C141.327 330.355 141.327 330.355 141.327 330.355C141.327 330.355 141.327 330.355 141.327 330.355L141.327 330.355C141.327 330.355 141.327 330.355 141.327 330.355C141.327 330.355 141.327 330.355 141.327 330.355L141.327 330.355C141.327 330.355 141.327 330.355 141.327 330.355C141.327 330.355 141.327 330.355 141.327 330.355L141.327 330.355C141.327 330.355 141.327 330.355 141.327 330.355C141.327 330.355 141.327 330.355 141.327 330.355L141.327 330.355C141.327 330.355 141.327 330.355 141.327 330.355C141.327 330.355 141.327 330.355 141.327 330.355L141.327 330.355C141.327 330.355 141.327 330.355 141.327 330.355C141.327 330.355 141.327 330.355 141.327 330.355L141.327 330.355C141.327 330.355 141.327 330.355 141.327 330.355C141.327 330.355 141.327 330.355 141.327 330.355L141.327 330.355C141.327 330.355 141.327 330.355 141.327 330.355C141.327 330.355 141.327 330.355 141.327 330.355L141.327 330.355C141.327 330.355 141.327 330.355 141.327 330.355C141.327 330.355 141.327 330.355 141.327 330.355L141.327 330.355C141.327 330.355 141.327 330.355 141.327 330.355C141.327 330.355 141.327 330.355 141.327 330.355C141.327 330.355 141.327 330.355 141.327 330.355L141.327 330.355C141.327 330.355 141.327 330.355 141.327 330.355C141.327 330.355 141.327 330.355 141.327 330.355L141.327 330.355C141.327 330.355 141.327 330.355 141.327 330.355C141.327 330.355 141.327 330.355 141.327 330.355L141.327 330.355C141.327 330.355 141.327 330.355 141.327 330.355C141.327 330.355 141.327 330.355 141.327 330.355L141.327 330.355C141.327 330.355 141.327 330.355 141.327 330.355C141.327 330.355 141.327 330.355 141.327 330.355L141.327 330.355C141.327 330.355 141.327 330.355 141.327 330.355C141.327 330.355 141.327 330.355 141.327 330.355L141.327 330.355C141.327 330.355 141.327 330.355 141.327 330.355C141.327 330.355 141.327 330.355 141.327 330.355L141.327 330.355C141.328 330.355 141.328 330.355 141.328 330.355C141.328 330.355 141.328 330.355 141.328 330.355L141.328 330.355C141.328 330.355 141.328 330.355 141.328 330.355C141.328 330.355 141.328 330.355 141.328 330.355L141.328 330.355C141.328 330.355 141.328 330.355 141.328 330.355C141.328 330.355 141.328 330.355 141.328 330.355L141.328 330.355C141.328 330.355 141.328 330.355 141.328 330.355L141.328 330.355C141.328 330.355 141.328 330.355 141.328 330.355C141.328 330.355 141.328 330.355 141.328 330.355L141.328 330.355C141.328 330.355 141.328 330.355 141.328 330.355L141.328 330.355C141.328 330.355 141.328 330.355 141.328 330.355C141.328 330.355 141.328 330.355 141.328 330.355L141.328 258.355C141.328 258.355 141.328 258.355 141.328 258.355C141.328 258.355 141.328 258.355 141.328 258.355L141.328 258.355C141.328 258.355 141.328 258.355 141.328 258.355L141.328 258.355C141.328 258.355 141.328 258.355 141.328 258.355C141.328 258.355 141.328 258.355 141.328 258.355L141.328 258.355C141.328 258.355 141.328 258.355 141.328 258.355L141.328 258.355C141.328 258.355 141.328 258.355 141.328 258.355C141.328 258.355 141.328 258.355 141.328 258.355L141.328 258.355C141.328 258.355 141.328 258.355 141.328 258.355C141.328 258.355 141.328 258.355 141.328 258.355L141.328 258.355C141.328 258.355 141.328 258.355 141.328 258.355C141.328 258.355 141.328 258.355 141.328 258.355L141.327 258.355C141.327 258.355 141.327 258.355 141.327 258.355C141.327 258.355 141.327 258.355 141.327 258.355L141.327 258.355C141.327 258.355 141.327 258.355 141.327 258.355C141.327 258.355 141.327 258.355 141.327 258.355L141.327 258.355C141.327 258.355 141.327 258.355 141.327 258.355C141.327 258.355 141.327 258.355 141.327 258.355L141.327 258.355C141.327 258.355 141.327 258.355 141.327 258.355C141.327 258.355 141.327 258.355 141.327 258.355L141.327 258.355C141.327 258.355 141.327 258.355 141.327 258.355C141.327 258.355 141.327 258.355 141.327 258.355L141.327 258.355C141.327 258.355 141.327 258.355 141.327 258.355C141.327 258.355 141.327 258.355 141.327 258.355L141.327 258.355C141.327 258.355 141.327 258.355 141.327 258.355C141.327 258.355 141.327 258.355 141.327 258.355C141.327 258.355 141.327 258.355 141.327 258.355L141.327 258.355C141.327 258.355 141.327 258.355 141.327 258.355C141.327 258.355 141.327 258.355 141.327 258.355L141.327 258.355C141.327 258.355 141.327 258.355 141.327 258.355C141.327 258.355 141.327 258.355 141.327 258.355L141.327 258.355C141.327 258.355 141.327 258.355 141.327 258.355C141.327 258.355 141.327 258.355 141.327 258.355L141.327 258.355C141.327 258.355 141.327 258.355 141.327 258.355C141.327 258.355 141.327 258.355 141.327 258.355L141.327 258.355C141.327 258.355 141.327 258.355 141.327 258.355C141.327 258.355 141.327 258.355 141.327 258.355L141.327 258.355C141.327 258.355 141.327 258.355 141.327 258.355C141.327 258.355 141.327 258.355 141.327 258.355L141.327 258.355C141.327 258.355 141.327 258.355 141.327 258.355C141.327 258.355 141.327 258.355 141.327 258.355L141.327 258.355C141.327 258.355 141.327 258.355 141.327 258.355C141.327 258.355 141.327 258.355 141.327 258.355L141.327 258.355C141.327 258.355 141.327 258.355 141.327 258.355C141.327 258.355 141.327 258.355 141.327 258.355L141.327 258.355C141.327 258.355 141.327 258.355 141.327 258.355L141.327 258.355C141.327 258.355 141.327 258.355 141.327 258.355C141.327 258.355 141.327 258.355 141.327 258.355L141.327 258.355C141.327 258.355 141.327 258.355 141.327 258.355L141.327 258.355C141.327 258.355 141.327 258.355 141.327 258.355C141.327 258.355 141.327 258.355 141.327 258.355L141.327 330.355ZM105.327 294.355L105.327 295.355L177.327 295.355L177.327 294.355L105.327 294.355Z" fill="#F5F5F5" mask="url(#path-7-outside-4_214_495)"/>
<mask id="path-9-outside-5_214_495" maskUnits="userSpaceOnUse" x="340.419" y="118.355" width="143" height="213" fill="black">
<rect fill="white" x="340.419" y="118.355" width="143" height="213"/>
<path fill-rule="evenodd" clip-rule="evenodd" d="M377.168 295.355C377.168 295.355 377.168 295.355 377.168 295.355C415.967 295.355 447.419 263.903 447.419 225.105C447.419 186.307 415.967 154.854 377.168 154.854C377.168 154.854 377.168 154.854 377.168 154.854L377.168 155.854C377.168 155.854 377.168 155.854 377.168 155.854C415.414 155.854 446.419 186.859 446.419 225.105C446.419 263.351 415.414 294.355 377.168 294.355C377.168 294.355 377.168 294.355 377.168 294.355L377.168 295.355Z"/>
</mask>
<path fill-rule="evenodd" clip-rule="evenodd" d="M377.168 295.355C377.168 295.355 377.168 295.355 377.168 295.355C415.967 295.355 447.419 263.903 447.419 225.105C447.419 186.307 415.967 154.854 377.168 154.854C377.168 154.854 377.168 154.854 377.168 154.854L377.168 155.854C377.168 155.854 377.168 155.854 377.168 155.854C415.414 155.854 446.419 186.859 446.419 225.105C446.419 263.351 415.414 294.355 377.168 294.355C377.168 294.355 377.168 294.355 377.168 294.355L377.168 295.355Z" fill="#F5F5F5"/>
<path d="M377.168 295.355L341.168 295.355L341.168 331.355L377.168 331.355L377.168 295.355ZM377.168 154.854L377.168 118.854L341.168 118.854L341.168 154.854L377.168 154.854ZM377.168 155.854L341.168 155.854L341.168 191.854L377.168 191.854L377.168 155.854ZM377.168 294.355L377.168 258.355L341.168 258.355L341.168 294.355L377.168 294.355ZM377.168 331.355L377.168 331.355L377.168 259.355L377.168 259.355L377.168 331.355ZM377.168 331.355C435.849 331.355 483.419 283.786 483.419 225.105L411.419 225.105C411.419 244.021 396.084 259.355 377.168 259.355L377.168 331.355ZM483.419 225.105C483.419 166.424 435.849 118.854 377.168 118.854L377.168 190.854C396.084 190.854 411.419 206.189 411.419 225.105L483.419 225.105ZM377.168 118.854L377.168 118.854L377.168 118.854L377.168 118.854L377.168 118.854L377.168 118.854L377.168 118.854L377.168 118.854L377.168 118.854L377.168 118.854C377.168 118.854 377.168 118.854 377.168 118.854C377.168 118.854 377.168 118.854 377.168 118.854C377.168 118.854 377.168 118.854 377.168 118.854C377.168 118.854 377.168 118.854 377.168 118.854C377.168 118.854 377.168 118.854 377.168 118.854C377.168 118.854 377.168 118.854 377.168 118.854C377.168 118.854 377.168 118.854 377.168 118.854C377.168 118.854 377.168 118.854 377.168 118.854C377.168 118.854 377.168 118.854 377.168 118.854C377.168 118.854 377.168 118.854 377.168 118.854C377.168 118.854 377.168 118.854 377.168 118.854C377.168 118.854 377.168 118.854 377.168 118.854C377.168 118.854 377.168 118.854 377.168 118.854C377.168 118.854 377.168 118.854 377.168 118.854C377.168 118.854 377.168 118.854 377.168 118.854C377.168 118.854 377.168 118.854 377.168 118.854C377.168 118.854 377.168 118.854 377.168 118.854C377.168 118.854 377.168 118.854 377.168 118.854C377.168 118.854 377.168 118.854 377.168 118.854C377.168 118.854 377.168 118.854 377.168 118.854C377.168 118.854 377.168 118.854 377.168 118.854C377.168 118.854 377.168 118.854 377.168 118.854C377.168 118.854 377.168 118.854 377.168 118.854C377.168 118.854 377.168 118.854 377.168 118.854C377.168 118.854 377.168 118.854 377.168 118.854C377.168 118.854 377.168 118.854 377.168 118.854C377.168 118.854 377.168 118.854 377.168 118.854C377.168 118.854 377.168 118.854 377.168 118.854C377.168 118.854 377.168 118.854 377.168 118.854C377.168 118.854 377.168 118.854 377.168 118.854C377.168 118.854 377.168 118.854 377.168 118.854C377.168 118.854 377.168 118.854 377.168 118.854C377.168 118.854 377.168 118.854 377.168 118.854C377.168 118.854 377.168 118.854 377.168 118.854C377.168 118.854 377.168 118.854 377.168 118.854C377.168 118.854 377.168 118.854 377.168 118.854C377.168 118.854 377.168 118.854 377.168 118.854C377.168 118.854 377.168 118.854 377.168 118.854L377.168 118.854L377.168 118.854L377.168 118.854L377.168 118.854L377.168 118.854L377.168 118.854L377.168 118.854L377.168 118.854L377.168 118.854L377.168 118.854L377.168 190.854L377.168 190.854L377.168 190.854L377.168 190.854L377.168 190.854L377.168 190.854L377.168 190.854L377.168 190.854L377.168 190.854L377.168 190.854L377.168 190.854C377.168 190.854 377.168 190.854 377.168 190.854C377.168 190.854 377.168 190.854 377.168 190.854C377.168 190.854 377.168 190.854 377.168 190.854C377.168 190.854 377.168 190.854 377.168 190.854C377.168 190.854 377.168 190.854 377.168 190.854C377.168 190.854 377.168 190.854 377.168 190.854C377.168 190.854 377.168 190.854 377.168 190.854C377.168 190.854 377.168 190.854 377.168 190.854C377.168 190.854 377.168 190.854 377.168 190.854C377.168 190.854 377.168 190.854 377.168 190.854C377.168 190.854 377.168 190.854 377.168 190.854C377.168 190.854 377.168 190.854 377.168 190.854C377.168 190.854 377.168 190.854 377.168 190.854C377.168 190.854 377.168 190.854 377.168 190.854C377.168 190.854 377.168 190.854 377.168 190.854C377.168 190.854 377.168 190.854 377.168 190.854C377.168 190.854 377.168 190.854 377.168 190.854C377.168 190.854 377.168 190.854 377.168 190.854C377.168 190.854 377.168 190.854 377.168 190.854C377.168 190.854 377.168 190.854 377.168 190.854C377.168 190.854 377.168 190.854 377.168 190.854C377.168 190.854 377.168 190.854 377.168 190.854C377.168 190.854 377.168 190.854 377.168 190.854C377.168 190.854 377.168 190.854 377.168 190.854C377.168 190.854 377.168 190.854 377.168 190.854C377.168 190.854 377.168 190.854 377.168 190.854C377.168 190.854 377.168 190.854 377.168 190.854C377.168 190.854 377.168 190.854 377.168 190.854C377.168 190.854 377.168 190.854 377.168 190.854C377.168 190.854 377.168 190.854 377.168 190.854C377.168 190.854 377.168 190.854 377.168 190.854C377.168 190.854 377.168 190.854 377.168 190.854C377.168 190.854 377.168 190.854 377.168 190.854C377.168 190.854 377.168 190.854 377.168 190.854C377.168 190.854 377.168 190.854 377.168 190.854C377.168 190.854 377.168 190.854 377.168 190.854C377.168 190.854 377.168 190.854 377.168 190.854C377.168 190.854 377.168 190.854 377.168 190.854L377.168 190.854L377.168 190.854L377.168 190.854L377.168 190.854L377.168 190.854L377.168 190.854L377.168 190.854L377.168 190.854L377.168 190.854L377.168 118.854ZM341.168 154.854L341.168 155.854L413.168 155.854L413.168 154.854L341.168 154.854ZM377.168 119.854L377.168 119.854L377.168 119.854L377.168 119.854L377.168 119.854L377.168 119.854L377.168 119.854L377.168 119.854L377.168 119.854L377.168 119.854C377.168 119.854 377.168 119.854 377.168 119.854C377.168 119.854 377.168 119.854 377.168 119.854C377.168 119.854 377.168 119.854 377.168 119.854C377.168 119.854 377.168 119.854 377.168 119.854C377.168 119.854 377.168 119.854 377.168 119.854C377.168 119.854 377.168 119.854 377.168 119.854C377.168 119.854 377.168 119.854 377.168 119.854C377.168 119.854 377.168 119.854 377.168 119.854C377.168 119.854 377.168 119.854 377.168 119.854C377.168 119.854 377.168 119.854 377.168 119.854C377.168 119.854 377.168 119.854 377.168 119.854C377.168 119.854 377.168 119.854 377.168 119.854C377.168 119.854 377.168 119.854 377.168 119.854C377.168 119.854 377.168 119.854 377.168 119.854C377.168 119.854 377.168 119.854 377.168 119.854C377.168 119.854 377.168 119.854 377.168 119.854C377.168 119.854 377.168 119.854 377.168 119.854C377.168 119.854 377.168 119.854 377.168 119.854C377.168 119.854 377.168 119.854 377.168 119.854C377.168 119.854 377.168 119.854 377.168 119.854C377.168 119.854 377.168 119.854 377.168 119.854C377.168 119.854 377.168 119.854 377.168 119.854C377.168 119.854 377.168 119.854 377.168 119.854C377.168 119.854 377.168 119.854 377.168 119.854C377.168 119.854 377.168 119.854 377.168 119.854C377.168 119.854 377.168 119.854 377.168 119.854C377.168 119.854 377.168 119.854 377.168 119.854C377.168 119.854 377.168 119.854 377.168 119.854C377.168 119.854 377.168 119.854 377.168 119.854C377.168 119.854 377.168 119.854 377.168 119.854C377.168 119.854 377.168 119.854 377.168 119.854C377.168 119.854 377.168 119.854 377.168 119.854C377.168 119.854 377.168 119.854 377.168 119.854C377.168 119.854 377.168 119.854 377.168 119.854C377.168 119.854 377.168 119.854 377.168 119.854C377.168 119.854 377.168 119.854 377.168 119.854C377.168 119.854 377.168 119.854 377.168 119.854C377.168 119.854 377.168 119.854 377.168 119.854L377.168 119.854L377.168 119.854L377.168 119.854L377.168 119.854L377.168 119.854L377.168 119.854L377.168 119.854L377.168 119.854L377.168 119.854L377.168 119.854L377.168 191.854L377.168 191.854L377.168 191.854L377.168 191.854L377.168 191.854L377.168 191.854L377.168 191.854L377.168 191.854L377.168 191.854L377.168 191.854L377.168 191.854C377.168 191.854 377.168 191.854 377.168 191.854C377.168 191.854 377.168 191.854 377.168 191.854C377.168 191.854 377.168 191.854 377.168 191.854C377.168 191.854 377.168 191.854 377.168 191.854C377.168 191.854 377.168 191.854 377.168 191.854C377.168 191.854 377.168 191.854 377.168 191.854C377.168 191.854 377.168 191.854 377.168 191.854C377.168 191.854 377.168 191.854 377.168 191.854C377.168 191.854 377.168 191.854 377.168 191.854C377.168 191.854 377.168 191.854 377.168 191.854C377.168 191.854 377.168 191.854 377.168 191.854C377.168 191.854 377.168 191.854 377.168 191.854C377.168 191.854 377.168 191.854 377.168 191.854C377.168 191.854 377.168 191.854 377.168 191.854C377.168 191.854 377.168 191.854 377.168 191.854C377.168 191.854 377.168 191.854 377.168 191.854C377.168 191.854 377.168 191.854 377.168 191.854C377.168 191.854 377.168 191.854 377.168 191.854C377.168 191.854 377.168 191.854 377.168 191.854C377.168 191.854 377.168 191.854 377.168 191.854C377.168 191.854 377.168 191.854 377.168 191.854C377.168 191.854 377.168 191.854 377.168 191.854C377.168 191.854 377.168 191.854 377.168 191.854C377.168 191.854 377.168 191.854 377.168 191.854C377.168 191.854 377.168 191.854 377.168 191.854C377.168 191.854 377.168 191.854 377.168 191.854C377.168 191.854 377.168 191.854 377.168 191.854C377.168 191.854 377.168 191.854 377.168 191.854C377.168 191.854 377.168 191.854 377.168 191.854C377.168 191.854 377.168 191.854 377.168 191.854C377.168 191.854 377.168 191.854 377.168 191.854C377.168 191.854 377.168 191.854 377.168 191.854C377.168 191.854 377.168 191.854 377.168 191.854C377.168 191.854 377.168 191.854 377.168 191.854C377.168 191.854 377.168 191.854 377.168 191.854C377.168 191.854 377.168 191.854 377.168 191.854C377.168 191.854 377.168 191.854 377.168 191.854C377.168 191.854 377.168 191.854 377.168 191.854L377.168 191.854L377.168 191.854L377.168 191.854L377.168 191.854L377.168 191.854L377.168 191.854L377.168 191.854L377.168 191.854L377.168 191.854L377.168 119.854ZM482.419 225.105C482.419 166.977 435.297 119.854 377.168 119.854L377.168 191.854C395.532 191.854 410.419 206.741 410.419 225.105L482.419 225.105ZM377.168 330.355C435.297 330.355 482.419 283.233 482.419 225.105L410.419 225.105C410.419 243.469 395.532 258.355 377.168 258.355L377.168 330.355ZM377.168 330.355L377.168 330.355L377.168 330.355L377.168 330.355L377.168 330.355L377.168 330.355L377.168 330.355L377.168 330.355L377.168 330.355L377.168 330.355L377.168 330.355C377.168 330.355 377.168 330.355 377.168 330.355C377.168 330.355 377.168 330.355 377.168 330.355C377.168 330.355 377.168 330.355 377.168 330.355C377.168 330.355 377.168 330.355 377.168 330.355C377.168 330.355 377.168 330.355 377.168 330.355C377.168 330.355 377.168 330.355 377.168 330.355C377.168 330.355 377.168 330.355 377.168 330.355C377.168 330.355 377.168 330.355 377.168 330.355C377.168 330.355 377.168 330.355 377.168 330.355C377.168 330.355 377.168 330.355 377.168 330.355C377.168 330.355 377.168 330.355 377.168 330.355C377.168 330.355 377.168 330.355 377.168 330.355C377.168 330.355 377.168 330.355 377.168 330.355C377.168 330.355 377.168 330.355 377.168 330.355C377.168 330.355 377.168 330.355 377.168 330.355C377.168 330.355 377.168 330.355 377.168 330.355C377.168 330.355 377.168 330.355 377.168 330.355C377.168 330.355 377.168 330.355 377.168 330.355C377.168 330.355 377.168 330.355 377.168 330.355C377.168 330.355 377.168 330.355 377.168 330.355C377.168 330.355 377.168 330.355 377.168 330.355C377.168 330.355 377.168 330.355 377.168 330.355C377.168 330.355 377.168 330.355 377.168 330.355C377.168 330.355 377.168 330.355 377.168 330.355C377.168 330.355 377.168 330.355 377.168 330.355C377.168 330.355 377.168 330.355 377.168 330.355C377.168 330.355 377.168 330.355 377.168 330.355C377.168 330.355 377.168 330.355 377.168 330.355C377.168 330.355 377.168 330.355 377.168 330.355C377.168 330.355 377.168 330.355 377.168 330.355C377.168 330.355 377.168 330.355 377.168 330.355C377.168 330.355 377.168 330.355 377.168 330.355C377.168 330.355 377.168 330.355 377.168 330.355C377.168 330.355 377.168 330.355 377.168 330.355C377.168 330.355 377.168 330.355 377.168 330.355C377.168 330.355 377.168 330.355 377.168 330.355C377.168 330.355 377.168 330.355 377.168 330.355C377.168 330.355 377.168 330.355 377.168 330.355L377.168 330.355L377.168 330.355L377.168 330.355L377.168 330.355L377.168 330.355L377.168 330.355L377.168 330.355L377.168 330.355L377.168 330.355L377.168 258.355L377.168 258.355L377.168 258.355L377.168 258.355L377.168 258.355L377.168 258.355L377.168 258.355L377.168 258.355L377.168 258.355L377.168 258.355C377.168 258.355 377.168 258.355 377.168 258.355C377.168 258.355 377.168 258.355 377.168 258.355C377.168 258.355 377.168 258.355 377.168 258.355C377.168 258.355 377.168 258.355 377.168 258.355C377.168 258.355 377.168 258.355 377.168 258.355C377.168 258.355 377.168 258.355 377.168 258.355C377.168 258.355 377.168 258.355 377.168 258.355C377.168 258.355 377.168 258.355 377.168 258.355C377.168 258.355 377.168 258.355 377.168 258.355C377.168 258.355 377.168 258.355 377.168 258.355C377.168 258.355 377.168 258.355 377.168 258.355C377.168 258.355 377.168 258.355 377.168 258.355C377.168 258.355 377.168 258.355 377.168 258.355C377.168 258.355 377.168 258.355 377.168 258.355C377.168 258.355 377.168 258.355 377.168 258.355C377.168 258.355 377.168 258.355 377.168 258.355C377.168 258.355 377.168 258.355 377.168 258.355C377.168 258.355 377.168 258.355 377.168 258.355C377.168 258.355 377.168 258.355 377.168 258.355C377.168 258.355 377.168 258.355 377.168 258.355C377.168 258.355 377.168 258.355 377.168 258.355C377.168 258.355 377.168 258.355 377.168 258.355C377.168 258.355 377.168 258.355 377.168 258.355C377.168 258.355 377.168 258.355 377.168 258.355C377.168 258.355 377.168 258.355 377.168 258.355C377.168 258.355 377.168 258.355 377.168 258.355C377.168 258.355 377.168 258.355 377.168 258.355C377.168 258.355 377.168 258.355 377.168 258.355C377.168 258.355 377.168 258.355 377.168 258.355C377.168 258.355 377.168 258.355 377.168 258.355C377.168 258.355 377.168 258.355 377.168 258.355C377.168 258.355 377.168 258.355 377.168 258.355C377.168 258.355 377.168 258.355 377.168 258.355C377.168 258.355 377.168 258.355 377.168 258.355C377.168 258.355 377.168 258.355 377.168 258.355C377.168 258.355 377.168 258.355 377.168 258.355C377.168 258.355 377.168 258.355 377.168 258.355C377.168 258.355 377.168 258.355 377.168 258.355L377.168 258.355L377.168 258.355L377.168 258.355L377.168 258.355L377.168 258.355L377.168 258.355L377.168 258.355L377.168 258.355L377.168 258.355L377.168 258.355L377.168 330.355ZM341.168 294.355L341.168 295.355L413.168 295.355L413.168 294.355L341.168 294.355Z" fill="#F5F5F5" mask="url(#path-9-outside-5_214_495)"/>
<mask id="path-11-outside-6_214_495" maskUnits="userSpaceOnUse" x="226.089" y="-0.283212" width="143" height="213" fill="black">
<rect fill="white" x="226.089" y="-0.283212" width="143" height="213"/>
<path fill-rule="evenodd" clip-rule="evenodd" d="M262.838 176.717C262.838 176.717 262.838 176.717 262.838 176.717C301.637 176.717 333.089 145.265 333.089 106.466C333.089 67.668 301.637 36.2158 262.838 36.2158C262.838 36.2158 262.838 36.2158 262.838 36.2158L262.838 37.2158C262.838 37.2158 262.838 37.2158 262.838 37.2158C301.084 37.2158 332.089 68.2203 332.089 106.466C332.089 144.712 301.084 175.717 262.838 175.717C262.838 175.717 262.838 175.717 262.838 175.717L262.838 176.717Z"/>
</mask>
<path fill-rule="evenodd" clip-rule="evenodd" d="M262.838 176.717C262.838 176.717 262.838 176.717 262.838 176.717C301.637 176.717 333.089 145.265 333.089 106.466C333.089 67.668 301.637 36.2158 262.838 36.2158C262.838 36.2158 262.838 36.2158 262.838 36.2158L262.838 37.2158C262.838 37.2158 262.838 37.2158 262.838 37.2158C301.084 37.2158 332.089 68.2203 332.089 106.466C332.089 144.712 301.084 175.717 262.838 175.717C262.838 175.717 262.838 175.717 262.838 175.717L262.838 176.717Z" fill="#F5F5F5"/>
<path d="M262.838 176.717L226.838 176.717L226.838 212.717L262.838 212.717L262.838 176.717ZM262.838 36.2158L262.838 0.215814L226.838 0.215811L226.838 36.2158L262.838 36.2158ZM262.838 37.2158L226.838 37.2158L226.838 73.2158L262.838 73.2158L262.838 37.2158ZM262.838 175.717L262.838 139.717L226.838 139.717L226.838 175.717L262.838 175.717ZM262.838 212.717L262.838 212.717L262.838 140.717L262.838 140.717L262.838 212.717ZM262.838 212.717C321.519 212.717 369.089 165.147 369.089 106.466L297.089 106.466C297.089 125.382 281.754 140.717 262.838 140.717L262.838 212.717ZM369.089 106.466C369.089 47.7858 321.519 0.215819 262.838 0.215814L262.838 72.2158C281.754 72.2158 297.089 87.5503 297.089 106.466L369.089 106.466ZM262.838 0.215814L262.838 0.215814L262.838 0.215814L262.838 0.215814L262.838 0.215814L262.838 0.215814L262.838 0.215814C262.838 0.215814 262.838 0.215814 262.838 0.215814C262.838 0.215814 262.838 0.215814 262.838 0.215814C262.838 0.215814 262.838 0.215814 262.838 0.215814C262.838 0.215814 262.838 0.215814 262.838 0.215814C262.838 0.215814 262.838 0.215814 262.838 0.215814C262.838 0.215814 262.838 0.215814 262.838 0.215814L262.838 0.215814L262.838 0.215814C262.838 0.215814 262.838 0.215814 262.838 0.215814C262.838 0.215814 262.838 0.215814 262.838 0.215814C262.838 0.215814 262.838 0.215814 262.838 0.215814C262.838 0.215814 262.838 0.215814 262.838 0.215814L262.838 0.215814L262.838 0.215814C262.838 0.215814 262.838 0.215814 262.838 0.215814C262.838 0.215814 262.838 0.215814 262.838 0.215814C262.838 0.215814 262.838 0.215814 262.838 0.215814L262.838 0.215814C262.838 0.215814 262.838 0.215814 262.838 0.215814C262.838 0.215814 262.838 0.215814 262.838 0.215814C262.838 0.215814 262.838 0.215814 262.838 0.215814L262.838 0.215814L262.838 0.215814C262.838 0.215814 262.838 0.215814 262.838 0.215814C262.838 0.215814 262.838 0.215814 262.838 0.215814C262.838 0.215814 262.838 0.215814 262.838 0.215814L262.838 0.215814C262.838 0.215814 262.838 0.215814 262.838 0.215814C262.838 0.215814 262.838 0.215814 262.838 0.215814C262.838 0.215814 262.838 0.215814 262.838 0.215814L262.838 0.215814L262.838 0.215814C262.838 0.215814 262.838 0.215814 262.838 0.215814C262.838 0.215814 262.838 0.215814 262.838 0.215814C262.838 0.215814 262.838 0.215814 262.838 0.215814C262.838 0.215814 262.838 0.215814 262.838 0.215814L262.838 0.215814L262.838 0.215814C262.838 0.215814 262.838 0.215814 262.838 0.215814C262.838 0.215814 262.838 0.215814 262.838 0.215814C262.838 0.215814 262.838 0.215814 262.838 0.215814C262.838 0.215814 262.838 0.215814 262.838 0.215814C262.838 0.215814 262.838 0.215814 262.838 0.215814C262.838 0.215814 262.838 0.215814 262.838 0.215814L262.838 0.215814L262.838 0.215814L262.838 0.215814L262.838 0.215814L262.838 0.215814L262.838 0.215814L262.838 72.2158L262.838 72.2158L262.838 72.2158L262.838 72.2158L262.838 72.2158L262.838 72.2158L262.838 72.2158C262.838 72.2158 262.838 72.2158 262.838 72.2158C262.838 72.2158 262.838 72.2158 262.838 72.2158C262.838 72.2158 262.838 72.2158 262.838 72.2158C262.838 72.2158 262.838 72.2158 262.838 72.2158C262.838 72.2158 262.838 72.2158 262.838 72.2158C262.838 72.2158 262.838 72.2158 262.838 72.2158L262.838 72.2158L262.838 72.2158C262.838 72.2158 262.838 72.2158 262.838 72.2158C262.838 72.2158 262.838 72.2158 262.838 72.2158C262.838 72.2158 262.838 72.2158 262.838 72.2158C262.838 72.2158 262.838 72.2158 262.838 72.2158L262.838 72.2158L262.838 72.2158C262.838 72.2158 262.838 72.2158 262.838 72.2158C262.838 72.2158 262.838 72.2158 262.838 72.2158C262.838 72.2158 262.838 72.2158 262.838 72.2158L262.838 72.2158C262.838 72.2158 262.838 72.2158 262.838 72.2158C262.838 72.2158 262.838 72.2158 262.838 72.2158C262.838 72.2158 262.838 72.2158 262.838 72.2158L262.838 72.2158L262.838 72.2158C262.838 72.2158 262.838 72.2158 262.838 72.2158C262.838 72.2158 262.838 72.2158 262.838 72.2158C262.838 72.2158 262.838 72.2158 262.838 72.2158L262.838 72.2158C262.838 72.2158 262.838 72.2158 262.838 72.2158C262.838 72.2158 262.838 72.2158 262.838 72.2158C262.838 72.2158 262.838 72.2158 262.838 72.2158L262.838 72.2158L262.838 72.2158C262.838 72.2158 262.838 72.2158 262.838 72.2158C262.838 72.2158 262.838 72.2158 262.838 72.2158C262.838 72.2158 262.838 72.2158 262.838 72.2158C262.838 72.2158 262.838 72.2158 262.838 72.2158L262.838 72.2158L262.838 72.2158C262.838 72.2158 262.838 72.2158 262.838 72.2158C262.838 72.2158 262.838 72.2158 262.838 72.2158C262.838 72.2158 262.838 72.2158 262.838 72.2158C262.838 72.2158 262.838 72.2158 262.838 72.2158C262.838 72.2158 262.838 72.2158 262.838 72.2158C262.838 72.2158 262.838 72.2158 262.838 72.2158L262.838 72.2158L262.838 72.2158L262.838 72.2158L262.838 72.2158L262.838 72.2158L262.838 72.2158L262.838 0.215814ZM226.838 36.2158L226.838 37.2158L298.838 37.2158L298.838 36.2158L226.838 36.2158ZM262.838 1.21581L262.838 1.21581L262.838 1.21581L262.838 1.21581L262.838 1.21581L262.838 1.21581L262.838 1.21581C262.838 1.21581 262.838 1.21581 262.838 1.21581C262.838 1.21581 262.838 1.21581 262.838 1.21581C262.838 1.21581 262.838 1.21581 262.838 1.21581C262.838 1.21581 262.838 1.21581 262.838 1.21581C262.838 1.21581 262.838 1.21581 262.838 1.21581C262.838 1.21581 262.838 1.21581 262.838 1.21581L262.838 1.21581L262.838 1.21581C262.838 1.21581 262.838 1.21581 262.838 1.21581C262.838 1.21581 262.838 1.21581 262.838 1.21581C262.838 1.21581 262.838 1.21581 262.838 1.21581C262.838 1.21581 262.838 1.21581 262.838 1.21581L262.838 1.21581L262.838 1.21581C262.838 1.21581 262.838 1.21581 262.838 1.21581C262.838 1.21581 262.838 1.21581 262.838 1.21581C262.838 1.21581 262.838 1.21581 262.838 1.21581L262.838 1.21581C262.838 1.21581 262.838 1.21581 262.838 1.21581C262.838 1.21581 262.838 1.21581 262.838 1.21581C262.838 1.21581 262.838 1.21581 262.838 1.21581L262.838 1.21581L262.838 1.21581C262.838 1.21581 262.838 1.21581 262.838 1.21581C262.838 1.21581 262.838 1.21581 262.838 1.21581C262.838 1.21581 262.838 1.21581 262.838 1.21581L262.838 1.21581C262.838 1.21581 262.838 1.21581 262.838 1.21581C262.838 1.21581 262.838 1.21581 262.838 1.21581C262.838 1.21581 262.838 1.21581 262.838 1.21581L262.838 1.21581L262.838 1.21581C262.838 1.21581 262.838 1.21581 262.838 1.21581C262.838 1.21581 262.838 1.21581 262.838 1.21581C262.838 1.21581 262.838 1.21581 262.838 1.21581C262.838 1.21581 262.838 1.21581 262.838 1.21581L262.838 1.21581L262.838 1.21581C262.838 1.21581 262.838 1.21581 262.838 1.21581C262.838 1.21581 262.838 1.21581 262.838 1.21581C262.838 1.21581 262.838 1.21581 262.838 1.21581C262.838 1.21581 262.838 1.21581 262.838 1.21581C262.838 1.21581 262.838 1.21581 262.838 1.21581C262.838 1.21581 262.838 1.21581 262.838 1.21581L262.838 1.21581L262.838 1.21581L262.838 1.21581L262.838 1.21581L262.838 1.21581L262.838 1.21581L262.838 73.2158L262.838 73.2158L262.838 73.2158L262.838 73.2158L262.838 73.2158L262.838 73.2158L262.838 73.2158C262.838 73.2158 262.838 73.2158 262.838 73.2158C262.838 73.2158 262.838 73.2158 262.838 73.2158C262.838 73.2158 262.838 73.2158 262.838 73.2158C262.838 73.2158 262.838 73.2158 262.838 73.2158C262.838 73.2158 262.838 73.2158 262.838 73.2158C262.838 73.2158 262.838 73.2158 262.838 73.2158L262.838 73.2158L262.838 73.2158C262.838 73.2158 262.838 73.2158 262.838 73.2158C262.838 73.2158 262.838 73.2158 262.838 73.2158C262.838 73.2158 262.838 73.2158 262.838 73.2158C262.838 73.2158 262.838 73.2158 262.838 73.2158L262.838 73.2158L262.838 73.2158C262.838 73.2158 262.838 73.2158 262.838 73.2158C262.838 73.2158 262.838 73.2158 262.838 73.2158C262.838 73.2158 262.838 73.2158 262.838 73.2158L262.838 73.2158C262.838 73.2158 262.838 73.2158 262.838 73.2158C262.838 73.2158 262.838 73.2158 262.838 73.2158C262.838 73.2158 262.838 73.2158 262.838 73.2158L262.838 73.2158L262.838 73.2158C262.838 73.2158 262.838 73.2158 262.838 73.2158C262.838 73.2158 262.838 73.2158 262.838 73.2158C262.838 73.2158 262.838 73.2158 262.838 73.2158L262.838 73.2158C262.838 73.2158 262.838 73.2158 262.838 73.2158C262.838 73.2158 262.838 73.2158 262.838 73.2158C262.838 73.2158 262.838 73.2158 262.838 73.2158L262.838 73.2158L262.838 73.2158C262.838 73.2158 262.838 73.2158 262.838 73.2158C262.838 73.2158 262.838 73.2158 262.838 73.2158C262.838 73.2158 262.838 73.2158 262.838 73.2158C262.838 73.2158 262.838 73.2158 262.838 73.2158L262.838 73.2158L262.838 73.2158C262.838 73.2158 262.838 73.2158 262.838 73.2158C262.838 73.2158 262.838 73.2158 262.838 73.2158C262.838 73.2158 262.838 73.2158 262.838 73.2158C262.838 73.2158 262.838 73.2158 262.838 73.2158C262.838 73.2158 262.838 73.2158 262.838 73.2158C262.838 73.2158 262.838 73.2158 262.838 73.2158L262.838 73.2158L262.838 73.2158L262.838 73.2158L262.838 73.2158L262.838 73.2158L262.838 73.2158L262.838 1.21581ZM368.089 106.466C368.089 48.3381 320.967 1.21582 262.838 1.21581L262.838 73.2158C281.202 73.2158 296.089 88.1026 296.089 106.466L368.089 106.466ZM262.838 211.717C320.967 211.717 368.089 164.595 368.089 106.466L296.089 106.466C296.089 124.83 281.202 139.717 262.838 139.717L262.838 211.717ZM262.838 211.717C262.838 211.717 262.838 211.717 262.838 211.717C262.838 211.717 262.838 211.717 262.838 211.717L262.838 139.717C262.838 139.717 262.838 139.717 262.838 139.717C262.838 139.717 262.838 139.717 262.838 139.717L262.838 211.717ZM226.838 175.717L226.838 176.717L298.838 176.717L298.838 175.717L226.838 175.717Z" fill="#F5F5F5" mask="url(#path-11-outside-6_214_495)"/>
</svg>
