<svg width="1309" height="377" viewBox="0 0 1309 377" fill="none" xmlns="http://www.w3.org/2000/svg">
<g filter="url(#filter0_iii_225_569)">
<path fill-rule="evenodd" clip-rule="evenodd" d="M1135.24 238C1059.54 238 994.566 294.44 931.85 336.833C894.627 361.995 847.699 377 796.698 377C725.504 377 662.245 347.76 622.246 302.47C592.758 269.082 555.037 238 510.491 238C467.581 238 431.37 268.089 399.135 296.412C374.605 317.965 342.647 331 307.698 331C273.064 331 241.367 318.199 216.925 296.991C184.115 268.523 147.464 238 104.025 238H49.6983C22.6363 238 0.698242 216.062 0.698242 189C0.698242 161.938 22.6363 140 49.6982 140H103.478C146.967 140 183.595 109.288 216.265 80.5846C240.795 59.0331 272.751 46 307.698 46C343.126 46 375.48 59.3944 400.14 81.4794C431.933 109.954 467.89 140 510.57 140C554.826 140 592.247 108.998 621.298 75.6115C661.241 29.7066 724.939 0 796.698 0C847.963 0 895.113 15.161 932.427 40.558C995.1 83.2143 1060.1 140 1135.91 140H1259.7C1286.76 140 1308.7 161.938 1308.7 189C1308.7 216.062 1286.76 238 1259.7 238H1135.24Z" fill="white"/>
</g>
<defs>
<filter id="filter0_iii_225_569" x="-19.3018" y="-20" width="1398" height="417" filterUnits="userSpaceOnUse" color-interpolation-filters="sRGB">
<feFlood flood-opacity="0" result="BackgroundImageFix"/>
<feBlend mode="normal" in="SourceGraphic" in2="BackgroundImageFix" result="shape"/>
<feColorMatrix in="SourceAlpha" type="matrix" values="0 0 0 0 0 0 0 0 0 0 0 0 0 0 0 0 0 0 127 0" result="hardAlpha"/>
<feOffset dx="-10" dy="-10"/>
<feGaussianBlur stdDeviation="15"/>
<feComposite in2="hardAlpha" operator="arithmetic" k2="-1" k3="1"/>
<feColorMatrix type="matrix" values="0 0 0 0 1 0 0 0 0 0.164706 0 0 0 0 0 0 0 0 1 0"/>
<feBlend mode="normal" in2="shape" result="effect1_innerShadow_225_569"/>
<feColorMatrix in="SourceAlpha" type="matrix" values="0 0 0 0 0 0 0 0 0 0 0 0 0 0 0 0 0 0 127 0" result="hardAlpha"/>
<feOffset dx="70" dy="20"/>
<feGaussianBlur stdDeviation="45"/>
<feComposite in2="hardAlpha" operator="arithmetic" k2="-1" k3="1"/>
<feColorMatrix type="matrix" values="0 0 0 0 1 0 0 0 0 0.164706 0 0 0 0 0 0 0 0 1 0"/>
<feBlend mode="normal" in2="effect1_innerShadow_225_569" result="effect2_innerShadow_225_569"/>
<feColorMatrix in="SourceAlpha" type="matrix" values="0 0 0 0 0 0 0 0 0 0 0 0 0 0 0 0 0 0 127 0" result="hardAlpha"/>
<feOffset dx="-20" dy="-20"/>
<feGaussianBlur stdDeviation="60"/>
<feComposite in2="hardAlpha" operator="arithmetic" k2="-1" k3="1"/>
<feColorMatrix type="matrix" values="0 0 0 0 0.258824 0 0 0 0 0.0156863 0 0 0 0 0.407843 0 0 0 1 0"/>
<feBlend mode="normal" in2="effect2_innerShadow_225_569" result="effect3_innerShadow_225_569"/>
</filter>
</defs>
</svg>
