<svg width="403" height="239" viewBox="0 0 403 239" fill="none" xmlns="http://www.w3.org/2000/svg">
<g filter="url(#filter0_d_283_1024)">
<mask id="path-1-outside-1_283_1024" maskUnits="userSpaceOnUse" x="4.2915" y="93.4346" width="203" height="138" fill="black">
<rect fill="white" x="4.2915" y="93.4346" width="203" height="138"/>
<path fill-rule="evenodd" clip-rule="evenodd" d="M171.292 194.919C171.292 194.919 171.292 194.918 171.292 194.918C171.292 158.753 141.974 129.435 105.808 129.435C69.6425 129.435 40.3246 158.753 40.3246 194.918C40.3246 194.918 40.3246 194.919 40.3246 194.919L41.3246 194.919C41.3246 194.919 41.3246 194.918 41.3246 194.918C41.3246 159.305 70.1948 130.435 105.808 130.435C141.421 130.435 170.292 159.305 170.292 194.918C170.292 194.918 170.292 194.919 170.292 194.919L171.292 194.919Z"/>
</mask>
<path fill-rule="evenodd" clip-rule="evenodd" d="M171.292 194.919C171.292 194.919 171.292 194.918 171.292 194.918C171.292 158.753 141.974 129.435 105.808 129.435C69.6425 129.435 40.3246 158.753 40.3246 194.918C40.3246 194.918 40.3246 194.919 40.3246 194.919L41.3246 194.919C41.3246 194.919 41.3246 194.918 41.3246 194.918C41.3246 159.305 70.1948 130.435 105.808 130.435C141.421 130.435 170.292 159.305 170.292 194.918C170.292 194.918 170.292 194.919 170.292 194.919L171.292 194.919Z" fill="#FF2A00"/>
<path d="M171.292 194.919L171.291 230.919L207.291 230.919L207.292 194.919L171.292 194.919ZM40.3246 194.919L4.32455 194.919L4.32455 230.919L40.3245 230.919L40.3246 194.919ZM41.3246 194.919L41.3245 230.919L77.3245 230.919L77.3246 194.919L41.3246 194.919ZM170.292 194.919L134.292 194.919L134.291 230.919L170.291 230.919L170.292 194.919ZM207.292 194.919C207.292 194.919 207.292 194.919 207.292 194.919C207.292 194.919 207.292 194.919 207.292 194.918L135.292 194.918C135.292 194.918 135.292 194.918 135.292 194.918C135.292 194.918 135.292 194.919 135.292 194.919L207.292 194.919ZM207.292 194.918C207.292 138.87 161.856 93.4346 105.808 93.4346L105.808 165.435C122.091 165.435 135.292 178.635 135.292 194.918L207.292 194.918ZM105.808 93.4346C49.7602 93.4346 4.32455 138.87 4.32455 194.918L76.3246 194.918C76.3246 178.635 89.5248 165.435 105.808 165.435L105.808 93.4346ZM4.32455 194.918C4.32455 194.918 4.32455 194.918 4.32455 194.918C4.32455 194.918 4.32455 194.918 4.32455 194.918L4.32455 194.918C4.32455 194.918 4.32455 194.918 4.32455 194.918C4.32455 194.918 4.32455 194.918 4.32455 194.918L4.32455 194.918C4.32455 194.918 4.32455 194.918 4.32455 194.918C4.32455 194.918 4.32455 194.918 4.32455 194.918L4.32455 194.918C4.32455 194.918 4.32455 194.918 4.32455 194.918C4.32455 194.918 4.32455 194.918 4.32455 194.918L4.32455 194.918C4.32455 194.918 4.32455 194.918 4.32455 194.918C4.32455 194.918 4.32455 194.918 4.32455 194.918L4.32455 194.918C4.32455 194.918 4.32455 194.918 4.32455 194.918C4.32455 194.918 4.32455 194.918 4.32455 194.918L4.32455 194.918C4.32455 194.918 4.32455 194.918 4.32455 194.918C4.32455 194.918 4.32455 194.918 4.32455 194.918L4.32455 194.918C4.32455 194.918 4.32455 194.918 4.32455 194.918C4.32455 194.918 4.32455 194.918 4.32455 194.918L4.32455 194.918C4.32455 194.918 4.32455 194.918 4.32455 194.918C4.32455 194.918 4.32455 194.918 4.32455 194.918C4.32455 194.918 4.32455 194.918 4.32455 194.918C4.32455 194.918 4.32455 194.918 4.32455 194.918L4.32455 194.918C4.32455 194.918 4.32455 194.918 4.32455 194.918C4.32455 194.918 4.32455 194.918 4.32455 194.918L4.32455 194.918C4.32455 194.918 4.32455 194.918 4.32455 194.918C4.32455 194.918 4.32455 194.918 4.32455 194.918L4.32455 194.918C4.32455 194.918 4.32455 194.918 4.32455 194.918C4.32455 194.918 4.32455 194.918 4.32455 194.918L4.32455 194.918C4.32455 194.918 4.32455 194.918 4.32455 194.918C4.32455 194.918 4.32455 194.918 4.32455 194.918L4.32455 194.918C4.32455 194.918 4.32455 194.918 4.32455 194.918C4.32455 194.918 4.32455 194.918 4.32455 194.918L4.32455 194.918C4.32455 194.918 4.32455 194.918 4.32455 194.918C4.32455 194.918 4.32455 194.918 4.32455 194.918L4.32455 194.918C4.32455 194.918 4.32455 194.918 4.32455 194.918C4.32455 194.918 4.32455 194.918 4.32455 194.918L4.32455 194.918C4.32455 194.918 4.32455 194.918 4.32455 194.918L4.32455 194.918C4.32455 194.918 4.32455 194.918 4.32455 194.918C4.32455 194.918 4.32455 194.918 4.32455 194.918L4.32455 194.918C4.32455 194.918 4.32455 194.918 4.32455 194.918C4.32455 194.918 4.32455 194.918 4.32455 194.918L4.32455 194.918C4.32455 194.918 4.32455 194.918 4.32455 194.918C4.32455 194.918 4.32455 194.918 4.32455 194.918L4.32455 194.919C4.32455 194.919 4.32455 194.919 4.32455 194.919C4.32455 194.919 4.32455 194.919 4.32455 194.919L4.32455 194.919C4.32455 194.919 4.32455 194.919 4.32455 194.919C4.32455 194.919 4.32455 194.919 4.32455 194.919L4.32455 194.919C4.32455 194.919 4.32455 194.919 4.32455 194.919C4.32455 194.919 4.32455 194.919 4.32455 194.919L4.32455 194.919C4.32455 194.919 4.32455 194.919 4.32455 194.919C4.32455 194.919 4.32455 194.919 4.32455 194.919L4.32455 194.919C4.32455 194.919 4.32455 194.919 4.32455 194.919C4.32455 194.919 4.32455 194.919 4.32455 194.919L4.32455 194.919C4.32455 194.919 4.32455 194.919 4.32455 194.919L4.32455 194.919C4.32455 194.919 4.32455 194.919 4.32455 194.919C4.32455 194.919 4.32455 194.919 4.32455 194.919L4.32455 194.919C4.32455 194.919 4.32455 194.919 4.32455 194.919C4.32455 194.919 4.32455 194.919 4.32455 194.919L4.32455 194.919C4.32455 194.919 4.32455 194.919 4.32455 194.919C4.32455 194.919 4.32455 194.919 4.32455 194.919L4.32455 194.919C4.32455 194.919 4.32455 194.919 4.32455 194.919C4.32455 194.919 4.32455 194.919 4.32455 194.919L4.32455 194.919C4.32455 194.919 4.32455 194.919 4.32455 194.919C4.32455 194.919 4.32455 194.919 4.32455 194.919L4.32455 194.919C4.32455 194.919 4.32455 194.919 4.32455 194.919C4.32455 194.919 4.32455 194.919 4.32455 194.919L4.32455 194.919C4.32455 194.919 4.32455 194.919 4.32455 194.919C4.32455 194.919 4.32455 194.919 4.32455 194.919L4.32455 194.919C4.32455 194.919 4.32455 194.919 4.32455 194.919C4.32455 194.919 4.32455 194.919 4.32455 194.919L4.32455 194.919C4.32455 194.919 4.32455 194.919 4.32455 194.919L4.32455 194.919C4.32455 194.919 4.32455 194.919 4.32455 194.919C4.32455 194.919 4.32455 194.919 4.32455 194.919L4.32455 194.919C4.32455 194.919 4.32455 194.919 4.32455 194.919C4.32455 194.919 4.32455 194.919 4.32455 194.919L4.32455 194.919C4.32455 194.919 4.32455 194.919 4.32455 194.919C4.32455 194.919 4.32455 194.919 4.32455 194.919L4.32455 194.919C4.32455 194.919 4.32455 194.919 4.32455 194.919C4.32455 194.919 4.32455 194.919 4.32455 194.919L4.32455 194.919C4.32455 194.919 4.32455 194.919 4.32455 194.919C4.32455 194.919 4.32455 194.919 4.32455 194.919L4.32455 194.919C4.32455 194.919 4.32455 194.919 4.32455 194.919C4.32455 194.919 4.32455 194.919 4.32455 194.919L4.32455 194.919C4.32455 194.919 4.32455 194.919 4.32455 194.919C4.32455 194.919 4.32455 194.919 4.32455 194.919L4.32455 194.919C4.32455 194.919 4.32455 194.919 4.32455 194.919C4.32455 194.919 4.32455 194.919 4.32455 194.919L4.32455 194.919C4.32455 194.919 4.32455 194.919 4.32455 194.919L4.32455 194.919C4.32455 194.919 4.32455 194.919 4.32455 194.919C4.32455 194.919 4.32455 194.919 4.32455 194.919L4.32455 194.919C4.32455 194.919 4.32455 194.919 4.32455 194.919C4.32455 194.919 4.32455 194.919 4.32455 194.919L4.32455 194.919C4.32455 194.919 4.32455 194.919 4.32455 194.919C4.32455 194.919 4.32455 194.919 4.32455 194.919L4.32455 194.919C4.32455 194.919 4.32455 194.919 4.32455 194.919C4.32455 194.919 4.32455 194.919 4.32455 194.919L4.32455 194.919C4.32455 194.919 4.32455 194.919 4.32455 194.919C4.32455 194.919 4.32455 194.919 4.32455 194.919L4.32455 194.919C4.32455 194.919 4.32455 194.919 4.32455 194.919C4.32455 194.919 4.32455 194.919 4.32455 194.919L4.32455 194.919C4.32455 194.919 4.32455 194.919 4.32455 194.919C4.32455 194.919 4.32455 194.919 4.32455 194.919L4.32455 194.919C4.32455 194.919 4.32455 194.919 4.32455 194.919C4.32455 194.919 4.32455 194.919 4.32455 194.919L76.3246 194.919C76.3246 194.919 76.3246 194.919 76.3246 194.919C76.3246 194.919 76.3246 194.919 76.3246 194.919L76.3246 194.919C76.3246 194.919 76.3246 194.919 76.3246 194.919C76.3246 194.919 76.3246 194.919 76.3246 194.919L76.3246 194.919C76.3246 194.919 76.3246 194.919 76.3246 194.919C76.3246 194.919 76.3246 194.919 76.3246 194.919L76.3246 194.919C76.3246 194.919 76.3246 194.919 76.3246 194.919C76.3246 194.919 76.3246 194.919 76.3246 194.919L76.3246 194.919C76.3246 194.919 76.3246 194.919 76.3246 194.919C76.3246 194.919 76.3246 194.919 76.3246 194.919L76.3246 194.919C76.3246 194.919 76.3246 194.919 76.3246 194.919C76.3246 194.919 76.3246 194.919 76.3246 194.919L76.3246 194.919C76.3246 194.919 76.3246 194.919 76.3246 194.919C76.3246 194.919 76.3246 194.919 76.3246 194.919L76.3246 194.919C76.3246 194.919 76.3246 194.919 76.3246 194.919C76.3246 194.919 76.3246 194.919 76.3246 194.919L76.3246 194.919C76.3246 194.919 76.3246 194.919 76.3246 194.919L76.3246 194.919C76.3246 194.919 76.3246 194.919 76.3246 194.919C76.3246 194.919 76.3246 194.919 76.3246 194.919L76.3246 194.919C76.3246 194.919 76.3246 194.919 76.3246 194.919C76.3246 194.919 76.3246 194.919 76.3246 194.919L76.3246 194.919C76.3246 194.919 76.3246 194.919 76.3246 194.919C76.3246 194.919 76.3246 194.919 76.3246 194.919L76.3246 194.919C76.3246 194.919 76.3246 194.919 76.3246 194.919C76.3246 194.919 76.3246 194.919 76.3246 194.919L76.3246 194.919C76.3246 194.919 76.3246 194.919 76.3246 194.919C76.3246 194.919 76.3246 194.919 76.3246 194.919L76.3246 194.919C76.3246 194.919 76.3246 194.919 76.3246 194.919C76.3246 194.919 76.3246 194.919 76.3246 194.919L76.3246 194.919C76.3246 194.919 76.3246 194.919 76.3246 194.919C76.3246 194.919 76.3246 194.919 76.3246 194.919L76.3246 194.919C76.3246 194.919 76.3246 194.919 76.3246 194.919C76.3246 194.919 76.3246 194.919 76.3246 194.919L76.3246 194.919C76.3246 194.919 76.3246 194.919 76.3246 194.919L76.3246 194.919C76.3246 194.919 76.3246 194.919 76.3246 194.919C76.3246 194.919 76.3246 194.919 76.3246 194.919L76.3246 194.919C76.3246 194.919 76.3246 194.919 76.3246 194.919C76.3246 194.919 76.3246 194.919 76.3246 194.919L76.3246 194.919C76.3246 194.919 76.3246 194.919 76.3246 194.919C76.3246 194.919 76.3246 194.919 76.3246 194.919L76.3246 194.919C76.3246 194.919 76.3246 194.919 76.3246 194.919C76.3246 194.919 76.3246 194.919 76.3246 194.919L76.3246 194.919C76.3246 194.919 76.3246 194.919 76.3246 194.919C76.3246 194.919 76.3246 194.919 76.3246 194.919L76.3246 194.919C76.3246 194.919 76.3246 194.919 76.3246 194.919C76.3246 194.919 76.3246 194.919 76.3246 194.919L76.3246 194.919C76.3246 194.919 76.3246 194.919 76.3246 194.919C76.3246 194.919 76.3246 194.919 76.3246 194.919L76.3246 194.919C76.3246 194.919 76.3246 194.919 76.3246 194.919C76.3246 194.919 76.3246 194.919 76.3246 194.919L76.3246 194.919C76.3246 194.919 76.3246 194.919 76.3246 194.919L76.3246 194.919C76.3246 194.919 76.3246 194.919 76.3246 194.919C76.3246 194.919 76.3246 194.919 76.3246 194.919L76.3246 194.919C76.3246 194.919 76.3246 194.919 76.3246 194.919C76.3246 194.919 76.3246 194.919 76.3246 194.919L76.3246 194.919C76.3246 194.919 76.3246 194.919 76.3246 194.919C76.3246 194.919 76.3246 194.919 76.3246 194.919L76.3246 194.919C76.3246 194.919 76.3246 194.919 76.3246 194.919C76.3246 194.919 76.3246 194.919 76.3246 194.919L76.3246 194.919C76.3246 194.919 76.3246 194.919 76.3246 194.919C76.3246 194.919 76.3246 194.919 76.3246 194.919L76.3246 194.918C76.3246 194.918 76.3246 194.918 76.3246 194.918C76.3246 194.918 76.3246 194.918 76.3246 194.918L76.3246 194.918C76.3246 194.918 76.3246 194.918 76.3246 194.918C76.3246 194.918 76.3246 194.918 76.3246 194.918L76.3246 194.918C76.3246 194.918 76.3246 194.918 76.3246 194.918C76.3246 194.918 76.3246 194.918 76.3246 194.918L76.3246 194.918C76.3246 194.918 76.3246 194.918 76.3246 194.918L76.3246 194.918C76.3246 194.918 76.3246 194.918 76.3246 194.918C76.3246 194.918 76.3246 194.918 76.3246 194.918L76.3246 194.918C76.3246 194.918 76.3246 194.918 76.3246 194.918C76.3246 194.918 76.3246 194.918 76.3246 194.918L76.3246 194.918C76.3246 194.918 76.3246 194.918 76.3246 194.918C76.3246 194.918 76.3246 194.918 76.3246 194.918L76.3246 194.918C76.3246 194.918 76.3246 194.918 76.3246 194.918C76.3246 194.918 76.3246 194.918 76.3246 194.918L76.3246 194.918C76.3246 194.918 76.3246 194.918 76.3246 194.918C76.3246 194.918 76.3246 194.918 76.3246 194.918L76.3246 194.918C76.3246 194.918 76.3246 194.918 76.3246 194.918C76.3246 194.918 76.3246 194.918 76.3246 194.918L76.3246 194.918C76.3246 194.918 76.3246 194.918 76.3246 194.918C76.3246 194.918 76.3246 194.918 76.3246 194.918L76.3246 194.918C76.3246 194.918 76.3246 194.918 76.3246 194.918C76.3246 194.918 76.3246 194.918 76.3246 194.918C76.3246 194.918 76.3246 194.918 76.3246 194.918C76.3246 194.918 76.3246 194.918 76.3246 194.918L76.3246 194.918C76.3246 194.918 76.3246 194.918 76.3246 194.918C76.3246 194.918 76.3246 194.918 76.3246 194.918L76.3246 194.918C76.3246 194.918 76.3246 194.918 76.3246 194.918C76.3246 194.918 76.3246 194.918 76.3246 194.918L76.3246 194.918C76.3246 194.918 76.3246 194.918 76.3246 194.918C76.3246 194.918 76.3246 194.918 76.3246 194.918L76.3246 194.918C76.3246 194.918 76.3246 194.918 76.3246 194.918C76.3246 194.918 76.3246 194.918 76.3246 194.918L76.3246 194.918C76.3246 194.918 76.3246 194.918 76.3246 194.918C76.3246 194.918 76.3246 194.918 76.3246 194.918L76.3246 194.918C76.3246 194.918 76.3246 194.918 76.3246 194.918C76.3246 194.918 76.3246 194.918 76.3246 194.918L76.3246 194.918C76.3246 194.918 76.3246 194.918 76.3246 194.918C76.3246 194.918 76.3246 194.918 76.3246 194.918L76.3246 194.918C76.3246 194.918 76.3246 194.918 76.3246 194.918C76.3246 194.918 76.3246 194.918 76.3246 194.918L4.32455 194.918ZM40.3245 230.919L41.3245 230.919L41.3246 158.919L40.3246 158.919L40.3245 230.919ZM5.32455 194.918C5.32455 194.918 5.32455 194.918 5.32455 194.918C5.32455 194.918 5.32455 194.918 5.32455 194.918L5.32455 194.918C5.32455 194.918 5.32455 194.918 5.32455 194.918C5.32455 194.918 5.32455 194.918 5.32455 194.918L5.32455 194.918C5.32455 194.918 5.32455 194.918 5.32455 194.918C5.32455 194.918 5.32455 194.918 5.32455 194.918L5.32455 194.918C5.32455 194.918 5.32455 194.918 5.32455 194.918C5.32455 194.918 5.32455 194.918 5.32455 194.918L5.32455 194.918C5.32455 194.918 5.32455 194.918 5.32455 194.918C5.32455 194.918 5.32455 194.918 5.32455 194.918L5.32455 194.918C5.32455 194.918 5.32455 194.918 5.32455 194.918C5.32455 194.918 5.32455 194.918 5.32455 194.918L5.32455 194.918C5.32455 194.918 5.32455 194.918 5.32455 194.918C5.32455 194.918 5.32455 194.918 5.32455 194.918L5.32455 194.918C5.32455 194.918 5.32455 194.918 5.32455 194.918C5.32455 194.918 5.32455 194.918 5.32455 194.918L5.32455 194.918C5.32455 194.918 5.32455 194.918 5.32455 194.918C5.32455 194.918 5.32455 194.918 5.32455 194.918C5.32455 194.918 5.32455 194.918 5.32455 194.918C5.32455 194.918 5.32455 194.918 5.32455 194.918L5.32455 194.918C5.32455 194.918 5.32455 194.918 5.32455 194.918C5.32455 194.918 5.32455 194.918 5.32455 194.918L5.32455 194.918C5.32455 194.918 5.32455 194.918 5.32455 194.918C5.32455 194.918 5.32455 194.918 5.32455 194.918L5.32455 194.918C5.32455 194.918 5.32455 194.918 5.32455 194.918C5.32455 194.918 5.32455 194.918 5.32455 194.918L5.32455 194.918C5.32455 194.918 5.32455 194.918 5.32455 194.918C5.32455 194.918 5.32455 194.918 5.32455 194.918L5.32455 194.918C5.32455 194.918 5.32455 194.918 5.32455 194.918C5.32455 194.918 5.32455 194.918 5.32455 194.918L5.32455 194.918C5.32455 194.918 5.32455 194.918 5.32455 194.918C5.32455 194.918 5.32455 194.918 5.32455 194.918L5.32455 194.918C5.32455 194.918 5.32455 194.918 5.32455 194.918C5.32455 194.918 5.32455 194.918 5.32455 194.918L5.32455 194.918C5.32455 194.918 5.32455 194.918 5.32455 194.918L5.32455 194.918C5.32455 194.918 5.32455 194.918 5.32455 194.918C5.32455 194.918 5.32455 194.918 5.32455 194.918L5.32455 194.918C5.32455 194.918 5.32455 194.918 5.32455 194.918C5.32455 194.918 5.32455 194.918 5.32455 194.918L5.32455 194.918C5.32455 194.918 5.32455 194.918 5.32455 194.918C5.32455 194.918 5.32455 194.918 5.32455 194.918L5.32455 194.919C5.32455 194.919 5.32455 194.919 5.32455 194.919C5.32455 194.919 5.32455 194.919 5.32455 194.919L5.32455 194.919C5.32455 194.919 5.32455 194.919 5.32455 194.919C5.32455 194.919 5.32455 194.919 5.32455 194.919L5.32455 194.919C5.32455 194.919 5.32455 194.919 5.32455 194.919C5.32455 194.919 5.32455 194.919 5.32455 194.919L5.32455 194.919C5.32455 194.919 5.32455 194.919 5.32455 194.919C5.32455 194.919 5.32455 194.919 5.32455 194.919L5.32455 194.919C5.32455 194.919 5.32455 194.919 5.32455 194.919C5.32455 194.919 5.32455 194.919 5.32455 194.919L5.32455 194.919C5.32455 194.919 5.32455 194.919 5.32455 194.919L5.32455 194.919C5.32455 194.919 5.32455 194.919 5.32455 194.919C5.32455 194.919 5.32455 194.919 5.32455 194.919L5.32455 194.919C5.32455 194.919 5.32455 194.919 5.32455 194.919C5.32455 194.919 5.32455 194.919 5.32455 194.919L5.32455 194.919C5.32455 194.919 5.32455 194.919 5.32455 194.919C5.32455 194.919 5.32455 194.919 5.32455 194.919L5.32455 194.919C5.32455 194.919 5.32455 194.919 5.32455 194.919C5.32455 194.919 5.32455 194.919 5.32455 194.919L5.32455 194.919C5.32455 194.919 5.32455 194.919 5.32455 194.919C5.32455 194.919 5.32455 194.919 5.32455 194.919L5.32455 194.919C5.32455 194.919 5.32455 194.919 5.32455 194.919C5.32455 194.919 5.32455 194.919 5.32455 194.919L5.32455 194.919C5.32455 194.919 5.32455 194.919 5.32455 194.919C5.32455 194.919 5.32455 194.919 5.32455 194.919L5.32455 194.919C5.32455 194.919 5.32455 194.919 5.32455 194.919C5.32455 194.919 5.32455 194.919 5.32455 194.919L5.32455 194.919C5.32455 194.919 5.32455 194.919 5.32455 194.919L5.32455 194.919C5.32455 194.919 5.32455 194.919 5.32455 194.919C5.32455 194.919 5.32455 194.919 5.32455 194.919L5.32455 194.919C5.32455 194.919 5.32455 194.919 5.32455 194.919C5.32455 194.919 5.32455 194.919 5.32455 194.919L5.32455 194.919C5.32455 194.919 5.32455 194.919 5.32455 194.919C5.32455 194.919 5.32455 194.919 5.32455 194.919L5.32455 194.919C5.32455 194.919 5.32455 194.919 5.32455 194.919C5.32455 194.919 5.32455 194.919 5.32455 194.919L5.32455 194.919C5.32455 194.919 5.32455 194.919 5.32455 194.919C5.32455 194.919 5.32455 194.919 5.32455 194.919L5.32455 194.919C5.32455 194.919 5.32455 194.919 5.32455 194.919C5.32455 194.919 5.32455 194.919 5.32455 194.919L5.32455 194.919C5.32455 194.919 5.32455 194.919 5.32455 194.919C5.32455 194.919 5.32455 194.919 5.32455 194.919L5.32455 194.919C5.32455 194.919 5.32455 194.919 5.32455 194.919C5.32455 194.919 5.32455 194.919 5.32455 194.919L5.32455 194.919C5.32455 194.919 5.32455 194.919 5.32455 194.919L5.32455 194.919C5.32455 194.919 5.32455 194.919 5.32455 194.919C5.32455 194.919 5.32455 194.919 5.32455 194.919L5.32455 194.919C5.32455 194.919 5.32455 194.919 5.32455 194.919C5.32455 194.919 5.32455 194.919 5.32455 194.919L5.32455 194.919C5.32455 194.919 5.32455 194.919 5.32455 194.919C5.32455 194.919 5.32455 194.919 5.32455 194.919L5.32455 194.919C5.32455 194.919 5.32455 194.919 5.32455 194.919C5.32455 194.919 5.32455 194.919 5.32455 194.919L5.32455 194.919C5.32455 194.919 5.32455 194.919 5.32455 194.919C5.32455 194.919 5.32455 194.919 5.32455 194.919L5.32455 194.919C5.32455 194.919 5.32455 194.919 5.32455 194.919C5.32455 194.919 5.32455 194.919 5.32455 194.919L5.32455 194.919C5.32455 194.919 5.32455 194.919 5.32455 194.919C5.32455 194.919 5.32455 194.919 5.32455 194.919L5.32455 194.919C5.32455 194.919 5.32455 194.919 5.32455 194.919C5.32455 194.919 5.32455 194.919 5.32455 194.919L77.3246 194.919C77.3246 194.919 77.3246 194.919 77.3246 194.919C77.3246 194.919 77.3246 194.919 77.3246 194.919L77.3246 194.919C77.3246 194.919 77.3246 194.919 77.3246 194.919C77.3246 194.919 77.3246 194.919 77.3246 194.919L77.3246 194.919C77.3246 194.919 77.3246 194.919 77.3246 194.919C77.3246 194.919 77.3246 194.919 77.3246 194.919L77.3246 194.919C77.3246 194.919 77.3246 194.919 77.3246 194.919C77.3246 194.919 77.3246 194.919 77.3246 194.919L77.3246 194.919C77.3246 194.919 77.3246 194.919 77.3246 194.919C77.3246 194.919 77.3246 194.919 77.3246 194.919L77.3246 194.919C77.3246 194.919 77.3246 194.919 77.3246 194.919C77.3246 194.919 77.3246 194.919 77.3246 194.919L77.3246 194.919C77.3246 194.919 77.3246 194.919 77.3246 194.919C77.3246 194.919 77.3246 194.919 77.3246 194.919L77.3246 194.919C77.3246 194.919 77.3246 194.919 77.3246 194.919C77.3246 194.919 77.3246 194.919 77.3246 194.919L77.3246 194.919C77.3246 194.919 77.3246 194.919 77.3246 194.919L77.3246 194.919C77.3246 194.919 77.3246 194.919 77.3246 194.919C77.3246 194.919 77.3246 194.919 77.3246 194.919L77.3246 194.919C77.3246 194.919 77.3246 194.919 77.3246 194.919C77.3246 194.919 77.3246 194.919 77.3246 194.919L77.3246 194.919C77.3246 194.919 77.3246 194.919 77.3246 194.919C77.3246 194.919 77.3246 194.919 77.3246 194.919L77.3246 194.919C77.3246 194.919 77.3246 194.919 77.3246 194.919C77.3246 194.919 77.3246 194.919 77.3246 194.919L77.3246 194.919C77.3246 194.919 77.3246 194.919 77.3246 194.919C77.3246 194.919 77.3246 194.919 77.3246 194.919L77.3246 194.919C77.3246 194.919 77.3246 194.919 77.3246 194.919C77.3246 194.919 77.3246 194.919 77.3246 194.919L77.3246 194.919C77.3246 194.919 77.3246 194.919 77.3246 194.919C77.3246 194.919 77.3246 194.919 77.3246 194.919L77.3246 194.919C77.3246 194.919 77.3246 194.919 77.3246 194.919C77.3246 194.919 77.3246 194.919 77.3246 194.919L77.3246 194.919C77.3246 194.919 77.3246 194.919 77.3246 194.919L77.3246 194.919C77.3246 194.919 77.3246 194.919 77.3246 194.919C77.3246 194.919 77.3246 194.919 77.3246 194.919L77.3246 194.919C77.3246 194.919 77.3246 194.919 77.3246 194.919C77.3246 194.919 77.3246 194.919 77.3246 194.919L77.3246 194.919C77.3246 194.919 77.3246 194.919 77.3246 194.919C77.3246 194.919 77.3246 194.919 77.3246 194.919L77.3246 194.919C77.3246 194.919 77.3246 194.919 77.3246 194.919C77.3246 194.919 77.3246 194.919 77.3246 194.919L77.3246 194.919C77.3246 194.919 77.3246 194.919 77.3246 194.919C77.3246 194.919 77.3246 194.919 77.3246 194.919L77.3246 194.919C77.3246 194.919 77.3246 194.919 77.3246 194.919C77.3246 194.919 77.3246 194.919 77.3246 194.919L77.3246 194.919C77.3246 194.919 77.3246 194.919 77.3246 194.919C77.3246 194.919 77.3246 194.919 77.3246 194.919L77.3246 194.919C77.3246 194.919 77.3246 194.919 77.3246 194.919C77.3246 194.919 77.3246 194.919 77.3246 194.919L77.3246 194.919C77.3246 194.919 77.3246 194.919 77.3246 194.919L77.3246 194.919C77.3246 194.919 77.3246 194.919 77.3246 194.919C77.3246 194.919 77.3246 194.919 77.3246 194.919L77.3246 194.919C77.3246 194.919 77.3246 194.919 77.3246 194.919C77.3246 194.919 77.3246 194.919 77.3246 194.919L77.3246 194.919C77.3246 194.919 77.3246 194.919 77.3246 194.919C77.3246 194.919 77.3246 194.919 77.3246 194.919L77.3246 194.919C77.3246 194.919 77.3246 194.919 77.3246 194.919C77.3246 194.919 77.3246 194.919 77.3246 194.919L77.3246 194.919C77.3246 194.919 77.3246 194.919 77.3246 194.919C77.3246 194.919 77.3246 194.919 77.3246 194.919L77.3246 194.918C77.3246 194.918 77.3246 194.918 77.3246 194.918C77.3246 194.918 77.3246 194.918 77.3246 194.918L77.3246 194.918C77.3246 194.918 77.3246 194.918 77.3246 194.918C77.3246 194.918 77.3246 194.918 77.3246 194.918L77.3246 194.918C77.3246 194.918 77.3246 194.918 77.3246 194.918C77.3246 194.918 77.3246 194.918 77.3246 194.918L77.3246 194.918C77.3246 194.918 77.3246 194.918 77.3246 194.918L77.3246 194.918C77.3246 194.918 77.3246 194.918 77.3246 194.918C77.3246 194.918 77.3246 194.918 77.3246 194.918L77.3246 194.918C77.3246 194.918 77.3246 194.918 77.3246 194.918C77.3246 194.918 77.3246 194.918 77.3246 194.918L77.3246 194.918C77.3246 194.918 77.3246 194.918 77.3246 194.918C77.3246 194.918 77.3246 194.918 77.3246 194.918L77.3246 194.918C77.3246 194.918 77.3246 194.918 77.3246 194.918C77.3246 194.918 77.3246 194.918 77.3246 194.918L77.3246 194.918C77.3246 194.918 77.3246 194.918 77.3246 194.918C77.3246 194.918 77.3246 194.918 77.3246 194.918L77.3246 194.918C77.3246 194.918 77.3246 194.918 77.3246 194.918C77.3246 194.918 77.3246 194.918 77.3246 194.918L77.3246 194.918C77.3246 194.918 77.3246 194.918 77.3246 194.918C77.3246 194.918 77.3246 194.918 77.3246 194.918L77.3246 194.918C77.3246 194.918 77.3246 194.918 77.3246 194.918C77.3246 194.918 77.3246 194.918 77.3246 194.918C77.3246 194.918 77.3246 194.918 77.3246 194.918C77.3246 194.918 77.3246 194.918 77.3246 194.918L77.3246 194.918C77.3246 194.918 77.3246 194.918 77.3246 194.918C77.3246 194.918 77.3246 194.918 77.3246 194.918L77.3246 194.918C77.3246 194.918 77.3246 194.918 77.3246 194.918C77.3246 194.918 77.3246 194.918 77.3246 194.918L77.3246 194.918C77.3246 194.918 77.3246 194.918 77.3246 194.918C77.3246 194.918 77.3246 194.918 77.3246 194.918L77.3246 194.918C77.3246 194.918 77.3246 194.918 77.3246 194.918C77.3246 194.918 77.3246 194.918 77.3246 194.918L77.3246 194.918C77.3246 194.918 77.3246 194.918 77.3246 194.918C77.3246 194.918 77.3246 194.918 77.3246 194.918L77.3246 194.918C77.3246 194.918 77.3246 194.918 77.3246 194.918C77.3246 194.918 77.3246 194.918 77.3246 194.918L77.3246 194.918C77.3246 194.918 77.3246 194.918 77.3246 194.918C77.3246 194.918 77.3246 194.918 77.3246 194.918L77.3246 194.918C77.3246 194.918 77.3246 194.918 77.3246 194.918C77.3246 194.918 77.3246 194.918 77.3246 194.918L5.32455 194.918ZM105.808 94.4346C50.3125 94.4346 5.32455 139.423 5.32455 194.918L77.3246 194.918C77.3246 179.187 90.077 166.435 105.808 166.435L105.808 94.4346ZM206.292 194.918C206.292 139.423 161.304 94.4346 105.808 94.4346L105.808 166.435C121.539 166.435 134.292 179.187 134.292 194.918L206.292 194.918ZM206.292 194.919C206.292 194.919 206.292 194.919 206.292 194.919C206.292 194.919 206.292 194.919 206.292 194.919L206.292 194.919C206.292 194.919 206.292 194.919 206.292 194.919C206.292 194.919 206.292 194.919 206.292 194.919L206.292 194.919C206.292 194.919 206.292 194.919 206.292 194.919C206.292 194.919 206.292 194.919 206.292 194.919L206.292 194.919C206.292 194.919 206.292 194.919 206.292 194.919C206.292 194.919 206.292 194.919 206.292 194.919L206.292 194.919C206.292 194.919 206.292 194.919 206.292 194.919C206.292 194.919 206.292 194.919 206.292 194.919L206.292 194.919C206.292 194.919 206.292 194.919 206.292 194.919C206.292 194.919 206.292 194.919 206.292 194.919L206.292 194.919C206.292 194.919 206.292 194.919 206.292 194.919C206.292 194.919 206.292 194.919 206.292 194.919L206.292 194.919C206.292 194.919 206.292 194.919 206.292 194.919C206.292 194.919 206.292 194.919 206.292 194.919L206.292 194.919C206.292 194.919 206.292 194.919 206.292 194.919L206.292 194.919C206.292 194.919 206.292 194.919 206.292 194.919C206.292 194.919 206.292 194.919 206.292 194.919L206.292 194.919C206.292 194.919 206.292 194.919 206.292 194.919C206.292 194.919 206.292 194.919 206.292 194.919L206.292 194.919C206.292 194.919 206.292 194.919 206.292 194.919C206.292 194.919 206.292 194.919 206.292 194.919L206.292 194.919C206.292 194.919 206.292 194.919 206.292 194.919C206.292 194.919 206.292 194.919 206.292 194.919L206.292 194.919C206.292 194.919 206.292 194.919 206.292 194.919C206.292 194.919 206.292 194.919 206.292 194.919L206.292 194.919C206.292 194.919 206.292 194.919 206.292 194.919C206.292 194.919 206.292 194.919 206.292 194.919L206.292 194.919C206.292 194.919 206.292 194.919 206.292 194.919C206.292 194.919 206.292 194.919 206.292 194.919L206.292 194.919C206.292 194.919 206.292 194.919 206.292 194.919C206.292 194.919 206.292 194.919 206.292 194.919L206.292 194.919C206.292 194.919 206.292 194.919 206.292 194.919L206.292 194.919C206.292 194.919 206.292 194.919 206.292 194.919C206.292 194.919 206.292 194.919 206.292 194.919L206.292 194.919C206.292 194.919 206.292 194.919 206.292 194.919C206.292 194.919 206.292 194.919 206.292 194.919L206.292 194.919C206.292 194.919 206.292 194.919 206.292 194.919C206.292 194.919 206.292 194.919 206.292 194.919L206.292 194.919C206.292 194.919 206.292 194.919 206.292 194.919C206.292 194.919 206.292 194.919 206.292 194.919L206.292 194.919C206.292 194.919 206.292 194.919 206.292 194.919C206.292 194.919 206.292 194.919 206.292 194.919L206.292 194.919C206.292 194.919 206.292 194.919 206.292 194.919C206.292 194.919 206.292 194.919 206.292 194.919L206.292 194.919C206.292 194.919 206.292 194.919 206.292 194.919C206.292 194.919 206.292 194.919 206.292 194.919L206.292 194.919C206.292 194.919 206.292 194.919 206.292 194.919C206.292 194.919 206.292 194.919 206.292 194.919L206.292 194.919C206.292 194.919 206.292 194.919 206.292 194.919L206.292 194.919C206.292 194.919 206.292 194.919 206.292 194.919C206.292 194.919 206.292 194.919 206.292 194.919L206.292 194.919C206.292 194.919 206.292 194.919 206.292 194.919C206.292 194.919 206.292 194.919 206.292 194.919L206.292 194.919C206.292 194.919 206.292 194.919 206.292 194.919C206.292 194.919 206.292 194.919 206.292 194.919L206.292 194.919C206.292 194.919 206.292 194.919 206.292 194.919C206.292 194.919 206.292 194.919 206.292 194.919L206.292 194.919C206.292 194.919 206.292 194.919 206.292 194.919C206.292 194.919 206.292 194.919 206.292 194.919L206.292 194.919C206.292 194.919 206.292 194.919 206.292 194.918C206.292 194.918 206.292 194.918 206.292 194.918L206.292 194.918C206.292 194.918 206.292 194.918 206.292 194.918C206.292 194.918 206.292 194.918 206.292 194.918L206.292 194.918C206.292 194.918 206.292 194.918 206.292 194.918C206.292 194.918 206.292 194.918 206.292 194.918L206.292 194.918C206.292 194.918 206.292 194.918 206.292 194.918L206.292 194.918C206.292 194.918 206.292 194.918 206.292 194.918C206.292 194.918 206.292 194.918 206.292 194.918L206.292 194.918C206.292 194.918 206.292 194.918 206.292 194.918C206.292 194.918 206.292 194.918 206.292 194.918L206.292 194.918C206.292 194.918 206.292 194.918 206.292 194.918C206.292 194.918 206.292 194.918 206.292 194.918L206.292 194.918C206.292 194.918 206.292 194.918 206.292 194.918C206.292 194.918 206.292 194.918 206.292 194.918L206.292 194.918C206.292 194.918 206.292 194.918 206.292 194.918C206.292 194.918 206.292 194.918 206.292 194.918L206.292 194.918C206.292 194.918 206.292 194.918 206.292 194.918C206.292 194.918 206.292 194.918 206.292 194.918L206.292 194.918C206.292 194.918 206.292 194.918 206.292 194.918C206.292 194.918 206.292 194.918 206.292 194.918L206.292 194.918C206.292 194.918 206.292 194.918 206.292 194.918C206.292 194.918 206.292 194.918 206.292 194.918C206.292 194.918 206.292 194.918 206.292 194.918C206.292 194.918 206.292 194.918 206.292 194.918L206.292 194.918C206.292 194.918 206.292 194.918 206.292 194.918C206.292 194.918 206.292 194.918 206.292 194.918L206.292 194.918C206.292 194.918 206.292 194.918 206.292 194.918C206.292 194.918 206.292 194.918 206.292 194.918L206.292 194.918C206.292 194.918 206.292 194.918 206.292 194.918C206.292 194.918 206.292 194.918 206.292 194.918L206.292 194.918C206.292 194.918 206.292 194.918 206.292 194.918C206.292 194.918 206.292 194.918 206.292 194.918L206.292 194.918C206.292 194.918 206.292 194.918 206.292 194.918C206.292 194.918 206.292 194.918 206.292 194.918L206.292 194.918C206.292 194.918 206.292 194.918 206.292 194.918C206.292 194.918 206.292 194.918 206.292 194.918L206.292 194.918C206.292 194.918 206.292 194.918 206.292 194.918C206.292 194.918 206.292 194.918 206.292 194.918L206.292 194.918C206.292 194.918 206.292 194.918 206.292 194.918C206.292 194.918 206.292 194.918 206.292 194.918L134.292 194.918C134.292 194.918 134.292 194.918 134.292 194.918C134.292 194.918 134.292 194.918 134.292 194.918L134.292 194.918C134.292 194.918 134.292 194.918 134.292 194.918C134.292 194.918 134.292 194.918 134.292 194.918L134.292 194.918C134.292 194.918 134.292 194.918 134.292 194.918C134.292 194.918 134.292 194.918 134.292 194.918L134.292 194.918C134.292 194.918 134.292 194.918 134.292 194.918C134.292 194.918 134.292 194.918 134.292 194.918L134.292 194.918C134.292 194.918 134.292 194.918 134.292 194.918C134.292 194.918 134.292 194.918 134.292 194.918L134.292 194.918C134.292 194.918 134.292 194.918 134.292 194.918C134.292 194.918 134.292 194.918 134.292 194.918L134.292 194.918C134.292 194.918 134.292 194.918 134.292 194.918C134.292 194.918 134.292 194.918 134.292 194.918L134.292 194.918C134.292 194.918 134.292 194.918 134.292 194.918C134.292 194.918 134.292 194.918 134.292 194.918L134.292 194.918C134.292 194.918 134.292 194.918 134.292 194.918C134.292 194.918 134.292 194.918 134.292 194.918C134.292 194.918 134.292 194.918 134.292 194.918C134.292 194.918 134.292 194.918 134.292 194.918L134.292 194.918C134.292 194.918 134.292 194.918 134.292 194.918C134.292 194.918 134.292 194.918 134.292 194.918L134.292 194.918C134.292 194.918 134.292 194.918 134.292 194.918C134.292 194.918 134.292 194.918 134.292 194.918L134.292 194.918C134.292 194.918 134.292 194.918 134.292 194.918C134.292 194.918 134.292 194.918 134.292 194.918L134.292 194.918C134.292 194.918 134.292 194.918 134.292 194.918C134.292 194.918 134.292 194.918 134.292 194.918L134.292 194.918C134.292 194.918 134.292 194.918 134.292 194.918C134.292 194.918 134.292 194.918 134.292 194.918L134.292 194.918C134.292 194.918 134.292 194.918 134.292 194.918C134.292 194.918 134.292 194.918 134.292 194.918L134.292 194.918C134.292 194.918 134.292 194.918 134.292 194.918C134.292 194.918 134.292 194.918 134.292 194.918L134.292 194.918C134.292 194.918 134.292 194.918 134.292 194.918L134.292 194.918C134.292 194.918 134.292 194.918 134.292 194.918C134.292 194.918 134.292 194.918 134.292 194.918L134.292 194.918C134.292 194.918 134.292 194.918 134.292 194.918C134.292 194.918 134.292 194.918 134.292 194.918L134.292 194.918C134.292 194.918 134.292 194.918 134.292 194.918C134.292 194.919 134.292 194.919 134.292 194.919L134.292 194.919C134.292 194.919 134.292 194.919 134.292 194.919C134.292 194.919 134.292 194.919 134.292 194.919L134.292 194.919C134.292 194.919 134.292 194.919 134.292 194.919C134.292 194.919 134.292 194.919 134.292 194.919L134.292 194.919C134.292 194.919 134.292 194.919 134.292 194.919C134.292 194.919 134.292 194.919 134.292 194.919L134.292 194.919C134.292 194.919 134.292 194.919 134.292 194.919C134.292 194.919 134.292 194.919 134.292 194.919L134.292 194.919C134.292 194.919 134.292 194.919 134.292 194.919C134.292 194.919 134.292 194.919 134.292 194.919L134.292 194.919C134.292 194.919 134.292 194.919 134.292 194.919L134.292 194.919C134.292 194.919 134.292 194.919 134.292 194.919C134.292 194.919 134.292 194.919 134.292 194.919L134.292 194.919C134.292 194.919 134.292 194.919 134.292 194.919C134.292 194.919 134.292 194.919 134.292 194.919L134.292 194.919C134.292 194.919 134.292 194.919 134.292 194.919C134.292 194.919 134.292 194.919 134.292 194.919L134.292 194.919C134.292 194.919 134.292 194.919 134.292 194.919C134.292 194.919 134.292 194.919 134.292 194.919L134.292 194.919C134.292 194.919 134.292 194.919 134.292 194.919C134.292 194.919 134.292 194.919 134.292 194.919L134.292 194.919C134.292 194.919 134.292 194.919 134.292 194.919C134.292 194.919 134.292 194.919 134.292 194.919L134.292 194.919C134.292 194.919 134.292 194.919 134.292 194.919C134.292 194.919 134.292 194.919 134.292 194.919L134.292 194.919C134.292 194.919 134.292 194.919 134.292 194.919C134.292 194.919 134.292 194.919 134.292 194.919L134.292 194.919C134.292 194.919 134.292 194.919 134.292 194.919L134.292 194.919C134.292 194.919 134.292 194.919 134.292 194.919C134.292 194.919 134.292 194.919 134.292 194.919L134.292 194.919C134.292 194.919 134.292 194.919 134.292 194.919C134.292 194.919 134.292 194.919 134.292 194.919L134.292 194.919C134.292 194.919 134.292 194.919 134.292 194.919C134.292 194.919 134.292 194.919 134.292 194.919L134.292 194.919C134.292 194.919 134.292 194.919 134.292 194.919C134.292 194.919 134.292 194.919 134.292 194.919L134.292 194.919C134.292 194.919 134.292 194.919 134.292 194.919C134.292 194.919 134.292 194.919 134.292 194.919L134.292 194.919C134.292 194.919 134.292 194.919 134.292 194.919C134.292 194.919 134.292 194.919 134.292 194.919L134.292 194.919C134.292 194.919 134.292 194.919 134.292 194.919C134.292 194.919 134.292 194.919 134.292 194.919L134.292 194.919C134.292 194.919 134.292 194.919 134.292 194.919C134.292 194.919 134.292 194.919 134.292 194.919L134.292 194.919C134.292 194.919 134.292 194.919 134.292 194.919L134.292 194.919C134.292 194.919 134.292 194.919 134.292 194.919C134.292 194.919 134.292 194.919 134.292 194.919L134.292 194.919C134.292 194.919 134.292 194.919 134.292 194.919C134.292 194.919 134.292 194.919 134.292 194.919L134.292 194.919C134.292 194.919 134.292 194.919 134.292 194.919C134.292 194.919 134.292 194.919 134.292 194.919L134.292 194.919C134.292 194.919 134.292 194.919 134.292 194.919C134.292 194.919 134.292 194.919 134.292 194.919L134.292 194.919C134.292 194.919 134.292 194.919 134.292 194.919C134.292 194.919 134.292 194.919 134.292 194.919L134.292 194.919C134.292 194.919 134.292 194.919 134.292 194.919C134.292 194.919 134.292 194.919 134.292 194.919L134.292 194.919C134.292 194.919 134.292 194.919 134.292 194.919C134.292 194.919 134.292 194.919 134.292 194.919L134.292 194.919C134.292 194.919 134.292 194.919 134.292 194.919C134.292 194.919 134.292 194.919 134.292 194.919L206.292 194.919ZM170.291 230.919L171.291 230.919L171.292 158.919L170.292 158.919L170.291 230.919Z" fill="#FF2A00" mask="url(#path-1-outside-1_283_1024)"/>
<mask id="path-3-outside-2_283_1024" maskUnits="userSpaceOnUse" x="195.56" y="93.4346" width="203" height="138" fill="black">
<rect fill="white" x="195.56" y="93.4346" width="203" height="138"/>
<path fill-rule="evenodd" clip-rule="evenodd" d="M362.56 194.919C362.56 194.919 362.56 194.918 362.56 194.918C362.56 158.753 333.242 129.435 297.077 129.435C260.911 129.435 231.593 158.753 231.593 194.918C231.593 194.918 231.593 194.919 231.593 194.919L232.593 194.919C232.593 194.919 232.593 194.918 232.593 194.918C232.593 159.305 261.463 130.435 297.077 130.435C332.69 130.435 361.56 159.305 361.56 194.918C361.56 194.918 361.56 194.919 361.56 194.919L362.56 194.919Z"/>
</mask>
<path fill-rule="evenodd" clip-rule="evenodd" d="M362.56 194.919C362.56 194.919 362.56 194.918 362.56 194.918C362.56 158.753 333.242 129.435 297.077 129.435C260.911 129.435 231.593 158.753 231.593 194.918C231.593 194.918 231.593 194.919 231.593 194.919L232.593 194.919C232.593 194.919 232.593 194.918 232.593 194.918C232.593 159.305 261.463 130.435 297.077 130.435C332.69 130.435 361.56 159.305 361.56 194.918C361.56 194.918 361.56 194.919 361.56 194.919L362.56 194.919Z" fill="#FF2A00"/>
<path d="M362.56 194.919L362.56 230.919L398.56 230.919L398.56 194.919L362.56 194.919ZM231.593 194.919L195.593 194.919L195.593 230.919L231.593 230.919L231.593 194.919ZM232.593 194.919L232.593 230.919L268.593 230.919L268.593 194.919L232.593 194.919ZM361.56 194.919L325.56 194.919L325.56 230.919L361.56 230.919L361.56 194.919ZM398.56 194.919C398.56 194.919 398.56 194.919 398.56 194.919C398.56 194.919 398.56 194.919 398.56 194.918L326.56 194.918C326.56 194.918 326.56 194.918 326.56 194.918C326.56 194.918 326.56 194.919 326.56 194.919L398.56 194.919ZM398.56 194.918C398.56 138.87 353.124 93.4346 297.077 93.4346L297.077 165.435C313.36 165.435 326.56 178.635 326.56 194.918L398.56 194.918ZM297.077 93.4346C241.029 93.4346 195.593 138.87 195.593 194.918L267.593 194.918C267.593 178.635 280.793 165.435 297.077 165.435L297.077 93.4346ZM195.593 194.918C195.593 194.918 195.593 194.918 195.593 194.918C195.593 194.918 195.593 194.918 195.593 194.918L195.593 194.918C195.593 194.918 195.593 194.918 195.593 194.918C195.593 194.918 195.593 194.918 195.593 194.918L195.593 194.918C195.593 194.918 195.593 194.918 195.593 194.918C195.593 194.918 195.593 194.918 195.593 194.918L195.593 194.918C195.593 194.918 195.593 194.918 195.593 194.918C195.593 194.918 195.593 194.918 195.593 194.918L195.593 194.918C195.593 194.918 195.593 194.918 195.593 194.918C195.593 194.918 195.593 194.918 195.593 194.918L195.593 194.918C195.593 194.918 195.593 194.918 195.593 194.918C195.593 194.918 195.593 194.918 195.593 194.918L195.593 194.918C195.593 194.918 195.593 194.918 195.593 194.918C195.593 194.918 195.593 194.918 195.593 194.918L195.593 194.918C195.593 194.918 195.593 194.918 195.593 194.918C195.593 194.918 195.593 194.918 195.593 194.918L195.593 194.918C195.593 194.918 195.593 194.918 195.593 194.918C195.593 194.918 195.593 194.918 195.593 194.918C195.593 194.918 195.593 194.918 195.593 194.918C195.593 194.918 195.593 194.918 195.593 194.918L195.593 194.918C195.593 194.918 195.593 194.918 195.593 194.918C195.593 194.918 195.593 194.918 195.593 194.918L195.593 194.918C195.593 194.918 195.593 194.918 195.593 194.918C195.593 194.918 195.593 194.918 195.593 194.918L195.593 194.918C195.593 194.918 195.593 194.918 195.593 194.918C195.593 194.918 195.593 194.918 195.593 194.918L195.593 194.918C195.593 194.918 195.593 194.918 195.593 194.918C195.593 194.918 195.593 194.918 195.593 194.918L195.593 194.918C195.593 194.918 195.593 194.918 195.593 194.918C195.593 194.918 195.593 194.918 195.593 194.918L195.593 194.918C195.593 194.918 195.593 194.918 195.593 194.918C195.593 194.918 195.593 194.918 195.593 194.918L195.593 194.918C195.593 194.918 195.593 194.918 195.593 194.918C195.593 194.918 195.593 194.918 195.593 194.918L195.593 194.918C195.593 194.918 195.593 194.918 195.593 194.918L195.593 194.918C195.593 194.918 195.593 194.918 195.593 194.918C195.593 194.918 195.593 194.918 195.593 194.918L195.593 194.918C195.593 194.918 195.593 194.918 195.593 194.918C195.593 194.918 195.593 194.918 195.593 194.918L195.593 194.918C195.593 194.918 195.593 194.918 195.593 194.918C195.593 194.918 195.593 194.918 195.593 194.918L195.593 194.919C195.593 194.919 195.593 194.919 195.593 194.919C195.593 194.919 195.593 194.919 195.593 194.919L195.593 194.919C195.593 194.919 195.593 194.919 195.593 194.919C195.593 194.919 195.593 194.919 195.593 194.919L195.593 194.919C195.593 194.919 195.593 194.919 195.593 194.919C195.593 194.919 195.593 194.919 195.593 194.919L195.593 194.919C195.593 194.919 195.593 194.919 195.593 194.919C195.593 194.919 195.593 194.919 195.593 194.919L195.593 194.919C195.593 194.919 195.593 194.919 195.593 194.919C195.593 194.919 195.593 194.919 195.593 194.919L195.593 194.919C195.593 194.919 195.593 194.919 195.593 194.919L195.593 194.919C195.593 194.919 195.593 194.919 195.593 194.919C195.593 194.919 195.593 194.919 195.593 194.919L195.593 194.919C195.593 194.919 195.593 194.919 195.593 194.919C195.593 194.919 195.593 194.919 195.593 194.919L195.593 194.919C195.593 194.919 195.593 194.919 195.593 194.919C195.593 194.919 195.593 194.919 195.593 194.919L195.593 194.919C195.593 194.919 195.593 194.919 195.593 194.919C195.593 194.919 195.593 194.919 195.593 194.919L195.593 194.919C195.593 194.919 195.593 194.919 195.593 194.919C195.593 194.919 195.593 194.919 195.593 194.919L195.593 194.919C195.593 194.919 195.593 194.919 195.593 194.919C195.593 194.919 195.593 194.919 195.593 194.919L195.593 194.919C195.593 194.919 195.593 194.919 195.593 194.919C195.593 194.919 195.593 194.919 195.593 194.919L195.593 194.919C195.593 194.919 195.593 194.919 195.593 194.919C195.593 194.919 195.593 194.919 195.593 194.919L195.593 194.919C195.593 194.919 195.593 194.919 195.593 194.919L195.593 194.919C195.593 194.919 195.593 194.919 195.593 194.919C195.593 194.919 195.593 194.919 195.593 194.919L195.593 194.919C195.593 194.919 195.593 194.919 195.593 194.919C195.593 194.919 195.593 194.919 195.593 194.919L195.593 194.919C195.593 194.919 195.593 194.919 195.593 194.919C195.593 194.919 195.593 194.919 195.593 194.919L195.593 194.919C195.593 194.919 195.593 194.919 195.593 194.919C195.593 194.919 195.593 194.919 195.593 194.919L195.593 194.919C195.593 194.919 195.593 194.919 195.593 194.919C195.593 194.919 195.593 194.919 195.593 194.919L195.593 194.919C195.593 194.919 195.593 194.919 195.593 194.919C195.593 194.919 195.593 194.919 195.593 194.919L195.593 194.919C195.593 194.919 195.593 194.919 195.593 194.919C195.593 194.919 195.593 194.919 195.593 194.919L195.593 194.919C195.593 194.919 195.593 194.919 195.593 194.919C195.593 194.919 195.593 194.919 195.593 194.919L195.593 194.919C195.593 194.919 195.593 194.919 195.593 194.919L195.593 194.919C195.593 194.919 195.593 194.919 195.593 194.919C195.593 194.919 195.593 194.919 195.593 194.919L195.593 194.919C195.593 194.919 195.593 194.919 195.593 194.919C195.593 194.919 195.593 194.919 195.593 194.919L195.593 194.919C195.593 194.919 195.593 194.919 195.593 194.919C195.593 194.919 195.593 194.919 195.593 194.919L195.593 194.919C195.593 194.919 195.593 194.919 195.593 194.919C195.593 194.919 195.593 194.919 195.593 194.919L195.593 194.919C195.593 194.919 195.593 194.919 195.593 194.919C195.593 194.919 195.593 194.919 195.593 194.919L195.593 194.919C195.593 194.919 195.593 194.919 195.593 194.919C195.593 194.919 195.593 194.919 195.593 194.919L195.593 194.919C195.593 194.919 195.593 194.919 195.593 194.919C195.593 194.919 195.593 194.919 195.593 194.919L195.593 194.919C195.593 194.919 195.593 194.919 195.593 194.919C195.593 194.919 195.593 194.919 195.593 194.919L267.593 194.919C267.593 194.919 267.593 194.919 267.593 194.919C267.593 194.919 267.593 194.919 267.593 194.919L267.593 194.919C267.593 194.919 267.593 194.919 267.593 194.919C267.593 194.919 267.593 194.919 267.593 194.919L267.593 194.919C267.593 194.919 267.593 194.919 267.593 194.919C267.593 194.919 267.593 194.919 267.593 194.919L267.593 194.919C267.593 194.919 267.593 194.919 267.593 194.919C267.593 194.919 267.593 194.919 267.593 194.919L267.593 194.919C267.593 194.919 267.593 194.919 267.593 194.919C267.593 194.919 267.593 194.919 267.593 194.919L267.593 194.919C267.593 194.919 267.593 194.919 267.593 194.919C267.593 194.919 267.593 194.919 267.593 194.919L267.593 194.919C267.593 194.919 267.593 194.919 267.593 194.919C267.593 194.919 267.593 194.919 267.593 194.919L267.593 194.919C267.593 194.919 267.593 194.919 267.593 194.919C267.593 194.919 267.593 194.919 267.593 194.919L267.593 194.919C267.593 194.919 267.593 194.919 267.593 194.919L267.593 194.919C267.593 194.919 267.593 194.919 267.593 194.919C267.593 194.919 267.593 194.919 267.593 194.919L267.593 194.919C267.593 194.919 267.593 194.919 267.593 194.919C267.593 194.919 267.593 194.919 267.593 194.919L267.593 194.919C267.593 194.919 267.593 194.919 267.593 194.919C267.593 194.919 267.593 194.919 267.593 194.919L267.593 194.919C267.593 194.919 267.593 194.919 267.593 194.919C267.593 194.919 267.593 194.919 267.593 194.919L267.593 194.919C267.593 194.919 267.593 194.919 267.593 194.919C267.593 194.919 267.593 194.919 267.593 194.919L267.593 194.919C267.593 194.919 267.593 194.919 267.593 194.919C267.593 194.919 267.593 194.919 267.593 194.919L267.593 194.919C267.593 194.919 267.593 194.919 267.593 194.919C267.593 194.919 267.593 194.919 267.593 194.919L267.593 194.919C267.593 194.919 267.593 194.919 267.593 194.919C267.593 194.919 267.593 194.919 267.593 194.919L267.593 194.919C267.593 194.919 267.593 194.919 267.593 194.919L267.593 194.919C267.593 194.919 267.593 194.919 267.593 194.919C267.593 194.919 267.593 194.919 267.593 194.919L267.593 194.919C267.593 194.919 267.593 194.919 267.593 194.919C267.593 194.919 267.593 194.919 267.593 194.919L267.593 194.919C267.593 194.919 267.593 194.919 267.593 194.919C267.593 194.919 267.593 194.919 267.593 194.919L267.593 194.919C267.593 194.919 267.593 194.919 267.593 194.919C267.593 194.919 267.593 194.919 267.593 194.919L267.593 194.919C267.593 194.919 267.593 194.919 267.593 194.919C267.593 194.919 267.593 194.919 267.593 194.919L267.593 194.919C267.593 194.919 267.593 194.919 267.593 194.919C267.593 194.919 267.593 194.919 267.593 194.919L267.593 194.919C267.593 194.919 267.593 194.919 267.593 194.919C267.593 194.919 267.593 194.919 267.593 194.919L267.593 194.919C267.593 194.919 267.593 194.919 267.593 194.919C267.593 194.919 267.593 194.919 267.593 194.919L267.593 194.919C267.593 194.919 267.593 194.919 267.593 194.919L267.593 194.919C267.593 194.919 267.593 194.919 267.593 194.919C267.593 194.919 267.593 194.919 267.593 194.919L267.593 194.919C267.593 194.919 267.593 194.919 267.593 194.919C267.593 194.919 267.593 194.919 267.593 194.919L267.593 194.919C267.593 194.919 267.593 194.919 267.593 194.919C267.593 194.919 267.593 194.919 267.593 194.919L267.593 194.919C267.593 194.919 267.593 194.919 267.593 194.919C267.593 194.919 267.593 194.919 267.593 194.919L267.593 194.919C267.593 194.919 267.593 194.919 267.593 194.919C267.593 194.919 267.593 194.919 267.593 194.919L267.593 194.918C267.593 194.918 267.593 194.918 267.593 194.918C267.593 194.918 267.593 194.918 267.593 194.918L267.593 194.918C267.593 194.918 267.593 194.918 267.593 194.918C267.593 194.918 267.593 194.918 267.593 194.918L267.593 194.918C267.593 194.918 267.593 194.918 267.593 194.918C267.593 194.918 267.593 194.918 267.593 194.918L267.593 194.918C267.593 194.918 267.593 194.918 267.593 194.918L267.593 194.918C267.593 194.918 267.593 194.918 267.593 194.918C267.593 194.918 267.593 194.918 267.593 194.918L267.593 194.918C267.593 194.918 267.593 194.918 267.593 194.918C267.593 194.918 267.593 194.918 267.593 194.918L267.593 194.918C267.593 194.918 267.593 194.918 267.593 194.918C267.593 194.918 267.593 194.918 267.593 194.918L267.593 194.918C267.593 194.918 267.593 194.918 267.593 194.918C267.593 194.918 267.593 194.918 267.593 194.918L267.593 194.918C267.593 194.918 267.593 194.918 267.593 194.918C267.593 194.918 267.593 194.918 267.593 194.918L267.593 194.918C267.593 194.918 267.593 194.918 267.593 194.918C267.593 194.918 267.593 194.918 267.593 194.918L267.593 194.918C267.593 194.918 267.593 194.918 267.593 194.918C267.593 194.918 267.593 194.918 267.593 194.918L267.593 194.918C267.593 194.918 267.593 194.918 267.593 194.918C267.593 194.918 267.593 194.918 267.593 194.918C267.593 194.918 267.593 194.918 267.593 194.918C267.593 194.918 267.593 194.918 267.593 194.918L267.593 194.918C267.593 194.918 267.593 194.918 267.593 194.918C267.593 194.918 267.593 194.918 267.593 194.918L267.593 194.918C267.593 194.918 267.593 194.918 267.593 194.918C267.593 194.918 267.593 194.918 267.593 194.918L267.593 194.918C267.593 194.918 267.593 194.918 267.593 194.918C267.593 194.918 267.593 194.918 267.593 194.918L267.593 194.918C267.593 194.918 267.593 194.918 267.593 194.918C267.593 194.918 267.593 194.918 267.593 194.918L267.593 194.918C267.593 194.918 267.593 194.918 267.593 194.918C267.593 194.918 267.593 194.918 267.593 194.918L267.593 194.918C267.593 194.918 267.593 194.918 267.593 194.918C267.593 194.918 267.593 194.918 267.593 194.918L267.593 194.918C267.593 194.918 267.593 194.918 267.593 194.918C267.593 194.918 267.593 194.918 267.593 194.918L267.593 194.918C267.593 194.918 267.593 194.918 267.593 194.918C267.593 194.918 267.593 194.918 267.593 194.918L195.593 194.918ZM231.593 230.919L232.593 230.919L232.593 158.919L231.593 158.919L231.593 230.919ZM196.593 194.918C196.593 194.918 196.593 194.918 196.593 194.918C196.593 194.918 196.593 194.918 196.593 194.918L196.593 194.918C196.593 194.918 196.593 194.918 196.593 194.918C196.593 194.918 196.593 194.918 196.593 194.918L196.593 194.918C196.593 194.918 196.593 194.918 196.593 194.918C196.593 194.918 196.593 194.918 196.593 194.918L196.593 194.918C196.593 194.918 196.593 194.918 196.593 194.918C196.593 194.918 196.593 194.918 196.593 194.918L196.593 194.918C196.593 194.918 196.593 194.918 196.593 194.918C196.593 194.918 196.593 194.918 196.593 194.918L196.593 194.918C196.593 194.918 196.593 194.918 196.593 194.918C196.593 194.918 196.593 194.918 196.593 194.918L196.593 194.918C196.593 194.918 196.593 194.918 196.593 194.918C196.593 194.918 196.593 194.918 196.593 194.918L196.593 194.918C196.593 194.918 196.593 194.918 196.593 194.918C196.593 194.918 196.593 194.918 196.593 194.918L196.593 194.918C196.593 194.918 196.593 194.918 196.593 194.918C196.593 194.918 196.593 194.918 196.593 194.918C196.593 194.918 196.593 194.918 196.593 194.918C196.593 194.918 196.593 194.918 196.593 194.918L196.593 194.918C196.593 194.918 196.593 194.918 196.593 194.918C196.593 194.918 196.593 194.918 196.593 194.918L196.593 194.918C196.593 194.918 196.593 194.918 196.593 194.918C196.593 194.918 196.593 194.918 196.593 194.918L196.593 194.918C196.593 194.918 196.593 194.918 196.593 194.918C196.593 194.918 196.593 194.918 196.593 194.918L196.593 194.918C196.593 194.918 196.593 194.918 196.593 194.918C196.593 194.918 196.593 194.918 196.593 194.918L196.593 194.918C196.593 194.918 196.593 194.918 196.593 194.918C196.593 194.918 196.593 194.918 196.593 194.918L196.593 194.918C196.593 194.918 196.593 194.918 196.593 194.918C196.593 194.918 196.593 194.918 196.593 194.918L196.593 194.918C196.593 194.918 196.593 194.918 196.593 194.918C196.593 194.918 196.593 194.918 196.593 194.918L196.593 194.918C196.593 194.918 196.593 194.918 196.593 194.918L196.593 194.918C196.593 194.918 196.593 194.918 196.593 194.918C196.593 194.918 196.593 194.918 196.593 194.918L196.593 194.918C196.593 194.918 196.593 194.918 196.593 194.918C196.593 194.918 196.593 194.918 196.593 194.918L196.593 194.918C196.593 194.918 196.593 194.918 196.593 194.918C196.593 194.918 196.593 194.918 196.593 194.918L196.593 194.919C196.593 194.919 196.593 194.919 196.593 194.919C196.593 194.919 196.593 194.919 196.593 194.919L196.593 194.919C196.593 194.919 196.593 194.919 196.593 194.919C196.593 194.919 196.593 194.919 196.593 194.919L196.593 194.919C196.593 194.919 196.593 194.919 196.593 194.919C196.593 194.919 196.593 194.919 196.593 194.919L196.593 194.919C196.593 194.919 196.593 194.919 196.593 194.919C196.593 194.919 196.593 194.919 196.593 194.919L196.593 194.919C196.593 194.919 196.593 194.919 196.593 194.919C196.593 194.919 196.593 194.919 196.593 194.919L196.593 194.919C196.593 194.919 196.593 194.919 196.593 194.919L196.593 194.919C196.593 194.919 196.593 194.919 196.593 194.919C196.593 194.919 196.593 194.919 196.593 194.919L196.593 194.919C196.593 194.919 196.593 194.919 196.593 194.919C196.593 194.919 196.593 194.919 196.593 194.919L196.593 194.919C196.593 194.919 196.593 194.919 196.593 194.919C196.593 194.919 196.593 194.919 196.593 194.919L196.593 194.919C196.593 194.919 196.593 194.919 196.593 194.919C196.593 194.919 196.593 194.919 196.593 194.919L196.593 194.919C196.593 194.919 196.593 194.919 196.593 194.919C196.593 194.919 196.593 194.919 196.593 194.919L196.593 194.919C196.593 194.919 196.593 194.919 196.593 194.919C196.593 194.919 196.593 194.919 196.593 194.919L196.593 194.919C196.593 194.919 196.593 194.919 196.593 194.919C196.593 194.919 196.593 194.919 196.593 194.919L196.593 194.919C196.593 194.919 196.593 194.919 196.593 194.919C196.593 194.919 196.593 194.919 196.593 194.919L196.593 194.919C196.593 194.919 196.593 194.919 196.593 194.919L196.593 194.919C196.593 194.919 196.593 194.919 196.593 194.919C196.593 194.919 196.593 194.919 196.593 194.919L196.593 194.919C196.593 194.919 196.593 194.919 196.593 194.919C196.593 194.919 196.593 194.919 196.593 194.919L196.593 194.919C196.593 194.919 196.593 194.919 196.593 194.919C196.593 194.919 196.593 194.919 196.593 194.919L196.593 194.919C196.593 194.919 196.593 194.919 196.593 194.919C196.593 194.919 196.593 194.919 196.593 194.919L196.593 194.919C196.593 194.919 196.593 194.919 196.593 194.919C196.593 194.919 196.593 194.919 196.593 194.919L196.593 194.919C196.593 194.919 196.593 194.919 196.593 194.919C196.593 194.919 196.593 194.919 196.593 194.919L196.593 194.919C196.593 194.919 196.593 194.919 196.593 194.919C196.593 194.919 196.593 194.919 196.593 194.919L196.593 194.919C196.593 194.919 196.593 194.919 196.593 194.919C196.593 194.919 196.593 194.919 196.593 194.919L196.593 194.919C196.593 194.919 196.593 194.919 196.593 194.919L196.593 194.919C196.593 194.919 196.593 194.919 196.593 194.919C196.593 194.919 196.593 194.919 196.593 194.919L196.593 194.919C196.593 194.919 196.593 194.919 196.593 194.919C196.593 194.919 196.593 194.919 196.593 194.919L196.593 194.919C196.593 194.919 196.593 194.919 196.593 194.919C196.593 194.919 196.593 194.919 196.593 194.919L196.593 194.919C196.593 194.919 196.593 194.919 196.593 194.919C196.593 194.919 196.593 194.919 196.593 194.919L196.593 194.919C196.593 194.919 196.593 194.919 196.593 194.919C196.593 194.919 196.593 194.919 196.593 194.919L196.593 194.919C196.593 194.919 196.593 194.919 196.593 194.919C196.593 194.919 196.593 194.919 196.593 194.919L196.593 194.919C196.593 194.919 196.593 194.919 196.593 194.919C196.593 194.919 196.593 194.919 196.593 194.919L196.593 194.919C196.593 194.919 196.593 194.919 196.593 194.919C196.593 194.919 196.593 194.919 196.593 194.919L268.593 194.919C268.593 194.919 268.593 194.919 268.593 194.919C268.593 194.919 268.593 194.919 268.593 194.919L268.593 194.919C268.593 194.919 268.593 194.919 268.593 194.919C268.593 194.919 268.593 194.919 268.593 194.919L268.593 194.919C268.593 194.919 268.593 194.919 268.593 194.919C268.593 194.919 268.593 194.919 268.593 194.919L268.593 194.919C268.593 194.919 268.593 194.919 268.593 194.919C268.593 194.919 268.593 194.919 268.593 194.919L268.593 194.919C268.593 194.919 268.593 194.919 268.593 194.919C268.593 194.919 268.593 194.919 268.593 194.919L268.593 194.919C268.593 194.919 268.593 194.919 268.593 194.919C268.593 194.919 268.593 194.919 268.593 194.919L268.593 194.919C268.593 194.919 268.593 194.919 268.593 194.919C268.593 194.919 268.593 194.919 268.593 194.919L268.593 194.919C268.593 194.919 268.593 194.919 268.593 194.919C268.593 194.919 268.593 194.919 268.593 194.919L268.593 194.919C268.593 194.919 268.593 194.919 268.593 194.919L268.593 194.919C268.593 194.919 268.593 194.919 268.593 194.919C268.593 194.919 268.593 194.919 268.593 194.919L268.593 194.919C268.593 194.919 268.593 194.919 268.593 194.919C268.593 194.919 268.593 194.919 268.593 194.919L268.593 194.919C268.593 194.919 268.593 194.919 268.593 194.919C268.593 194.919 268.593 194.919 268.593 194.919L268.593 194.919C268.593 194.919 268.593 194.919 268.593 194.919C268.593 194.919 268.593 194.919 268.593 194.919L268.593 194.919C268.593 194.919 268.593 194.919 268.593 194.919C268.593 194.919 268.593 194.919 268.593 194.919L268.593 194.919C268.593 194.919 268.593 194.919 268.593 194.919C268.593 194.919 268.593 194.919 268.593 194.919L268.593 194.919C268.593 194.919 268.593 194.919 268.593 194.919C268.593 194.919 268.593 194.919 268.593 194.919L268.593 194.919C268.593 194.919 268.593 194.919 268.593 194.919C268.593 194.919 268.593 194.919 268.593 194.919L268.593 194.919C268.593 194.919 268.593 194.919 268.593 194.919L268.593 194.919C268.593 194.919 268.593 194.919 268.593 194.919C268.593 194.919 268.593 194.919 268.593 194.919L268.593 194.919C268.593 194.919 268.593 194.919 268.593 194.919C268.593 194.919 268.593 194.919 268.593 194.919L268.593 194.919C268.593 194.919 268.593 194.919 268.593 194.919C268.593 194.919 268.593 194.919 268.593 194.919L268.593 194.919C268.593 194.919 268.593 194.919 268.593 194.919C268.593 194.919 268.593 194.919 268.593 194.919L268.593 194.919C268.593 194.919 268.593 194.919 268.593 194.919C268.593 194.919 268.593 194.919 268.593 194.919L268.593 194.919C268.593 194.919 268.593 194.919 268.593 194.919C268.593 194.919 268.593 194.919 268.593 194.919L268.593 194.919C268.593 194.919 268.593 194.919 268.593 194.919C268.593 194.919 268.593 194.919 268.593 194.919L268.593 194.919C268.593 194.919 268.593 194.919 268.593 194.919C268.593 194.919 268.593 194.919 268.593 194.919L268.593 194.919C268.593 194.919 268.593 194.919 268.593 194.919L268.593 194.919C268.593 194.919 268.593 194.919 268.593 194.919C268.593 194.919 268.593 194.919 268.593 194.919L268.593 194.919C268.593 194.919 268.593 194.919 268.593 194.919C268.593 194.919 268.593 194.919 268.593 194.919L268.593 194.919C268.593 194.919 268.593 194.919 268.593 194.919C268.593 194.919 268.593 194.919 268.593 194.919L268.593 194.919C268.593 194.919 268.593 194.919 268.593 194.919C268.593 194.919 268.593 194.919 268.593 194.919L268.593 194.919C268.593 194.919 268.593 194.919 268.593 194.919C268.593 194.919 268.593 194.919 268.593 194.919L268.593 194.918C268.593 194.918 268.593 194.918 268.593 194.918C268.593 194.918 268.593 194.918 268.593 194.918L268.593 194.918C268.593 194.918 268.593 194.918 268.593 194.918C268.593 194.918 268.593 194.918 268.593 194.918L268.593 194.918C268.593 194.918 268.593 194.918 268.593 194.918C268.593 194.918 268.593 194.918 268.593 194.918L268.593 194.918C268.593 194.918 268.593 194.918 268.593 194.918L268.593 194.918C268.593 194.918 268.593 194.918 268.593 194.918C268.593 194.918 268.593 194.918 268.593 194.918L268.593 194.918C268.593 194.918 268.593 194.918 268.593 194.918C268.593 194.918 268.593 194.918 268.593 194.918L268.593 194.918C268.593 194.918 268.593 194.918 268.593 194.918C268.593 194.918 268.593 194.918 268.593 194.918L268.593 194.918C268.593 194.918 268.593 194.918 268.593 194.918C268.593 194.918 268.593 194.918 268.593 194.918L268.593 194.918C268.593 194.918 268.593 194.918 268.593 194.918C268.593 194.918 268.593 194.918 268.593 194.918L268.593 194.918C268.593 194.918 268.593 194.918 268.593 194.918C268.593 194.918 268.593 194.918 268.593 194.918L268.593 194.918C268.593 194.918 268.593 194.918 268.593 194.918C268.593 194.918 268.593 194.918 268.593 194.918L268.593 194.918C268.593 194.918 268.593 194.918 268.593 194.918C268.593 194.918 268.593 194.918 268.593 194.918C268.593 194.918 268.593 194.918 268.593 194.918C268.593 194.918 268.593 194.918 268.593 194.918L268.593 194.918C268.593 194.918 268.593 194.918 268.593 194.918C268.593 194.918 268.593 194.918 268.593 194.918L268.593 194.918C268.593 194.918 268.593 194.918 268.593 194.918C268.593 194.918 268.593 194.918 268.593 194.918L268.593 194.918C268.593 194.918 268.593 194.918 268.593 194.918C268.593 194.918 268.593 194.918 268.593 194.918L268.593 194.918C268.593 194.918 268.593 194.918 268.593 194.918C268.593 194.918 268.593 194.918 268.593 194.918L268.593 194.918C268.593 194.918 268.593 194.918 268.593 194.918C268.593 194.918 268.593 194.918 268.593 194.918L268.593 194.918C268.593 194.918 268.593 194.918 268.593 194.918C268.593 194.918 268.593 194.918 268.593 194.918L268.593 194.918C268.593 194.918 268.593 194.918 268.593 194.918C268.593 194.918 268.593 194.918 268.593 194.918L268.593 194.918C268.593 194.918 268.593 194.918 268.593 194.918C268.593 194.918 268.593 194.918 268.593 194.918L196.593 194.918ZM297.077 94.4346C241.581 94.4346 196.593 139.423 196.593 194.918L268.593 194.918C268.593 179.187 281.346 166.435 297.077 166.435L297.077 94.4346ZM397.56 194.918C397.56 139.423 352.572 94.4346 297.077 94.4346L297.077 166.435C312.808 166.435 325.56 179.187 325.56 194.918L397.56 194.918ZM397.56 194.919C397.56 194.919 397.56 194.919 397.56 194.919C397.56 194.919 397.56 194.919 397.56 194.919L397.56 194.919C397.56 194.919 397.56 194.919 397.56 194.919C397.56 194.919 397.56 194.919 397.56 194.919L397.56 194.919C397.56 194.919 397.56 194.919 397.56 194.919C397.56 194.919 397.56 194.919 397.56 194.919L397.56 194.919C397.56 194.919 397.56 194.919 397.56 194.919C397.56 194.919 397.56 194.919 397.56 194.919L397.56 194.919C397.56 194.919 397.56 194.919 397.56 194.919C397.56 194.919 397.56 194.919 397.56 194.919L397.56 194.919C397.56 194.919 397.56 194.919 397.56 194.919C397.56 194.919 397.56 194.919 397.56 194.919L397.56 194.919C397.56 194.919 397.56 194.919 397.56 194.919C397.56 194.919 397.56 194.919 397.56 194.919L397.56 194.919C397.56 194.919 397.56 194.919 397.56 194.919C397.56 194.919 397.56 194.919 397.56 194.919L397.56 194.919C397.56 194.919 397.56 194.919 397.56 194.919L397.56 194.919C397.56 194.919 397.56 194.919 397.56 194.919C397.56 194.919 397.56 194.919 397.56 194.919L397.56 194.919C397.56 194.919 397.56 194.919 397.56 194.919C397.56 194.919 397.56 194.919 397.56 194.919L397.56 194.919C397.56 194.919 397.56 194.919 397.56 194.919C397.56 194.919 397.56 194.919 397.56 194.919L397.56 194.919C397.56 194.919 397.56 194.919 397.56 194.919C397.56 194.919 397.56 194.919 397.56 194.919L397.56 194.919C397.56 194.919 397.56 194.919 397.56 194.919C397.56 194.919 397.56 194.919 397.56 194.919L397.56 194.919C397.56 194.919 397.56 194.919 397.56 194.919C397.56 194.919 397.56 194.919 397.56 194.919L397.56 194.919C397.56 194.919 397.56 194.919 397.56 194.919C397.56 194.919 397.56 194.919 397.56 194.919L397.56 194.919C397.56 194.919 397.56 194.919 397.56 194.919C397.56 194.919 397.56 194.919 397.56 194.919L397.56 194.919C397.56 194.919 397.56 194.919 397.56 194.919L397.56 194.919C397.56 194.919 397.56 194.919 397.56 194.919C397.56 194.919 397.56 194.919 397.56 194.919L397.56 194.919C397.56 194.919 397.56 194.919 397.56 194.919C397.56 194.919 397.56 194.919 397.56 194.919L397.56 194.919C397.56 194.919 397.56 194.919 397.56 194.919C397.56 194.919 397.56 194.919 397.56 194.919L397.56 194.919C397.56 194.919 397.56 194.919 397.56 194.919C397.56 194.919 397.56 194.919 397.56 194.919L397.56 194.919C397.56 194.919 397.56 194.919 397.56 194.919C397.56 194.919 397.56 194.919 397.56 194.919L397.56 194.919C397.56 194.919 397.56 194.919 397.56 194.919C397.56 194.919 397.56 194.919 397.56 194.919L397.56 194.919C397.56 194.919 397.56 194.919 397.56 194.919C397.56 194.919 397.56 194.919 397.56 194.919L397.56 194.919C397.56 194.919 397.56 194.919 397.56 194.919C397.56 194.919 397.56 194.919 397.56 194.919L397.56 194.919C397.56 194.919 397.56 194.919 397.56 194.919L397.56 194.919C397.56 194.919 397.56 194.919 397.56 194.919C397.56 194.919 397.56 194.919 397.56 194.919L397.56 194.919C397.56 194.919 397.56 194.919 397.56 194.919C397.56 194.919 397.56 194.919 397.56 194.919L397.56 194.919C397.56 194.919 397.56 194.919 397.56 194.919C397.56 194.919 397.56 194.919 397.56 194.919L397.56 194.919C397.56 194.919 397.56 194.919 397.56 194.919C397.56 194.919 397.56 194.919 397.56 194.919L397.56 194.919C397.56 194.919 397.56 194.919 397.56 194.919C397.56 194.919 397.56 194.919 397.56 194.919L397.56 194.919C397.56 194.919 397.56 194.919 397.56 194.918C397.56 194.918 397.56 194.918 397.56 194.918L397.56 194.918C397.56 194.918 397.56 194.918 397.56 194.918C397.56 194.918 397.56 194.918 397.56 194.918L397.56 194.918C397.56 194.918 397.56 194.918 397.56 194.918C397.56 194.918 397.56 194.918 397.56 194.918L397.56 194.918C397.56 194.918 397.56 194.918 397.56 194.918L397.56 194.918C397.56 194.918 397.56 194.918 397.56 194.918C397.56 194.918 397.56 194.918 397.56 194.918L397.56 194.918C397.56 194.918 397.56 194.918 397.56 194.918C397.56 194.918 397.56 194.918 397.56 194.918L397.56 194.918C397.56 194.918 397.56 194.918 397.56 194.918C397.56 194.918 397.56 194.918 397.56 194.918L397.56 194.918C397.56 194.918 397.56 194.918 397.56 194.918C397.56 194.918 397.56 194.918 397.56 194.918L397.56 194.918C397.56 194.918 397.56 194.918 397.56 194.918C397.56 194.918 397.56 194.918 397.56 194.918L397.56 194.918C397.56 194.918 397.56 194.918 397.56 194.918C397.56 194.918 397.56 194.918 397.56 194.918L397.56 194.918C397.56 194.918 397.56 194.918 397.56 194.918C397.56 194.918 397.56 194.918 397.56 194.918L397.56 194.918C397.56 194.918 397.56 194.918 397.56 194.918C397.56 194.918 397.56 194.918 397.56 194.918C397.56 194.918 397.56 194.918 397.56 194.918C397.56 194.918 397.56 194.918 397.56 194.918L397.56 194.918C397.56 194.918 397.56 194.918 397.56 194.918C397.56 194.918 397.56 194.918 397.56 194.918L397.56 194.918C397.56 194.918 397.56 194.918 397.56 194.918C397.56 194.918 397.56 194.918 397.56 194.918L397.56 194.918C397.56 194.918 397.56 194.918 397.56 194.918C397.56 194.918 397.56 194.918 397.56 194.918L397.56 194.918C397.56 194.918 397.56 194.918 397.56 194.918C397.56 194.918 397.56 194.918 397.56 194.918L397.56 194.918C397.56 194.918 397.56 194.918 397.56 194.918C397.56 194.918 397.56 194.918 397.56 194.918L397.56 194.918C397.56 194.918 397.56 194.918 397.56 194.918C397.56 194.918 397.56 194.918 397.56 194.918L397.56 194.918C397.56 194.918 397.56 194.918 397.56 194.918C397.56 194.918 397.56 194.918 397.56 194.918L397.56 194.918C397.56 194.918 397.56 194.918 397.56 194.918C397.56 194.918 397.56 194.918 397.56 194.918L325.56 194.918C325.56 194.918 325.56 194.918 325.56 194.918C325.56 194.918 325.56 194.918 325.56 194.918L325.56 194.918C325.56 194.918 325.56 194.918 325.56 194.918C325.56 194.918 325.56 194.918 325.56 194.918L325.56 194.918C325.56 194.918 325.56 194.918 325.56 194.918C325.56 194.918 325.56 194.918 325.56 194.918L325.56 194.918C325.56 194.918 325.56 194.918 325.56 194.918C325.56 194.918 325.56 194.918 325.56 194.918L325.56 194.918C325.56 194.918 325.56 194.918 325.56 194.918C325.56 194.918 325.56 194.918 325.56 194.918L325.56 194.918C325.56 194.918 325.56 194.918 325.56 194.918C325.56 194.918 325.56 194.918 325.56 194.918L325.56 194.918C325.56 194.918 325.56 194.918 325.56 194.918C325.56 194.918 325.56 194.918 325.56 194.918L325.56 194.918C325.56 194.918 325.56 194.918 325.56 194.918C325.56 194.918 325.56 194.918 325.56 194.918L325.56 194.918C325.56 194.918 325.56 194.918 325.56 194.918C325.56 194.918 325.56 194.918 325.56 194.918C325.56 194.918 325.56 194.918 325.56 194.918C325.56 194.918 325.56 194.918 325.56 194.918L325.56 194.918C325.56 194.918 325.56 194.918 325.56 194.918C325.56 194.918 325.56 194.918 325.56 194.918L325.56 194.918C325.56 194.918 325.56 194.918 325.56 194.918C325.56 194.918 325.56 194.918 325.56 194.918L325.56 194.918C325.56 194.918 325.56 194.918 325.56 194.918C325.56 194.918 325.56 194.918 325.56 194.918L325.56 194.918C325.56 194.918 325.56 194.918 325.56 194.918C325.56 194.918 325.56 194.918 325.56 194.918L325.56 194.918C325.56 194.918 325.56 194.918 325.56 194.918C325.56 194.918 325.56 194.918 325.56 194.918L325.56 194.918C325.56 194.918 325.56 194.918 325.56 194.918C325.56 194.918 325.56 194.918 325.56 194.918L325.56 194.918C325.56 194.918 325.56 194.918 325.56 194.918C325.56 194.918 325.56 194.918 325.56 194.918L325.56 194.918C325.56 194.918 325.56 194.918 325.56 194.918L325.56 194.918C325.56 194.918 325.56 194.918 325.56 194.918C325.56 194.918 325.56 194.918 325.56 194.918L325.56 194.918C325.56 194.918 325.56 194.918 325.56 194.918C325.56 194.918 325.56 194.918 325.56 194.918L325.56 194.918C325.56 194.918 325.56 194.918 325.56 194.918C325.56 194.919 325.56 194.919 325.56 194.919L325.56 194.919C325.56 194.919 325.56 194.919 325.56 194.919C325.56 194.919 325.56 194.919 325.56 194.919L325.56 194.919C325.56 194.919 325.56 194.919 325.56 194.919C325.56 194.919 325.56 194.919 325.56 194.919L325.56 194.919C325.56 194.919 325.56 194.919 325.56 194.919C325.56 194.919 325.56 194.919 325.56 194.919L325.56 194.919C325.56 194.919 325.56 194.919 325.56 194.919C325.56 194.919 325.56 194.919 325.56 194.919L325.56 194.919C325.56 194.919 325.56 194.919 325.56 194.919C325.56 194.919 325.56 194.919 325.56 194.919L325.56 194.919C325.56 194.919 325.56 194.919 325.56 194.919L325.56 194.919C325.56 194.919 325.56 194.919 325.56 194.919C325.56 194.919 325.56 194.919 325.56 194.919L325.56 194.919C325.56 194.919 325.56 194.919 325.56 194.919C325.56 194.919 325.56 194.919 325.56 194.919L325.56 194.919C325.56 194.919 325.56 194.919 325.56 194.919C325.56 194.919 325.56 194.919 325.56 194.919L325.56 194.919C325.56 194.919 325.56 194.919 325.56 194.919C325.56 194.919 325.56 194.919 325.56 194.919L325.56 194.919C325.56 194.919 325.56 194.919 325.56 194.919C325.56 194.919 325.56 194.919 325.56 194.919L325.56 194.919C325.56 194.919 325.56 194.919 325.56 194.919C325.56 194.919 325.56 194.919 325.56 194.919L325.56 194.919C325.56 194.919 325.56 194.919 325.56 194.919C325.56 194.919 325.56 194.919 325.56 194.919L325.56 194.919C325.56 194.919 325.56 194.919 325.56 194.919C325.56 194.919 325.56 194.919 325.56 194.919L325.56 194.919C325.56 194.919 325.56 194.919 325.56 194.919L325.56 194.919C325.56 194.919 325.56 194.919 325.56 194.919C325.56 194.919 325.56 194.919 325.56 194.919L325.56 194.919C325.56 194.919 325.56 194.919 325.56 194.919C325.56 194.919 325.56 194.919 325.56 194.919L325.56 194.919C325.56 194.919 325.56 194.919 325.56 194.919C325.56 194.919 325.56 194.919 325.56 194.919L325.56 194.919C325.56 194.919 325.56 194.919 325.56 194.919C325.56 194.919 325.56 194.919 325.56 194.919L325.56 194.919C325.56 194.919 325.56 194.919 325.56 194.919C325.56 194.919 325.56 194.919 325.56 194.919L325.56 194.919C325.56 194.919 325.56 194.919 325.56 194.919C325.56 194.919 325.56 194.919 325.56 194.919L325.56 194.919C325.56 194.919 325.56 194.919 325.56 194.919C325.56 194.919 325.56 194.919 325.56 194.919L325.56 194.919C325.56 194.919 325.56 194.919 325.56 194.919C325.56 194.919 325.56 194.919 325.56 194.919L325.56 194.919C325.56 194.919 325.56 194.919 325.56 194.919L325.56 194.919C325.56 194.919 325.56 194.919 325.56 194.919C325.56 194.919 325.56 194.919 325.56 194.919L325.56 194.919C325.56 194.919 325.56 194.919 325.56 194.919C325.56 194.919 325.56 194.919 325.56 194.919L325.56 194.919C325.56 194.919 325.56 194.919 325.56 194.919C325.56 194.919 325.56 194.919 325.56 194.919L325.56 194.919C325.56 194.919 325.56 194.919 325.56 194.919C325.56 194.919 325.56 194.919 325.56 194.919L325.56 194.919C325.56 194.919 325.56 194.919 325.56 194.919C325.56 194.919 325.56 194.919 325.56 194.919L325.56 194.919C325.56 194.919 325.56 194.919 325.56 194.919C325.56 194.919 325.56 194.919 325.56 194.919L325.56 194.919C325.56 194.919 325.56 194.919 325.56 194.919C325.56 194.919 325.56 194.919 325.56 194.919L325.56 194.919C325.56 194.919 325.56 194.919 325.56 194.919C325.56 194.919 325.56 194.919 325.56 194.919L397.56 194.919ZM361.56 230.919L362.56 230.919L362.56 158.919L361.56 158.919L361.56 230.919Z" fill="#FF2A00" mask="url(#path-3-outside-2_283_1024)"/>
<mask id="path-5-outside-3_283_1024" maskUnits="userSpaceOnUse" x="89.5552" y="-8.17027e-06" width="222" height="149" fill="black">
<rect fill="white" x="89.5552" y="-8.17027e-06" width="222" height="149"/>
<path fill-rule="evenodd" clip-rule="evenodd" d="M275.529 112.618C275.546 111.954 275.555 111.288 275.555 110.619C275.555 69.4081 242.147 36 200.936 36C159.725 36 126.317 69.4081 126.317 110.619C126.317 111.288 126.326 111.954 126.343 112.618L127.344 112.618C127.326 111.954 127.317 111.288 127.317 110.619C127.317 69.9604 160.277 37 200.936 37C241.595 37 274.555 69.9604 274.555 110.619C274.555 111.288 274.546 111.954 274.529 112.618L275.529 112.618Z"/>
</mask>
<path fill-rule="evenodd" clip-rule="evenodd" d="M275.529 112.618C275.546 111.954 275.555 111.288 275.555 110.619C275.555 69.4081 242.147 36 200.936 36C159.725 36 126.317 69.4081 126.317 110.619C126.317 111.288 126.326 111.954 126.343 112.618L127.344 112.618C127.326 111.954 127.317 111.288 127.317 110.619C127.317 69.9604 160.277 37 200.936 37C241.595 37 274.555 69.9604 274.555 110.619C274.555 111.288 274.546 111.954 274.529 112.618L275.529 112.618Z" fill="#FF2A00"/>
<path d="M275.529 112.618L275.529 148.618L310.595 148.618L311.516 113.565L275.529 112.618ZM126.343 112.618L90.3557 113.565L91.2777 148.618L126.343 148.618L126.343 112.618ZM127.344 112.618L127.344 148.618L164.316 148.618L163.331 111.659L127.344 112.618ZM274.529 112.618L238.541 111.659L237.556 148.618L274.529 148.618L274.529 112.618ZM311.516 113.565C311.542 112.585 311.555 111.603 311.555 110.619L239.555 110.619C239.555 110.972 239.551 111.323 239.541 111.672L311.516 113.565ZM311.555 110.619C311.555 49.5259 262.029 -5.94139e-07 200.936 -3.27773e-06L200.936 72C222.265 72 239.555 89.2904 239.555 110.619L311.555 110.619ZM200.936 -3.27773e-06C139.843 -5.96132e-06 90.317 49.5258 90.317 110.619L162.317 110.619C162.317 89.2903 179.607 72 200.936 72L200.936 -3.27773e-06ZM90.317 110.619C90.317 111.603 90.33 112.585 90.3557 113.565L162.331 111.672C162.322 111.323 162.317 110.972 162.317 110.619L90.317 110.619ZM126.343 148.618L127.344 148.618L127.344 76.6182L126.343 76.6182L126.343 148.618ZM91.317 110.619C91.317 111.607 91.3302 112.594 91.3564 113.577L163.331 111.659C163.322 111.314 163.317 110.968 163.317 110.619L91.317 110.619ZM200.936 0.999997C140.395 0.999994 91.317 50.0781 91.317 110.619L163.317 110.619C163.317 89.8426 180.16 73 200.936 73L200.936 0.999997ZM310.555 110.619C310.555 50.0781 261.477 0.999999 200.936 0.999997L200.936 73C221.713 73 238.555 89.8426 238.555 110.619L310.555 110.619ZM310.516 113.578C310.542 112.594 310.555 111.607 310.555 110.619L238.555 110.619C238.555 110.968 238.551 111.314 238.541 111.659L310.516 113.578ZM274.529 148.618L275.529 148.618L275.529 76.6182L274.529 76.6182L274.529 148.618Z" fill="#FF2A00" mask="url(#path-5-outside-3_283_1024)"/>
</g>
<defs>
<filter id="filter0_d_283_1024" x="0.324707" y="0" width="402.235" height="238.919" filterUnits="userSpaceOnUse" color-interpolation-filters="sRGB">
<feFlood flood-opacity="0" result="BackgroundImageFix"/>
<feColorMatrix in="SourceAlpha" type="matrix" values="0 0 0 0 0 0 0 0 0 0 0 0 0 0 0 0 0 0 127 0" result="hardAlpha"/>
<feOffset dy="4"/>
<feGaussianBlur stdDeviation="2"/>
<feComposite in2="hardAlpha" operator="out"/>
<feColorMatrix type="matrix" values="0 0 0 0 0 0 0 0 0 0 0 0 0 0 0 0 0 0 0.25 0"/>
<feBlend mode="normal" in2="BackgroundImageFix" result="effect1_dropShadow_283_1024"/>
<feBlend mode="normal" in="SourceGraphic" in2="effect1_dropShadow_283_1024" result="shape"/>
</filter>
</defs>
</svg>
