<svg width="568" height="332" viewBox="0 0 568 332" fill="none" xmlns="http://www.w3.org/2000/svg">
<mask id="path-1-outside-1_214_396" maskUnits="userSpaceOnUse" x="0.581048" y="134.944" width="291" height="197" fill="black">
<rect fill="white" x="0.581048" y="134.944" width="291" height="197"/>
<path fill-rule="evenodd" clip-rule="evenodd" d="M240.581 280.364C240.581 280.364 240.581 280.363 240.581 280.363C240.581 228.217 198.308 185.944 146.162 185.944C94.016 185.944 51.7432 228.217 51.7432 280.363C51.7432 280.363 51.7432 280.364 51.7432 280.364L52.7432 280.364C52.7432 280.364 52.7432 280.363 52.7432 280.363C52.7432 228.769 94.5683 186.944 146.162 186.944C197.756 186.944 239.581 228.769 239.581 280.363C239.581 280.363 239.581 280.364 239.581 280.364L240.581 280.364Z"/>
</mask>
<path fill-rule="evenodd" clip-rule="evenodd" d="M240.581 280.364C240.581 280.364 240.581 280.363 240.581 280.363C240.581 228.217 198.308 185.944 146.162 185.944C94.016 185.944 51.7432 228.217 51.7432 280.363C51.7432 280.363 51.7432 280.364 51.7432 280.364L52.7432 280.364C52.7432 280.364 52.7432 280.363 52.7432 280.363C52.7432 228.769 94.5683 186.944 146.162 186.944C197.756 186.944 239.581 228.769 239.581 280.363C239.581 280.363 239.581 280.364 239.581 280.364L240.581 280.364Z" fill="#F5F5F5"/>
<path d="M240.581 280.364L240.581 331.364L291.581 331.364L291.581 280.364L240.581 280.364ZM51.7432 280.364L0.743221 280.364L0.743219 331.364L51.7432 331.364L51.7432 280.364ZM52.7432 280.364L52.7432 331.364L103.743 331.364L103.743 280.364L52.7432 280.364ZM239.581 280.364L188.581 280.364L188.581 331.364L239.581 331.364L239.581 280.364ZM291.581 280.364C291.581 280.364 291.581 280.364 291.581 280.363L189.581 280.363C189.581 280.363 189.581 280.363 189.581 280.364L291.581 280.364ZM291.581 280.363C291.581 200.051 226.475 134.944 146.162 134.944L146.162 236.944C170.142 236.944 189.581 256.384 189.581 280.363L291.581 280.363ZM146.162 134.944C65.8495 134.944 0.743209 200.051 0.743206 280.363L102.743 280.363C102.743 256.384 122.183 236.944 146.162 236.944L146.162 134.944ZM0.743206 280.363C0.743206 280.533 0.744045 280.692 0.745418 280.839C0.746791 280.986 0.748699 281.123 0.750866 281.248C0.753032 281.373 0.755489 281.488 0.757976 281.591C0.760463 281.694 0.763042 281.788 0.765468 281.87C0.767894 281.952 0.770229 282.025 0.772304 282.086C0.774364 282.147 0.776241 282.199 0.777721 282.239C0.778469 282.26 0.77914 282.278 0.77972 282.293C0.7803 282.308 0.780803 282.321 0.781185 282.331C0.781566 282.341 0.781887 282.349 0.78207 282.354C0.782177 282.357 0.782253 282.359 0.782299 282.36C0.782329 282.361 0.782344 282.361 0.78236 282.362C0.78236 282.362 0.782375 282.362 0.782375 282.362C0.782375 282.362 0.782375 282.362 0.782375 282.362C0.782375 282.362 0.782375 282.362 0.782375 282.362C0.782405 282.363 0.782253 282.359 0.782085 282.354C0.781887 282.349 0.781566 282.341 0.781185 282.331C0.780803 282.321 0.7803 282.308 0.77972 282.293C0.779155 282.278 0.778469 282.26 0.777721 282.24C0.776241 282.199 0.774364 282.147 0.772304 282.086C0.770244 282.025 0.767894 281.952 0.765468 281.87C0.763042 281.788 0.760479 281.695 0.757991 281.592C0.755504 281.488 0.753048 281.373 0.750881 281.248C0.748714 281.123 0.746807 280.987 0.745433 280.84C0.74406 280.693 0.743221 280.534 0.743221 280.364L102.743 280.364C102.743 280.194 102.742 280.035 102.741 279.888C102.74 279.741 102.738 279.604 102.736 279.479C102.733 279.354 102.731 279.239 102.728 279.136C102.726 279.033 102.723 278.939 102.721 278.857C102.719 278.775 102.716 278.702 102.714 278.641C102.712 278.58 102.71 278.528 102.709 278.488C102.708 278.467 102.707 278.449 102.707 278.434C102.706 278.419 102.706 278.406 102.705 278.396C102.705 278.386 102.705 278.378 102.704 278.373C102.704 278.37 102.704 278.368 102.704 278.367C102.704 278.366 102.704 278.366 102.704 278.366C102.704 278.365 102.704 278.365 102.704 278.365C102.704 278.365 102.704 278.365 102.704 278.365C102.704 278.365 102.704 278.365 102.704 278.365C102.704 278.364 102.704 278.368 102.704 278.373C102.705 278.378 102.705 278.386 102.705 278.396C102.706 278.406 102.706 278.419 102.707 278.434C102.707 278.449 102.708 278.467 102.709 278.487C102.71 278.528 102.712 278.58 102.714 278.641C102.716 278.702 102.719 278.775 102.721 278.857C102.723 278.939 102.726 279.032 102.728 279.136C102.731 279.239 102.733 279.354 102.736 279.479C102.738 279.604 102.74 279.74 102.741 279.887C102.742 280.034 102.743 280.194 102.743 280.363L0.743206 280.363ZM51.7432 331.364L52.7432 331.364L52.7432 229.364L51.7432 229.364L51.7432 331.364ZM1.74321 280.363C1.74321 280.363 1.74321 280.363 1.74321 280.363C1.74321 280.363 1.74321 280.363 1.74321 280.363C1.74321 280.363 1.74321 280.363 1.74321 280.363L1.74321 280.363L1.74321 280.363C1.74321 280.363 1.74321 280.363 1.74321 280.363C1.74321 280.363 1.74321 280.363 1.74321 280.363C1.74321 280.363 1.74321 280.363 1.74321 280.363L1.74321 280.363C1.74321 280.363 1.74321 280.363 1.74321 280.363C1.74321 280.363 1.74321 280.363 1.74321 280.363C1.74321 280.363 1.74321 280.363 1.74321 280.363L1.74321 280.363C1.74321 280.363 1.74321 280.363 1.74321 280.363C1.74321 280.363 1.74321 280.363 1.74321 280.363C1.74321 280.363 1.74321 280.363 1.74321 280.363L1.74321 280.363C1.74321 280.363 1.74321 280.363 1.74321 280.363C1.74321 280.363 1.74321 280.363 1.74321 280.363C1.74321 280.363 1.74321 280.363 1.74321 280.363L1.74321 280.363C1.74321 280.363 1.74321 280.363 1.74321 280.363C1.74321 280.363 1.74321 280.363 1.74321 280.363L1.74321 280.363C1.74321 280.363 1.74321 280.363 1.74321 280.363C1.74321 280.363 1.74321 280.363 1.74321 280.363C1.74321 280.363 1.74321 280.363 1.74321 280.363L1.74321 280.363C1.74321 280.363 1.74321 280.363 1.74321 280.363C1.74321 280.363 1.74321 280.363 1.74321 280.363L1.74321 280.363C1.74321 280.363 1.74321 280.363 1.74321 280.363C1.74321 280.363 1.74321 280.363 1.74321 280.363L1.74321 280.364C1.74321 280.364 1.74321 280.364 1.74321 280.364C1.74321 280.364 1.74321 280.364 1.74321 280.364L1.74321 280.364L1.74321 280.364C1.74321 280.364 1.74321 280.364 1.74321 280.364C1.74321 280.364 1.74321 280.364 1.74321 280.364L1.74321 280.364C1.74321 280.364 1.74321 280.364 1.74321 280.364C1.74321 280.364 1.74321 280.364 1.74321 280.364L1.74321 280.364C1.74321 280.364 1.74321 280.364 1.74321 280.364C1.74321 280.364 1.74321 280.364 1.74321 280.364L1.74321 280.364C1.74321 280.364 1.74321 280.364 1.74321 280.364C1.74321 280.364 1.74321 280.364 1.74321 280.364C1.74321 280.364 1.74321 280.364 1.74321 280.364L1.74321 280.364C1.74321 280.364 1.74321 280.364 1.74321 280.364C1.74321 280.364 1.74321 280.364 1.74321 280.364L1.74321 280.364C1.74321 280.364 1.74321 280.364 1.74321 280.364C1.74321 280.364 1.74321 280.364 1.74321 280.364C1.74321 280.364 1.74321 280.364 1.74321 280.364L1.74321 280.364C1.74321 280.364 1.74321 280.364 1.74321 280.364C1.74321 280.364 1.74321 280.364 1.74321 280.364L1.74321 280.364L1.74321 280.364C1.74321 280.364 1.74321 280.364 1.74321 280.364C1.74321 280.364 1.74321 280.364 1.74321 280.364L1.74321 280.364L1.74321 280.364C1.74321 280.364 1.74321 280.364 1.74321 280.364C1.74321 280.364 1.74321 280.364 1.74321 280.364C1.74321 280.364 1.74321 280.364 1.74321 280.364L1.74321 280.364C1.74321 280.364 1.74321 280.364 1.74321 280.364C1.74321 280.364 1.74321 280.364 1.74321 280.364C1.74321 280.364 1.74321 280.364 1.74321 280.364C1.74321 280.364 1.74321 280.364 1.74321 280.364L1.74321 280.364L1.74321 280.364L103.743 280.364L103.743 280.364L103.743 280.364C103.743 280.364 103.743 280.364 103.743 280.364C103.743 280.364 103.743 280.364 103.743 280.364C103.743 280.364 103.743 280.364 103.743 280.364C103.743 280.364 103.743 280.364 103.743 280.364L103.743 280.364C103.743 280.364 103.743 280.364 103.743 280.364C103.743 280.364 103.743 280.364 103.743 280.364C103.743 280.364 103.743 280.364 103.743 280.364L103.743 280.364L103.743 280.364C103.743 280.364 103.743 280.364 103.743 280.364C103.743 280.364 103.743 280.364 103.743 280.364L103.743 280.364L103.743 280.364C103.743 280.364 103.743 280.364 103.743 280.364C103.743 280.364 103.743 280.364 103.743 280.364L103.743 280.364C103.743 280.364 103.743 280.364 103.743 280.364C103.743 280.364 103.743 280.364 103.743 280.364C103.743 280.364 103.743 280.364 103.743 280.364L103.743 280.364C103.743 280.364 103.743 280.364 103.743 280.364C103.743 280.364 103.743 280.364 103.743 280.364L103.743 280.364C103.743 280.364 103.743 280.364 103.743 280.364C103.743 280.364 103.743 280.364 103.743 280.364C103.743 280.364 103.743 280.364 103.743 280.364L103.743 280.364C103.743 280.364 103.743 280.364 103.743 280.364C103.743 280.364 103.743 280.364 103.743 280.364L103.743 280.364C103.743 280.364 103.743 280.364 103.743 280.364C103.743 280.364 103.743 280.364 103.743 280.364L103.743 280.364C103.743 280.364 103.743 280.364 103.743 280.364C103.743 280.364 103.743 280.364 103.743 280.364L103.743 280.364L103.743 280.364C103.743 280.364 103.743 280.364 103.743 280.364C103.743 280.364 103.743 280.364 103.743 280.364L103.743 280.364C103.743 280.363 103.743 280.363 103.743 280.363C103.743 280.363 103.743 280.363 103.743 280.363L103.743 280.363C103.743 280.363 103.743 280.363 103.743 280.363C103.743 280.363 103.743 280.363 103.743 280.363L103.743 280.363C103.743 280.363 103.743 280.363 103.743 280.363C103.743 280.363 103.743 280.363 103.743 280.363C103.743 280.363 103.743 280.363 103.743 280.363L103.743 280.363C103.743 280.363 103.743 280.363 103.743 280.363C103.743 280.363 103.743 280.363 103.743 280.363L103.743 280.363C103.743 280.363 103.743 280.363 103.743 280.363C103.743 280.363 103.743 280.363 103.743 280.363C103.743 280.363 103.743 280.363 103.743 280.363L103.743 280.363C103.743 280.363 103.743 280.363 103.743 280.363C103.743 280.363 103.743 280.363 103.743 280.363C103.743 280.363 103.743 280.363 103.743 280.363L103.743 280.363C103.743 280.363 103.743 280.363 103.743 280.363C103.743 280.363 103.743 280.363 103.743 280.363C103.743 280.363 103.743 280.363 103.743 280.363L103.743 280.363C103.743 280.363 103.743 280.363 103.743 280.363C103.743 280.363 103.743 280.363 103.743 280.363C103.743 280.363 103.743 280.363 103.743 280.363L103.743 280.363L103.743 280.363C103.743 280.363 103.743 280.363 103.743 280.363C103.743 280.363 103.743 280.363 103.743 280.363C103.743 280.363 103.743 280.363 103.743 280.363L1.74321 280.363ZM146.162 135.944C66.4018 135.944 1.74321 200.603 1.74321 280.363L103.743 280.363C103.743 256.936 122.735 237.944 146.162 237.944L146.162 135.944ZM290.581 280.363C290.581 200.603 225.923 135.944 146.162 135.944L146.162 237.944C169.589 237.944 188.581 256.936 188.581 280.363L290.581 280.363ZM290.581 280.364L290.581 280.364L290.581 280.364C290.581 280.364 290.581 280.364 290.581 280.364C290.581 280.364 290.581 280.364 290.581 280.364C290.581 280.364 290.581 280.364 290.581 280.364C290.581 280.364 290.581 280.364 290.581 280.364L290.581 280.364C290.581 280.364 290.581 280.364 290.581 280.364C290.581 280.364 290.581 280.364 290.581 280.364C290.581 280.364 290.581 280.364 290.581 280.364L290.581 280.364L290.581 280.364C290.581 280.364 290.581 280.364 290.581 280.364C290.581 280.364 290.581 280.364 290.581 280.364L290.581 280.364L290.581 280.364C290.581 280.364 290.581 280.364 290.581 280.364C290.581 280.364 290.581 280.364 290.581 280.364L290.581 280.364C290.581 280.364 290.581 280.364 290.581 280.364C290.581 280.364 290.581 280.364 290.581 280.364C290.581 280.364 290.581 280.364 290.581 280.364L290.581 280.364C290.581 280.364 290.581 280.364 290.581 280.364C290.581 280.364 290.581 280.364 290.581 280.364L290.581 280.364C290.581 280.364 290.581 280.364 290.581 280.364C290.581 280.364 290.581 280.364 290.581 280.364C290.581 280.364 290.581 280.364 290.581 280.364L290.581 280.364C290.581 280.364 290.581 280.364 290.581 280.364C290.581 280.364 290.581 280.364 290.581 280.364L290.581 280.364C290.581 280.364 290.581 280.364 290.581 280.364C290.581 280.364 290.581 280.364 290.581 280.364L290.581 280.364C290.581 280.364 290.581 280.364 290.581 280.364C290.581 280.364 290.581 280.364 290.581 280.364L290.581 280.364L290.581 280.364C290.581 280.364 290.581 280.364 290.581 280.364C290.581 280.364 290.581 280.364 290.581 280.364L290.581 280.364C290.581 280.364 290.581 280.364 290.581 280.364C290.581 280.364 290.581 280.364 290.581 280.363L290.581 280.363C290.581 280.363 290.581 280.363 290.581 280.363C290.581 280.363 290.581 280.363 290.581 280.363L290.581 280.363C290.581 280.363 290.581 280.363 290.581 280.363C290.581 280.363 290.581 280.363 290.581 280.363C290.581 280.363 290.581 280.363 290.581 280.363L290.581 280.363C290.581 280.363 290.581 280.363 290.581 280.363C290.581 280.363 290.581 280.363 290.581 280.363L290.581 280.363C290.581 280.363 290.581 280.363 290.581 280.363C290.581 280.363 290.581 280.363 290.581 280.363C290.581 280.363 290.581 280.363 290.581 280.363L290.581 280.363C290.581 280.363 290.581 280.363 290.581 280.363C290.581 280.363 290.581 280.363 290.581 280.363C290.581 280.363 290.581 280.363 290.581 280.363L290.581 280.363C290.581 280.363 290.581 280.363 290.581 280.363C290.581 280.363 290.581 280.363 290.581 280.363C290.581 280.363 290.581 280.363 290.581 280.363L290.581 280.363C290.581 280.363 290.581 280.363 290.581 280.363C290.581 280.363 290.581 280.363 290.581 280.363C290.581 280.363 290.581 280.363 290.581 280.363L290.581 280.363L290.581 280.363C290.581 280.363 290.581 280.363 290.581 280.363C290.581 280.363 290.581 280.363 290.581 280.363C290.581 280.363 290.581 280.363 290.581 280.363L188.581 280.363C188.581 280.363 188.581 280.363 188.581 280.363C188.581 280.363 188.581 280.363 188.581 280.363C188.581 280.363 188.581 280.363 188.581 280.363L188.581 280.363L188.581 280.363C188.581 280.363 188.581 280.363 188.581 280.363C188.581 280.363 188.581 280.363 188.581 280.363C188.581 280.363 188.581 280.363 188.581 280.363L188.581 280.363C188.581 280.363 188.581 280.363 188.581 280.363C188.581 280.363 188.581 280.363 188.581 280.363C188.581 280.363 188.581 280.363 188.581 280.363L188.581 280.363C188.581 280.363 188.581 280.363 188.581 280.363C188.581 280.363 188.581 280.363 188.581 280.363C188.581 280.363 188.581 280.363 188.581 280.363L188.581 280.363C188.581 280.363 188.581 280.363 188.581 280.363C188.581 280.363 188.581 280.363 188.581 280.363C188.581 280.363 188.581 280.363 188.581 280.363L188.581 280.363C188.581 280.363 188.581 280.363 188.581 280.363C188.581 280.363 188.581 280.363 188.581 280.363L188.581 280.363C188.581 280.363 188.581 280.363 188.581 280.363C188.581 280.363 188.581 280.363 188.581 280.363C188.581 280.363 188.581 280.363 188.581 280.363L188.581 280.363C188.581 280.363 188.581 280.363 188.581 280.363C188.581 280.363 188.581 280.363 188.581 280.363L188.581 280.363C188.581 280.364 188.581 280.364 188.581 280.364C188.581 280.364 188.581 280.364 188.581 280.364L188.581 280.364C188.581 280.364 188.581 280.364 188.581 280.364C188.581 280.364 188.581 280.364 188.581 280.364L188.581 280.364L188.581 280.364C188.581 280.364 188.581 280.364 188.581 280.364C188.581 280.364 188.581 280.364 188.581 280.364L188.581 280.364C188.581 280.364 188.581 280.364 188.581 280.364C188.581 280.364 188.581 280.364 188.581 280.364L188.581 280.364C188.581 280.364 188.581 280.364 188.581 280.364C188.581 280.364 188.581 280.364 188.581 280.364L188.581 280.364C188.581 280.364 188.581 280.364 188.581 280.364C188.581 280.364 188.581 280.364 188.581 280.364C188.581 280.364 188.581 280.364 188.581 280.364L188.581 280.364C188.581 280.364 188.581 280.364 188.581 280.364C188.581 280.364 188.581 280.364 188.581 280.364L188.581 280.364C188.581 280.364 188.581 280.364 188.581 280.364C188.581 280.364 188.581 280.364 188.581 280.364C188.581 280.364 188.581 280.364 188.581 280.364L188.581 280.364C188.581 280.364 188.581 280.364 188.581 280.364C188.581 280.364 188.581 280.364 188.581 280.364L188.581 280.364L188.581 280.364C188.581 280.364 188.581 280.364 188.581 280.364C188.581 280.364 188.581 280.364 188.581 280.364L188.581 280.364L188.581 280.364C188.581 280.364 188.581 280.364 188.581 280.364C188.581 280.364 188.581 280.364 188.581 280.364C188.581 280.364 188.581 280.364 188.581 280.364L188.581 280.364C188.581 280.364 188.581 280.364 188.581 280.364C188.581 280.364 188.581 280.364 188.581 280.364C188.581 280.364 188.581 280.364 188.581 280.364C188.581 280.364 188.581 280.364 188.581 280.364L188.581 280.364L188.581 280.364L290.581 280.364ZM239.581 331.364L240.581 331.364L240.581 229.364L239.581 229.364L239.581 331.364Z" fill="#F5F5F5" mask="url(#path-1-outside-1_214_396)"/>
<mask id="path-3-outside-2_214_396" maskUnits="userSpaceOnUse" x="276.366" y="134.944" width="291" height="197" fill="black">
<rect fill="white" x="276.366" y="134.944" width="291" height="197"/>
<path fill-rule="evenodd" clip-rule="evenodd" d="M516.366 280.364C516.366 280.364 516.366 280.363 516.366 280.363C516.366 228.217 474.093 185.944 421.947 185.944C369.801 185.944 327.528 228.217 327.528 280.363C327.528 280.363 327.528 280.364 327.528 280.364L328.528 280.364C328.528 280.364 328.528 280.363 328.528 280.363C328.528 228.769 370.353 186.944 421.947 186.944C473.541 186.944 515.366 228.769 515.366 280.363C515.366 280.363 515.366 280.364 515.366 280.364L516.366 280.364Z"/>
</mask>
<path fill-rule="evenodd" clip-rule="evenodd" d="M516.366 280.364C516.366 280.364 516.366 280.363 516.366 280.363C516.366 228.217 474.093 185.944 421.947 185.944C369.801 185.944 327.528 228.217 327.528 280.363C327.528 280.363 327.528 280.364 327.528 280.364L328.528 280.364C328.528 280.364 328.528 280.363 328.528 280.363C328.528 228.769 370.353 186.944 421.947 186.944C473.541 186.944 515.366 228.769 515.366 280.363C515.366 280.363 515.366 280.364 515.366 280.364L516.366 280.364Z" fill="#F5F5F5"/>
<path d="M516.366 280.364L516.366 331.364L567.366 331.364L567.366 280.364L516.366 280.364ZM327.528 280.364L276.528 280.364L276.528 331.364L327.528 331.364L327.528 280.364ZM328.528 280.364L328.528 331.364L379.528 331.364L379.528 280.364L328.528 280.364ZM515.366 280.364L464.366 280.364L464.366 331.364L515.366 331.364L515.366 280.364ZM567.366 280.364C567.366 280.364 567.366 280.364 567.366 280.363L465.366 280.363C465.366 280.363 465.366 280.363 465.366 280.364L567.366 280.364ZM567.366 280.363C567.366 200.051 502.26 134.944 421.947 134.944L421.947 236.944C445.927 236.944 465.366 256.384 465.366 280.363L567.366 280.363ZM421.947 134.944C341.635 134.944 276.528 200.051 276.528 280.363L378.528 280.363C378.528 256.384 397.968 236.944 421.947 236.944L421.947 134.944ZM276.528 280.363C276.528 280.533 276.529 280.692 276.531 280.839C276.532 280.986 276.534 281.123 276.536 281.248C276.538 281.373 276.541 281.488 276.543 281.591C276.546 281.694 276.548 281.788 276.551 281.87C276.553 281.952 276.555 282.025 276.557 282.086C276.56 282.147 276.561 282.199 276.563 282.239C276.564 282.26 276.564 282.278 276.565 282.293C276.565 282.308 276.566 282.321 276.566 282.331C276.567 282.341 276.567 282.349 276.567 282.354C276.567 282.357 276.567 282.359 276.567 282.36C276.567 282.361 276.568 282.361 276.568 282.362C276.568 282.362 276.568 282.362 276.568 282.362C276.568 282.362 276.568 282.362 276.568 282.362C276.568 282.362 276.568 282.362 276.568 282.362C276.568 282.363 276.567 282.359 276.567 282.354C276.567 282.349 276.567 282.341 276.566 282.331C276.566 282.321 276.565 282.308 276.565 282.293C276.564 282.278 276.564 282.26 276.563 282.24C276.561 282.199 276.56 282.147 276.557 282.086C276.555 282.025 276.553 281.952 276.551 281.87C276.548 281.788 276.546 281.695 276.543 281.592C276.541 281.488 276.538 281.373 276.536 281.248C276.534 281.123 276.532 280.987 276.531 280.84C276.529 280.693 276.528 280.534 276.528 280.364L378.528 280.364C378.528 280.194 378.528 280.035 378.526 279.888C378.525 279.741 378.523 279.604 378.521 279.479C378.519 279.354 378.516 279.239 378.514 279.136C378.511 279.033 378.509 278.939 378.506 278.857C378.504 278.775 378.501 278.702 378.499 278.641C378.497 278.58 378.495 278.528 378.494 278.488C378.493 278.467 378.492 278.449 378.492 278.434C378.491 278.419 378.491 278.406 378.49 278.396C378.49 278.386 378.49 278.378 378.489 278.373C378.489 278.37 378.489 278.368 378.489 278.367C378.489 278.366 378.489 278.366 378.489 278.366C378.489 278.365 378.489 278.365 378.489 278.365C378.489 278.365 378.489 278.365 378.489 278.365C378.489 278.365 378.489 278.365 378.489 278.365C378.489 278.364 378.489 278.368 378.489 278.373C378.49 278.378 378.49 278.386 378.49 278.396C378.491 278.406 378.491 278.419 378.492 278.434C378.492 278.449 378.493 278.467 378.494 278.487C378.495 278.528 378.497 278.58 378.499 278.641C378.501 278.702 378.504 278.775 378.506 278.857C378.509 278.939 378.511 279.032 378.514 279.136C378.516 279.239 378.519 279.354 378.521 279.479C378.523 279.604 378.525 279.74 378.526 279.887C378.528 280.034 378.528 280.194 378.528 280.363L276.528 280.363ZM327.528 331.364L328.528 331.364L328.528 229.364L327.528 229.364L327.528 331.364ZM277.528 280.363C277.528 280.363 277.528 280.363 277.528 280.363C277.528 280.363 277.528 280.363 277.528 280.363C277.528 280.363 277.528 280.363 277.528 280.363L277.528 280.363L277.528 280.363C277.528 280.363 277.528 280.363 277.528 280.363C277.528 280.363 277.528 280.363 277.528 280.363C277.528 280.363 277.528 280.363 277.528 280.363L277.528 280.363C277.528 280.363 277.528 280.363 277.528 280.363C277.528 280.363 277.528 280.363 277.528 280.363C277.528 280.363 277.528 280.363 277.528 280.363L277.528 280.363C277.528 280.363 277.528 280.363 277.528 280.363C277.528 280.363 277.528 280.363 277.528 280.363C277.528 280.363 277.528 280.363 277.528 280.363L277.528 280.363C277.528 280.363 277.528 280.363 277.528 280.363C277.528 280.363 277.528 280.363 277.528 280.363C277.528 280.363 277.528 280.363 277.528 280.363L277.528 280.363C277.528 280.363 277.528 280.363 277.528 280.363C277.528 280.363 277.528 280.363 277.528 280.363L277.528 280.363C277.528 280.363 277.528 280.363 277.528 280.363C277.528 280.363 277.528 280.363 277.528 280.363C277.528 280.363 277.528 280.363 277.528 280.363L277.528 280.363C277.528 280.363 277.528 280.363 277.528 280.363C277.528 280.363 277.528 280.363 277.528 280.363L277.528 280.363C277.528 280.363 277.528 280.363 277.528 280.363C277.528 280.363 277.528 280.363 277.528 280.363L277.528 280.364C277.528 280.364 277.528 280.364 277.528 280.364C277.528 280.364 277.528 280.364 277.528 280.364L277.528 280.364L277.528 280.364C277.528 280.364 277.528 280.364 277.528 280.364C277.528 280.364 277.528 280.364 277.528 280.364L277.528 280.364C277.528 280.364 277.528 280.364 277.528 280.364C277.528 280.364 277.528 280.364 277.528 280.364L277.528 280.364C277.528 280.364 277.528 280.364 277.528 280.364C277.528 280.364 277.528 280.364 277.528 280.364L277.528 280.364C277.528 280.364 277.528 280.364 277.528 280.364C277.528 280.364 277.528 280.364 277.528 280.364C277.528 280.364 277.528 280.364 277.528 280.364L277.528 280.364C277.528 280.364 277.528 280.364 277.528 280.364C277.528 280.364 277.528 280.364 277.528 280.364L277.528 280.364C277.528 280.364 277.528 280.364 277.528 280.364C277.528 280.364 277.528 280.364 277.528 280.364C277.528 280.364 277.528 280.364 277.528 280.364L277.528 280.364C277.528 280.364 277.528 280.364 277.528 280.364C277.528 280.364 277.528 280.364 277.528 280.364L277.528 280.364L277.528 280.364C277.528 280.364 277.528 280.364 277.528 280.364C277.528 280.364 277.528 280.364 277.528 280.364L277.528 280.364L277.528 280.364C277.528 280.364 277.528 280.364 277.528 280.364C277.528 280.364 277.528 280.364 277.528 280.364C277.528 280.364 277.528 280.364 277.528 280.364L277.528 280.364C277.528 280.364 277.528 280.364 277.528 280.364C277.528 280.364 277.528 280.364 277.528 280.364C277.528 280.364 277.528 280.364 277.528 280.364C277.528 280.364 277.528 280.364 277.528 280.364L277.528 280.364L277.528 280.364L379.528 280.364L379.528 280.364L379.528 280.364C379.528 280.364 379.528 280.364 379.528 280.364C379.528 280.364 379.528 280.364 379.528 280.364C379.528 280.364 379.528 280.364 379.528 280.364C379.528 280.364 379.528 280.364 379.528 280.364L379.528 280.364C379.528 280.364 379.528 280.364 379.528 280.364C379.528 280.364 379.528 280.364 379.528 280.364C379.528 280.364 379.528 280.364 379.528 280.364L379.528 280.364L379.528 280.364C379.528 280.364 379.528 280.364 379.528 280.364C379.528 280.364 379.528 280.364 379.528 280.364L379.528 280.364L379.528 280.364C379.528 280.364 379.528 280.364 379.528 280.364C379.528 280.364 379.528 280.364 379.528 280.364L379.528 280.364C379.528 280.364 379.528 280.364 379.528 280.364C379.528 280.364 379.528 280.364 379.528 280.364C379.528 280.364 379.528 280.364 379.528 280.364L379.528 280.364C379.528 280.364 379.528 280.364 379.528 280.364C379.528 280.364 379.528 280.364 379.528 280.364L379.528 280.364C379.528 280.364 379.528 280.364 379.528 280.364C379.528 280.364 379.528 280.364 379.528 280.364C379.528 280.364 379.528 280.364 379.528 280.364L379.528 280.364C379.528 280.364 379.528 280.364 379.528 280.364C379.528 280.364 379.528 280.364 379.528 280.364L379.528 280.364C379.528 280.364 379.528 280.364 379.528 280.364C379.528 280.364 379.528 280.364 379.528 280.364L379.528 280.364C379.528 280.364 379.528 280.364 379.528 280.364C379.528 280.364 379.528 280.364 379.528 280.364L379.528 280.364L379.528 280.364C379.528 280.364 379.528 280.364 379.528 280.364C379.528 280.364 379.528 280.364 379.528 280.364L379.528 280.364C379.528 280.363 379.528 280.363 379.528 280.363C379.528 280.363 379.528 280.363 379.528 280.363L379.528 280.363C379.528 280.363 379.528 280.363 379.528 280.363C379.528 280.363 379.528 280.363 379.528 280.363L379.528 280.363C379.528 280.363 379.528 280.363 379.528 280.363C379.528 280.363 379.528 280.363 379.528 280.363C379.528 280.363 379.528 280.363 379.528 280.363L379.528 280.363C379.528 280.363 379.528 280.363 379.528 280.363C379.528 280.363 379.528 280.363 379.528 280.363L379.528 280.363C379.528 280.363 379.528 280.363 379.528 280.363C379.528 280.363 379.528 280.363 379.528 280.363C379.528 280.363 379.528 280.363 379.528 280.363L379.528 280.363C379.528 280.363 379.528 280.363 379.528 280.363C379.528 280.363 379.528 280.363 379.528 280.363C379.528 280.363 379.528 280.363 379.528 280.363L379.528 280.363C379.528 280.363 379.528 280.363 379.528 280.363C379.528 280.363 379.528 280.363 379.528 280.363C379.528 280.363 379.528 280.363 379.528 280.363L379.528 280.363C379.528 280.363 379.528 280.363 379.528 280.363C379.528 280.363 379.528 280.363 379.528 280.363C379.528 280.363 379.528 280.363 379.528 280.363L379.528 280.363L379.528 280.363C379.528 280.363 379.528 280.363 379.528 280.363C379.528 280.363 379.528 280.363 379.528 280.363C379.528 280.363 379.528 280.363 379.528 280.363L277.528 280.363ZM421.947 135.944C342.187 135.944 277.528 200.603 277.528 280.363L379.528 280.363C379.528 256.936 398.52 237.944 421.947 237.944L421.947 135.944ZM566.366 280.363C566.366 200.603 501.708 135.944 421.947 135.944L421.947 237.944C445.375 237.944 464.366 256.936 464.366 280.363L566.366 280.363ZM566.366 280.364L566.366 280.364L566.366 280.364C566.366 280.364 566.366 280.364 566.366 280.364C566.366 280.364 566.366 280.364 566.366 280.364C566.366 280.364 566.366 280.364 566.366 280.364C566.366 280.364 566.366 280.364 566.366 280.364L566.366 280.364C566.366 280.364 566.366 280.364 566.366 280.364C566.366 280.364 566.366 280.364 566.366 280.364C566.366 280.364 566.366 280.364 566.366 280.364L566.366 280.364L566.366 280.364C566.366 280.364 566.366 280.364 566.366 280.364C566.366 280.364 566.366 280.364 566.366 280.364L566.366 280.364L566.366 280.364C566.366 280.364 566.366 280.364 566.366 280.364C566.366 280.364 566.366 280.364 566.366 280.364L566.366 280.364C566.366 280.364 566.366 280.364 566.366 280.364C566.366 280.364 566.366 280.364 566.366 280.364C566.366 280.364 566.366 280.364 566.366 280.364L566.366 280.364C566.366 280.364 566.366 280.364 566.366 280.364C566.366 280.364 566.366 280.364 566.366 280.364L566.366 280.364C566.366 280.364 566.366 280.364 566.366 280.364C566.366 280.364 566.366 280.364 566.366 280.364C566.366 280.364 566.366 280.364 566.366 280.364L566.366 280.364C566.366 280.364 566.366 280.364 566.366 280.364C566.366 280.364 566.366 280.364 566.366 280.364L566.366 280.364C566.366 280.364 566.366 280.364 566.366 280.364C566.366 280.364 566.366 280.364 566.366 280.364L566.366 280.364C566.366 280.364 566.366 280.364 566.366 280.364C566.366 280.364 566.366 280.364 566.366 280.364L566.366 280.364L566.366 280.364C566.366 280.364 566.366 280.364 566.366 280.364C566.366 280.364 566.366 280.364 566.366 280.364L566.366 280.364C566.366 280.364 566.366 280.364 566.366 280.364C566.366 280.364 566.366 280.364 566.366 280.363L566.366 280.363C566.366 280.363 566.366 280.363 566.366 280.363C566.366 280.363 566.366 280.363 566.366 280.363L566.366 280.363C566.366 280.363 566.366 280.363 566.366 280.363C566.366 280.363 566.366 280.363 566.366 280.363C566.366 280.363 566.366 280.363 566.366 280.363L566.366 280.363C566.366 280.363 566.366 280.363 566.366 280.363C566.366 280.363 566.366 280.363 566.366 280.363L566.366 280.363C566.366 280.363 566.366 280.363 566.366 280.363C566.366 280.363 566.366 280.363 566.366 280.363C566.366 280.363 566.366 280.363 566.366 280.363L566.366 280.363C566.366 280.363 566.366 280.363 566.366 280.363C566.366 280.363 566.366 280.363 566.366 280.363C566.366 280.363 566.366 280.363 566.366 280.363L566.366 280.363C566.366 280.363 566.366 280.363 566.366 280.363C566.366 280.363 566.366 280.363 566.366 280.363C566.366 280.363 566.366 280.363 566.366 280.363L566.366 280.363C566.366 280.363 566.366 280.363 566.366 280.363C566.366 280.363 566.366 280.363 566.366 280.363C566.366 280.363 566.366 280.363 566.366 280.363L566.366 280.363L566.366 280.363C566.366 280.363 566.366 280.363 566.366 280.363C566.366 280.363 566.366 280.363 566.366 280.363C566.366 280.363 566.366 280.363 566.366 280.363L464.366 280.363C464.366 280.363 464.366 280.363 464.366 280.363C464.366 280.363 464.366 280.363 464.366 280.363C464.366 280.363 464.366 280.363 464.366 280.363L464.366 280.363L464.366 280.363C464.366 280.363 464.366 280.363 464.366 280.363C464.366 280.363 464.366 280.363 464.366 280.363C464.366 280.363 464.366 280.363 464.366 280.363L464.366 280.363C464.366 280.363 464.366 280.363 464.366 280.363C464.366 280.363 464.366 280.363 464.366 280.363C464.366 280.363 464.366 280.363 464.366 280.363L464.366 280.363C464.366 280.363 464.366 280.363 464.366 280.363C464.366 280.363 464.366 280.363 464.366 280.363C464.366 280.363 464.366 280.363 464.366 280.363L464.366 280.363C464.366 280.363 464.366 280.363 464.366 280.363C464.366 280.363 464.366 280.363 464.366 280.363C464.366 280.363 464.366 280.363 464.366 280.363L464.366 280.363C464.366 280.363 464.366 280.363 464.366 280.363C464.366 280.363 464.366 280.363 464.366 280.363L464.366 280.363C464.366 280.363 464.366 280.363 464.366 280.363C464.366 280.363 464.366 280.363 464.366 280.363C464.366 280.363 464.366 280.363 464.366 280.363L464.366 280.363C464.366 280.363 464.366 280.363 464.366 280.363C464.366 280.363 464.366 280.363 464.366 280.363L464.366 280.363C464.366 280.364 464.366 280.364 464.366 280.364C464.366 280.364 464.366 280.364 464.366 280.364L464.366 280.364C464.366 280.364 464.366 280.364 464.366 280.364C464.366 280.364 464.366 280.364 464.366 280.364L464.366 280.364L464.366 280.364C464.366 280.364 464.366 280.364 464.366 280.364C464.366 280.364 464.366 280.364 464.366 280.364L464.366 280.364C464.366 280.364 464.366 280.364 464.366 280.364C464.366 280.364 464.366 280.364 464.366 280.364L464.366 280.364C464.366 280.364 464.366 280.364 464.366 280.364C464.366 280.364 464.366 280.364 464.366 280.364L464.366 280.364C464.366 280.364 464.366 280.364 464.366 280.364C464.366 280.364 464.366 280.364 464.366 280.364C464.366 280.364 464.366 280.364 464.366 280.364L464.366 280.364C464.366 280.364 464.366 280.364 464.366 280.364C464.366 280.364 464.366 280.364 464.366 280.364L464.366 280.364C464.366 280.364 464.366 280.364 464.366 280.364C464.366 280.364 464.366 280.364 464.366 280.364C464.366 280.364 464.366 280.364 464.366 280.364L464.366 280.364C464.366 280.364 464.366 280.364 464.366 280.364C464.366 280.364 464.366 280.364 464.366 280.364L464.366 280.364L464.366 280.364C464.366 280.364 464.366 280.364 464.366 280.364C464.366 280.364 464.366 280.364 464.366 280.364L464.366 280.364L464.366 280.364C464.366 280.364 464.366 280.364 464.366 280.364C464.366 280.364 464.366 280.364 464.366 280.364C464.366 280.364 464.366 280.364 464.366 280.364L464.366 280.364C464.366 280.364 464.366 280.364 464.366 280.364C464.366 280.364 464.366 280.364 464.366 280.364C464.366 280.364 464.366 280.364 464.366 280.364C464.366 280.364 464.366 280.364 464.366 280.364L464.366 280.364L464.366 280.364L566.366 280.364ZM515.366 331.364L516.366 331.364L516.366 229.364L515.366 229.364L515.366 331.364Z" fill="#F5F5F5" mask="url(#path-3-outside-2_214_396)"/>
<mask id="path-5-outside-3_214_396" maskUnits="userSpaceOnUse" x="123.916" y="0.219715" width="318" height="210" fill="black">
<rect fill="white" x="123.916" y="0.219715" width="318" height="210"/>
<path fill-rule="evenodd" clip-rule="evenodd" d="M390.916 158.812C390.916 158.811 390.916 158.811 390.916 158.811C390.916 99.39 342.746 51.2197 283.325 51.2197C223.904 51.2197 175.733 99.39 175.733 158.811C175.733 158.811 175.733 158.811 175.733 158.812L176.733 158.812C176.733 158.811 176.733 158.811 176.733 158.811C176.733 99.9423 224.456 52.2197 283.325 52.2197C342.193 52.2197 389.916 99.9423 389.916 158.811C389.916 158.811 389.916 158.811 389.916 158.812L390.916 158.812Z"/>
</mask>
<path fill-rule="evenodd" clip-rule="evenodd" d="M390.916 158.812C390.916 158.811 390.916 158.811 390.916 158.811C390.916 99.39 342.746 51.2197 283.325 51.2197C223.904 51.2197 175.733 99.39 175.733 158.811C175.733 158.811 175.733 158.811 175.733 158.812L176.733 158.812C176.733 158.811 176.733 158.811 176.733 158.811C176.733 99.9423 224.456 52.2197 283.325 52.2197C342.193 52.2197 389.916 99.9423 389.916 158.811C389.916 158.811 389.916 158.811 389.916 158.812L390.916 158.812Z" fill="#F5F5F5"/>
<path d="M390.916 158.812L390.916 209.812L441.916 209.812L441.916 158.812L390.916 158.812ZM175.733 158.812L124.733 158.812L124.733 209.812L175.733 209.812L175.733 158.812ZM176.733 158.812L176.733 209.812L227.733 209.812L227.733 158.812L176.733 158.812ZM389.916 158.812L338.916 158.812L338.916 209.812L389.916 209.812L389.916 158.812ZM441.916 158.812L441.916 158.811L339.916 158.811L339.916 158.812L441.916 158.812ZM441.916 158.811C441.916 71.2235 370.912 0.219726 283.325 0.219722L283.325 102.22C314.579 102.22 339.916 127.557 339.916 158.811L441.916 158.811ZM283.325 0.219722C195.737 0.219718 124.733 71.2235 124.733 158.811L226.733 158.811C226.733 127.557 252.07 102.22 283.325 102.22L283.325 0.219722ZM124.733 158.811C124.733 158.811 124.733 158.811 124.733 158.811C124.733 158.811 124.733 158.811 124.733 158.812L226.733 158.812C226.733 158.811 226.733 158.811 226.733 158.811C226.733 158.811 226.733 158.811 226.733 158.811L124.733 158.811ZM175.733 209.812L176.733 209.812L176.733 107.812L175.733 107.812L175.733 209.812ZM125.733 158.811C125.733 158.811 125.733 158.811 125.733 158.811C125.733 158.811 125.733 158.811 125.733 158.812L227.733 158.812C227.733 158.811 227.733 158.811 227.733 158.811C227.733 158.811 227.733 158.811 227.733 158.811L125.733 158.811ZM283.325 1.21972C196.289 1.21972 125.733 71.7757 125.733 158.811L227.733 158.811C227.733 128.109 252.622 103.22 283.325 103.22L283.325 1.21972ZM440.916 158.811C440.916 71.7758 370.36 1.21973 283.325 1.21972L283.325 103.22C314.027 103.22 338.916 128.109 338.916 158.811L440.916 158.811ZM440.916 158.812C440.916 158.811 440.916 158.811 440.916 158.811C440.916 158.811 440.916 158.811 440.916 158.811L338.916 158.811C338.916 158.811 338.916 158.811 338.916 158.811C338.916 158.811 338.916 158.811 338.916 158.812L440.916 158.812ZM389.916 209.812L390.916 209.812L390.916 107.812L389.916 107.812L389.916 209.812Z" fill="#F5F5F5" mask="url(#path-5-outside-3_214_396)"/>
</svg>
