<svg width="172" height="171" viewBox="0 0 172 171" fill="none" xmlns="http://www.w3.org/2000/svg">
<path fill-rule="evenodd" clip-rule="evenodd" d="M139.936 73.8839C110.256 44.2041 62.1359 44.2041 32.4561 73.8839L4.50586 101.834C-0.570961 106.911 -0.570963 115.142 4.50585 120.219L32.4561 148.169C62.1359 177.849 110.256 177.849 139.936 148.169L167.886 120.219C172.963 115.142 172.963 106.911 167.886 101.834L139.936 73.8839ZM86.1963 153.147C109.459 153.147 128.317 134.289 128.317 111.027C128.317 87.764 109.459 68.906 86.1963 68.906C62.9338 68.906 44.0758 87.764 44.0758 111.027C44.0758 134.289 62.9338 153.147 86.1963 153.147Z" fill="#242424"/>
<path d="M40.7545 45.4413V45.4413C65.851 20.3448 106.541 20.3448 131.637 45.4413V45.4413" stroke="#242424" stroke-width="14" stroke-linecap="round"/>
<circle cx="86.1961" cy="111.027" r="27.6468" fill="#242424"/>
</svg>
