<svg width="96" height="96" viewBox="0 0 96 96" fill="none" xmlns="http://www.w3.org/2000/svg">
<path d="M85.3333 0C88.1623 0 90.8754 1.12381 92.8758 3.12419C94.8762 5.12458 96 7.83769 96 10.6667V85.3333C96 88.1623 94.8762 90.8754 92.8758 92.8758C90.8754 94.8762 88.1623 96 85.3333 96H10.6667C7.83769 96 5.12458 94.8762 3.12419 92.8758C1.12381 90.8754 0 88.1623 0 85.3333V10.6667C0 7.83769 1.12381 5.12458 3.12419 3.12419C5.12458 1.12381 7.83769 0 10.6667 0H85.3333ZM82.6667 82.6667V54.4C82.6667 49.7888 80.8349 45.3664 77.5742 42.1058C74.3136 38.8451 69.8912 37.0133 65.28 37.0133C60.7467 37.0133 55.4667 39.7867 52.9067 43.9467V38.0267H38.0267V82.6667H52.9067V56.3733C52.9067 52.2667 56.2133 48.9067 60.32 48.9067C62.3003 48.9067 64.1995 49.6933 65.5997 51.0936C67 52.4939 67.7867 54.3931 67.7867 56.3733V82.6667H82.6667ZM20.6933 29.6533C23.0697 29.6533 25.3487 28.7093 27.029 27.029C28.7093 25.3487 29.6533 23.0697 29.6533 20.6933C29.6533 15.7333 25.6533 11.68 20.6933 11.68C18.3029 11.68 16.0103 12.6296 14.3199 14.3199C12.6296 16.0103 11.68 18.3029 11.68 20.6933C11.68 25.6533 15.7333 29.6533 20.6933 29.6533ZM28.1067 82.6667V38.0267H13.3333V82.6667H28.1067Z" fill="url(#paint0_linear_440_2951)"/>
<defs>
<linearGradient id="paint0_linear_440_2951" x1="98.8787" y1="173.65" x2="25.3643" y2="16.596" gradientUnits="userSpaceOnUse">
<stop stop-color="#2B0176"/>
<stop offset="0.58" stop-color="#420468"/>
<stop offset="0.755" stop-color="#5854BF"/>
<stop offset="0.92" stop-color="#2EBE95"/>
<stop offset="0.98" stop-color="#89E3C9"/>
</linearGradient>
</defs>
</svg>
