<svg width="211" height="71" viewBox="0 0 211 71" fill="none" xmlns="http://www.w3.org/2000/svg">
<path d="M70.6016 60.1913C71.5159 60.0601 72.5871 59.9551 73.7627 59.9551C75.8788 59.9551 77.3941 60.4276 78.3868 61.2938C79.4319 62.1601 80.0066 63.4201 80.0066 65.1526C80.0066 66.9113 79.4057 68.3551 78.3607 69.3263C77.2635 70.3238 75.5131 70.8751 73.2925 70.8751C72.2213 70.8751 71.3592 70.8488 70.6016 70.7438V60.1913ZM72.0907 69.7201C72.4564 69.7726 73.0051 69.7726 73.5798 69.7726C76.741 69.7988 78.4391 68.1188 78.4391 65.2051C78.4652 62.6588 76.9238 61.0576 73.815 61.0576C73.0573 61.0576 72.4826 61.1101 72.0907 61.1888V69.7201Z" fill="#F5F5F5"/>
<path d="M83.3768 60.0352V70.7977H81.8877V60.0352H83.3768Z" fill="#F5F5F5"/>
<path d="M94.6631 70.3236C94.01 70.5598 92.6776 70.9011 91.1362 70.9011C89.4119 70.9011 87.9751 70.4811 86.8778 69.4836C85.8851 68.5911 85.2842 67.1473 85.2842 65.4673C85.2842 62.2648 87.6354 59.9023 91.4758 59.9023C92.8082 59.9023 93.8532 60.1648 94.3496 60.4011L93.9838 61.5298C93.383 61.2673 92.5992 61.0573 91.4497 61.0573C88.6804 61.0573 86.8517 62.6848 86.8517 65.3886C86.8517 68.1186 88.5759 69.7198 91.2668 69.7198C92.2334 69.7198 92.8866 69.5886 93.2262 69.4311V66.2548H90.9272V65.1261H94.6892V70.3236H94.6631Z" fill="#F5F5F5"/>
<path d="M98.3729 60.0352V70.7977H96.8838V60.0352H98.3729Z" fill="#F5F5F5"/>
<path d="M103.102 61.2164H99.627V60.0352H108.091V61.2164H104.591V70.7977H103.102V61.2164Z" fill="#F5F5F5"/>
<path d="M109.946 67.4114L108.77 70.7977H107.255L111.121 60.0352H112.898L116.791 70.7977H115.223L113.995 67.4114H109.946ZM113.682 66.3352L112.558 63.2377C112.323 62.5289 112.14 61.8989 111.984 61.2689H111.931C111.775 61.8989 111.592 62.5552 111.383 63.2114L110.259 66.3352H113.682Z" fill="#F5F5F5"/>
<path d="M118.437 60.0352H119.926V69.6164H124.811V70.7714H118.437V60.0352Z" fill="#F5F5F5"/>
<path d="M129.853 69.1161C130.506 69.5098 131.473 69.7986 132.492 69.7986C134.007 69.7986 134.869 69.0636 134.869 67.9873C134.869 66.9898 134.268 66.3861 132.727 65.8611C130.872 65.2573 129.722 64.3386 129.722 62.8161C129.722 61.1361 131.185 59.9023 133.406 59.9023C134.556 59.9023 135.418 60.1648 135.914 60.4011L135.496 61.5561C135.13 61.3461 134.373 61.0573 133.354 61.0573C131.786 61.0573 131.212 61.9236 131.212 62.6586C131.212 63.6561 131.917 64.1548 133.484 64.7061C135.418 65.4148 136.384 66.2811 136.384 67.8561C136.384 69.5098 135.104 70.9536 132.413 70.9536C131.316 70.9536 130.114 70.6386 129.487 70.2448L129.853 69.1161Z" fill="#F5F5F5"/>
<path d="M142.837 70.9807C139.807 70.9807 137.69 68.7757 137.69 65.5207C137.69 62.1082 139.937 59.877 142.968 59.877C146.103 59.877 148.114 62.1345 148.114 65.3107C148.14 68.9857 145.763 70.9807 142.837 70.9807ZM142.942 69.852C145.293 69.852 146.599 67.8307 146.599 65.3895C146.599 63.2632 145.423 61.0057 142.968 61.0057C140.512 61.0057 139.284 63.1582 139.284 65.4945C139.284 67.752 140.59 69.852 142.942 69.852Z" fill="#F5F5F5"/>
<path d="M150.048 60.0352H151.537V69.6164H156.422V70.7714H150.048V60.0352Z" fill="#F5F5F5"/>
<path d="M158.931 60.0352V66.4139C158.931 68.8027 160.054 69.8264 161.595 69.8264C163.267 69.8264 164.365 68.7764 164.365 66.4139V60.0352H165.854V66.3352C165.854 69.6427 163.999 70.9814 161.543 70.9814C159.218 70.9814 157.441 69.7477 157.441 66.3877V60.0614H158.931V60.0352Z" fill="#F5F5F5"/>
<path d="M170.582 61.2164H167.107V60.0352H175.572V61.2164H172.071V70.7977H170.582V61.2164Z" fill="#F5F5F5"/>
<path d="M178.289 60.0352V70.7977H176.8V60.0352H178.289Z" fill="#F5F5F5"/>
<path d="M185.343 70.9807C182.312 70.9807 180.196 68.7757 180.196 65.5207C180.196 62.1082 182.443 59.877 185.474 59.877C188.609 59.877 190.62 62.1345 190.62 65.3107C190.646 68.9857 188.243 70.9807 185.343 70.9807ZM185.421 69.852C187.773 69.852 189.079 67.8307 189.079 65.3895C189.079 63.2632 187.903 61.0057 185.447 61.0057C182.992 61.0057 181.764 63.1582 181.764 65.4945C181.764 67.752 183.07 69.852 185.421 69.852Z" fill="#F5F5F5"/>
<path d="M192.554 70.7966V60.0341H194.173L197.805 65.4678C198.641 66.7278 199.32 67.8566 199.843 68.9591L199.895 68.9328C199.764 67.4891 199.738 66.1766 199.738 64.5228V60.0078H201.123V70.7703H199.634L196.002 65.3103C195.218 64.1028 194.435 62.8953 193.886 61.7141L193.834 61.7403C193.912 63.1053 193.938 64.3916 193.938 66.1766V70.7703H192.554V70.7966Z" fill="#F5F5F5"/>
<path d="M203.5 69.1161C204.153 69.5098 205.119 69.7986 206.138 69.7986C207.653 69.7986 208.516 69.0636 208.516 67.9873C208.516 66.9898 207.915 66.3861 206.373 65.8611C204.518 65.2573 203.369 64.3386 203.369 62.8161C203.369 61.1361 204.832 59.9023 207.053 59.9023C208.202 59.9023 209.064 60.1648 209.561 60.4011L209.143 61.5561C208.777 61.3461 208.019 61.0573 207 61.0573C205.433 61.0573 204.858 61.9236 204.858 62.6586C204.858 63.6561 205.563 64.1548 207.131 64.7061C209.064 65.4148 210.031 66.2811 210.031 67.8561C210.031 69.5098 208.751 70.9536 206.06 70.9536C204.963 70.9536 203.761 70.6386 203.134 70.2448L203.5 69.1161Z" fill="#F5F5F5"/>
<path d="M81.4701 52.9989H71.3075C70.7066 52.9989 70.2363 52.5264 70.2363 51.9227V2.86141C70.2363 2.25766 70.7066 1.78516 71.3075 1.78516H82.0971C82.4629 1.78516 82.8025 1.96891 83.0115 2.28391L99.4442 28.7177C100.019 29.6364 101.43 29.2427 101.43 28.1402V2.86141C101.43 2.25766 101.9 1.78516 102.501 1.78516H112.611C113.212 1.78516 113.682 2.25766 113.682 2.86141V51.8964C113.682 52.5002 113.212 52.9727 112.611 52.9727H101.822C101.456 52.9727 101.116 52.7889 100.907 52.4739L84.5268 26.1714C83.952 25.2527 82.5412 25.6464 82.5412 26.7489V51.8964C82.5412 52.5002 82.071 52.9989 81.4701 52.9989Z" fill="#F5F5F5"/>
<path d="M170.269 38.8766L181.007 36.6191C181.581 36.4878 182.156 36.8816 182.287 37.4591C183.123 41.2653 185.996 43.1816 190.856 43.1816C195.14 43.1816 197.256 42.0003 197.256 39.5853C197.256 39.2441 197.204 38.9028 197.126 38.5878C197.021 38.2728 196.865 37.9578 196.629 37.6691C196.394 37.3803 196.159 37.1178 195.924 36.9078C195.689 36.6978 195.349 36.4616 194.931 36.2253C194.513 35.9891 194.121 35.7791 193.782 35.5953C193.442 35.4378 192.972 35.2278 192.345 35.0178C191.718 34.8078 191.221 34.6241 190.803 34.4666C190.412 34.3091 189.811 34.1253 189.053 33.8366C188.295 33.5741 187.695 33.3641 187.277 33.2066C184.429 32.1828 182.078 31.2116 180.223 30.3191C178.368 29.4266 176.591 28.2716 174.893 26.9066C173.195 25.5416 171.915 23.9403 171.079 22.0766C170.243 20.2128 169.825 18.0866 169.825 15.6453C169.825 11.1041 171.575 7.53406 175.05 4.88281C178.551 2.25781 183.149 0.945312 188.896 0.945312C194.775 0.945312 199.634 2.33656 203.448 5.14531C207.262 7.95406 209.169 11.9966 209.169 17.2466V17.2728C209.169 17.8766 208.699 18.3491 208.098 18.3491H196.368V17.9553C196.368 15.9078 195.715 14.3591 194.383 13.2828C193.05 12.2066 191.222 11.6816 188.896 11.6816C186.989 11.6816 185.552 12.0228 184.56 12.7316C183.567 13.4403 183.07 14.3328 183.07 15.4091C183.07 16.8266 183.776 17.9816 185.213 18.8478C186.65 19.7141 188.766 20.6591 191.613 21.6303C193.364 22.2603 194.827 22.8116 195.95 23.2316C197.1 23.6778 198.38 24.2291 199.843 24.8853C201.28 25.5416 202.481 26.1716 203.396 26.7753C204.31 27.3791 205.277 28.1403 206.27 29.0328C207.262 29.9253 208.046 30.8703 208.595 31.8153C209.143 32.7603 209.587 33.8628 209.953 35.0966C210.319 36.3303 210.476 37.6953 210.476 39.1653C210.476 43.8378 208.673 47.4603 205.094 49.9803C201.515 52.5266 196.682 53.7866 190.594 53.7866C184.769 53.7866 179.883 52.5528 175.964 50.0591C172.333 47.7491 170.139 44.4416 169.381 40.1366C169.329 39.5591 169.694 39.0078 170.269 38.8766Z" fill="#F5F5F5"/>
<path d="M121.624 51.8964V2.86141C121.624 2.25766 122.094 1.78516 122.695 1.78516H142.289C149.369 1.78516 154.907 4.06891 158.905 8.66266C162.928 13.2564 164.939 19.4777 164.939 27.3789C164.939 35.2802 162.928 41.5277 158.878 46.0952C154.829 50.6889 149.317 52.9727 142.289 52.9727H122.695C122.094 52.9989 121.624 52.5002 121.624 51.8964ZM141.819 13.6239H135.105C134.504 13.6239 134.033 14.0964 134.033 14.7002V40.0314C134.033 40.6352 134.504 41.1077 135.105 41.1077H141.819C145.137 41.1077 147.697 39.8739 149.473 37.4064C151.25 34.9389 152.138 31.5789 152.138 27.3527C152.138 23.1264 151.25 19.7664 149.473 17.2989C147.697 14.8577 145.137 13.6239 141.819 13.6239Z" fill="#F5F5F5"/>
<path d="M53.0719 23.6243C53.5683 23.2043 54.143 22.863 54.7962 22.653L43.5101 2.96555C43.3273 2.65055 43.0138 2.4668 42.648 2.4668H20.1543C20.2066 2.7818 20.2588 3.12305 20.2588 3.4643C20.2588 3.80555 20.2327 4.1468 20.1543 4.4618H42.0994L53.0719 23.6243ZM42.0732 50.3206H20.1282C20.2066 50.6618 20.2327 50.9768 20.2327 51.3443C20.2327 51.6856 20.2066 52.0005 20.1282 52.3155H42.6219C42.9876 52.3155 43.3011 52.1318 43.484 51.8168L54.7178 32.2605C54.0908 32.0505 53.516 31.7093 53.0197 31.263L42.0732 50.3206ZM13.5969 8.2418C12.9699 8.0318 12.369 7.69055 11.8727 7.2443L0.612743 26.8793C0.429867 27.1943 0.429867 27.5618 0.612743 27.8768L11.8727 47.5118C12.369 47.0656 12.9438 46.7505 13.5969 46.5143L2.62437 27.378L13.5969 8.2418Z" fill="#F5F5F5"/>
<path d="M20.5464 25.9087C16.3403 21.2362 13.78 15.0674 13.7539 8.29492C14.198 8.42617 14.6944 8.50492 15.1908 8.50492C15.3737 8.50492 15.5565 8.50492 15.7394 8.47867C15.7917 14.6737 18.169 20.3174 22.0356 24.5962C21.5392 24.9899 21.0428 25.4362 20.5464 25.9087Z" fill="#F5F5F5"/>
<path d="M23.5249 28.7429L25.0663 27.4304C26.2158 26.5379 27.4176 25.7504 28.7238 25.0679C28.6716 24.4116 28.5671 23.7554 28.4364 22.9941C26.6861 23.8604 25.0663 24.9104 23.5511 26.1179C23.5511 26.1179 22.0358 27.4304 22.0619 27.4304C17.0198 32.2079 13.8325 38.9541 13.7803 46.4616C14.2244 46.3304 14.7208 46.2516 15.2172 46.2516C15.4 46.2516 15.5829 46.2516 15.7658 46.2779C15.8442 39.3741 18.8224 33.1266 23.5249 28.7429Z" fill="#F5F5F5"/>
<path d="M32.6424 31.4733C32.6424 31.447 30.7353 30.7645 30.7353 30.7908C29.3768 30.2395 28.0967 29.557 26.8688 28.7695C26.3463 29.1633 25.8238 29.5833 25.249 30.082C26.8427 31.1583 28.5408 32.077 30.3695 32.812C30.3695 32.812 32.2505 33.4945 32.2505 33.4683C34.6802 34.2295 37.2666 34.6233 39.9313 34.6233C44.5555 34.6233 48.9445 33.4158 52.8632 31.132C52.393 30.6595 52.0011 30.1083 51.7137 29.5045C48.1346 31.5783 44.1113 32.6545 39.9313 32.6545C37.4233 32.602 34.9676 32.2083 32.6424 31.4733Z" fill="#F5F5F5"/>
<path d="M31.7021 35.4902C31.0751 35.3065 30.4481 35.0702 29.8473 34.834C28.0446 40.4252 24.3087 45.229 19.2666 48.274C19.6585 48.799 19.9459 49.4027 20.1287 50.059C25.615 46.804 29.7166 41.5802 31.7021 35.4902Z" fill="#F5F5F5"/>
<path d="M34.3662 20.8948C34.523 21.5773 34.6536 22.2335 34.732 22.8373C36.404 22.4698 38.1543 22.2598 39.9309 22.2598C44.1892 22.2598 48.2125 23.3098 51.7655 25.331C52.0529 24.7273 52.4448 24.176 52.9412 23.7035C49.0485 21.446 44.6334 20.291 39.9309 20.291C38.0498 20.291 36.1688 20.501 34.3662 20.8948Z" fill="#F5F5F5"/>
<path d="M30.422 22.1019C30.3959 22.1019 30.7616 24.0969 30.7878 24.0969C30.9445 25.1731 31.0229 26.2756 31.0229 27.3781C31.0229 27.7456 31.0229 28.1394 30.9968 28.5069C31.5715 28.7694 32.1985 29.0319 32.93 29.2944C32.9823 28.6644 33.0084 28.0344 33.0084 27.3781C33.0084 26.0394 32.9039 24.7006 32.6949 23.4144C32.721 23.4144 32.3291 21.4456 32.3291 21.4456C30.7094 14.4369 26.2942 8.34688 20.1287 4.67188C19.972 5.32813 19.6846 5.93187 19.2666 6.48312C24.9357 9.92188 28.9851 15.5919 30.422 22.1019Z" fill="#F5F5F5"/>
<path d="M18.6133 51.3196C18.6133 53.2096 17.0719 54.7584 15.1909 54.7584C13.3099 54.7584 11.7686 53.2096 11.7686 51.3196C11.7686 49.4296 13.3099 47.8809 15.1909 47.8809C17.0719 47.9071 18.6133 49.4296 18.6133 51.3196Z" fill="#F5F5F5"/>
<path d="M11.7939 3.43875C11.7939 1.54875 13.3353 0 15.2163 0C17.0973 0 18.6387 1.54875 18.6387 3.43875C18.6387 5.32875 17.0973 6.8775 15.2163 6.8775C13.3092 6.8775 11.7939 5.32875 11.7939 3.43875Z" fill="#F5F5F5"/>
<path d="M59.7862 27.3782C59.7862 29.2682 58.2448 30.817 56.3638 30.817C54.4828 30.817 52.9414 29.2682 52.9414 27.3782C52.9414 25.4882 54.4828 23.9395 56.3638 23.9395C58.2709 23.9395 59.7862 25.4882 59.7862 27.3782Z" fill="#F5F5F5"/>
</svg>
