<svg width="361" height="122" viewBox="0 0 361 122" fill="none" xmlns="http://www.w3.org/2000/svg">
<path d="M120.915 103.345C122.483 103.12 124.319 102.94 126.334 102.94C129.962 102.94 132.559 103.75 134.261 105.235C136.053 106.72 137.038 108.88 137.038 111.85C137.038 114.865 136.008 117.34 134.216 119.005C132.335 120.715 129.335 121.66 125.528 121.66C123.692 121.66 122.214 121.615 120.915 121.435V103.345ZM123.468 119.68C124.095 119.77 125.035 119.77 126.021 119.77C131.44 119.815 134.351 116.935 134.351 111.94C134.396 107.575 131.753 104.83 126.424 104.83C125.125 104.83 124.14 104.92 123.468 105.055V119.68Z" fill="#F5F5F5"/>
<path d="M142.815 103.075V121.525H140.263V103.075H142.815Z" fill="#F5F5F5"/>
<path d="M162.163 120.715C161.043 121.12 158.759 121.705 156.117 121.705C153.161 121.705 150.698 120.985 148.817 119.275C147.115 117.745 146.085 115.27 146.085 112.39C146.085 106.9 150.116 102.85 156.699 102.85C158.983 102.85 160.775 103.3 161.626 103.705L160.999 105.64C159.969 105.19 158.625 104.83 156.654 104.83C151.907 104.83 148.772 107.62 148.772 112.255C148.772 116.935 151.728 119.68 156.341 119.68C157.998 119.68 159.118 119.455 159.7 119.185V113.74H155.759V111.805H162.208V120.715H162.163Z" fill="#F5F5F5"/>
<path d="M168.523 103.075V121.525H165.97V103.075H168.523Z" fill="#F5F5F5"/>
<path d="M176.628 105.1H170.672V103.075H185.182V105.1H179.181V121.525H176.628V105.1Z" fill="#F5F5F5"/>
<path d="M188.363 115.72L186.348 121.525H183.75L190.378 103.075H193.424L200.097 121.525H197.41L195.305 115.72H188.363ZM194.767 113.875L192.842 108.565C192.438 107.35 192.125 106.27 191.856 105.19H191.767C191.498 106.27 191.184 107.395 190.826 108.52L188.9 113.875H194.767Z" fill="#F5F5F5"/>
<path d="M202.918 103.075H205.471V119.5H213.846V121.48H202.918V103.075Z" fill="#F5F5F5"/>
<path d="M222.489 118.645C223.609 119.32 225.266 119.815 227.013 119.815C229.61 119.815 231.088 118.555 231.088 116.71C231.088 115 230.058 113.965 227.416 113.065C224.236 112.03 222.265 110.455 222.265 107.845C222.265 104.965 224.773 102.85 228.58 102.85C230.551 102.85 232.029 103.3 232.88 103.705L232.163 105.685C231.536 105.325 230.237 104.83 228.491 104.83C225.803 104.83 224.818 106.315 224.818 107.575C224.818 109.285 226.027 110.14 228.715 111.085C232.029 112.3 233.686 113.785 233.686 116.485C233.686 119.32 231.491 121.795 226.878 121.795C224.997 121.795 222.937 121.255 221.862 120.58L222.489 118.645Z" fill="#F5F5F5"/>
<path d="M244.748 121.84C239.552 121.84 235.925 118.06 235.925 112.48C235.925 106.63 239.776 102.805 244.972 102.805C250.346 102.805 253.794 106.675 253.794 112.12C253.839 118.42 249.764 121.84 244.748 121.84ZM244.927 119.905C248.957 119.905 251.197 116.44 251.197 112.255C251.197 108.61 249.181 104.74 244.972 104.74C240.762 104.74 238.657 108.43 238.657 112.435C238.657 116.305 240.896 119.905 244.927 119.905Z" fill="#F5F5F5"/>
<path d="M257.109 103.075H259.662V119.5H268.037V121.48H257.109V103.075Z" fill="#F5F5F5"/>
<path d="M272.336 103.075V114.01C272.336 118.105 274.262 119.86 276.904 119.86C279.77 119.86 281.651 118.06 281.651 114.01V103.075H284.204V113.875C284.204 119.545 281.024 121.84 276.815 121.84C272.829 121.84 269.783 119.725 269.783 113.965V103.12H272.336V103.075Z" fill="#F5F5F5"/>
<path d="M292.311 105.1H286.354V103.075H300.865V105.1H294.864V121.525H292.311V105.1Z" fill="#F5F5F5"/>
<path d="M305.522 103.075V121.525H302.97V103.075H305.522Z" fill="#F5F5F5"/>
<path d="M317.615 121.84C312.42 121.84 308.792 118.06 308.792 112.48C308.792 106.63 312.644 102.805 317.839 102.805C323.213 102.805 326.662 106.675 326.662 112.12C326.706 118.42 322.586 121.84 317.615 121.84ZM317.749 119.905C321.78 119.905 324.019 116.44 324.019 112.255C324.019 108.61 322.004 104.74 317.794 104.74C313.584 104.74 311.479 108.43 311.479 112.435C311.479 116.305 313.718 119.905 317.749 119.905Z" fill="#F5F5F5"/>
<path d="M329.976 121.525V103.075H332.752L338.978 112.39C340.411 114.55 341.575 116.485 342.471 118.375L342.56 118.33C342.336 115.855 342.292 113.605 342.292 110.77V103.03H344.665V121.48H342.113L335.887 112.12C334.544 110.05 333.2 107.98 332.26 105.955L332.17 106C332.304 108.34 332.349 110.545 332.349 113.605V121.48H329.976V121.525Z" fill="#F5F5F5"/>
<path d="M348.741 118.645C349.861 119.32 351.518 119.815 353.265 119.815C355.862 119.815 357.34 118.555 357.34 116.71C357.34 115 356.31 113.965 353.668 113.065C350.488 112.03 348.517 110.455 348.517 107.845C348.517 104.965 351.025 102.85 354.832 102.85C356.803 102.85 358.281 103.3 359.132 103.705L358.415 105.685C357.788 105.325 356.489 104.83 354.743 104.83C352.055 104.83 351.07 106.315 351.07 107.575C351.07 109.285 352.279 110.14 354.966 111.085C358.281 112.3 359.938 113.785 359.938 116.485C359.938 119.32 357.743 121.795 353.13 121.795C351.249 121.795 349.189 121.255 348.114 120.58L348.741 118.645Z" fill="#F5F5F5"/>
<path d="M139.546 91.0153H122.124C121.094 91.0153 120.288 90.2053 120.288 89.1703V5.06522C120.288 4.03022 121.094 3.22021 122.124 3.22021H140.621C141.248 3.22021 141.83 3.53522 142.188 4.07522L170.359 49.3902C171.344 50.9652 173.762 50.2902 173.762 48.4002V5.06522C173.762 4.03022 174.569 3.22021 175.599 3.22021H192.931C193.961 3.22021 194.767 4.03022 194.767 5.06522V89.1253C194.767 90.1603 193.961 90.9703 192.931 90.9703H174.434C173.807 90.9703 173.225 90.6553 172.867 90.1153L144.786 45.0252C143.801 43.4502 141.382 44.1252 141.382 46.0152V89.1253C141.382 90.1603 140.576 91.0153 139.546 91.0153Z" fill="#FF2A00"/>
<path d="M291.773 66.8053L310.18 62.9353C311.166 62.7103 312.151 63.3853 312.375 64.3753C313.808 70.9003 318.735 74.1853 327.065 74.1853C334.41 74.1853 338.037 72.1603 338.037 68.0203C338.037 67.4353 337.948 66.8503 337.813 66.3103C337.634 65.7703 337.365 65.2303 336.962 64.7353C336.559 64.2403 336.156 63.7903 335.753 63.4303C335.35 63.0703 334.768 62.6653 334.051 62.2603C333.335 61.8553 332.663 61.4953 332.081 61.1803C331.498 60.9103 330.692 60.5503 329.617 60.1903C328.543 59.8303 327.692 59.5153 326.975 59.2453C326.303 58.9753 325.273 58.6603 323.974 58.1653C322.676 57.7153 321.646 57.3553 320.929 57.0853C316.047 55.3303 312.017 53.6653 308.837 52.1353C305.657 50.6053 302.612 48.6253 299.7 46.2853C296.789 43.9453 294.595 41.2003 293.162 38.0053C291.729 34.8103 291.012 31.1653 291.012 26.9803C291.012 19.1953 294.013 13.0753 299.969 8.53028C305.971 4.03028 313.853 1.78027 323.706 1.78027C333.783 1.78027 342.113 4.16528 348.651 8.98028C355.19 13.7953 358.46 20.7253 358.46 29.7253V29.7703C358.46 30.8053 357.653 31.6153 356.623 31.6153H336.514V30.9403C336.514 27.4303 335.395 24.7753 333.111 22.9303C330.827 21.0853 327.692 20.1853 323.706 20.1853C320.436 20.1853 317.973 20.7703 316.271 21.9853C314.569 23.2003 313.718 24.7303 313.718 26.5753C313.718 29.0053 314.928 30.9853 317.391 32.4703C319.854 33.9553 323.482 35.5753 328.363 37.2403C331.364 38.3203 333.872 39.2653 335.798 39.9853C337.769 40.7503 339.963 41.6953 342.471 42.8203C344.934 43.9453 346.994 45.0253 348.562 46.0603C350.129 47.0953 351.787 48.4003 353.488 49.9303C355.19 51.4603 356.534 53.0803 357.474 54.7003C358.415 56.3203 359.176 58.2103 359.803 60.3253C360.43 62.4403 360.699 64.7803 360.699 67.3003C360.699 75.3103 357.609 81.5203 351.473 85.8403C345.337 90.2053 337.052 92.3653 326.617 92.3653C316.63 92.3653 308.255 90.2503 301.537 85.9753C295.311 82.0153 291.549 76.3453 290.251 68.9653C290.161 67.9753 290.788 67.0303 291.773 66.8053Z" fill="#FF2A00"/>
<path d="M208.382 89.1253V5.06522C208.382 4.03022 209.188 3.22021 210.218 3.22021H243.807C255.944 3.22021 265.439 7.13522 272.291 15.0102C279.188 22.8852 282.637 33.5502 282.637 47.0952C282.637 60.6403 279.188 71.3503 272.247 79.1803C265.305 87.0553 255.855 90.9703 243.807 90.9703H210.218C209.188 91.0153 208.382 90.1603 208.382 89.1253ZM243.001 23.5152H231.491C230.461 23.5152 229.655 24.3252 229.655 25.3602V68.7853C229.655 69.8203 230.461 70.6303 231.491 70.6303H243.001C248.689 70.6303 253.078 68.5153 256.124 64.2853C259.169 60.0553 260.692 54.2952 260.692 47.0502C260.692 39.8052 259.169 34.0452 256.124 29.8152C253.078 25.6302 248.689 23.5152 243.001 23.5152Z" fill="#FF2A00"/>
<path d="M90.8634 40.6602C91.7144 39.9402 92.6997 39.3552 93.8193 38.9952L74.4718 5.24514C74.1583 4.70514 73.6209 4.39014 72.9939 4.39014H34.4332C34.5228 4.93014 34.6124 5.51514 34.6124 6.10014C34.6124 6.68514 34.5676 7.27014 34.4332 7.81014H72.0534L90.8634 40.6602ZM72.0086 86.4252H34.3884C34.5228 87.0102 34.5676 87.5502 34.5676 88.1802C34.5676 88.7652 34.5228 89.3052 34.3884 89.8452H72.9491C73.5761 89.8452 74.1135 89.5302 74.427 88.9902L93.685 55.4652C92.6101 55.1052 91.6248 54.5202 90.7739 53.7552L72.0086 86.4252ZM23.192 14.2901C22.1171 13.9301 21.087 13.3451 20.2361 12.5801L0.933368 46.2402C0.619867 46.7802 0.619867 47.4102 0.933368 47.9502L20.2361 81.6102C21.087 80.8452 22.0723 80.3052 23.192 79.9002L4.38188 47.0952L23.192 14.2901Z" fill="#F5F5F5"/>
<path d="M35.1053 44.5749C27.8947 36.5649 23.5057 25.9899 23.4609 14.3799C24.2223 14.6049 25.0732 14.7399 25.9242 14.7399C26.2377 14.7399 26.5512 14.7399 26.8647 14.6949C26.9542 25.3149 31.0298 34.9899 37.6581 42.3249C36.8071 42.9999 35.9562 43.7649 35.1053 44.5749Z" fill="#FF2A00"/>
<path d="M40.211 49.4351L42.8534 47.1851C44.8239 45.6551 46.8841 44.3051 49.1234 43.1351C49.0338 42.0101 48.8547 40.8851 48.6307 39.5801C45.6301 41.0651 42.8534 42.8651 40.2558 44.9351C40.2558 44.9351 37.6582 47.1851 37.703 47.1851C29.0593 55.3751 23.5954 66.9401 23.5059 79.8101C24.2672 79.5851 25.1182 79.4501 25.9691 79.4501C26.2826 79.4501 26.5961 79.4501 26.9096 79.4951C27.0439 67.6601 32.1495 56.9501 40.211 49.4351Z" fill="#FF2A00"/>
<path d="M55.8414 54.115C55.8414 54.07 52.572 52.9 52.572 52.945C50.2432 52 48.0487 50.83 45.9437 49.48C45.048 50.155 44.1523 50.875 43.167 51.73C45.8989 53.575 48.81 55.15 51.945 56.41C51.945 56.41 55.1696 57.58 55.1696 57.535C59.3347 58.84 63.7685 59.515 68.3367 59.515C76.2638 59.515 83.7878 57.445 90.5057 53.53C89.6995 52.72 89.0277 51.775 88.5351 50.74C82.3994 54.295 75.5024 56.14 68.3367 56.14C64.0372 56.05 59.8273 55.375 55.8414 54.115Z" fill="#FF2A00"/>
<path d="M54.2292 61C53.1544 60.685 52.0795 60.28 51.0494 59.875C47.9592 69.46 41.5548 77.695 32.9111 82.915C33.5829 83.815 34.0756 84.85 34.3891 85.975C43.7941 80.395 50.8255 71.44 54.2292 61Z" fill="#FF2A00"/>
<path d="M58.7969 35.9798C59.0656 37.1498 59.2895 38.2748 59.4239 39.3098C62.2902 38.6798 65.2908 38.3198 68.3363 38.3198C75.6364 38.3198 82.5334 40.1198 88.6243 43.5848C89.1169 42.5498 89.7887 41.6048 90.6396 40.7948C83.9665 36.9248 76.3977 34.9448 68.3363 34.9448C65.1117 34.9448 61.8871 35.3048 58.7969 35.9798Z" fill="#FF2A00"/>
<path d="M52.0347 38.0499C51.9899 38.0499 52.6169 41.4699 52.6617 41.4699C52.9304 43.3149 53.0648 45.205 53.0648 47.095C53.0648 47.725 53.0648 48.4 53.02 49.03C54.0053 49.4799 55.0801 49.93 56.3342 50.38C56.4237 49.2999 56.4685 48.22 56.4685 47.095C56.4685 44.7999 56.2894 42.5049 55.9311 40.2999C55.9759 40.2999 55.3041 36.9249 55.3041 36.9249C52.5273 24.9099 44.9585 14.4699 34.3891 8.16992C34.1203 9.29492 33.6277 10.3299 32.9111 11.2749C42.6297 17.1699 49.5715 26.8899 52.0347 38.0499Z" fill="#FF2A00"/>
<path d="M31.7905 88.1352C31.7905 91.3752 29.1482 94.0302 25.9236 94.0302C22.699 94.0302 20.0566 91.3752 20.0566 88.1352C20.0566 84.8952 22.699 82.2402 25.9236 82.2402C29.1482 82.2852 31.7905 84.8952 31.7905 88.1352Z" fill="#FF2A00"/>
<path d="M20.1016 6.05516C20.1016 2.81516 22.7439 0.160156 25.9685 0.160156C29.1931 0.160156 31.8355 2.81516 31.8355 6.05516C31.8355 9.29516 29.1931 11.9502 25.9685 11.9502C22.6991 11.9502 20.1016 9.29516 20.1016 6.05516Z" fill="#FF2A00"/>
<path d="M102.374 47.0952C102.374 50.3352 99.7312 52.9902 96.5066 52.9902C93.282 52.9902 90.6396 50.3352 90.6396 47.0952C90.6396 43.8552 93.282 41.2002 96.5066 41.2002C99.776 41.2002 102.374 43.8552 102.374 47.0952Z" fill="#FF2A00"/>
</svg>
