<svg width="17" height="16" viewBox="0 0 17 16" fill="none" xmlns="http://www.w3.org/2000/svg">
<path d="M14.2818 0C14.7533 0 15.2055 0.187301 15.5389 0.520699C15.8723 0.854097 16.0596 1.30628 16.0596 1.77778V14.2222C16.0596 14.6937 15.8723 15.1459 15.5389 15.4793C15.2055 15.8127 14.7533 16 14.2818 16H1.83735C1.36585 16 0.913667 15.8127 0.580269 15.4793C0.246871 15.1459 0.0595703 14.6937 0.0595703 14.2222V1.77778C0.0595703 1.30628 0.246871 0.854097 0.580269 0.520699C0.913667 0.187301 1.36585 0 1.83735 0H14.2818ZM13.8373 13.7778V9.06667C13.8373 8.29813 13.532 7.56107 12.9886 7.01763C12.4452 6.47419 11.7081 6.16889 10.9396 6.16889C10.184 6.16889 9.30402 6.63111 8.87735 7.32444V6.33778H6.39735V13.7778H8.87735V9.39556C8.87735 8.71111 9.42846 8.15111 10.1129 8.15111C10.443 8.15111 10.7595 8.28222 10.9929 8.5156C11.2262 8.74898 11.3573 9.06551 11.3573 9.39556V13.7778H13.8373ZM3.50846 4.94222C3.90452 4.94222 4.28435 4.78489 4.56441 4.50484C4.84446 4.22478 5.00179 3.84495 5.00179 3.44889C5.00179 2.62222 4.33513 1.94667 3.50846 1.94667C3.11005 1.94667 2.72795 2.10494 2.44623 2.38666C2.16451 2.66838 2.00624 3.05047 2.00624 3.44889C2.00624 4.27556 2.68179 4.94222 3.50846 4.94222ZM4.74402 13.7778V6.33778H2.28179V13.7778H4.74402Z" fill="white"/>
</svg>
