<svg width="333" height="302" viewBox="0 0 333 302" fill="none" xmlns="http://www.w3.org/2000/svg">
<mask id="path-1-outside-1_283_1201" maskUnits="userSpaceOnUse" x="158.477" y="127.571" width="173.948" height="173.948" fill="black">
<rect fill="white" x="158.477" y="127.571" width="173.948" height="173.948"/>
<path fill-rule="evenodd" clip-rule="evenodd" d="M227.73 267.535C208.228 248.032 208.228 216.413 227.73 196.91C247.233 177.408 278.852 177.408 298.355 196.91L297.647 197.617C278.536 178.506 247.549 178.506 228.437 197.618C209.325 216.729 209.325 247.716 228.437 266.828L227.73 267.535Z"/>
</mask>
<path fill-rule="evenodd" clip-rule="evenodd" d="M227.73 267.535C208.228 248.032 208.228 216.413 227.73 196.91C247.233 177.408 278.852 177.408 298.355 196.91L297.647 197.617C278.536 178.506 247.549 178.506 228.437 197.618C209.325 216.729 209.325 247.716 228.437 266.828L227.73 267.535Z" fill="#FF2A00"/>
<path d="M227.73 267.535L244.701 284.505L227.73 301.476L210.759 284.505L227.73 267.535ZM298.355 196.91L315.325 179.94L332.296 196.91L315.325 213.881L298.355 196.91ZM297.647 197.617L314.618 214.588L297.647 231.559L280.677 214.588L297.647 197.617ZM228.437 266.828L245.408 249.857L262.378 266.828L245.408 283.798L228.437 266.828ZM210.759 284.505C181.885 255.63 181.885 208.815 210.76 179.94L244.701 213.881C234.571 224.011 234.571 240.434 244.701 250.564L210.759 284.505ZM210.76 179.94C239.635 151.065 286.45 151.065 315.325 179.94L281.384 213.881C271.254 203.751 254.831 203.751 244.701 213.881L210.76 179.94ZM315.325 213.881L314.618 214.588L280.677 180.647L281.384 179.94L315.325 213.881ZM211.467 180.647C239.951 152.163 286.133 152.163 314.618 180.647L280.677 214.588C270.938 204.849 255.147 204.849 245.408 214.588L211.467 180.647ZM211.467 283.798C182.982 255.314 182.982 209.131 211.467 180.647L245.408 214.588C235.669 224.327 235.669 240.118 245.408 249.857L211.467 283.798ZM245.408 283.798L244.701 284.505L210.76 250.564L211.467 249.857L245.408 283.798Z" fill="#FF2A00" mask="url(#path-1-outside-1_283_1201)"/>
<mask id="path-3-outside-2_283_1201" maskUnits="userSpaceOnUse" x="158.477" y="0.432052" width="173.948" height="173.948" fill="black">
<rect fill="white" x="158.477" y="0.432052" width="173.948" height="173.948"/>
<path fill-rule="evenodd" clip-rule="evenodd" d="M227.73 34.4164C208.228 53.9188 208.228 85.5384 227.73 105.041C247.232 124.543 278.852 124.543 298.354 105.041L297.647 104.334C278.535 123.445 247.549 123.445 228.437 104.334C209.325 85.2218 209.325 54.2354 228.437 35.1235L227.73 34.4164Z"/>
</mask>
<path fill-rule="evenodd" clip-rule="evenodd" d="M227.73 34.4164C208.228 53.9188 208.228 85.5384 227.73 105.041C247.232 124.543 278.852 124.543 298.354 105.041L297.647 104.334C278.535 123.445 247.549 123.445 228.437 104.334C209.325 85.2218 209.325 54.2354 228.437 35.1235L227.73 34.4164Z" fill="#FF2A00"/>
<path d="M227.73 34.4164L244.7 17.4458L227.73 0.47523L210.759 17.4459L227.73 34.4164ZM298.354 105.041L315.325 122.011L332.295 105.041L315.325 88.0702L298.354 105.041ZM297.647 104.334L314.618 87.3631L297.647 70.3926L280.677 87.3631L297.647 104.334ZM228.437 35.1235L245.408 52.094L262.378 35.1235L245.408 18.1529L228.437 35.1235ZM210.759 17.4459C181.884 46.3209 181.884 93.1364 210.759 122.011L244.7 88.0702C234.571 77.9404 234.571 61.5167 244.7 51.3869L210.759 17.4459ZM210.759 122.011C239.634 150.886 286.45 150.886 315.325 122.011L281.384 88.0702C271.254 98.2 254.83 98.2 244.7 88.0702L210.759 122.011ZM315.325 88.0702L314.618 87.3631L280.677 121.304L281.384 122.011L315.325 88.0702ZM211.466 121.304C239.951 149.789 286.133 149.789 314.618 121.304L280.677 87.3631C270.937 97.1023 255.147 97.1023 245.408 87.3631L211.466 121.304ZM211.466 18.153C182.982 46.6374 182.982 92.8198 211.466 121.304L245.408 87.3631C235.668 77.6238 235.668 61.8333 245.408 52.094L211.466 18.153ZM245.408 18.1529L244.7 17.4458L210.759 51.387L211.466 52.0941L245.408 18.1529Z" fill="#FF2A00" mask="url(#path-3-outside-2_283_1201)"/>
<mask id="path-5-outside-3_283_1201" maskUnits="userSpaceOnUse" x="-0.0286247" y="127.572" width="173.948" height="173.948" fill="black">
<rect fill="white" x="-0.0286247" y="127.572" width="173.948" height="173.948"/>
<path fill-rule="evenodd" clip-rule="evenodd" d="M104.666 267.536C124.169 248.033 124.169 216.414 104.666 196.911C85.1639 177.409 53.5444 177.409 34.042 196.911L34.7491 197.618C53.861 178.507 84.8474 178.507 103.959 197.619C123.071 216.73 123.071 247.717 103.959 266.829L104.666 267.536Z"/>
</mask>
<path fill-rule="evenodd" clip-rule="evenodd" d="M104.666 267.536C124.169 248.033 124.169 216.414 104.666 196.911C85.1639 177.409 53.5444 177.409 34.042 196.911L34.7491 197.618C53.861 178.507 84.8474 178.507 103.959 197.619C123.071 216.73 123.071 247.717 103.959 266.829L104.666 267.536Z" fill="#FF2A00"/>
<path d="M104.666 267.536L87.6958 284.506L104.666 301.477L121.637 284.506L104.666 267.536ZM34.042 196.911L17.0715 179.941L0.100813 196.911L17.0714 213.882L34.042 196.911ZM34.7491 197.618L17.7785 214.589L34.749 231.56L51.7196 214.589L34.7491 197.618ZM103.959 266.829L86.9887 249.858L70.0182 266.829L86.9887 283.799L103.959 266.829ZM121.637 284.506C150.512 255.631 150.512 208.816 121.637 179.941L87.6957 213.882C97.8255 224.012 97.8256 240.435 87.6958 250.565L121.637 284.506ZM121.637 179.941C92.7619 151.066 45.9464 151.066 17.0715 179.941L51.0125 213.882C61.1423 203.752 77.566 203.752 87.6957 213.882L121.637 179.941ZM17.0714 213.882L17.7785 214.589L51.7197 180.648L51.0125 179.941L17.0714 213.882ZM120.93 180.648C92.4454 152.164 46.263 152.164 17.7786 180.648L51.7196 214.589C61.4589 204.85 77.2494 204.85 86.9886 214.589L120.93 180.648ZM120.93 283.799C149.414 255.315 149.414 209.132 120.93 180.648L86.9886 214.589C96.7279 224.328 96.7279 240.119 86.9887 249.858L120.93 283.799ZM86.9887 283.799L87.6958 284.506L121.637 250.565L120.93 249.858L86.9887 283.799Z" fill="#FF2A00" mask="url(#path-5-outside-3_283_1201)"/>
<mask id="path-7-outside-4_283_1201" maskUnits="userSpaceOnUse" x="-0.0286247" y="0.432052" width="173.948" height="173.948" fill="black">
<rect fill="white" x="-0.0286247" y="0.432052" width="173.948" height="173.948"/>
<path fill-rule="evenodd" clip-rule="evenodd" d="M104.666 34.4164C124.169 53.9188 124.169 85.5384 104.666 105.041C85.1639 124.543 53.5444 124.543 34.042 105.041L34.7491 104.334C53.861 123.445 84.8474 123.445 103.959 104.334C123.071 85.2218 123.071 54.2354 103.959 35.1235L104.666 34.4164Z"/>
</mask>
<path fill-rule="evenodd" clip-rule="evenodd" d="M104.666 34.4164C124.169 53.9188 124.169 85.5384 104.666 105.041C85.1639 124.543 53.5444 124.543 34.042 105.041L34.7491 104.334C53.861 123.445 84.8474 123.445 103.959 104.334C123.071 85.2218 123.071 54.2354 103.959 35.1235L104.666 34.4164Z" fill="#FF2A00"/>
<path d="M104.666 34.4164L87.6958 17.4458L104.666 0.475225L121.637 17.4459L104.666 34.4164ZM34.042 105.041L17.0715 122.011L0.100813 105.041L17.0714 88.0702L34.042 105.041ZM34.7491 104.334L17.7785 87.3631L34.749 70.3926L51.7196 87.3631L34.7491 104.334ZM103.959 35.1235L86.9887 52.094L70.0182 35.1235L86.9887 18.1529L103.959 35.1235ZM121.637 17.4459C150.512 46.3209 150.512 93.1364 121.637 122.011L87.6957 88.0702C97.8255 77.9404 97.8256 61.5167 87.6958 51.3869L121.637 17.4459ZM121.637 122.011C92.7619 150.886 45.9464 150.886 17.0715 122.011L51.0125 88.0702C61.1423 98.2 77.5659 98.2 87.6957 88.0702L121.637 122.011ZM17.0714 88.0702L17.7785 87.3631L51.7196 121.304L51.0125 122.011L17.0714 88.0702ZM120.93 121.304C92.4454 149.789 46.263 149.789 17.7786 121.304L51.7196 87.3631C61.4589 97.1023 77.2494 97.1023 86.9886 87.3631L120.93 121.304ZM120.93 18.153C149.414 46.6374 149.414 92.8198 120.93 121.304L86.9886 87.3631C96.7279 77.6238 96.7279 61.8333 86.9887 52.094L120.93 18.153ZM86.9887 18.1529L87.6958 17.4458L121.637 51.387L120.93 52.0941L86.9887 18.1529Z" fill="#FF2A00" mask="url(#path-7-outside-4_283_1201)"/>
<circle cx="166.198" cy="153.295" r="31.7117" fill="#FF2A00"/>
</svg>
