<svg width="333" height="302" viewBox="0 0 333 302" fill="none" xmlns="http://www.w3.org/2000/svg">
<mask id="path-1-outside-1_295_1499" maskUnits="userSpaceOnUse" x="158.779" y="127.312" width="173.948" height="173.948" fill="black">
<rect fill="white" x="158.779" y="127.312" width="173.948" height="173.948"/>
<path fill-rule="evenodd" clip-rule="evenodd" d="M228.032 267.276C208.53 247.774 208.53 216.154 228.032 196.652C247.534 177.149 279.154 177.149 298.656 196.652L297.949 197.359C278.837 178.247 247.851 178.247 228.739 197.359C209.627 216.471 209.627 247.457 228.739 266.569L228.032 267.276Z"/>
</mask>
<path fill-rule="evenodd" clip-rule="evenodd" d="M228.032 267.276C208.53 247.774 208.53 216.154 228.032 196.652C247.534 177.149 279.154 177.149 298.656 196.652L297.949 197.359C278.837 178.247 247.851 178.247 228.739 197.359C209.627 216.471 209.627 247.457 228.739 266.569L228.032 267.276Z" fill="#F5F5F5"/>
<path d="M228.032 267.276L245.002 284.247L228.032 301.217L211.061 284.247L228.032 267.276ZM298.656 196.652L315.627 179.681L332.597 196.652L315.627 213.622L298.656 196.652ZM297.949 197.359L314.92 214.329L297.949 231.3L280.979 214.329L297.949 197.359ZM228.739 266.569L245.71 249.598L262.68 266.569L245.71 283.539L228.739 266.569ZM211.061 284.247C182.186 255.372 182.186 208.556 211.061 179.681L245.002 213.622C234.873 223.752 234.873 240.176 245.002 250.305L211.061 284.247ZM211.061 179.681C239.936 150.806 286.752 150.806 315.627 179.681L281.686 213.622C271.556 203.492 255.132 203.492 245.002 213.622L211.061 179.681ZM315.627 213.622L314.92 214.329L280.979 180.388L281.686 179.681L315.627 213.622ZM211.768 180.388C240.253 151.904 286.435 151.904 314.92 180.388L280.979 214.329C271.239 204.59 255.449 204.59 245.71 214.329L211.768 180.388ZM211.768 283.539C183.284 255.055 183.284 208.873 211.768 180.388L245.71 214.329C235.97 224.069 235.97 239.859 245.71 249.598L211.768 283.539ZM245.71 283.539L245.002 284.247L211.061 250.305L211.768 249.598L245.71 283.539Z" fill="#F5F5F5" mask="url(#path-1-outside-1_295_1499)"/>
<mask id="path-3-outside-2_295_1499" maskUnits="userSpaceOnUse" x="158.779" y="0.173263" width="173.948" height="173.948" fill="black">
<rect fill="white" x="158.779" y="0.173263" width="173.948" height="173.948"/>
<path fill-rule="evenodd" clip-rule="evenodd" d="M228.032 34.1576C208.53 53.66 208.53 85.2796 228.032 104.782C247.534 124.284 279.154 124.284 298.656 104.782L297.949 104.075C278.837 123.187 247.851 123.187 228.739 104.075C209.627 84.963 209.627 53.9766 228.739 34.8647L228.032 34.1576Z"/>
</mask>
<path fill-rule="evenodd" clip-rule="evenodd" d="M228.032 34.1576C208.53 53.66 208.53 85.2796 228.032 104.782C247.534 124.284 279.154 124.284 298.656 104.782L297.949 104.075C278.837 123.187 247.851 123.187 228.739 104.075C209.627 84.963 209.627 53.9766 228.739 34.8647L228.032 34.1576Z" fill="#F5F5F5"/>
<path d="M228.032 34.1576L245.002 17.187L228.032 0.21644L211.061 17.1871L228.032 34.1576ZM298.656 104.782L315.627 121.753L332.597 104.782L315.627 87.8115L298.656 104.782ZM297.949 104.075L314.92 87.1044L297.949 70.1338L280.979 87.1043L297.949 104.075ZM228.739 34.8647L245.71 51.8352L262.68 34.8647L245.71 17.8942L228.739 34.8647ZM211.061 17.1871C182.186 46.0621 182.186 92.8776 211.061 121.752L245.002 87.8114C234.873 77.6816 234.873 61.2579 245.002 51.1281L211.061 17.1871ZM211.061 121.752C239.936 150.627 286.752 150.627 315.627 121.753L281.686 87.8114C271.556 97.9412 255.132 97.9412 245.002 87.8114L211.061 121.752ZM315.627 87.8115L314.92 87.1044L280.979 121.045L281.686 121.753L315.627 87.8115ZM211.768 121.045C240.253 149.53 286.435 149.53 314.92 121.046L280.979 87.1043C271.239 96.8435 255.449 96.8435 245.71 87.1043L211.768 121.045ZM211.768 17.8942C183.284 46.3787 183.284 92.561 211.768 121.045L245.71 87.1043C235.97 77.365 235.97 61.5745 245.71 51.8352L211.768 17.8942ZM245.71 17.8942L245.002 17.187L211.061 51.1282L211.768 51.8353L245.71 17.8942Z" fill="#F5F5F5" mask="url(#path-3-outside-2_295_1499)"/>
<mask id="path-5-outside-3_295_1499" maskUnits="userSpaceOnUse" x="0.273133" y="127.313" width="173.948" height="173.948" fill="black">
<rect fill="white" x="0.273133" y="127.313" width="173.948" height="173.948"/>
<path fill-rule="evenodd" clip-rule="evenodd" d="M104.968 267.277C124.47 247.775 124.47 216.155 104.968 196.653C85.4657 177.15 53.8461 177.15 34.3437 196.653L35.0508 197.36C54.1627 178.248 85.1491 178.248 104.261 197.36C123.373 216.472 123.373 247.458 104.261 266.57L104.968 267.277Z"/>
</mask>
<path fill-rule="evenodd" clip-rule="evenodd" d="M104.968 267.277C124.47 247.775 124.47 216.155 104.968 196.653C85.4657 177.15 53.8461 177.15 34.3437 196.653L35.0508 197.36C54.1627 178.248 85.1491 178.248 104.261 197.36C123.373 216.472 123.373 247.458 104.261 266.57L104.968 267.277Z" fill="#F5F5F5"/>
<path d="M104.968 267.277L87.9976 284.248L104.968 301.218L121.939 284.247L104.968 267.277ZM34.3437 196.653L17.3732 179.682L0.402571 196.653L17.3732 213.623L34.3437 196.653ZM35.0508 197.36L18.0803 214.33L35.0508 231.301L52.0214 214.33L35.0508 197.36ZM104.261 266.57L87.2904 249.599L70.32 266.57L87.2905 283.54L104.261 266.57ZM121.939 284.247C150.814 255.372 150.814 208.557 121.939 179.682L87.9975 213.623C98.1273 223.753 98.1273 240.177 87.9975 250.306L121.939 284.247ZM121.939 179.682C93.0637 150.807 46.2482 150.807 17.3732 179.682L51.3143 213.623C61.4441 203.493 77.8677 203.493 87.9975 213.623L121.939 179.682ZM17.3732 213.623L18.0803 214.33L52.0214 180.389L51.3143 179.682L17.3732 213.623ZM121.232 180.389C92.7471 151.905 46.5648 151.905 18.0803 180.389L52.0214 214.33C61.7607 204.591 77.5511 204.591 87.2904 214.33L121.232 180.389ZM121.232 283.54C149.716 255.056 149.716 208.874 121.232 180.389L87.2904 214.33C97.0297 224.07 97.0297 239.86 87.2904 249.599L121.232 283.54ZM87.2905 283.54L87.9976 284.248L121.939 250.306L121.232 249.599L87.2905 283.54Z" fill="#F5F5F5" mask="url(#path-5-outside-3_295_1499)"/>
<mask id="path-7-outside-4_295_1499" maskUnits="userSpaceOnUse" x="0.273133" y="0.173263" width="173.948" height="173.948" fill="black">
<rect fill="white" x="0.273133" y="0.173263" width="173.948" height="173.948"/>
<path fill-rule="evenodd" clip-rule="evenodd" d="M104.968 34.1576C124.47 53.66 124.47 85.2796 104.968 104.782C85.4657 124.284 53.8461 124.284 34.3437 104.782L35.0508 104.075C54.1627 123.187 85.1491 123.187 104.261 104.075C123.373 84.963 123.373 53.9766 104.261 34.8647L104.968 34.1576Z"/>
</mask>
<path fill-rule="evenodd" clip-rule="evenodd" d="M104.968 34.1576C124.47 53.66 124.47 85.2796 104.968 104.782C85.4657 124.284 53.8461 124.284 34.3437 104.782L35.0508 104.075C54.1627 123.187 85.1491 123.187 104.261 104.075C123.373 84.963 123.373 53.9766 104.261 34.8647L104.968 34.1576Z" fill="#F5F5F5"/>
<path d="M104.968 34.1576L87.9976 17.187L104.968 0.216442L121.939 17.1871L104.968 34.1576ZM34.3437 104.782L17.3732 121.753L0.402571 104.782L17.3732 87.8115L34.3437 104.782ZM35.0508 104.075L18.0803 87.1043L35.0508 70.1338L52.0214 87.1043L35.0508 104.075ZM104.261 34.8647L87.2904 51.8352L70.32 34.8647L87.2905 17.8942L104.261 34.8647ZM121.939 17.1871C150.814 46.0621 150.814 92.8776 121.939 121.752L87.9975 87.8114C98.1273 77.6816 98.1273 61.2579 87.9975 51.1281L121.939 17.1871ZM121.939 121.752C93.0637 150.627 46.2482 150.627 17.3732 121.753L51.3143 87.8114C61.4441 97.9412 77.8677 97.9412 87.9975 87.8114L121.939 121.752ZM17.3732 87.8115L18.0803 87.1043L52.0214 121.045L51.3143 121.753L17.3732 87.8115ZM121.232 121.045C92.7471 149.53 46.5648 149.53 18.0803 121.046L52.0214 87.1043C61.7607 96.8436 77.5511 96.8435 87.2904 87.1043L121.232 121.045ZM121.232 17.8942C149.716 46.3787 149.716 92.561 121.232 121.045L87.2904 87.1043C97.0297 77.365 97.0297 61.5745 87.2904 51.8352L121.232 17.8942ZM87.2905 17.8942L87.9976 17.187L121.939 51.1282L121.232 51.8353L87.2905 17.8942Z" fill="#F5F5F5" mask="url(#path-7-outside-4_295_1499)"/>
<circle cx="166.499" cy="153.036" r="31.7117" fill="#F5F5F5"/>
</svg>
