<svg width="73" height="71" viewBox="0 0 73 71" fill="none" xmlns="http://www.w3.org/2000/svg">
<path d="M39.9249 41.1141C38.8694 42.2472 37.3744 42.902 35.8235 42.902C34.2725 42.902 32.7775 42.2515 31.722 41.1141L14.6829 22.804C13.6144 21.658 11.6973 22.412 11.6973 23.9759V47.3955C11.6973 49.2998 13.2396 50.8421 15.1439 50.8421H56.5031C58.4073 50.8421 59.9497 49.2998 59.9497 47.3955V23.9759C59.9497 22.412 58.0325 21.658 56.964 22.804L39.9249 41.1141Z" fill="white"/>
<path d="M35.827 38.5883C36.0381 38.5883 36.4431 38.5366 36.7748 38.1747L54.2965 19.3434C55.3477 18.2146 54.5464 16.375 53.004 16.375H18.65C17.1077 16.375 16.3063 18.2146 17.3576 19.3434L34.8792 38.1747C35.2153 38.5323 35.6159 38.5883 35.827 38.5883Z" fill="white"/>
</svg>
