<svg width="127" height="123" viewBox="0 0 127 123" fill="none" xmlns="http://www.w3.org/2000/svg">
<path d="M69.0888 71.1456C67.2623 73.1064 64.6753 74.2395 61.9914 74.2395C59.3076 74.2395 56.7206 73.1138 54.8941 71.1456L25.4087 39.4609C23.5598 37.4778 20.2422 38.7825 20.2422 41.4888V82.0153C20.2422 85.3106 22.9112 87.9795 26.2064 87.9795H97.7765C101.072 87.9795 103.741 85.3106 103.741 82.0153V41.4888C103.741 38.7825 100.423 37.4778 98.5742 39.4609L69.0888 71.1456Z" fill="url(#paint0_linear_440_2842)"/>
<path d="M61.9983 66.775C62.3636 66.775 63.0644 66.6856 63.6385 66.0593L93.9589 33.4726C95.7779 31.5193 94.3913 28.3359 91.7223 28.3359H32.2744C29.6054 28.3359 28.2187 31.5193 30.0378 33.4726L60.3582 66.0593C60.9397 66.6781 61.633 66.775 61.9983 66.775Z" fill="url(#paint1_linear_440_2842)"/>
<defs>
<linearGradient id="paint0_linear_440_2842" x1="106.245" y1="127.998" x2="80.8313" y2="36.3711" gradientUnits="userSpaceOnUse">
<stop stop-color="#2B0176"/>
<stop offset="0.58" stop-color="#420468"/>
<stop offset="0.755" stop-color="#5854BF"/>
<stop offset="0.92" stop-color="#2EBE95"/>
<stop offset="0.98" stop-color="#89E3C9"/>
</linearGradient>
<linearGradient id="paint1_linear_440_2842" x1="96.75" y1="97.8668" x2="77.1864" y2="26.571" gradientUnits="userSpaceOnUse">
<stop stop-color="#2B0176"/>
<stop offset="0.58" stop-color="#420468"/>
<stop offset="0.755" stop-color="#5854BF"/>
<stop offset="0.92" stop-color="#2EBE95"/>
<stop offset="0.98" stop-color="#89E3C9"/>
</linearGradient>
</defs>
</svg>
