<svg width="161" height="160" viewBox="0 0 161 160" fill="none" xmlns="http://www.w3.org/2000/svg">
<path fill-rule="evenodd" clip-rule="evenodd" d="M160.698 80C160.698 124.184 124.882 160 80.6982 160C36.5142 160 0.698242 124.184 0.698242 80C0.698242 35.816 36.5142 0 80.6982 0C124.882 0 160.698 35.816 160.698 80ZM104.698 56C104.698 62.3652 102.17 68.4697 97.6688 72.9706C93.1679 77.4714 87.0634 80 80.6982 80C74.333 80 68.2286 77.4714 63.7277 72.9706C59.2268 68.4697 56.6982 62.3652 56.6982 56C56.6982 49.6348 59.2268 43.5303 63.7277 39.0294C68.2286 34.5286 74.333 32 80.6982 32C87.0634 32 93.1679 34.5286 97.6688 39.0294C102.17 43.5303 104.698 49.6348 104.698 56ZM80.6982 148C94.4284 148.022 107.841 143.868 119.154 136.088C123.986 132.768 126.05 126.448 123.234 121.304C117.418 110.64 105.418 104 80.6982 104C55.9782 104 43.9782 110.64 38.1542 121.304C35.3462 126.448 37.4102 132.768 42.2422 136.088C53.5559 143.868 66.968 148.022 80.6982 148Z" fill="#363636"/>
</svg>
