
<svg width="125" height="139" viewBox="0 0 125 139" fill="none" xmlns="http://www.w3.org/2000/svg">
<path fill-rule="evenodd" clip-rule="evenodd" d="M0.937012 63.5129V126.354L14.1077 132.531C21.352 135.929 28.1421 138.7 29.1968 138.69C30.2524 138.679 38.1876 135.927 46.8315 132.574L62.5469 126.478L75.7275 132.58C82.9758 135.937 90.0253 138.644 91.3921 138.596C92.7589 138.548 100.587 135.733 108.787 132.34L123.697 126.171L123.954 63.4209C124.198 3.3869 124.132 0.670898 122.406 0.670898C121.414 0.670898 113.922 3.3799 105.757 6.6909L90.91 12.7099L77.7781 6.6909C70.5546 3.3799 63.7466 0.670898 62.6473 0.670898C61.5479 0.670898 53.4835 3.3619 44.7252 6.6519L28.8002 12.6319L16.2219 6.6519C9.3046 3.3619 3.03537 0.670898 2.29086 0.670898C1.16265 0.670898 0.937012 11.1569 0.937012 63.5129Z" fill="#0000FF"/>
<path fill-rule="evenodd" clip-rule="evenodd" d="M0.937012 63.4899V126.309L14.1077 132.502C21.352 135.908 28.1421 138.69 29.1968 138.683C30.2524 138.676 38.2075 135.92 46.8743 132.558L62.6324 126.444L75.8189 132.558C83.0712 135.92 90.1019 138.638 91.4418 138.597C92.7807 138.557 100.587 135.726 108.787 132.306L123.697 126.089L123.954 63.3799C124.173 9.6849 124.006 0.670898 122.795 0.670898C122.017 0.670898 114.51 3.3739 106.112 6.6769L90.8454 12.6819L77.6519 6.6769C70.3956 3.3739 63.6711 0.670898 62.7079 0.670898C61.7457 0.670898 53.7588 3.3639 44.9588 6.6559L28.9592 12.6409L16.1901 6.6649C9.16743 3.3779 2.86341 0.684898 2.17953 0.679898C1.19844 0.672898 0.937012 13.8969 0.937012 63.4899Z" fill="#0080FF"/>
<path fill-rule="evenodd" clip-rule="evenodd" d="M0.937012 63.4899V126.309L14.1077 132.502C21.352 135.908 28.0745 138.69 29.0467 138.683C30.0198 138.676 37.957 135.911 46.6854 132.539L62.5558 126.406L75.9342 132.539C83.2919 135.911 90.1208 138.671 91.1098 138.671C92.0978 138.671 99.8352 135.816 108.302 132.326L123.697 125.982L123.954 63.3259C124.173 9.6779 124.006 0.670898 122.795 0.670898C122.017 0.670898 114.492 3.3799 106.074 6.6919L90.7679 12.7129L77.6032 6.6919C70.3628 3.3799 63.6552 0.670898 62.699 0.670898C61.7417 0.670898 53.7548 3.3659 44.9499 6.6589L28.9413 12.6469L15.9834 6.6589C8.85631 3.3659 2.55526 0.670898 1.98172 0.670898C1.26305 0.670898 0.937012 20.2619 0.937012 63.4899Z" fill="#2563EB"/>
<path fill-rule="evenodd" clip-rule="evenodd" d="M1.02129 31.9209L1.10082 63.1709L12.0697 68.6709C18.1024 71.6959 24.3279 74.9519 25.9054 75.9059L28.7741 77.6419V108.156C28.7741 128.415 29.118 138.671 29.7969 138.671C30.3605 138.671 37.9647 135.911 46.6952 132.537L62.5705 126.402V96.5369C62.5705 77.0129 62.9194 66.6709 63.5784 66.6709C64.1331 66.6709 70.3954 69.5989 77.4946 73.1779L90.4028 79.6849V109.178C90.4028 132.116 90.6792 138.667 91.6454 138.652C92.3292 138.642 99.8211 135.793 108.295 132.321L123.702 126.008L123.959 63.3389C124.177 9.6789 124.01 0.670898 122.8 0.670898C122.021 0.670898 114.499 3.3799 106.083 6.6899L90.7826 12.7089L77.6059 6.7279C67.2334 2.0199 63.7564 0.868898 61.2634 1.3219C59.5219 1.6379 51.5131 4.3229 43.4666 7.2879L28.8357 12.6789L15.9404 6.6749C8.84815 3.3729 2.57295 0.670898 1.99344 0.670898C1.27477 0.670898 0.966624 10.5539 1.02129 31.9209Z" fill="#2A55FF"/>
<path fill-rule="evenodd" clip-rule="evenodd" d="M1.02129 31.9209L1.10082 63.1709L12.0697 68.6709C18.1024 71.6959 24.3279 74.9519 25.9054 75.9059L28.7741 77.6419V108.156C28.7741 128.415 29.118 138.671 29.7969 138.671C30.3605 138.671 37.9647 135.911 46.6952 132.537L62.5705 126.402V96.5369C62.5705 77.0129 62.9194 66.6709 63.5784 66.6709C64.1331 66.6709 70.3954 69.5989 77.4946 73.1779L90.4028 79.6849V109.178C90.4028 132.116 90.6792 138.667 91.6454 138.652C92.3292 138.642 99.8211 135.793 108.295 132.321L123.702 126.008L123.959 63.3389C124.177 9.6789 124.01 0.670898 122.8 0.670898C122.021 0.670898 114.499 3.3799 106.083 6.6899L90.7826 12.7089L77.6059 6.7279C67.2334 2.0199 63.7564 0.868898 61.2634 1.3219C59.5219 1.6379 51.5131 4.3229 43.4666 7.2879L28.8357 12.6789L15.9404 6.6749C8.84815 3.3729 2.57295 0.670898 1.99344 0.670898C1.27477 0.670898 0.966624 10.5539 1.02129 31.9209Z" fill="#0055AA"/>
<path fill-rule="evenodd" clip-rule="evenodd" d="M1.02129 31.9209L1.10082 63.1709L12.0697 68.6709C18.1024 71.6959 24.3279 74.9519 25.9054 75.9059L28.7741 77.6419V108.156C28.7741 128.415 29.118 138.671 29.7969 138.671C30.3606 138.671 37.9647 135.911 46.6952 132.537L62.5705 126.402V96.5369C62.5705 77.0129 62.9194 66.6709 63.5784 66.6709C64.1331 66.6709 70.3954 69.5989 77.4946 73.1779L90.4029 79.6849V109.178C90.4029 132.116 90.6792 138.667 91.6454 138.652C92.3292 138.642 99.8211 135.793 108.295 132.321L123.702 126.008L123.959 63.3389C124.183 8.3029 124.033 0.670898 122.729 0.670898C121.913 0.670898 114.454 3.3979 106.155 6.7319L91.0649 12.7929L77.5632 6.7689C61.9065 -0.217102 62.9721 -0.214101 45.1753 6.6719C27.8735 13.3659 30.3218 13.3699 15.8311 6.6239C8.79944 3.3499 2.57295 0.670898 1.99344 0.670898C1.27477 0.670898 0.966624 10.5539 1.02129 31.9209Z" fill="#1E4FB9"/>
<path fill-rule="evenodd" clip-rule="evenodd" d="M105.559 6.89852L90.3999 13.0215V46.9125V80.8045L92.6364 80.0955C93.866 79.7055 101.359 77.0375 109.286 74.1665L123.699 68.9475L123.961 34.8085C124.206 2.74852 124.116 0.672521 122.47 0.722521C121.505 0.751521 113.895 3.53152 105.559 6.89852ZM44.6902 6.77752C37.8653 9.46752 31.7144 11.6695 31.0226 11.6695C30.0335 11.6695 29.7651 18.7345 29.7651 44.7365V77.8045L32.0017 77.0955C33.2313 76.7065 40.7241 74.0225 48.6514 71.1325L63.0645 65.8765L63.3429 36.0225C63.4959 19.6035 63.3757 5.15752 63.0755 3.91952C62.2743 0.617521 59.0378 1.12152 44.6902 6.77752Z" fill="#1A439C"/>
</svg>
