<svg width="689" height="688" viewBox="0 0 689 688" fill="none" xmlns="http://www.w3.org/2000/svg">
<g filter="url(#filter0_d_251_8189)">
<g opacity="0.5">
<mask id="mask0_251_8189" style="mask-type:alpha" maskUnits="userSpaceOnUse" x="154" y="154" width="381" height="380">
<path d="M534.699 344C534.699 448.935 449.633 534 344.699 534C239.765 534 154.699 448.935 154.699 344C154.699 239.066 239.765 154 344.699 154C449.633 154 534.699 239.066 534.699 344ZM224.997 344C224.997 410.11 278.59 463.703 344.699 463.703C410.809 463.703 464.401 410.11 464.401 344C464.401 277.891 410.809 224.298 344.699 224.298C278.59 224.298 224.997 277.891 224.997 344Z" fill="#D9D9D9"/>
</mask>
<g mask="url(#mask0_251_8189)">
<mask id="path-2-inside-1_251_8189" fill="white">
<path d="M435.196 386.548C427.442 403.042 415.327 417.102 400.162 427.211L344.699 344L435.196 386.548Z"/>
</mask>
<path d="M435.196 386.548C427.442 403.042 415.327 417.102 400.162 427.211L344.699 344L435.196 386.548Z" stroke="white" stroke-width="4" mask="url(#path-2-inside-1_251_8189)"/>
</g>
</g>
<g opacity="0.5">
<mask id="mask1_251_8189" style="mask-type:alpha" maskUnits="userSpaceOnUse" x="154" y="153" width="381" height="382">
<path d="M194.054 228.215C258 145.016 377.285 129.409 460.484 193.355C543.683 257.301 559.29 376.586 495.344 459.785C431.398 542.984 312.114 558.591 228.915 494.645C145.716 430.699 130.108 311.414 194.054 228.215ZM439.607 416.946C479.894 364.529 470.061 289.379 417.645 249.092C365.229 208.805 290.078 218.638 249.791 271.054C209.504 323.471 219.337 398.621 271.754 438.908C324.17 479.195 399.321 469.362 439.607 416.946Z" fill="#D9D9D9"/>
</mask>
<g mask="url(#mask1_251_8189)">
<mask id="path-4-inside-2_251_8189" fill="white">
<path d="M298.22 255.458C308.139 250.251 318.862 246.748 329.942 245.095L344.699 344L298.22 255.458Z"/>
</mask>
<path d="M298.22 255.458C308.139 250.251 318.862 246.748 329.942 245.095L344.699 344L298.22 255.458Z" stroke="white" stroke-width="4" mask="url(#path-4-inside-2_251_8189)"/>
</g>
</g>
<mask id="mask2_251_8189" style="mask-type:alpha" maskUnits="userSpaceOnUse" x="154" y="153" width="381" height="382">
<path d="M489.553 466.954C421.648 546.954 301.746 556.759 221.746 488.854C141.746 420.949 131.941 301.048 199.846 221.047C267.751 141.047 387.652 131.242 467.652 199.147C547.653 267.052 557.458 386.953 489.553 466.954ZM253.44 266.539C210.659 316.94 216.836 392.479 267.237 435.26C317.638 478.041 393.178 471.864 435.959 421.462C478.74 371.061 472.562 295.522 422.161 252.741C371.76 209.96 296.221 216.137 253.44 266.539Z" fill="#D9D9D9"/>
</mask>
<g mask="url(#mask2_251_8189)">
<g opacity="0.5">
<mask id="path-6-inside-3_251_8189" fill="white">
<path d="M411.035 489.601C397.332 495.844 382.817 500.121 367.918 502.307L344.699 344L411.035 489.601Z"/>
</mask>
<path d="M411.035 489.601C397.332 495.844 382.817 500.121 367.918 502.307L344.699 344L411.035 489.601Z" stroke="white" stroke-width="2" mask="url(#path-6-inside-3_251_8189)"/>
</g>
</g>
<mask id="mask3_251_8189" style="mask-type:alpha" maskUnits="userSpaceOnUse" x="154" y="153" width="381" height="382">
<path d="M258.352 513.246C164.88 465.558 127.766 351.124 175.454 257.653C223.143 164.181 337.576 127.066 431.047 174.755C524.519 222.443 561.634 336.876 513.945 430.348C466.257 523.82 351.824 560.935 258.352 513.246ZM399.1 237.374C340.211 207.329 268.117 230.712 238.073 289.6C208.029 348.489 231.411 420.583 290.3 450.627C349.188 480.671 421.282 457.289 451.326 398.401C481.371 339.512 457.988 267.418 399.1 237.374Z" fill="#D9D9D9"/>
</mask>
<g mask="url(#mask3_251_8189)">
<g opacity="0.5">
<mask id="path-8-inside-4_251_8189" fill="white">
<path d="M214.612 437.151C198.479 414.621 188.474 388.288 185.577 360.729L344.7 344.001L214.612 437.151Z"/>
</mask>
<path d="M214.612 437.151C198.479 414.621 188.474 388.288 185.577 360.729L344.7 344.001L214.612 437.151Z" stroke="white" stroke-width="2" mask="url(#path-8-inside-4_251_8189)"/>
</g>
</g>
<g opacity="0.5">
<mask id="mask4_251_8189" style="mask-type:alpha" maskUnits="userSpaceOnUse" x="154" y="153" width="381" height="382">
<path d="M168.459 414.989C129.253 317.654 176.376 206.966 273.711 167.76C371.046 128.555 481.734 175.678 520.94 273.013C560.145 370.347 513.022 481.035 415.687 520.241C318.352 559.447 207.664 512.324 168.459 414.989ZM455.733 299.277C431.033 237.955 361.298 208.267 299.976 232.967C238.654 257.667 208.966 327.402 233.666 388.724C258.366 450.046 328.1 479.734 389.423 455.034C450.745 430.334 480.433 360.599 455.733 299.277Z" fill="#D9D9D9"/>
</mask>
<g mask="url(#mask4_251_8189)">
<mask id="path-10-inside-5_251_8189" fill="white">
<path d="M244.699 343.729C244.738 329.474 247.824 315.392 253.751 302.426L344.699 344.001L244.699 343.729Z"/>
</mask>
<path d="M244.699 343.729C244.738 329.474 247.824 315.392 253.751 302.426L344.699 344.001L244.699 343.729Z" stroke="white" stroke-width="4" mask="url(#path-10-inside-5_251_8189)"/>
</g>
</g>
<mask id="mask5_251_8189" style="mask-type:alpha" maskUnits="userSpaceOnUse" x="154" y="153" width="381" height="382">
<path d="M267.203 170.523C363.012 127.723 475.376 170.695 518.176 266.504C560.976 362.313 518.004 474.678 422.195 517.477C326.386 560.277 214.022 517.305 171.222 421.496C128.422 325.688 171.394 213.323 267.203 170.523ZM393.522 453.293C453.883 426.328 480.956 355.537 453.992 295.177C427.027 234.816 356.236 207.743 295.875 234.708C235.515 261.672 208.442 332.463 235.406 392.824C262.371 453.184 333.162 480.257 393.522 453.293Z" fill="#D9D9D9"/>
</mask>
<g mask="url(#mask5_251_8189)">
<g opacity="0.5">
<mask id="path-12-inside-6_251_8189" fill="white">
<path d="M347.797 184.031C358.139 184.231 368.436 185.434 378.545 187.621L344.699 344.001L347.797 184.031Z"/>
</mask>
<path d="M347.797 184.031C358.139 184.231 368.436 185.434 378.545 187.621L344.699 344.001L347.797 184.031Z" stroke="white" stroke-width="2" mask="url(#path-12-inside-6_251_8189)"/>
</g>
</g>
<g opacity="0.5">
<mask id="mask6_251_8189" style="mask-type:alpha" maskUnits="userSpaceOnUse" x="154" y="153" width="381" height="382">
<path d="M424.604 171.619C519.807 215.749 561.211 328.701 517.081 423.905C472.951 519.108 359.999 560.512 264.795 516.382C169.592 472.252 128.188 359.3 172.318 264.096C216.448 168.893 329.4 127.489 424.604 171.619ZM294.359 452.603C354.338 480.405 425.499 454.32 453.302 394.341C481.104 334.362 455.02 263.201 395.04 235.398C335.061 207.596 263.9 233.681 236.097 293.66C208.295 353.639 234.38 424.8 294.359 452.603Z" fill="#D9D9D9"/>
</mask>
<g mask="url(#mask6_251_8189)">
<mask id="path-14-inside-7_251_8189" fill="white">
<path d="M421.36 279.789C428.726 288.582 434.523 298.577 438.5 309.336L344.7 344.001L421.36 279.789Z"/>
</mask>
<path d="M421.36 279.789C428.726 288.582 434.523 298.577 438.5 309.336L344.7 344.001L421.36 279.789Z" stroke="white" stroke-width="4" mask="url(#path-14-inside-7_251_8189)"/>
</g>
</g>
<circle cx="344.699" cy="344" r="119.5" stroke="white"/>
<circle opacity="0.15" cx="344.699" cy="344" r="131.5" stroke="white"/>
<circle opacity="0.1" cx="344.699" cy="344" r="144.5" stroke="white"/>
<circle opacity="0.08" cx="344.699" cy="344" r="159.5" stroke="white"/>
<circle opacity="0.4" cx="344.699" cy="344" r="144" stroke="white" stroke-width="2" stroke-dasharray="1 300"/>
<circle opacity="0.4" cx="344.699" cy="344" r="131" stroke="white" stroke-width="2" stroke-dasharray="1 300"/>
<circle cx="344.699" cy="344" r="159" stroke="#1F7F63" stroke-width="2" stroke-dasharray="1 300"/>
</g>
<defs>
<filter id="filter0_d_251_8189" x="0.892578" y="0.193848" width="687.613" height="687.613" filterUnits="userSpaceOnUse" color-interpolation-filters="sRGB">
<feFlood flood-opacity="0" result="BackgroundImageFix"/>
<feColorMatrix in="SourceAlpha" type="matrix" values="0 0 0 0 0 0 0 0 0 0 0 0 0 0 0 0 0 0 127 0" result="hardAlpha"/>
<feOffset/>
<feGaussianBlur stdDeviation="38"/>
<feColorMatrix type="matrix" values="0 0 0 0 1 0 0 0 0 1 0 0 0 0 1 0 0 0 0.3 0"/>
<feBlend mode="normal" in2="BackgroundImageFix" result="effect1_dropShadow_251_8189"/>
<feBlend mode="normal" in="SourceGraphic" in2="effect1_dropShadow_251_8189" result="shape"/>
</filter>
</defs>
</svg>
