<svg width="276" height="276" viewBox="0 0 276 276" fill="none" xmlns="http://www.w3.org/2000/svg">
<g filter="url(#filter0_d_251_8209)">
<path d="M235.699 138C235.699 122.269 231.912 106.768 224.657 92.8089C217.403 78.8497 206.894 66.8421 194.02 57.801C181.146 48.7599 166.284 42.9511 150.691 40.8655C135.098 38.7799 119.232 40.4789 104.435 45.8188C89.6369 51.1587 76.3422 59.9825 65.6741 71.5446C55.0061 83.1067 47.2783 97.0671 43.144 112.246C39.0096 127.425 38.5902 143.376 41.9212 158.751C45.2522 174.126 52.2357 188.473 62.2814 200.58L64.544 198.702C54.7996 186.959 48.0256 173.042 44.7945 158.128C41.5635 143.214 41.9703 127.742 45.9806 113.018C49.9909 98.2951 57.4869 84.7535 67.8349 73.5383C78.1829 62.3231 91.0788 53.7639 105.433 48.5842C119.786 43.4045 135.176 41.7565 150.301 43.7795C165.427 45.8025 179.842 51.4371 192.33 60.207C204.819 68.9768 215.012 80.6242 222.049 94.1647C229.086 107.705 232.759 122.741 232.759 138H235.699Z" fill="#62D9B7"/>
<path d="M218.992 101.774C224.808 114.824 227.396 129.082 226.538 143.343C225.681 157.604 221.402 171.45 214.065 183.709C206.727 195.967 196.547 206.28 184.383 213.774C172.219 221.268 158.43 225.724 144.181 226.764C129.932 227.805 115.642 225.4 102.518 219.752C89.3947 214.105 77.8237 205.381 68.7832 194.318C59.7427 183.255 53.4984 170.178 50.578 156.193C47.6576 142.207 48.147 127.724 52.0049 113.968L54.5757 114.689C50.8336 128.033 50.3589 142.081 53.1916 155.647C56.0244 169.213 62.0814 181.897 70.8507 192.628C79.62 203.359 90.8438 211.821 103.574 217.299C116.303 222.778 130.165 225.111 143.986 224.101C157.808 223.092 171.183 218.77 182.982 211.501C194.781 204.231 204.657 194.228 211.774 182.337C218.891 170.446 223.041 157.016 223.873 143.183C224.705 129.35 222.194 115.519 216.554 102.861L218.992 101.774Z" fill="#62D9B7"/>
<path d="M153.178 59.2232C140.532 56.7385 127.473 57.3348 115.106 60.9617C102.74 64.5885 91.4275 71.1393 82.1265 80.0604C72.8254 88.9814 65.8088 100.011 61.6696 112.216C57.5304 124.42 56.3902 137.443 58.3456 150.181C60.3009 162.92 65.2942 175 72.9035 185.402C80.5128 195.804 90.5143 204.22 102.063 209.941C113.611 215.662 126.367 218.518 139.253 218.269C152.138 218.02 164.774 214.672 176.093 208.509L174.941 206.393C163.962 212.372 151.705 215.619 139.206 215.861C126.707 216.103 114.334 213.332 103.132 207.783C91.9299 202.234 82.2284 194.069 74.8474 183.98C67.4664 173.89 62.6229 162.172 60.7262 149.816C58.8295 137.459 59.9354 124.828 63.9505 112.989C67.9655 101.15 74.7717 90.452 83.7937 81.7986C92.8157 73.1452 103.788 66.7909 115.784 63.2729C127.78 59.7548 140.447 59.1764 152.713 61.5865L153.178 59.2232Z" fill="#62D9B7"/>
</g>
<defs>
<filter id="filter0_d_251_8209" x="0.178711" y="0.480469" width="275.04" height="275.04" filterUnits="userSpaceOnUse" color-interpolation-filters="sRGB">
<feFlood flood-opacity="0" result="BackgroundImageFix"/>
<feColorMatrix in="SourceAlpha" type="matrix" values="0 0 0 0 0 0 0 0 0 0 0 0 0 0 0 0 0 0 127 0" result="hardAlpha"/>
<feOffset/>
<feGaussianBlur stdDeviation="10"/>
<feComposite in2="hardAlpha" operator="out"/>
<feColorMatrix type="matrix" values="0 0 0 0 0.121569 0 0 0 0 0.498039 0 0 0 0 0.388235 0 0 0 1 0"/>
<feBlend mode="normal" in2="BackgroundImageFix" result="effect1_dropShadow_251_8209"/>
<feBlend mode="normal" in="SourceGraphic" in2="effect1_dropShadow_251_8209" result="shape"/>
</filter>
</defs>
</svg>
